<svg width="680" height="93" viewBox="0 0 680 93" fill="none" xmlns="http://www.w3.org/2000/svg">
<rect x="1.5" y="39.2002" width="677" height="15" rx="7.5" fill="#361E1E"/>
<rect x="1.5" y="39.2002" width="677" height="15" rx="7.5" stroke="url(#paint0_linear_488_9622)" stroke-width="3"/>
<rect x="38.7392" y="0.7392" width="90.9216" height="90.9216" rx="45.4608" fill="black"/>
<rect x="38.7392" y="0.7392" width="90.9216" height="90.9216" rx="45.4608" stroke="#FBB752" stroke-width="1.4784"/>
<path d="M94.7994 16.7173C95.6851 16.2593 96.5609 15.7711 97.467 15.3471C98.494 14.8665 99.5473 14.481 100.715 14.444C101.262 14.4266 101.43 14.6484 101.505 15.1039C101.747 16.5649 101.531 17.9654 100.958 19.3185C100.696 19.9361 100.419 20.547 100.091 21.2917C101.437 21.035 102.65 20.849 103.88 20.8303C104.982 20.8135 105.048 20.9096 104.888 21.9919C104.713 23.1776 104.555 24.3655 104.157 25.6106C104.957 25.5044 105.611 25.3135 106.289 25.3138C106.772 25.3142 106.988 25.5268 106.941 26.0089C106.602 29.5037 105.269 32.5641 102.934 35.1882C102.71 35.4397 102.429 35.6031 102.14 35.756C101.852 35.9081 101.559 36.0497 101.253 36.2039C101.293 36.4067 101.349 36.5948 101.367 36.7863C101.436 37.5447 100.278 37.7576 100.57 38.6598C100.824 39.4478 100.292 39.9966 99.7822 40.4993C99.5286 40.7492 99.4537 41.0319 99.42 41.3742C99.0465 45.188 98.3885 48.9557 97.6237 52.7099C96.8775 56.3727 95.8555 59.9568 94.5324 63.4415C93.2102 66.9244 91.8834 70.4225 90.0568 73.6808C88.4321 76.5791 86.8594 79.5162 84.8859 82.2068C84.3469 82.9416 83.8559 82.9725 83.3597 82.2334C80.1803 77.4966 77.3744 72.5743 75.2113 67.2636C73.667 63.4724 72.3075 59.6371 71.2705 55.6911C70.3744 52.2813 69.7488 48.8067 69.2955 45.3074C69.1143 43.9093 68.7843 42.5293 68.7769 41.1093C68.7751 40.7379 68.4652 40.5494 68.2492 40.312C67.7714 39.7862 67.3868 39.2263 67.7133 38.4823C67.8628 38.1416 67.5835 38.0424 67.4496 37.8546C67.1051 37.3722 66.571 36.9476 67.046 36.195C65.0885 35.5862 64.2142 33.9808 63.2989 32.4016C62.1954 30.4973 61.5252 28.4611 61.307 26.2711C61.2235 25.4338 61.3502 25.2655 62.197 25.3334C62.7696 25.3793 63.3371 25.4888 64.0214 25.5861C63.6923 24.3603 63.4995 23.159 63.3243 21.954C63.1753 20.9288 63.2515 20.8178 64.3044 20.8316C65.5379 20.8475 66.7533 21.031 68.0458 21.2751C67.9558 20.7285 67.716 20.3243 67.5169 19.9077C66.8056 18.4194 66.4526 16.8727 66.6933 15.2146C66.7747 14.6536 66.9702 14.4094 67.6206 14.4517C69.5592 14.5768 71.1588 15.537 72.8034 16.4049C73.0001 16.5086 73.1867 16.631 73.4645 16.7962C73.5859 15.9975 73.7034 15.2672 73.8062 14.5352C73.9013 13.8582 74.054 13.1949 74.3052 12.5608C74.7093 11.5412 75.1275 11.4209 76.1143 11.8933C77.7284 12.6657 79.0701 13.7786 80.2947 15.1348C80.6281 14.5945 80.8821 14.0582 81.0726 13.4926C81.496 12.2371 82.2908 11.2463 83.2584 10.3716C83.8164 9.86718 84.3606 9.83751 84.933 10.3484C85.9064 11.2172 86.6911 12.212 87.1408 13.4565C87.343 14.0163 87.6095 14.5529 87.8848 15.1883C89.1176 13.7771 90.4756 12.6932 92.0728 11.9107C93.0936 11.4105 93.5155 11.5369 93.9294 12.5975C94.3932 13.7851 94.4651 15.0537 94.6774 16.2933C94.7028 16.4322 94.6514 16.5949 94.7994 16.7173Z" fill="#008080"/>
<path d="M75.9723 40.1414C76.2021 40.2387 76.3703 40.1674 76.5373 40.1215C79.1817 39.3925 81.3302 40.3133 83.2073 42.129C83.3838 42.2993 83.5939 42.4593 83.5511 42.7616C83.2966 44.5567 82.9589 46.3362 82.8062 48.1503C82.6373 50.1556 82.2785 52.1444 82.0243 54.1429C81.8762 55.3051 81.8955 55.3075 80.7492 55.5425C80.1157 55.6725 79.7189 56.2926 79.8749 56.9962C80.0061 57.5882 80.3228 57.9675 81.0105 57.6848C81.2965 57.5671 81.4987 57.7203 81.682 57.9011C83.0415 59.2429 85.2012 59.2126 86.5161 57.9176C86.7479 57.6891 86.9838 57.5882 87.3283 57.7209C87.9022 57.9427 88.1845 57.5686 88.3262 57.0969C88.5834 56.2391 88.0432 55.537 87.1218 55.5324C86.7076 55.5303 86.3579 55.5339 86.3301 54.9885C86.3172 54.7392 86.2309 54.4944 86.2107 54.2448C86.0036 51.6699 85.2327 49.1531 85.416 46.5381C84.7968 45.3857 85.048 44.0642 84.6974 42.8604C84.6322 42.6362 84.6836 42.4658 84.8366 42.3116C86.1477 40.9885 87.6339 40.0203 89.5624 39.8777C90.4752 39.8101 91.3404 40.1084 92.2364 40.1977C92.8978 38.6987 92.7659 37.1951 92.6188 35.6879C92.5824 35.314 92.3248 34.7793 92.8565 34.6508C93.3824 34.5239 93.438 35.1124 93.5561 35.4667C93.9722 36.717 94.1579 38.0171 94.2484 39.3249C94.365 41.0081 94.502 41.1414 96.2106 40.9187C96.6636 40.8597 97.0833 40.6948 97.5083 40.5299C97.872 40.3889 98.0014 40.191 97.998 39.8037C97.9867 38.4937 97.9931 37.1832 98.0283 35.8739C98.0412 35.3966 97.8634 35.073 97.5144 34.771C92.6674 30.5778 87.0945 28.977 80.7575 30.0058C76.9494 30.624 73.5883 32.1475 70.7243 34.7508C70.3627 35.0794 70.1737 35.4211 70.1905 35.9219C70.2241 36.9284 70.196 37.937 70.215 38.9444C70.2431 40.436 70.5438 40.7584 72.0575 40.9197C72.4316 40.9594 72.8125 40.9365 73.1906 40.938C73.7471 40.9402 73.9728 40.7092 73.9612 40.1075C73.9322 38.5617 74.1943 37.044 74.6327 35.5646C74.7493 35.1709 74.808 34.4862 75.4064 34.667C75.9108 34.8194 75.6043 35.4024 75.5771 35.8087C75.4783 37.2848 75.3045 38.7694 75.9723 40.1414Z" fill="#74B58D"/>
<path d="M84.178 71.0966C86.857 70.8931 89.2147 69.9953 91.0355 67.8416C92.2451 66.4108 92.3567 64.9051 91.6776 63.2694C91.1266 61.942 89.7708 61.4813 88.4826 62.1329C88.303 62.2237 88.1323 62.3317 87.957 62.4305C85.652 63.7282 83.2961 63.9207 80.8827 62.7456C80.4758 62.5474 80.0904 62.3054 79.6841 62.1057C78.5018 61.5247 77.2319 61.8808 76.661 63.0598C75.9415 64.5469 75.8204 66.037 76.903 67.4696C78.7245 69.8796 81.2085 70.9237 84.178 71.0966Z" fill="#A31334"/>
<path d="M72.5938 56.1392C72.703 57.2218 74.7713 63.4399 75.4666 64.8085C75.6168 64.2759 75.7416 63.7978 75.8876 63.3258C76.0947 62.6561 76.47 62.1042 77.0614 61.709C78.137 60.9901 79.2043 61.1397 80.2662 61.7353C81.532 62.4456 82.8273 62.9528 84.3394 62.9054C85.7139 62.8623 86.8712 62.3282 88.0224 61.6968C89.8998 60.667 91.7699 61.423 92.3854 63.4686C92.5132 63.8932 92.6178 64.3249 92.7723 64.8988C93.8534 61.928 94.944 59.1316 95.6932 56.1805C94.6409 56.2884 93.9584 56.5687 93.7831 57.6938C93.6335 58.6544 93.0633 59.5104 92.5655 60.3587C92.4673 60.5257 92.3835 60.734 92.0164 60.6435C92.1333 60.0543 92.2832 59.4633 92.3603 58.8627C92.4426 58.22 92.4689 57.5681 92.3679 56.9156C91.8307 56.956 91.3324 57.0092 90.8325 57.0272C90.3125 57.0462 89.7909 57.0315 89.2528 57.0315C89.0227 58.1285 88.3696 58.6471 87.2591 58.5287C86.9923 58.5002 86.8531 58.666 86.6867 58.8251C85.471 59.9851 82.7545 59.9836 81.5363 58.8266C81.3916 58.6893 81.2778 58.5011 81.0413 58.5302C79.8657 58.6752 79.1957 58.109 78.933 56.9712C77.8944 57.0554 76.8916 57.082 75.8447 56.8718C75.7117 58.1848 75.8603 59.4268 76.2611 60.6193C75.8811 60.7365 75.7832 60.5743 75.6967 60.4244C75.0916 59.3758 74.5134 58.3109 74.2558 57.1156C74.1705 56.7198 74.0092 56.4882 73.6011 56.4139C73.2818 56.3551 72.9728 56.2447 72.5938 56.1392Z" fill="#479362"/>
<path d="M97.6535 30.0981C97.7532 29.7996 97.6633 29.5591 97.6015 29.3174C96.933 26.6988 95.6072 24.6834 92.9781 23.5607C89.6023 22.1192 86.1446 21.2651 82.4806 21.6432C79.9247 21.9069 77.4308 22.4695 75.0786 23.632C73.9581 24.1857 72.9862 24.8199 72.2434 25.8043C71.2914 27.0662 70.6532 28.4569 70.5098 30.1342C79.5836 23.6818 88.5885 23.6561 97.6535 30.0981Z" fill="#A31334"/>
<path d="M84.0506 81.3769C85.3379 79.9758 90.8701 70.3256 90.8285 69.0588C86.337 72.5726 81.8424 72.5671 77.2148 68.9199C79.0767 73.4004 81.4965 77.4106 84.0506 81.3769Z" fill="#479362"/>
<path d="M70.3099 32.6455C71.7024 31.4885 73.2981 30.9051 74.7454 30.0629C76.6099 28.9779 78.5984 28.3409 80.7006 27.9998C82.374 27.7282 83.9853 27.3314 85.7651 27.6012C89.8136 28.2149 93.4256 29.8032 96.8806 31.8822C97.2232 32.0884 97.4808 32.4739 97.9479 32.5066C97.9384 31.2309 97.865 31.0254 96.7451 30.237C93.0444 27.6312 89.0445 25.9829 84.4053 25.9227C79.488 25.8587 75.2492 27.54 71.3368 30.3294C70.5919 30.8605 70.1254 31.5029 70.3099 32.6455Z" fill="#C66B3F"/>
<path d="M87.2499 20.6447C87.5983 16.896 86.2343 13.8852 84.1097 11.0396C81.9848 13.9087 80.5981 16.926 80.9789 20.646C83.1017 20.2847 85.1305 20.2905 87.2499 20.6447Z" fill="#FBB752"/>
<path d="M96.6831 24.9202C97.2438 24.4011 97.8287 24.0031 98.0783 23.4117C98.8682 21.5411 99.8759 19.7478 100.251 17.7192C100.38 17.0169 100.531 16.3096 100.331 15.502C97.431 16.4518 94.8414 17.7492 92.979 20.1962C92.6719 20.6001 92.4681 21.0516 92.4611 21.5851C92.4562 21.9592 92.5746 22.1875 92.9285 22.3456C94.3104 22.9642 95.6368 23.6742 96.6831 24.9202Z" fill="#FBB752"/>
<path d="M67.8984 15.5371C67.4738 17.8939 69.696 23.527 71.5805 24.8688C72.5279 23.7326 73.7876 23.0015 75.1328 22.4309C75.7391 22.1737 75.8263 21.7797 75.7314 21.2406C75.6605 20.8359 75.4521 20.4905 75.2209 20.1577C74.5644 19.2133 73.6999 18.4816 72.7699 17.8327C71.2816 16.7938 69.6691 16.0094 67.8984 15.5371Z" fill="#FBB752"/>
<path d="M92.9008 13.1611C91.8274 13.5509 90.9185 14.0581 90.0769 14.7118C88.0988 16.2481 87.5148 18.251 88.0279 20.6714C89.3464 20.7717 90.5131 21.4787 91.8537 21.792C91.8619 20.4863 92.5759 19.6184 93.3658 18.7885C93.5328 18.6129 93.747 18.4798 93.7488 18.1763C93.7604 16.4803 93.5478 14.8262 92.9008 13.1611Z" fill="#FBB752"/>
<path d="M80.2112 20.6582C81.1482 16.5195 78.1646 14.0905 75.2813 13.2446C74.6753 14.8382 74.4554 16.4929 74.4737 18.1892C74.4755 18.3577 74.5407 18.4776 74.6508 18.585C75.5579 19.4728 76.3468 20.4276 76.3967 21.817C77.7308 21.4157 78.9055 20.8002 80.2112 20.6582Z" fill="#FBB752"/>
<path d="M99.21 30.2657C99.6383 29.7053 99.9099 29.2021 100.314 28.8515C101.236 28.0515 101.908 27.0606 102.594 26.0789C103.488 24.7978 103.602 23.3046 103.808 21.7334C102.121 21.8432 100.638 22.1516 99.2504 22.8537C99.1415 22.9087 99.0063 22.9883 98.9653 23.0895C98.5777 24.0538 97.7413 24.6644 97.0723 25.461C98.0273 26.9254 98.9735 28.3785 99.21 30.2657Z" fill="#FBB752"/>
<path d="M71.1481 25.4585C70.6268 24.8898 70.1676 24.3924 69.7124 23.891C69.4432 23.5946 69.4365 23.11 69.0507 22.9038C67.634 22.1467 66.1084 21.8408 64.3965 21.7383C64.6397 23.3407 64.7936 24.8143 65.6446 26.1361C66.5841 27.5957 67.9338 28.7052 69.0342 30.3061C69.2092 28.3654 70.2065 26.9413 71.1481 25.4585Z" fill="#FBB752"/>
<path d="M85.9531 47.875C86.1039 48.9735 86.2578 50.0907 86.4108 51.2079C86.4377 51.404 86.5423 51.5441 86.7357 51.5763C88.0425 51.7935 89.3213 52.1758 90.6872 51.895C92.8335 51.4536 94.7617 50.4893 96.6972 49.5343C96.9046 49.4318 97.1191 49.1996 97.1867 48.9827C97.4954 47.9909 97.745 46.982 97.8242 45.9009C94.2484 49.0619 90.3654 49.9145 85.9531 47.875Z" fill="#A31334"/>
<path d="M70.375 45.7422C70.479 46.9662 70.7228 47.9616 71.018 48.9402C71.0973 49.203 71.3019 49.4936 71.6204 49.5701C72.1989 49.709 72.6529 50.0831 73.1689 50.3383C75.6946 51.5861 78.2796 52.4766 81.1479 51.6565C81.4073 51.5821 81.7462 51.6078 81.7995 51.2533C81.9689 50.1214 82.1149 48.9858 82.3058 47.5881C80.3038 49.2611 78.1471 49.0565 76.0198 48.7903C73.8362 48.5172 71.9939 47.4783 70.375 45.7422Z" fill="#A31334"/>
<path d="M105.923 26.2568C105.683 26.311 105.561 26.333 105.442 26.366C103.642 26.8659 102.211 27.9978 100.843 29.1811C100.086 29.8358 99.4524 30.7156 99.4126 31.76C99.3667 32.9598 99.5224 34.1669 99.5946 35.4429C100.896 35.1514 101.864 34.4413 102.652 33.4544C103.718 32.1182 104.303 30.5195 105.044 29.0076C105.451 28.174 105.724 27.2872 105.923 26.2568Z" fill="#FBB752"/>
<path d="M68.673 35.4511C68.6002 34.4174 68.7428 33.4951 68.826 32.5703C68.9019 31.7241 68.6721 31.0104 68.2512 30.2851C67.3695 28.7668 65.854 28.0219 64.4976 27.0849C63.8655 26.6484 63.1194 26.4556 62.3008 26.2559C62.354 26.5297 62.3754 26.6765 62.4115 26.8197C62.923 28.8445 63.9071 30.6712 64.9008 32.477C65.6934 33.9182 66.8446 35.0326 68.673 35.4511Z" fill="#FBB752"/>
<path d="M70.3187 41.0117C70.0002 43.143 71.1388 44.1474 73.1157 43.5854C73.7679 43.4 74.4112 43.1742 75.0429 42.9264C77.3704 42.013 79.5154 42.374 81.5048 43.828C81.9053 44.1207 82.2681 44.4649 82.734 44.8574C82.8368 44.1486 82.9316 43.5386 83.0099 42.9264C83.0353 42.727 82.8649 42.623 82.7389 42.5C80.7737 40.5843 78.5353 40.0077 75.8833 40.9163C74.0912 41.5302 72.2365 41.9521 70.3187 41.0117Z" fill="#FBB752"/>
<path d="M97.9474 41.0409C97.4252 41.1574 97.0305 41.3844 96.583 41.4612C95.0607 41.7224 93.6217 41.3578 92.216 40.8787C89.5863 39.9827 87.3746 40.6468 85.4424 42.5331C85.3139 42.6586 85.1836 42.7739 85.2133 42.9785C85.2992 43.5705 85.3833 44.1624 85.4662 44.7409C85.7009 44.7682 85.7872 44.6244 85.8924 44.5253C88.1213 42.4276 90.6332 41.8262 93.5091 43.0529C94.0163 43.2692 94.5474 43.4497 95.0843 43.5729C95.82 43.7415 96.5524 43.8229 97.2713 43.3992C98.2254 42.8378 98.014 41.9837 97.9474 41.0409Z" fill="#FBB752"/>
<path d="M97.9789 34.3906C98.1986 33.6185 97.8988 33.2526 97.4206 32.9164C96.0948 31.9837 94.5817 31.3905 93.2039 30.5685C90.4549 28.9288 87.3584 28.6103 84.332 28.0009C84.0943 27.9529 83.8275 27.9963 83.5828 28.0422C82.2466 28.2937 80.91 28.5442 79.5796 28.8245C78.1687 29.1215 76.8217 29.5889 75.5537 30.3014C73.9758 31.1883 72.2678 31.8377 70.7973 32.9237C70.1402 33.4089 70.0787 33.5227 70.2968 34.3398C74.1948 30.6792 78.9784 29.0582 84.1136 29.0594C89.2484 29.06 94.032 30.6814 97.9789 34.3906Z" fill="#A31334"/>
<path d="M95.2651 47.1116C94.6946 46.2373 93.9139 45.7463 93.0772 45.5691C91.0258 45.1354 88.9724 45.2033 87.0219 46.1118C86.6866 46.2682 86.2403 46.4113 86.2088 46.8234C86.1751 47.2639 86.6352 47.3933 86.9592 47.5726C87.3107 47.7669 87.6493 48.0437 88.0271 48.1208C90.5228 48.6317 92.9218 48.3661 95.2651 47.1116Z" fill="white"/>
<path d="M72.9883 47.0506C73.8152 47.6943 74.7577 47.9681 75.7186 48.1232C77.6648 48.4371 79.623 48.7102 81.4123 47.5C81.6623 47.3309 81.9978 47.2122 82.0177 46.8812C82.0413 46.4884 81.6571 46.37 81.3857 46.2097C81.1492 46.0702 80.8831 45.9802 80.6283 45.8723C79.0895 45.2194 77.4645 45.2803 75.863 45.4097C74.7124 45.5024 73.7252 46.0631 72.9883 47.0506Z" fill="white"/>
<path d="M71.5781 51.9121C71.858 53.4845 71.8892 53.5922 72.4564 53.8629C73.4812 54.3518 74.5443 54.7336 75.6826 54.8618C77.2975 55.0438 78.8807 55.2971 80.5005 54.6296C81.1478 54.3628 81.5626 54.2588 81.4583 53.4854C79.7932 54.2579 78.1584 53.9865 76.4991 53.5849C74.8383 53.1826 73.2656 52.5313 71.5781 51.9121Z" fill="#A31334"/>
<path d="M96.5893 51.9111C95.3072 52.4248 94.0789 52.9375 92.7996 53.2933C90.8163 53.8445 88.8273 54.4469 86.7363 53.4787C86.7636 53.8748 86.6819 54.4252 87.0857 54.4588C87.8373 54.5212 88.428 55.0196 89.1705 55.0517C91.1247 55.1364 93.0193 54.8911 94.8857 54.2704C96.0133 53.8947 96.6113 53.2351 96.5893 51.9111Z" fill="#A31334"/>
<path d="M86.5273 52.0839C86.7657 52.9016 87.4999 53.3198 88.4139 53.3648C91.2253 53.5037 93.7296 52.4241 96.2368 51.3837C96.9187 51.1007 97.0374 50.6908 96.9307 49.7764C95.4965 50.9985 93.7868 51.592 92.0305 52.1641C90.2002 52.76 88.4317 52.6254 86.5273 52.0839Z" fill="white"/>
<path d="M81.6761 52.1018C77.6891 53.3264 74.3858 51.8699 71.2153 49.835C71.1174 50.7955 71.6158 51.319 72.4757 51.6139C73.5455 51.9807 74.5963 52.4028 75.6701 52.7568C77.039 53.2083 78.4408 53.4708 79.8966 53.3652C80.7422 53.3038 81.4816 52.8562 81.6761 52.1018Z" fill="white"/>
<path d="M95.9957 54.4395C93.7707 55.4658 91.4666 55.7307 89.1083 55.6766C89.0905 56.2285 89.3576 56.3664 89.8079 56.3973C91.6443 56.5228 93.4058 56.1263 95.1685 55.6977C95.7904 55.5466 96.0397 55.1801 95.9957 54.4395Z" fill="white"/>
<path d="M72.2129 54.4346C72.2291 55.0271 72.2631 55.471 72.866 55.6338C74.6933 56.1263 76.5291 56.5209 78.4426 56.3952C78.9091 56.3646 79.133 56.1893 79.1073 55.676C76.7408 55.7262 74.4387 55.4631 72.2129 54.4346Z" fill="white"/>
<path d="M95.7571 39.7761C95.338 39.7391 94.8592 39.7045 94.8498 39.0777C94.8421 38.5705 95.1288 38.2746 95.632 38.2682C96.1199 38.2621 96.5507 38.4408 96.5889 39.0006C96.6238 39.5136 96.3188 39.7749 95.7571 39.7761Z" fill="white"/>
<path d="M72.528 39.771C71.9187 39.7851 71.6063 39.5327 71.6302 39.0169C71.6559 38.4543 72.0826 38.2686 72.5712 38.2671C73.0713 38.2656 73.3675 38.5498 73.3702 39.0603C73.373 39.689 72.9016 39.7364 72.528 39.771Z" fill="white"/>
<path d="M79.9263 64.063C80.3637 64.3814 80.2438 64.8061 80.0896 65.1438C79.8244 65.725 80.1006 65.9585 80.5675 66.1839C81.4302 66.6003 82.3614 66.6905 83.2868 66.7627C84.7806 66.8793 86.2551 66.7624 87.6617 66.1744C88.1509 65.9701 88.3898 65.7021 88.1261 65.1328C87.9753 64.8073 87.8838 64.4087 88.2344 64.0911C88.6825 64.1578 88.5834 64.5326 88.6458 64.7963C88.9007 65.8755 89.4174 66.2301 90.4933 66.0218C90.6967 65.9823 90.9136 65.8792 90.9953 66.1506C91.0675 66.3904 90.8671 66.5253 90.6786 66.5966C90.1317 66.8031 89.5911 66.7575 89.0741 66.4855C88.8777 66.3821 88.7205 66.2408 88.4595 66.3922C86.3735 67.6037 84.1262 67.5043 81.8529 67.1812C81.1695 67.0842 80.5207 66.8842 79.9449 66.506C79.6555 66.3161 79.4408 66.3014 79.1312 66.4816C78.6069 66.7869 78.0308 66.8233 77.4664 66.555C77.3043 66.4779 77.1623 66.347 77.2269 66.1386C77.2816 65.9621 77.4309 65.9621 77.5964 65.9762C79.1073 66.1056 79.2471 66.0004 79.6219 64.4852C79.6577 64.3392 79.6846 64.1875 79.9263 64.063Z" fill="#008080"/>
<path d="M78.9066 23.6362C79.2388 23.676 79.5674 23.7711 79.5906 24.23C79.6129 24.6724 79.0975 25.22 78.6374 25.2236C78.1834 25.2273 77.9408 24.9768 77.9356 24.5277C77.9301 24.0529 78.378 23.6375 78.9066 23.6362Z" fill="white"/>
<path d="M89.3212 23.6333C89.8722 23.663 90.2234 23.9456 90.2778 24.4951C90.3219 24.9402 90.0686 25.206 89.6164 25.225C89.1646 25.244 88.632 24.7092 88.6289 24.262C88.6262 23.8942 88.8972 23.648 89.3212 23.6333Z" fill="white"/>
<path d="M94.8741 25.9819C95.396 26.0688 95.7466 26.3218 95.7291 26.866C95.7153 27.2913 95.4712 27.5953 95.0111 27.5547C94.4449 27.5048 94.1732 27.0958 94.1604 26.5806C94.15 26.1514 94.5113 26.0232 94.8741 25.9819Z" fill="white"/>
<path d="M74.0823 26.6551C73.9487 27.1336 73.7305 27.5622 73.1487 27.5582C72.6913 27.5551 72.4686 27.2275 72.4919 26.8053C72.5213 26.2721 72.8706 25.9983 73.3922 26.002C73.7902 26.0047 74.0469 26.2183 74.0823 26.6551Z" fill="white"/>
<path d="M87.4446 23.829C87.3232 24.3154 87.1142 24.681 86.5945 24.6522C86.0891 24.6244 85.8202 24.2582 85.8324 23.8021C85.845 23.3328 86.2387 23.1361 86.6691 23.118C87.1619 23.0978 87.3458 23.4417 87.4446 23.829Z" fill="white"/>
<path d="M81.6217 24.668C81.1145 24.6335 80.8337 24.3297 80.8098 23.8607C80.7884 23.4416 81.049 23.136 81.4841 23.1201C81.9442 23.1036 82.3675 23.3027 82.3884 23.8087C82.4073 24.2657 82.1173 24.5928 81.6217 24.668Z" fill="white"/>
<path d="M93.2184 25.2981C93.1918 25.8346 92.8862 26.0971 92.446 26.0934C91.936 26.0895 91.7094 25.6869 91.6778 25.2329C91.646 24.7722 91.9862 24.5336 92.3894 24.5275C92.8881 24.5201 93.1212 24.8848 93.2184 25.2981Z" fill="white"/>
<path d="M76.5711 25.2127C76.4662 25.6636 76.3001 26.0858 75.7865 26.0941C75.3493 26.1008 74.9993 25.8505 75.0204 25.3553C75.0409 24.8722 75.334 24.5388 75.8222 24.5281C76.2365 24.5189 76.5081 24.7835 76.5711 25.2127Z" fill="white"/>
<path d="M82.1757 76.3164C82.7203 76.7404 82.8968 77.0729 82.5869 77.5869C82.0295 77.3198 82.0873 76.9151 82.1757 76.3164Z" fill="white"/>
<path d="M88.3215 50.0276C88.2362 50.2913 88.1071 50.533 87.7675 50.5144C87.5286 50.5012 87.4123 50.3345 87.427 50.1069C87.4481 49.7811 87.6497 49.6064 87.9676 49.6156C88.1955 49.622 88.3209 49.7753 88.3215 50.0276Z" fill="#A31334"/>
<path d="M90.4513 50.7523C90.1974 50.7299 90.0438 50.5803 90.0285 50.324C90.0129 50.0606 90.1558 49.8923 90.4256 49.8761C90.6988 49.8599 90.8591 50.0208 90.8676 50.279C90.8762 50.5351 90.7107 50.6886 90.4513 50.7523Z" fill="#A31334"/>
<path d="M93.2006 49.4307C93.4768 49.442 93.6368 49.5665 93.6494 49.8329C93.6622 50.1083 93.4958 50.2395 93.2422 50.253C92.98 50.2667 92.8121 50.1294 92.8106 49.8626C92.8093 49.6087 92.9534 49.4551 93.2006 49.4307Z" fill="#A31334"/>
<path d="M95.8139 48.4229C96.0709 48.451 96.2352 48.5749 96.2266 48.8514C96.2187 49.1161 96.0645 49.2712 95.8084 49.2883C95.5258 49.3073 95.4068 49.1268 95.4043 48.867C95.4019 48.5984 95.5588 48.4623 95.8139 48.4229Z" fill="#A31334"/>
<path d="M80.3335 49.6084C80.5987 49.6647 80.7862 49.8118 80.7945 50.1043C80.8018 50.371 80.6587 50.543 80.3827 50.5115C80.0637 50.4748 79.9031 50.2456 79.9104 49.9415C79.9159 49.7063 80.0973 49.609 80.3335 49.6084Z" fill="#A31334"/>
<path d="M77.7913 50.7541C77.5359 50.7094 77.3664 50.5638 77.356 50.3086C77.3453 50.0483 77.4943 49.8797 77.7672 49.877C78.037 49.8742 78.1921 50.0303 78.1948 50.2952C78.1976 50.5546 78.0474 50.7088 77.7913 50.7541Z" fill="#A31334"/>
<path d="M72.8194 48.8795C72.8031 49.1276 72.6921 49.3084 72.4091 49.287C72.1531 49.2678 72.0001 49.1117 71.9943 48.8474C71.9882 48.5715 72.1515 48.4228 72.41 48.4305C72.6679 48.4378 72.8114 48.6027 72.8194 48.8795Z" fill="#A31334"/>
<path d="M75.4164 49.8517C75.3907 50.1292 75.2401 50.2668 74.9774 50.2528C74.7238 50.239 74.5573 50.1078 74.5711 49.8321C74.5843 49.5663 74.7412 49.4308 75.0034 49.4357C75.275 49.4406 75.3867 49.6156 75.4164 49.8517Z" fill="#A31334"/>
<rect x="209.14" y="0.7392" width="90.9216" height="90.9216" rx="45.4608" fill="black"/>
<rect x="209.14" y="0.7392" width="90.9216" height="90.9216" rx="45.4608" stroke="#FBB752" stroke-width="1.4784"/>
<path d="M254.952 11.5863C257.675 11.2936 260.534 11.5309 263.355 11.9848C266.976 12.5676 270.548 13.4369 273.468 15.8497C276.059 17.9904 277.456 20.8411 277.662 24.1649C277.946 28.7291 277.439 33.2893 277.368 37.8534C276.331 40.3039 276.968 42.8785 276.823 45.3937C276.675 47.9509 276.954 50.5008 277.07 53.0547C277.283 57.7756 276.633 62.3764 275.136 66.8959C274.386 69.1604 273.237 71.1718 272.078 73.1927C270.91 75.2281 268.952 76.4959 267.043 77.751C263.554 80.0459 259.692 81.0076 255.522 80.9159C253.361 80.8686 251.204 80.9237 249.068 80.5005C246.078 79.9084 243.488 78.4958 241.018 76.7668C237.656 74.4143 235.893 71.0291 234.55 67.3024C233.689 64.9107 233.086 62.4684 232.73 59.9637C232.279 56.784 232.361 53.5947 232.611 50.3984C232.89 46.8125 232.577 43.2149 232.731 39.6246C231.589 37.485 232.255 35.1487 232.02 32.9108C231.685 29.7282 231.505 26.5041 231.95 23.3415C232.52 19.2877 234.637 16.1731 238.418 14.3099C241.611 12.7369 245.017 12.0761 248.518 11.695C250.616 11.4666 252.706 11.4692 254.952 11.5863Z" fill="#008080"/>
<path d="M253.094 40.4331C252.059 41.7829 250.62 42.4234 249.22 43.0536C245.673 44.6502 241.925 44.6658 238.94 41.4026C238.798 41.2473 238.682 41.0422 238.418 41.1368C237.099 41.6077 235.801 41.5312 234.53 40.9158C234.423 41.6702 234.539 42.5369 234.804 43.3019C235.944 46.5862 239.504 47.9016 242.41 47.5202C242.953 47.4489 243.493 47.3587 244.038 47.2969C244.261 47.2714 244.47 47.3631 244.577 47.569C244.674 47.7541 244.583 47.9127 244.435 48.0506C243.11 49.2824 242.837 50.9305 242.616 52.6085C242.36 54.543 242.883 56.1932 244.198 57.6524C244.736 58.2486 245.247 58.307 245.876 57.995C246.72 57.5763 247.542 57.1217 248.333 56.5968C250.029 55.4706 251.839 54.907 253.848 55.7819C254.43 56.0354 255.054 56.1056 255.629 55.8521C257.876 54.8597 259.832 55.5032 261.702 56.8267C262.423 57.3368 263.213 57.7396 264.032 58.0737C264.557 58.2877 264.966 58.2157 265.397 57.7463C267.647 55.2955 267.706 50.7693 265.482 48.2727C265.297 48.0653 264.908 47.909 265.144 47.5324C265.335 47.2278 265.669 47.2748 265.975 47.3202C266.427 47.3875 266.876 47.474 267.329 47.5283C270.403 47.8939 273.994 46.4421 274.973 42.9918C275.158 42.3391 275.362 41.6713 275.161 40.8918C274.005 41.4927 272.84 41.6088 271.667 41.2444C271.18 41.0932 270.928 41.2067 270.588 41.5674C269.057 43.1866 267.193 44.1099 264.919 44.0711C261.657 44.0153 258.971 42.6071 256.475 40.4926C255.41 41.298 254.238 41.2207 253.094 40.4331Z" fill="#A31334"/>
<path d="M237.967 47.5366C238.112 47.9147 238.155 48.0526 238.215 48.1834C239.086 50.0765 239.049 51.8872 237.758 53.6025C237.485 53.9658 237.246 54.3605 237.036 54.7642C236.334 56.1091 236.518 57.2416 237.562 58.3323C237.961 58.7492 238.371 59.169 238.696 59.6429C239.632 61.0119 239.932 62.4426 239.066 63.9923C238.083 65.7494 238.646 67.6181 240.435 68.5613C241.106 68.915 241.82 69.1919 242.526 69.4731C244.055 70.0819 244.916 71.1759 245.09 72.8269C245.141 73.3173 245.064 73.844 245.346 74.4051C246.536 73.7464 247.814 73.4796 249.057 73.0028C248.879 72.4133 248.775 71.9014 248.573 71.4316C247.371 68.6386 246.206 65.8278 244.906 63.0809C244.274 61.7455 243.838 60.29 242.83 59.1428C242.616 58.8989 242.4 58.6154 242.495 58.238C242.617 57.7527 243.111 58.0784 243.405 57.8858C242.284 56.4384 241.66 54.8839 241.842 53.0917C242.013 51.4071 242.205 49.7202 243.341 48.179C241.443 48.2684 239.765 48.4163 237.967 47.5366Z" fill="#FBB752"/>
<path d="M266.352 48.1801C267.486 49.7309 267.673 51.4218 267.848 53.1113C268.036 54.9249 267.353 56.4824 266.271 57.9382C267.296 57.9715 267.462 58.2483 266.949 59.0086C266.44 59.7641 265.946 60.5144 265.575 61.3593C264.208 64.4776 262.779 67.5685 261.403 70.6832C261.077 71.4216 260.755 72.1815 260.709 73.0759C261.983 73.4186 263.193 73.8665 264.46 74.3888C264.504 73.8917 264.548 73.532 264.566 73.1713C264.661 71.2512 265.618 69.992 267.435 69.3633C267.951 69.1848 268.452 68.9538 268.946 68.7187C271.064 67.7116 271.679 65.8325 270.521 63.8178C270.233 63.3167 270.144 62.8184 270.132 62.2578C270.094 60.5742 271.046 59.4166 272.136 58.3141C273.167 57.2711 273.354 56.1357 272.684 54.8295C272.421 54.3173 272.096 53.8327 271.764 53.3611C270.702 51.8524 270.68 50.2524 271.288 48.58C271.388 48.3068 271.633 48.081 271.567 47.6338C269.949 48.4003 268.253 48.2787 266.352 48.1801Z" fill="#FBB752"/>
<path d="M258.306 22.0245C258.306 20.3424 258.307 19.0329 258.306 17.7238C258.305 16.5226 258.053 15.3654 257.66 14.2385C257.294 13.1899 256.782 12.8617 255.701 12.8939C255.094 12.912 254.478 12.9504 253.878 12.8795C252.953 12.7701 252.441 13.2834 252.133 14.0067C251.862 14.6443 251.644 15.3366 251.574 16.0222C251.21 19.6036 251.202 23.2087 251.521 26.779C251.832 30.2562 252.522 33.699 253.034 37.1588C253.077 37.4505 253.147 37.6482 253.436 37.8027C254.358 38.2968 255.234 38.3527 256.193 37.8393C256.937 37.4412 256.667 36.7652 256.748 36.2297C257.474 31.3931 258.602 26.5972 258.306 22.0245Z" fill="#FBB752"/>
<path d="M275.53 43.9971C274.978 44.8335 274.514 45.7316 273.74 46.3063C272.83 46.982 272.362 47.9067 271.975 48.8758C271.431 50.2374 271.444 51.6064 272.318 52.8767C272.61 53.3025 272.907 53.7286 273.163 54.177C274.149 55.9023 273.941 57.4838 272.583 58.9027C272.204 59.2974 271.814 59.6962 271.52 60.1519C270.809 61.2522 270.529 62.3747 271.252 63.6406C272.459 65.7539 271.73 68.1016 269.566 69.2138C268.784 69.6159 267.95 69.9182 267.144 70.2753C266.078 70.7476 265.469 71.5984 265.333 72.7261C265.187 73.931 264.929 75.1773 266.302 76.0026C266.767 76.2816 267.063 76.3663 267.51 76.0784C268.594 75.3802 269.595 74.5907 270.339 73.5277C272.333 70.6781 273.718 67.5177 274.526 64.1695C275.325 60.8593 275.524 57.4409 275.625 54.0313C275.724 50.6935 275.691 47.3575 275.53 43.9971Z" fill="#C66B3F"/>
<path d="M234.146 44.002C234.042 49.1745 233.976 54.319 234.429 59.4801C234.802 63.7331 236.082 67.6198 237.99 71.3579C238.971 73.2809 240.26 74.9633 242.178 76.0644C242.453 76.2218 242.749 76.5234 243.083 76.2156C243.785 75.5688 244.798 75.0905 244.435 73.8257C244.369 73.598 244.407 73.3415 244.393 73.0983C244.32 71.722 243.668 70.744 242.39 70.2014C241.773 69.9401 241.148 69.6995 240.541 69.419C237.909 68.203 237.155 65.9248 238.565 63.4074C238.834 62.927 238.871 62.4686 238.833 61.9287C238.736 60.553 237.872 59.6538 236.979 58.7856C236.249 58.0774 235.956 57.2832 235.948 56.2664C235.938 54.9381 236.646 53.9723 237.314 52.9574C238.47 51.2025 238.267 48.364 236.702 46.9835C235.702 46.1017 234.901 45.1215 234.146 44.002Z" fill="#C66B3F"/>
<path d="M243.674 58.9412C246.311 63.2955 250.519 64.4047 254.946 64.3847C259.304 64.3651 263.439 63.2227 266.027 58.9072C263.859 59.217 262.349 58.0627 260.749 57.0559C259.32 56.1563 257.778 55.6954 256.078 56.4442C255.279 56.7965 254.393 56.7953 253.592 56.4383C251.927 55.6969 250.396 56.1419 249.001 57.019C247.376 58.0413 245.837 59.1793 243.674 58.9412Z" fill="#6694D2"/>
<path d="M248.092 63.9246C249.499 66.7273 250.118 69.703 250.729 72.73C253.59 71.8758 256.289 71.9838 259.019 72.7082C259.498 69.574 260.303 66.6874 261.757 63.7432C257.054 65.5342 252.604 65.5243 248.092 63.9246Z" fill="#A31334"/>
<path d="M266.349 13.793C267.338 15.2174 267.43 16.5949 267.481 18.0079C267.687 23.8003 266.439 29.4337 265.661 35.1185C265.621 35.4135 265.463 35.7176 265.873 35.8906C266.905 36.3253 267.934 36.7688 269.043 37.2426C269.129 36.8745 269.22 36.5881 269.263 36.295C270.099 30.6593 270.59 24.9996 270.301 19.2985C270.228 17.8523 270.199 16.3724 269.42 15.05C269.256 14.772 269.125 14.5484 268.798 14.4638C268.069 14.2749 267.344 14.0668 266.349 13.793Z" fill="#FBB752"/>
<path d="M240.642 37.129C240.738 37.1386 240.806 37.1671 240.853 37.1471C241.442 36.8995 242.029 36.6493 242.613 36.3905C244.047 35.7548 243.999 35.7578 243.843 34.2539C243.434 30.3221 242.468 26.4575 242.319 22.5021C242.21 19.6284 241.679 16.6835 243.197 13.835C242.54 14.012 241.998 14.2016 241.439 14.2973C240.743 14.4171 240.354 14.7852 240.068 15.4339C239.448 16.845 239.454 18.3404 239.365 19.8203C239.076 24.6687 239.626 29.479 240.097 34.2901C240.191 35.2507 240.32 36.2187 240.642 37.129Z" fill="#FBB752"/>
<path d="M236.623 17.1431C234.601 18.8928 233.469 21.1595 233.359 23.7367C233.199 27.4738 232.997 31.2178 233.116 34.9644C233.149 36.0108 233.465 36.9998 233.639 38.0173C233.688 38.3053 233.849 38.4527 234.119 38.476C235.353 38.5832 236.58 38.564 237.956 38.3415C236.659 31.2625 236.043 24.2542 236.623 17.1431Z" fill="#FBB752"/>
<path d="M271.729 38.3754C273.115 38.5336 274.263 38.5753 275.417 38.501C275.74 38.4803 275.986 38.3809 276.056 37.9891C276.239 36.9731 276.488 35.9756 276.53 34.9296C276.663 31.5784 276.378 28.2346 276.403 24.8875C276.42 22.5801 275.721 20.5207 274.493 18.6103C274.117 18.0267 273.681 17.4915 272.953 17.0225C273.644 24.2452 273.027 31.2713 271.729 38.3754Z" fill="#FBB752"/>
<path d="M264.727 77.4838C263.286 76.4973 262.045 75.5663 260.544 75.2503C256.748 74.4516 252.92 74.4424 249.128 75.2592C247.619 75.5841 246.347 76.4888 244.988 77.493C247.249 78.5065 249.341 79.2856 251.659 79.2612C253.82 79.2383 255.982 79.2501 258.144 79.2583C260.426 79.2671 262.488 78.488 264.727 77.4838Z" fill="#A31334"/>
<path d="M249.169 13.0346C248.419 12.8723 247.789 13.1074 247.17 13.0567C246.158 12.9739 245.863 13.5646 245.68 14.3773C245.355 15.8162 245.314 17.2698 245.401 18.7316C245.643 22.7964 246.087 26.8391 246.71 30.8637C246.882 31.9725 246.923 33.1013 247.048 34.2182C247.079 34.4965 246.997 34.9256 247.383 34.9803C248.123 35.0853 248.774 35.4848 249.57 35.6703C249.533 35.3458 249.524 35.1359 249.483 34.9323C248.346 29.253 247.637 23.5353 247.88 17.7263C247.948 16.0971 248.154 14.5174 249.169 13.0346Z" fill="#FBB752"/>
<path d="M260.088 35.6963C260.747 35.4649 261.268 35.1959 261.817 35.1127C262.421 35.0214 262.598 34.7446 262.665 34.1769C262.965 31.6148 263.17 29.0461 263.585 26.4903C264.032 23.7398 264.111 20.9275 264.308 18.1392C264.401 16.8312 264.305 15.521 263.967 14.2469C263.855 13.8275 263.804 13.2376 263.289 13.1651C262.41 13.0413 261.516 12.8828 260.508 13.0036C261.168 13.9934 261.576 14.9736 261.65 16.0458C261.958 20.4851 261.906 24.9143 261.172 29.3166C260.824 31.4056 260.463 33.4928 260.088 35.6963Z" fill="#FBB752"/>
<path d="M234.314 39.3318C234.156 39.6412 234.229 39.8718 234.523 40.0271C235.085 40.325 235.63 40.6343 236.3 40.6927C237.575 40.804 238.567 40.271 239.566 39.5488C243.228 36.9006 247.045 35.9578 251.17 38.6096C252.138 39.2321 253.231 39.6575 254.25 40.2045C254.671 40.4307 255.028 40.4251 255.446 40.1997C256.839 39.4483 258.235 38.7013 259.652 37.9961C261.629 37.0119 263.691 36.6925 265.84 37.3711C267.509 37.8978 269.035 38.6961 270.43 39.761C271.959 40.9278 273.525 41.025 275.017 40.1176C275.326 39.9291 275.597 39.7558 275.33 39.2568C275.072 39.2568 274.772 39.2443 274.473 39.259C272.832 39.3396 271.285 39.0402 269.769 38.3665C268.047 37.601 266.325 36.8293 264.56 36.154C262.963 35.5434 261.57 35.7619 260.115 36.5643C258.68 37.3552 257.271 38.2079 255.716 38.7767C255.102 39.0014 254.576 39.0025 253.965 38.7715C252.19 38.1007 250.596 37.0784 248.909 36.2379C247.802 35.6857 246.72 35.6207 245.559 36.0247C244.35 36.446 243.155 36.8984 242.001 37.4506C239.649 38.5756 237.266 39.5617 234.568 39.2675C234.484 39.2587 234.394 39.3104 234.314 39.3318Z" fill="#A31334"/>
<path d="M257.33 37.097C258.674 36.716 259.548 36.1712 259.555 34.7796C259.558 34.179 259.708 33.574 259.833 32.9801C260.914 27.8315 261.225 22.6242 261.062 17.3781C261.029 16.3026 260.885 15.2485 260.408 14.2779C259.982 13.4086 259.142 12.5142 257.946 13.0246C258.41 14.0828 258.823 15.1701 258.896 16.3296C259.211 21.3162 259.222 26.2885 258.275 31.23C257.911 33.1309 257.785 35.0746 257.33 37.097Z" fill="#A31334"/>
<path d="M251.761 13.0056C250.557 12.5699 249.767 13.3106 249.272 14.3003C248.831 15.1811 248.685 16.1469 248.636 17.1285C248.339 23.1205 249.082 29.016 250.132 34.9C250.372 36.2498 251.14 36.68 252.188 37.0817C252.329 36.7133 252.251 36.3836 252.193 36.0617C251.209 30.5816 250.389 25.0934 250.611 19.4892C250.7 17.2571 250.772 15.0595 251.761 13.0056Z" fill="#A31334"/>
<path d="M239.705 40.4261C242.813 44.5512 250.405 42.6052 251.866 39.9105C247.363 36.7297 243.843 37.2069 239.705 40.4261Z" fill="white"/>
<path d="M269.956 40.4414C265.914 37.1172 262.067 36.7861 257.826 39.9502C259.685 42.8652 267.151 44.3647 269.956 40.4414Z" fill="white"/>
<path d="M264.311 13.3625C265.079 15.2582 265.117 17.1838 264.938 19.1379C264.637 22.4362 264.607 25.7511 263.888 29.0202C263.462 30.9599 263.468 32.9942 263.279 34.9926C263.82 35.1807 264.281 35.404 264.807 35.4176C265.084 34.8862 265.161 34.3499 265.222 33.8051C265.377 32.4453 265.467 31.0722 265.725 29.7317C266.516 25.6181 266.837 21.473 266.749 17.2902C266.734 16.5248 266.643 15.7782 266.439 15.0368C266.153 13.9897 265.605 13.2945 264.311 13.3625Z" fill="#A31334"/>
<path d="M244.882 35.5387C245.417 35.1085 246.48 35.5136 246.368 34.57C246.122 32.5161 246.049 30.4471 245.724 28.3992C244.933 23.4059 244.167 18.4037 245.198 13.3527C244.082 13.2729 243.535 13.9907 243.263 15.0248C243.154 15.4358 243.014 15.8534 243.001 16.2718C242.93 18.5837 242.912 20.8933 243.076 23.2066C243.262 25.8238 243.755 28.3943 244.148 30.9786C244.37 32.4411 244.298 33.9572 244.882 35.5387Z" fill="#A31334"/>
<path d="M270.157 14.9863C270.369 15.5814 270.563 16.0256 270.681 16.4891C270.802 16.9581 270.882 17.4438 270.919 17.9265C271.39 24.1121 270.944 30.2497 269.908 36.3525C269.683 37.6779 269.7 37.743 271.097 37.9559C271.16 37.5707 271.223 37.1845 271.288 36.7986C271.724 34.1907 272.043 31.567 272.304 28.9369C272.685 25.0827 272.595 21.2315 272.254 17.3773C272.14 16.0778 271.356 15.4701 270.157 14.9863Z" fill="#A31334"/>
<path d="M239.597 14.9917C237.948 15.6459 237.683 15.9589 237.434 17.4688C237.365 17.8875 237.327 18.3126 237.295 18.7361C236.896 24.099 237.288 29.4249 238.066 34.7309C238.226 35.8249 238.431 36.9127 238.622 38.04C239.429 37.8019 240.061 37.7469 239.857 36.6148C238.913 31.3727 238.395 26.0849 238.633 20.7486C238.718 18.8492 238.586 16.9073 239.597 14.9917Z" fill="#A31334"/>
<path d="M243.715 76.7654C244.084 77.2621 244.421 76.9901 244.781 76.7402C246.107 75.8188 247.447 74.8812 249.041 74.5193C252.369 73.7639 255.745 73.9505 259.109 74.2151C261.276 74.3855 263.084 75.4614 264.82 76.6719C265.182 76.9247 265.535 77.3194 265.975 76.7813C261.714 71.7872 248.302 71.6006 243.715 76.7654Z" fill="#FBB752"/>
<path d="M245.275 62.1133C246.575 65.7697 248.673 69.0403 249.729 72.8284C250.026 72.5275 249.914 72.2769 249.871 72.0696C249.334 69.4779 248.683 66.9277 247.5 64.5308C246.984 63.4871 246.322 62.6544 245.275 62.1133Z" fill="#C66B3F"/>
<path d="M264.423 62.1133C262.889 63.1023 262.882 63.0994 261.902 65.1787C260.772 67.5734 260.166 70.1125 259.848 72.7374C261.013 69.0533 263.097 65.7805 264.423 62.1133Z" fill="#C66B3F"/>
<path d="M252.576 42.1748C252.854 42.2816 252.872 42.5078 252.834 42.7155C252.601 44.0051 252.354 45.2942 251.639 46.4278C251.317 46.9378 250.894 47.1374 250.244 47.2468C247.851 47.6489 246.691 48.5157 246.849 50.8763C246.857 50.989 246.922 51.0981 247.003 51.3357C247.574 50.2454 248.431 49.7671 249.535 49.8074C250.69 49.8495 251.412 50.6161 252.015 51.4791C252.754 52.538 253.586 53.2251 255.022 53.1427C256.055 53.0835 256.745 52.6796 257.338 51.9315C257.658 51.5264 257.949 51.0907 258.312 50.727C259.74 49.2959 261.52 49.5018 262.605 51.1997C263.123 50.3112 262.753 48.6169 261.842 48.1102C261.026 47.656 260.188 47.1629 259.195 47.2191C258.807 47.2409 258.551 47.075 258.337 46.8033C257.355 45.5566 257.074 44.0627 256.857 42.5488C256.846 42.4694 256.897 42.3733 256.94 42.2964C256.966 42.2495 257.03 42.224 257.094 42.1767C257.568 42.2591 257.538 42.6782 257.62 43.0101C257.846 43.9256 258.021 44.8563 258.466 45.703C258.777 46.2947 259.155 46.6259 259.926 46.7006C263.354 47.0325 264.416 50.0362 262.998 52.4279C262.29 53.6221 260.341 54.0652 259.215 53.3371C258.675 52.9882 258.651 52.4345 258.41 51.7959C257.451 52.925 256.559 53.9103 254.897 53.8978C253.239 53.8856 252.238 53.0858 251.295 51.7083C251.096 52.6825 250.764 53.3711 249.923 53.6272C249.107 53.876 248.366 53.5884 247.628 53.2817C246.804 52.939 246.46 52.2021 246.261 51.441C245.625 49.0058 246.886 47.0258 249.749 46.7043C250.512 46.6185 250.904 46.3125 251.217 45.7167C251.663 44.8699 251.841 43.9404 252.067 43.0249C252.149 42.6897 252.121 42.2746 252.576 42.1748Z" fill="#008080"/>
<path d="M256.05 26.7115C256.032 27.4507 255.659 27.8606 254.913 27.8203C254.242 27.7845 253.622 27.6075 253.583 26.7585C253.549 26.0141 254.21 25.2276 254.855 25.2232C255.465 25.2191 256.042 25.938 256.05 26.7115Z" fill="#A31334"/>
<path d="M253.891 32.0446C253.885 31.1672 254.291 30.6335 254.952 30.6482C255.687 30.6649 256.237 31.2947 256.214 32.1255C256.195 32.8352 255.852 33.2502 255.1 33.2628C254.285 33.2768 253.896 32.8906 253.891 32.0446Z" fill="#A31334"/>
<path d="M254.839 19.729C255.524 19.732 255.988 20.2306 256 20.9768C256.013 21.7825 255.643 22.1492 254.833 22.1362C254.025 22.1233 253.572 21.6742 253.584 20.9014C253.595 20.2298 254.135 19.7261 254.839 19.729Z" fill="#A31334"/>
<path d="M255.813 16.1313C255.796 16.7038 255.526 17.1418 254.784 17.1189C254.101 17.0978 253.6 16.8387 253.577 16.0677C253.555 15.35 254.072 14.7542 254.677 14.7638C255.335 14.7741 255.815 15.3104 255.813 16.1313Z" fill="#A31334"/>
<path d="M254.829 61.5054C252.856 61.4891 250.869 61.665 248.921 61.1846C248.365 61.0474 247.831 60.9236 247.795 60.2103C247.756 59.4426 248.36 59.3587 248.884 59.2279C250.066 58.933 251.258 58.6935 252.487 58.74C254.855 58.8302 257.235 58.5268 259.59 58.9662C260.128 59.0664 260.658 59.2031 261.189 59.3343C261.612 59.4389 261.904 59.6711 261.901 60.1519C261.897 60.6438 261.65 60.9669 261.18 61.0792C260.292 61.2914 259.402 61.5009 258.481 61.5043C257.264 61.5087 256.046 61.5054 254.829 61.5054Z" fill="#008080"/>
<path d="M261.07 60.324C259.094 59.0445 250.487 59.0526 248.609 60.334C252.756 60.9838 256.905 60.9875 261.07 60.324Z" fill="#008080"/>
<path d="M252.51 66.797C252.8 66.3494 253.14 66.5346 253.447 66.6199C254.792 66.994 256.131 67.3447 257.461 66.553C257.668 66.4296 257.94 66.3623 258.096 66.651C258.202 66.8476 258.07 66.9944 257.913 67.1078C256.923 67.8256 253.489 67.932 252.51 66.797Z" fill="#008080"/>
<rect x="379.54" y="0.7392" width="90.9216" height="90.9216" rx="45.4608" fill="black"/>
<rect x="379.54" y="0.7392" width="90.9216" height="90.9216" rx="45.4608" stroke="#FBB752" stroke-width="1.4784"/>
<path d="M400.677 47.2452C400.677 44.8757 400.483 42.4866 400.717 40.1404C401.24 34.8787 401.745 29.5994 403.503 24.5469C404.759 20.937 406.756 17.7795 409.084 14.7754C412.572 10.2763 417.431 8.47523 422.784 7.86318C427.853 7.28364 432.732 8.23869 437.231 10.7564C439.54 12.0485 441.193 14.0414 442.76 16.1123C446.436 20.9733 448.332 26.5302 449.146 32.5051C449.466 34.8558 449.746 37.2116 450.072 39.5616C450.2 40.4785 450.005 41.3785 450.021 42.2851C450.114 47.4935 450.018 52.7008 449.501 57.8819C449.141 61.4814 447.878 64.8721 446.267 68.0862C444.43 71.7508 441.849 74.8624 438.528 77.301C436.64 78.687 434.659 79.9252 432.614 81.0861C430.519 82.2747 428.28 82.9766 426.028 83.7081C425.604 83.8459 425.211 83.8441 424.781 83.7177C417.736 81.642 411.729 77.9445 407.112 72.1869C404.704 69.1843 403.321 65.6557 402.169 61.9915C400.864 57.842 401.134 53.5701 400.777 49.3456C400.718 48.6504 400.768 47.9456 400.768 47.2455C400.737 47.2452 400.707 47.2452 400.677 47.2452Z" fill="#008080"/>
<path d="M427.868 60.1029C428.989 60.8166 429.069 61.1758 428.438 62.3619C428.371 62.4883 428.294 62.6579 428.325 62.7814C428.647 64.052 427.8 64.6815 426.96 65.3157C425.394 66.4984 425.391 66.4988 423.827 65.3176C422.988 64.6837 422.137 64.0565 422.459 62.7847C422.491 62.6609 422.415 62.4912 422.348 62.3645C421.718 61.1736 421.773 60.9252 422.885 60.0526C422.399 59.2413 422.615 58.5498 423.283 57.9677C422.467 56.5747 422.649 56.1293 424.166 55.7294C424.464 53.7343 424.247 50.3048 423.759 49.312C423.713 49.3483 423.65 49.3752 423.623 49.4225C423.549 49.5549 423.468 49.6898 423.429 49.8343C423.077 51.1249 422.145 51.927 421.105 52.654C419.024 54.1094 416.672 54.3556 414.282 53.9731C412.31 53.6574 410.438 52.9482 409.32 51.0754C408.239 49.2658 407.261 47.4171 407.165 45.2402C407.151 44.9275 407.22 44.5091 406.744 44.4518C405.563 44.3091 404.464 43.8745 403.348 43.4517C403.307 43.6091 403.265 43.6948 403.266 43.7802C403.336 48.8286 403.212 53.8906 404.385 58.8584C405.945 65.4713 409.027 71.1051 414.653 75.1737C417.56 77.2749 420.908 78.2543 424.266 79.2489C425.307 79.5575 426.316 79.3498 427.313 79.0512C428.187 78.7887 429.045 78.4724 429.919 78.2059C435.049 76.6391 439.051 73.4964 442.053 69.1459C444.535 65.5475 445.996 61.4737 446.764 57.166C447.547 52.7671 447.454 48.3156 447.525 43.8745C447.527 43.7366 447.555 43.5625 447.308 43.4779C446.313 43.9066 445.26 44.2969 444.134 44.4259C443.747 44.4703 443.634 44.712 443.633 45.0554C443.629 46.3271 443.242 47.4995 442.743 48.6541C441.829 50.7686 440.73 52.6636 438.358 53.4904C436.366 54.1848 434.321 54.3789 432.341 53.8348C430.075 53.2124 428.024 52.1058 427.25 49.5863C427.206 49.4432 427.129 49.3028 426.889 49.3091C426.439 51.452 426.448 53.6164 426.584 55.7738C428.099 56.0277 428.317 56.5828 427.503 57.9662C428.166 58.5472 428.389 59.2373 427.868 60.1029Z" fill="#FBB752"/>
<path d="M441.476 40.676C443.206 40.8102 444.861 40.4458 446.519 40.0108C447.364 39.789 447.454 39.3636 447.107 38.6957C446.869 38.2389 446.571 37.8139 446.334 37.3567C444.692 34.1877 442.684 31.2609 440.557 28.4001C439.235 26.6213 437.486 25.2811 436.021 23.6593C433.502 20.8703 430.648 18.4683 427.651 16.2215C427.399 16.0322 427.172 15.9173 426.825 15.9609C426.194 16.0396 425.536 16.1357 424.919 16.0359C423.57 15.8179 422.591 16.438 421.679 17.2689C419.658 19.111 417.395 20.6844 415.596 22.7734C413.811 24.8453 411.562 26.4727 409.968 28.7391C408.761 30.4551 407.488 32.1276 406.387 33.9146C405.464 35.4137 404.611 36.9571 403.77 38.5043C403.221 39.5129 403.332 39.7358 404.416 40.0366C405.765 40.4114 407.122 40.703 408.545 40.6779C411.524 40.6254 414.504 40.4388 417.486 40.6487C419.966 40.8231 422.395 41.1499 424.524 42.5854C425.09 42.9672 425.686 42.9842 426.237 42.6072C428.39 41.1351 430.847 40.7954 433.359 40.6539C436.065 40.5008 438.772 40.496 441.476 40.676Z" fill="#472C23"/>
<path d="M448.91 39.5254C446.864 40.999 444.574 41.3841 442.203 41.3837C439.555 41.3834 436.908 41.1904 434.261 41.3035C431.474 41.4225 428.726 41.7256 426.332 43.3652C425.6 43.8667 424.914 43.7714 424.223 43.2794C423.114 42.4907 421.88 42.0113 420.543 41.7526C417.408 41.1457 414.243 41.2174 411.08 41.3424C407.867 41.4695 404.688 41.5005 401.884 39.5535C401.506 40.591 401.864 41.5216 402.937 42.2693C404.795 43.5636 406.915 43.815 409.11 43.883C412.16 43.978 415.188 43.6328 418.23 43.5618C421.71 43.4805 423.649 45.1891 424.486 48.5898C424.99 50.6393 425.082 52.7379 424.992 54.8479C424.975 55.27 424.677 56.024 425.376 56.0417C426.113 56.0606 425.809 55.2951 425.792 54.8812C425.697 52.5246 425.845 50.1954 426.461 47.9124C427.135 45.4142 429.067 43.7396 431.516 43.6073C432.79 43.5385 434.08 43.5381 435.348 43.6579C438.023 43.9111 440.698 43.9377 443.374 43.7861C445.045 43.6915 446.601 43.1759 447.966 42.1791C448.928 41.4772 449.247 40.5813 448.91 39.5254Z" fill="#A31334"/>
<path d="M434.272 44.3056C432.519 44.2472 431.29 44.2032 430.122 44.6205C428.687 45.1335 427.306 46.3813 428.134 48.1742C428.948 49.9368 430.275 51.3321 432.239 51.7907C434.144 52.2357 436.06 52.0073 437.894 51.3058C440.197 50.4247 442.501 48.3786 442.166 45.4155C442.111 44.9276 442.073 44.5466 441.4 44.568C438.841 44.6497 436.287 44.5314 434.272 44.3056Z" fill="white"/>
<path d="M411.88 44.5797C410.926 44.5797 410.163 44.6133 409.404 44.5686C408.833 44.535 408.666 44.7955 408.623 45.3034C408.489 46.9078 408.919 48.292 410.065 49.4628C411.474 50.9035 413.224 51.5662 415.165 51.883C418.078 52.3587 420.474 51.5574 422.174 49.0748C423.481 47.1665 422.961 45.707 420.933 44.7294C420.166 44.3594 419.297 44.2984 418.436 44.27C416.177 44.1953 413.945 44.6544 411.88 44.5797Z" fill="white"/>
<path d="M448.573 33.5739C448.511 33.1559 448.443 32.739 448.388 32.3199C447.933 28.7998 447.014 25.3877 445.561 22.1677C444.143 19.0235 442.159 16.1891 439.801 13.6676C438.533 12.312 436.979 11.2682 435.203 10.6159C434.925 10.5139 434.684 10.4436 434.492 10.7548C433.978 11.585 433.296 12.2695 432.451 12.9813C439.57 18.5371 445.383 25.0325 448.573 33.5739Z" fill="#FBB752"/>
<path d="M417.404 9.91025C419.348 13.077 422.203 14.5764 425.577 14.5047C428.812 14.436 431.581 12.9705 433.353 9.90545C428.01 8.16833 422.768 8.18089 417.404 9.91025Z" fill="#FBB752"/>
<path d="M425.887 62.221C425.497 61.8115 425.712 61.3894 426.025 61.1488C426.87 60.4976 426.56 59.812 426.246 59.085C425.754 59.1615 425.79 59.7554 425.385 59.8648C424.99 59.7221 425.026 59.133 424.548 59.0975C424.151 59.8493 423.986 60.5375 424.784 61.1806C425.089 61.4264 425.3 61.8514 424.856 62.2365C424.388 62.0746 424.368 61.4685 423.835 61.412C423.699 61.7479 423.566 62.0806 423.432 62.4132C422.958 63.5911 423.001 63.7449 424.026 64.5525C425.412 65.6439 425.413 65.645 426.861 64.47C427.049 64.3174 427.225 64.1492 427.397 63.9781C427.661 63.7168 427.729 63.393 427.604 63.0541C427.397 62.4956 427.163 61.9471 426.946 61.409C426.397 61.4892 426.404 62.1279 425.887 62.221Z" fill="#A31334"/>
<path d="M424.891 56.8797C424.607 57.6171 424.518 58.2576 425.396 58.612C426.274 58.2306 426.172 57.5949 425.847 56.7666C425.548 57.2438 425.218 56.9555 424.891 56.8797Z" fill="#A31334"/>
<path d="M438.333 24.4988C438.608 23.1479 438.839 22.014 439.1 20.7285C437.791 20.9096 436.611 21.022 435.221 21.0231C436.292 22.2195 437.225 23.2618 438.333 24.4988Z" fill="#A31334"/>
<path d="M411.676 20.7598C411.947 22.0434 412.186 23.1692 412.466 24.4898C413.557 23.2634 414.496 22.2082 415.588 20.9808C414.154 21.0702 412.997 20.8588 411.676 20.7598Z" fill="#A31334"/>
<path d="M416.664 20.0379C417.905 18.9697 418.952 18.0686 420.133 17.0519C418.608 16.904 417.33 16.7802 416.028 16.6538C415.917 17.8277 416.702 18.6992 416.664 20.0379Z" fill="#A31334"/>
<path d="M434.731 16.6406C433.377 16.7811 432.123 16.9112 430.66 17.0627C431.85 18.0802 432.902 18.9802 434.151 20.048C434.036 18.6971 434.919 17.823 434.731 16.6406Z" fill="#A31334"/>
<path d="M439.062 25.2592C440.021 26.4171 440.851 27.4198 441.826 28.5963C441.979 27.184 442.104 26.0279 442.241 24.7539C441.167 24.9247 440.201 25.0784 439.062 25.2592Z" fill="#A31334"/>
<path d="M408.973 28.6244C409.986 27.3704 410.804 26.3573 411.701 25.2466C410.557 25.0714 409.59 24.9232 408.537 24.7617C408.683 26.0568 408.813 27.2081 408.973 28.6244Z" fill="#A31334"/>
<path d="M429.204 79.2554C428.072 79.5163 427.144 79.9439 425.918 80.0947C426.789 80.6887 427.389 81.3018 428.206 81.6866C428.59 80.9193 428.945 80.1934 429.204 79.2554Z" fill="#A31334"/>
<path d="M421.588 79.2637C421.854 80.1977 422.186 80.9476 422.621 81.7171C423.372 81.1982 424.086 80.7535 424.775 80.0535C423.613 79.967 422.713 79.4965 421.588 79.2637Z" fill="#A31334"/>
<path d="M442.467 29.6216C443.092 30.4299 443.623 31.1159 444.204 31.868C444.739 31.0955 444.898 30.3989 445.089 29.6216C444.237 29.6216 443.459 29.6216 442.467 29.6216Z" fill="#A31334"/>
<path d="M405.678 29.6255C405.958 30.4124 405.956 31.2163 406.652 31.791C407.218 31.047 407.733 30.371 408.3 29.6255C407.319 29.6255 406.543 29.6255 405.678 29.6255Z" fill="#A31334"/>
<path d="M427.865 15.1696C428.538 15.6434 429.069 16.1003 429.781 16.295C430.157 15.5359 430.5 14.8444 430.929 13.9795C429.839 14.4031 428.927 14.7571 427.865 15.1696Z" fill="#A31334"/>
<path d="M422.969 15.1831C421.865 14.7606 420.939 14.4062 419.838 13.9849C420.311 14.9037 420.681 15.6211 421.075 16.3876C421.698 15.991 422.254 15.6377 422.969 15.1831Z" fill="#A31334"/>
<path d="M417.295 77.627C417.972 79.9299 417.878 80.1935 420.051 78.7128C419.133 78.3514 418.27 78.011 417.295 77.627Z" fill="#A31334"/>
<path d="M433.452 77.6514C432.966 77.8413 432.519 77.9999 432.086 78.1891C431.658 78.3761 431.157 78.4183 430.783 78.7764C432.788 80.0563 432.833 80.0977 433.452 77.6514Z" fill="#A31334"/>
<path d="M412.368 74.2316C411.663 73.6026 411.07 73.0737 410.452 72.5215C409.931 74.1976 410.212 74.4582 412.368 74.2316Z" fill="#A31334"/>
<path d="M438.389 74.2726C440.705 74.3746 440.949 74.1355 440.298 72.5366C439.696 73.0847 439.108 73.6188 438.389 74.2726Z" fill="#A31334"/>
<path d="M413.945 77.1353C414.593 77.2458 415.119 77.0728 415.819 76.8714C415.083 76.3554 414.476 75.9297 413.742 75.4141C413.823 76.0993 413.879 76.5746 413.945 77.1353Z" fill="#A31334"/>
<path d="M437.05 75.3994C436.283 75.9435 435.688 76.3656 434.93 76.9037C435.685 77.0464 436.206 77.2707 436.828 77.1266C436.895 76.6043 436.959 76.1061 437.05 75.3994Z" fill="#A31334"/>
<path d="M403.703 33.8427C403.911 34.5265 403.906 35.1189 404.293 35.6903C404.652 35.0177 405.065 34.4795 405.271 33.7451C404.741 33.778 404.297 33.8057 403.703 33.8427Z" fill="#A31334"/>
<path d="M446.55 35.8175C446.776 35.0469 446.994 34.5036 446.977 33.8679C446.47 33.7892 446.013 33.7263 445.451 33.8158C445.809 34.467 446.122 35.0384 446.55 35.8175Z" fill="#A31334"/>
<path d="M403.35 37.5872C402.805 37.6944 402.109 37.2723 401.942 37.9716C401.815 38.5027 402.213 38.8357 402.722 39.104C402.946 38.5637 403.147 38.0754 403.35 37.5872Z" fill="#A31334"/>
<path d="M448.06 39.1134C448.605 38.7978 449.02 38.44 448.826 37.9111C448.601 37.2946 447.955 37.6531 447.367 37.4062C447.632 38.0601 447.83 38.5468 448.06 39.1134Z" fill="#A31334"/>
<path d="M442.688 69.6392C442.262 70.2364 441.826 70.6482 441.541 71.3482C442.141 71.1601 442.666 71.2739 443.162 70.9705C443.027 70.5901 442.899 70.2309 442.688 69.6392Z" fill="#A31334"/>
<path d="M407.576 71.0584C408.178 71.1515 408.663 71.2265 409.344 71.3319C408.873 70.7047 408.615 70.1625 408.067 69.7651C407.904 70.1946 407.767 70.555 407.576 71.0584Z" fill="#A31334"/>
<path d="M444.675 66.0811C444.329 66.7109 443.943 67.164 443.779 67.9006C444.321 67.6666 444.821 67.7594 445.257 67.4412C445.073 67.011 444.908 66.6244 444.675 66.0811Z" fill="#A31334"/>
<path d="M405.574 67.5452C406.034 67.6442 406.483 67.7407 407.08 67.8689C406.764 67.1682 406.499 66.657 406.093 66.1592C405.887 66.6382 405.627 67.0144 405.574 67.5452Z" fill="#A31334"/>
<path d="M448.36 44.2429C449.341 42.9629 449.341 42.9629 449.176 42.186C448.293 42.5815 448.083 43.2608 448.36 44.2429Z" fill="#A31334"/>
<path d="M445.525 64.2445C446.147 64.0966 446.585 63.9614 446.959 63.6221C446.788 63.1863 446.595 62.7997 446.167 62.3979C445.944 63.0392 445.757 63.5781 445.525 64.2445Z" fill="#A31334"/>
<path d="M404.624 62.4009C404.184 62.8226 403.958 63.1903 403.842 63.6642C404.236 63.9432 404.65 64.1217 405.251 64.2256C405.028 63.5751 404.847 63.0492 404.624 62.4009Z" fill="#A31334"/>
<path d="M401.557 42.1768C401.244 43.1407 401.994 43.5716 402.425 44.2768C402.697 43.2423 402.479 42.5619 401.557 42.1768Z" fill="#A31334"/>
<path d="M402.671 51.397C401.792 52.2711 401.799 52.3531 402.747 52.9874C402.723 52.4707 402.701 52.0098 402.671 51.397Z" fill="#A31334"/>
<path d="M448.114 51.3989C448.084 52.0091 448.062 52.47 448.037 52.9882C448.986 52.3518 448.993 52.2697 448.114 51.3989Z" fill="#A31334"/>
<path d="M403.201 57.2073C403.283 56.6367 403.147 56.1928 403.031 55.6816C402.189 56.3399 402.505 56.7557 403.201 57.2073Z" fill="#A31334"/>
<path d="M447.739 55.6992C447.648 56.2067 447.486 56.6543 447.582 57.2094C448.343 56.7141 448.555 56.2699 447.739 55.6992Z" fill="#A31334"/>
<path d="M425.413 68.7988C425.868 68.8262 426.333 68.8036 426.776 68.8894C429.367 69.3909 430.403 72.1751 428.848 74.4489C428.078 75.5743 426.911 76.1794 425.721 76.7382C425.591 76.7992 425.425 76.8291 425.283 76.8129C423.499 76.6111 421.286 74.2308 421.229 72.4638C421.161 70.3633 422.566 68.8801 424.68 68.8232C424.924 68.8166 425.167 68.8225 425.411 68.8225C425.412 68.8147 425.412 68.8066 425.413 68.7988Z" fill="#008080"/>
<path d="M422.641 72.4241C422.617 73.7232 424.147 75.3631 425.388 75.3676C426.531 75.372 428.111 73.7919 428.142 72.614C428.185 70.9527 427.265 70.3336 424.712 70.3062C423.657 70.2948 422.662 71.3119 422.641 72.4241Z" fill="white"/>
<path d="M402.277 33.6349C403.92 29.5242 405.958 25.6305 408.755 22.1955C411.554 18.7574 414.79 15.7408 418.35 12.9466C417.468 12.2831 416.824 11.6009 416.322 10.7962C416.141 10.5061 415.928 10.4836 415.627 10.5959C413.799 11.2804 412.17 12.3264 410.897 13.7678C408.149 16.8802 405.807 20.2643 404.4 24.2345C403.32 27.2848 402.601 30.405 402.277 33.6349Z" fill="#FBB752"/>
<path d="M439.479 55.8869C439.812 55.2582 440.401 55.2286 440.873 55.0153C441.013 54.9521 441.176 55.0013 441.251 55.1669C441.324 55.3277 441.266 55.4807 441.133 55.5646C440.662 55.8632 440.201 56.2428 439.479 55.8869Z" fill="#008080"/>
<path d="M411.343 55.8103C410.413 56.1814 409.782 55.9042 409.521 55.0441C410.24 55.0031 410.78 55.2744 411.343 55.8103Z" fill="#008080"/>
<path d="M409.343 53.1359C408.395 53.1004 407.987 52.6447 407.992 51.6035C408.584 52.0493 409.042 52.4702 409.343 53.1359Z" fill="#008080"/>
<path d="M442.746 51.5391C442.841 52.5773 442.45 53.0463 441.496 53.1642C441.629 52.4302 442.249 52.1378 442.746 51.5391Z" fill="#008080"/>
<path d="M440.843 53.9746C440.454 54.5844 439.902 54.8724 438.92 54.9034C439.567 54.2274 440.145 53.9942 440.843 53.9746Z" fill="#008080"/>
<path d="M411.594 54.7967C410.857 54.8481 410.327 54.5435 409.924 53.9928C410.63 53.9673 411.186 54.2493 411.594 54.7967Z" fill="#008080"/>
<path d="M425.583 40.0573C425.041 39.976 424.48 39.8474 424.463 39.1377C424.45 38.5667 424.718 38.1102 425.356 38.0925C426.032 38.0733 426.446 38.4506 426.493 39.1292C426.533 39.7232 426.177 40.0074 425.583 40.0573Z" fill="#008080"/>
<path d="M424.646 31.9537C424.678 31.4244 424.926 31.0544 425.47 31.0567C426.064 31.0585 426.436 31.4111 426.462 32.018C426.483 32.5413 426.249 32.8865 425.661 32.8847C425.031 32.8828 424.73 32.5399 424.646 31.9537Z" fill="#008080"/>
<path d="M425.663 34.6C426.197 34.6613 426.603 34.9304 426.565 35.5702C426.534 36.0998 426.208 36.4095 425.664 36.3685C425.073 36.3241 424.698 35.9741 424.701 35.3746C424.704 34.8228 425.079 34.5892 425.663 34.6Z" fill="#008080"/>
<path d="M410.468 39.413C409.976 39.3454 409.583 39.1365 409.631 38.5592C409.678 37.9856 410.065 37.6921 410.616 37.7066C411.179 37.7213 411.403 38.1294 411.4 38.6342C411.397 39.2182 410.984 39.3842 410.468 39.413Z" fill="#008080"/>
<path d="M440.299 39.4123C439.771 39.379 439.373 39.1905 439.383 38.611C439.392 38.1072 439.625 37.7047 440.191 37.7051C440.743 37.7054 441.124 38.0059 441.156 38.5807C441.187 39.1595 440.785 39.3553 440.299 39.4123Z" fill="#008080"/>
<path d="M435.949 39.1255C435.481 39.1244 435.083 38.9994 435.069 38.4462C435.055 37.8866 435.363 37.4896 435.914 37.4538C436.463 37.4179 436.857 37.7543 436.854 38.3275C436.85 38.866 436.479 39.1173 435.949 39.1255Z" fill="#008080"/>
<path d="M414.852 39.1259C414.324 39.1245 413.946 38.8827 413.932 38.3439C413.917 37.7688 414.306 37.4295 414.856 37.4539C415.41 37.4786 415.72 37.8726 415.716 38.4307C415.714 38.9825 415.325 39.1226 414.852 39.1259Z" fill="#008080"/>
<path d="M407.665 38.4673C407.645 38.97 407.349 39.1795 406.898 39.1747C406.428 39.1696 406.056 38.9674 406.025 38.4503C405.993 37.907 406.372 37.7008 406.84 37.6963C407.332 37.6919 407.612 37.9802 407.665 38.4673Z" fill="#008080"/>
<path d="M444.772 38.3961C444.728 38.9191 444.406 39.1523 443.932 39.1737C443.493 39.1937 443.137 39.0233 443.131 38.5225C443.125 37.9736 443.449 37.6839 443.988 37.6983C444.424 37.7097 444.734 37.9204 444.772 38.3961Z" fill="#008080"/>
<path d="M414.528 12.0186C415.041 12.0271 415.347 12.2836 415.332 12.7951C415.315 13.3676 414.907 13.6795 414.4 13.7516C413.849 13.83 413.686 13.4009 413.643 12.9418C413.582 12.3006 414.005 12.1084 414.528 12.0186Z" fill="#008080"/>
<path d="M412.606 15.5491C412.569 15.9941 412.356 16.2491 411.92 16.268C411.453 16.288 411.27 16.0215 411.278 15.5857C411.285 15.1588 411.479 14.8805 411.926 14.8746C412.375 14.8683 412.556 15.1644 412.606 15.5491Z" fill="#008080"/>
<path d="M408.014 21.1813C407.961 21.6932 407.651 21.8927 407.212 21.916C406.777 21.9393 406.609 21.6606 406.645 21.2777C406.688 20.8364 406.927 20.5422 407.412 20.5541C407.83 20.564 407.975 20.8431 408.014 21.1813Z" fill="#008080"/>
<path d="M409.256 18.6247C408.815 18.5774 408.71 18.2566 408.726 17.8578C408.743 17.4653 408.968 17.2265 409.349 17.2232C409.805 17.2191 409.982 17.5488 409.971 17.9483C409.959 18.3593 409.735 18.6214 409.256 18.6247Z" fill="#008080"/>
<path d="M405.689 24.7734C405.315 24.7128 405.106 24.4833 405.129 24.0971C405.15 23.7223 405.351 23.4643 405.754 23.4713C406.162 23.4784 406.353 23.7474 406.333 24.1255C406.312 24.4962 406.09 24.7283 405.689 24.7734Z" fill="#008080"/>
<path d="M437.149 12.9411C437.087 13.3898 436.942 13.8336 436.391 13.7505C435.85 13.6688 435.424 13.3384 435.457 12.7097C435.481 12.2432 435.787 11.989 436.25 12.0296C436.781 12.0762 437.186 12.2998 437.149 12.9411Z" fill="#008080"/>
<path d="M444.148 21.3007C444.135 21.6256 444.045 21.9091 443.647 21.9124C443.168 21.9165 442.801 21.7317 442.784 21.1965C442.771 20.8132 442.98 20.5575 443.388 20.5538C443.87 20.5493 444.082 20.8524 444.148 21.3007Z" fill="#008080"/>
<path d="M439.507 15.5969C439.516 16.0419 439.313 16.2928 438.854 16.2673C438.419 16.2433 438.182 15.9861 438.192 15.5599C438.201 15.1419 438.427 14.8651 438.871 14.8758C439.321 14.8865 439.503 15.1737 439.507 15.5969Z" fill="#008080"/>
<path d="M442.064 17.9769C442.031 18.3439 441.894 18.6278 441.469 18.6215C441.021 18.6148 440.812 18.3321 440.814 17.9215C440.817 17.5186 441.004 17.1989 441.463 17.2262C441.904 17.2525 442.071 17.5596 442.064 17.9769Z" fill="#008080"/>
<path d="M445.079 23.4673C445.474 23.5113 445.659 23.7692 445.656 24.1392C445.653 24.521 445.438 24.7856 445.04 24.7598C444.657 24.735 444.449 24.4593 444.451 24.0841C444.453 23.6986 444.666 23.4728 445.079 23.4673Z" fill="#008080"/>
<rect x="551.699" y="2.5" width="87.4" height="87.4" rx="43.7" fill="white"/>
<rect x="551.699" y="2.5" width="87.4" height="87.4" rx="43.7" stroke="black" stroke-width="5"/>
<path d="M595.711 8.76547C601.744 8.32944 606.841 10.5839 611.173 14.4712C614.787 17.7147 617.149 21.7987 617.897 26.7292C618.284 29.2846 618.382 31.88 618.973 34.4042C619.37 36.0996 619.612 37.8012 619.581 39.5543C619.565 40.517 619.479 41.4499 619.046 42.2874C618.399 43.5402 618.314 44.8572 618.459 46.1954C618.922 50.4645 618.433 54.6429 617.545 58.8237C616.95 61.6274 616.267 64.3663 614.781 66.8428C613.152 69.5561 611.468 72.2163 609.025 74.321C606.741 76.2899 604.622 78.4642 602.06 80.0866C600.089 81.3346 598.046 82.4673 596.037 83.6548C595.625 83.8982 595.236 83.865 594.832 83.6261C591.846 81.8581 588.735 80.2747 586.061 78.0313C581.697 74.3712 577.616 70.4642 575.237 65.127C574.527 63.534 574.021 61.8884 573.659 60.1854C573.092 57.5125 572.576 54.8327 572.329 52.1083C572.12 49.7981 572.397 47.5008 572.543 45.2009C572.596 44.3579 572.504 43.5709 572.087 42.8126C571.279 41.3437 571.292 39.7843 571.571 38.1691C571.981 35.7922 572.832 33.4979 573.009 31.0882C573.173 28.8624 573.591 26.6933 574.029 24.5148C574.396 22.6881 575.216 21.0656 576.143 19.5034C578.783 15.0584 582.619 11.9626 587.371 10.0369C590.033 8.95807 592.851 8.52031 595.711 8.76547Z" fill="#008080"/>
<path d="M616.503 59.4142C612.98 60.4512 606.989 58.2244 607.203 56.0328C607.679 56.0474 607.952 56.4153 608.267 56.6763C609.284 57.5194 610.465 57.9855 611.741 58.2178C614.587 58.7358 617.947 56.7662 617.242 52.7579C616.636 53.3911 615.976 53.844 615.18 54.1169C612.928 54.8897 610.822 54.2576 608.812 53.3599C606.16 52.1756 603.519 50.972 600.822 49.8928C600.225 49.6538 599.627 49.4052 598.933 49.3672C598.891 49.8547 598.806 50.2946 598.993 50.7327C599.396 50.7095 599.764 50.677 600.132 50.6694C601.307 50.6459 601.897 51.0356 602.215 52.15C602.596 53.4879 602.514 54.7946 601.791 56.0273C601.487 56.5443 601.056 56.7842 600.464 56.8108C599.683 56.8458 598.95 56.6476 598.253 56.3831C596.864 58.0218 594.512 58.0017 593.269 56.3838C590.097 57.416 589.574 56.5467 589.11 54.5636C588.859 53.4913 588.94 52.3976 589.552 51.4287C590.278 50.279 591.476 50.7794 592.5 50.7005C592.557 50.2202 592.598 49.8018 592.458 49.3423C591.824 49.4273 591.238 49.6393 590.661 49.8713C587.966 50.9543 585.321 52.148 582.672 53.3399C580.608 54.2693 578.45 54.9011 576.141 54.0861C575.317 53.7953 574.703 53.2289 573.922 52.5633C574.084 53.7216 573.786 54.8541 574.299 55.6494C575.075 56.851 576.114 57.925 577.687 58.1884C579.599 58.509 581.285 57.9775 582.852 56.9132C583.302 56.6075 583.638 56.1006 584.295 56.0266C584.444 56.7375 583.868 56.9374 583.517 57.2389C581.034 59.3724 578.308 60.6055 574.986 59.4015C574.849 59.6777 574.959 59.8973 575.012 60.1082C575.733 62.9495 576.941 65.5899 578.49 68.0595C581.114 72.2431 584.547 75.6812 588.589 78.4887C590.387 79.7373 592.321 80.7898 594.183 81.9475C595.199 82.5789 596.173 82.6249 597.204 81.9538C598.254 81.2708 599.359 80.6747 600.424 80.0156C606.522 76.2428 611.596 71.5343 614.439 64.7611C615.163 63.0349 616.022 61.3651 616.503 59.4142Z" fill="#6694D2"/>
<path d="M584.376 30.365C581.517 30.3179 579.485 31.2024 577.734 32.8121C575.901 34.496 574.684 36.616 573.43 38.7236C572.858 39.6848 572.741 40.5911 573.11 41.6271C573.826 43.6371 574.691 45.5932 576.448 46.8823C578.99 48.7485 581.8 49.1123 584.771 47.9065C585.777 47.4978 586.724 46.975 587.679 46.4701C593.045 43.6354 598.403 43.6375 603.768 46.4757C604.773 47.0078 605.783 47.5275 606.835 47.9739C610.417 49.493 615.211 48.1285 617.159 44.2665C617.716 43.1624 618.037 41.9909 618.464 40.8491C618.658 40.3308 618.579 39.8736 618.341 39.3785C617.508 37.6492 616.442 36.0638 615.306 34.5341C612.259 30.4307 607.382 29.1644 603.032 31.3684C601.528 32.1302 600.23 33.228 599.164 34.5489C598.331 35.5818 597.353 36.429 596.276 37.1904C595.851 37.4915 595.538 37.4552 595.131 37.1689C594.052 36.4106 593.117 35.5206 592.244 34.5265C590.045 32.0226 587.467 30.2024 584.376 30.365Z" fill="#FBB752"/>
<path d="M618.627 38.1119C618.567 37.7215 618.519 37.329 618.445 36.9411C617.891 34.0106 616.096 31.7858 614.163 29.691C611.524 26.8304 608.202 26.1924 604.538 27.1717C602.308 27.7678 600.645 29.2681 599.174 30.9587C598.324 31.9355 597.407 32.8065 596.349 33.5437C595.925 33.839 595.56 33.8843 595.116 33.5655C594.258 32.948 593.381 32.3432 592.738 31.4995C591.863 30.3508 590.782 29.4407 589.65 28.5697C586.189 25.9054 580.967 26.1762 577.777 29.1786C575.668 31.1644 574.21 33.598 572.942 36.1599C572.576 36.8978 572.472 37.7011 572.687 38.55C573.443 37.0718 574.43 35.7592 575.375 34.4248C578.792 29.5977 584.018 28.5008 588.84 30.8432C590.426 31.6139 591.767 32.8148 592.88 34.2135C593.562 35.07 594.362 35.7834 595.248 36.4172C595.571 36.6485 595.828 36.6817 596.164 36.4366C596.927 35.8812 597.69 35.3193 598.259 34.5635C599.092 33.4559 600.153 32.6056 601.213 31.7391C603.657 29.7419 606.496 29.4175 609.451 29.8874C612.49 30.3705 614.588 32.3314 616.287 34.7509C617.067 35.8608 617.882 36.9528 618.627 38.1119Z" fill="#74B58D"/>
<path d="M577.295 28.5318C578.077 27.9475 578.886 27.4741 579.716 27.0387C580.059 26.8586 580.267 26.6017 580.462 26.2642C583.089 21.7306 586.661 18.2763 591.72 16.5747C593.176 16.085 594.688 15.6383 596.23 15.8323C603.027 16.6881 607.683 20.6072 611.02 26.3517C611.136 26.5512 611.224 26.7649 611.436 26.8752C612.38 27.3665 613.282 27.9271 614.181 28.6525C613.74 25.4696 612.614 22.7331 610.422 20.4104C610.213 20.7572 609.984 21.111 609.634 20.6061C609.424 20.3039 609.041 19.9647 609.809 19.75C608.322 18.2216 606.745 16.9329 604.828 16.1182C599.956 14.0491 594.97 13.4796 589.82 14.9796C582.915 16.991 578.603 21.3803 577.295 28.5318Z" fill="#6694D2"/>
<path d="M598.208 48.4863C598.163 47.7211 598.091 46.756 598.054 45.7899C598.037 45.3684 597.86 45.193 597.445 45.1429C596.338 45.0098 595.235 45.0319 594.127 45.1187C593.609 45.1592 593.393 45.3684 593.368 45.9078C593.282 47.6972 593.126 49.4846 593.35 51.2743C593.376 51.4832 593.381 51.6785 593.182 51.8037C593.012 51.9106 592.877 51.8151 592.719 51.7273C590.935 50.7339 589.689 51.3995 589.695 53.3954C589.704 56.0361 590.649 56.8013 593.124 55.6028C593.595 55.3746 593.759 55.4569 593.948 55.8985C594.446 57.0652 596.54 57.4742 597.178 56.4099C597.789 55.3916 598.335 55.6523 599.127 55.951C600.569 56.4957 601.25 56.0994 601.641 54.6308C601.776 54.1225 601.783 53.6129 601.737 53.1056C601.577 51.3269 600.593 50.9649 598.819 51.6395C598.619 51.7155 598.474 51.9628 598.227 51.7854C598.038 51.6502 598.051 51.4451 598.095 51.2422C598.281 50.3967 598.159 49.5395 598.208 48.4863Z" fill="#FBB752"/>
<path d="M607.002 26.0732C606.714 25.5002 606.372 25.1219 606.023 24.7516C604.434 23.0624 602.509 21.8211 600.389 20.9677C595.43 18.9704 596.018 18.9573 591.088 20.9525C588.756 21.8964 586.636 23.2547 584.995 25.2339C584.794 25.4774 584.493 25.6949 584.555 26.0956C585.18 26.1797 585.77 26.2481 586.355 26.3425C586.681 26.3951 586.89 26.2526 587.094 26.0275C588.268 24.7315 589.767 23.9099 591.338 23.2236C592.776 22.5949 594.324 21.9656 595.855 22.1278C599.055 22.4663 601.975 23.6506 604.308 25.9943C604.515 26.2011 604.696 26.401 605.033 26.3477C605.644 26.2505 606.257 26.1752 607.002 26.0732Z" fill="#6694D2"/>
<path d="M611.057 15.3941C602.379 6.7592 587.619 7.76819 580.398 15.4207C585.075 12.4477 590.255 11.0168 595.708 11.0123C601.166 11.0082 606.346 12.4497 611.057 15.3941Z" fill="#6694D2"/>
<path d="M590.566 28.3893C591.428 29.1369 592.289 29.7967 592.934 30.6757C593.53 31.4872 594.307 32.1089 595.095 32.7272C595.569 33.0992 595.896 33.0287 596.369 32.7109C598.12 31.5335 599.082 29.5688 600.912 28.4132C599.463 27.1124 597.989 26.1186 596.246 25.566C595.972 25.4792 595.697 25.4222 595.408 25.5055C593.565 26.0356 592.023 27.0605 590.566 28.3893Z" fill="#6694D2"/>
<path d="M611.135 51.936C612.358 52.0211 613.439 52.2694 614.475 51.4727C613.832 50.7548 613.299 50.0432 612.8 49.1753C612.231 50.1203 611.725 50.9578 611.135 51.936Z" fill="#472C23"/>
<path d="M576.969 51.4958C578.028 52.2645 579.112 52.0342 580.42 51.9146C579.597 51.0225 579.272 50.0557 578.607 49.1836C578.155 50.0681 577.602 50.7092 576.969 51.4958Z" fill="#472C23"/>
<path d="M610.31 51.5802C611.132 50.936 611.464 50.0394 612.016 49.0981C610.905 49.1649 609.963 49.2216 608.92 49.2842C609.267 50.1901 609.69 50.9011 610.31 51.5802Z" fill="white"/>
<path d="M581.139 51.6219C581.704 50.8654 582.219 50.2066 582.476 49.2793C581.47 49.2208 580.529 49.1665 579.471 49.105C579.938 50.0507 580.321 50.8903 581.139 51.6219Z" fill="white"/>
<path d="M590.008 47.9601C590.484 47.799 590.956 47.624 591.438 47.4798C592.798 47.0722 592.864 46.9657 592.608 45.4345C590.884 45.327 590.666 46.8692 590.008 47.9601Z" fill="#472C23"/>
<path d="M598.761 45.44C598.761 45.829 598.752 46.1658 598.764 46.5016C598.775 46.8083 598.75 47.1274 599.163 47.2443C599.937 47.4632 600.702 47.7111 601.471 47.9469C600.755 46.9061 600.581 45.3252 598.761 45.44Z" fill="#472C23"/>
<path d="M615.696 50.8174C616.582 50.4965 616.821 49.7797 617.064 49.0587C617.408 48.0407 617.216 47.7361 616.059 47.521C615.813 48.5819 615.546 49.6386 615.696 50.8174Z" fill="#472C23"/>
<path d="M575.77 50.8598C575.837 49.6202 575.672 48.5379 575.318 47.4141C574.814 47.6686 574.083 47.8294 574.181 48.3363C574.361 49.2692 574.568 50.309 575.77 50.8598Z" fill="#472C23"/>
<path d="M587.309 47.452C587.484 47.8985 587.803 48.1398 588.082 48.4116C588.444 48.7636 588.752 48.6606 588.976 48.2643C589.361 47.5841 589.723 46.8905 590.157 46.0845C589.026 46.3611 588.233 47.0025 587.309 47.452Z" fill="white"/>
<path d="M601.256 46.0654C601.641 46.767 601.945 47.3078 602.237 47.8545C602.763 48.8403 602.975 48.8687 603.75 48.026C603.896 47.868 604.102 47.73 604.041 47.406C603.189 46.9894 602.405 46.3728 601.256 46.0654Z" fill="white"/>
<path d="M576.16 47.5728C576.31 48.71 576.44 49.7004 576.583 50.7889C577.275 50.117 577.771 49.4607 578.044 48.6046C577.427 48.2667 576.86 47.9559 576.16 47.5728Z" fill="white"/>
<path d="M614.866 50.7762C615.008 49.6569 615.131 48.677 615.264 47.6265C614.57 47.9415 613.947 48.2423 613.391 48.6776C613.731 49.4833 614.16 50.1624 614.866 50.7762Z" fill="white"/>
<path d="M583.253 49.5034C582.844 50.2541 582.495 50.8952 582.076 51.6639C583.019 51.4495 583.71 51.1331 584.363 50.6787C583.989 50.2832 583.663 49.9374 583.253 49.5034Z" fill="#472C23"/>
<path d="M607.104 50.7161C607.747 51.1189 608.428 51.4979 609.363 51.6196C608.941 50.8744 608.578 50.2323 608.218 49.5981C607.836 49.9813 607.499 50.3191 607.104 50.7161Z" fill="#472C23"/>
<path d="M607.678 49.0081C606.852 48.6944 606.131 48.4206 605.188 48.062C605.686 48.8798 606.061 49.4929 606.463 50.1519C606.929 49.8649 607.272 49.5074 607.678 49.0081Z" fill="white"/>
<path d="M583.756 49.0124C584.155 49.4685 584.472 49.8782 584.99 50.1338C585.383 49.4858 585.753 48.8744 586.248 48.0591C585.298 48.4225 584.576 48.6988 583.756 49.0124Z" fill="white"/>
<path d="M575.132 46.7249C574.678 46.1385 574.375 45.5213 573.82 45.0054C573.82 45.8767 573.82 46.6506 573.82 47.5393C574.3 47.2412 574.692 46.9974 575.132 46.7249Z" fill="white"/>
<path d="M617.579 47.5177C617.579 46.6294 617.579 45.8984 617.579 44.9375C617.079 45.6398 616.705 46.1657 616.309 46.7235C616.729 46.987 617.081 47.2065 617.579 47.5177Z" fill="white"/>
<path d="M585.861 50.0923C586.61 49.6625 587.129 49.3651 587.74 49.0145C587.376 48.7441 587.243 48.4093 586.815 48.3066C586.668 48.9014 586.211 49.3104 585.861 50.0923Z" fill="#472C23"/>
<path d="M603.783 49.0785C604.329 49.3676 604.813 49.7386 605.528 49.9312C605.156 49.3206 604.853 48.8233 604.541 48.3105C604.205 48.4738 603.984 48.7092 603.783 49.0785Z" fill="#472C23"/>
<path d="M609.474 60.0353C607.651 58.4502 603.926 58.223 602.016 59.7303C601.126 60.4326 600.212 61.2061 598.945 61.2867C598.405 59.7189 597.41 58.5484 595.775 58.5187C594.05 58.4872 593.039 59.7151 592.486 61.2749C591.746 61.259 591.17 60.964 590.644 60.5643C589.096 59.3873 587.465 58.6418 585.413 58.6677C582.8 58.7009 580.87 60.9405 579.993 62.768C579.946 62.8672 579.922 62.9882 579.922 63.0989C579.919 65.2919 580.156 67.4236 581.47 69.2908C581.962 69.9893 582.431 70.7044 582.896 71.4209C584.312 73.6017 586.324 74.9669 588.794 75.6653C592.779 76.7926 596.78 76.8445 600.876 76.1415C606.067 75.2507 608.971 71.8424 610.884 67.407C612.011 64.7936 611.939 62.1795 609.474 60.0353ZM594.508 61.9153C594.683 61.2279 595.129 60.8292 595.759 60.8081C596.403 60.7863 596.681 61.3344 596.98 61.8828C596.115 62.2012 595.331 62.1784 594.508 61.9153Z" fill="#008080"/>
<path d="M595.981 75.981C596.729 75.9886 597.751 75.9236 598.766 75.7708C601.312 75.388 603.813 74.9129 605.944 73.2815C607.464 72.1169 608.298 70.4475 609.371 68.9502C610.573 67.2718 610.852 65.3465 610.855 63.3489C610.855 62.9585 610.682 62.629 610.47 62.3247C609.948 61.5743 609.353 60.8821 608.678 60.2655C607.318 59.0225 604.026 59.1269 602.769 60.0415C601.463 60.991 600.095 61.7095 598.572 62.2486C595.569 63.3112 592.829 62.5999 590.267 61.083C588.706 60.1594 587.269 59.2247 585.326 59.3765C583.523 59.5173 581.128 61.2323 580.638 62.9775C580.607 63.0861 580.586 63.2016 580.586 63.314C580.582 65.2804 580.846 67.1777 581.996 68.8527C582.479 69.5574 582.957 70.2666 583.417 70.9869C584.72 73.0287 586.587 74.3185 588.877 74.9865C591.1 75.6345 593.378 75.9827 595.981 75.981Z" fill="#472C23"/>
<path d="M595.718 59.8388C596.44 60.2399 597.163 60.6428 597.52 61.4498C597.61 61.6521 597.715 61.7997 597.967 61.7012C598.203 61.6089 598.212 61.4287 598.175 61.213C598.029 60.3565 596.567 59.0957 595.715 59.0981C594.859 59.1006 593.4 60.3627 593.257 61.2174C593.221 61.4349 593.235 61.6134 593.471 61.7033C593.667 61.778 593.8 61.7064 593.878 61.5221C594.233 60.6777 594.965 60.2458 595.718 59.8388Z" fill="#FBB752"/>
<path d="M586.523 54.1392C587.027 54.1872 587.375 54.3909 587.309 54.941C587.235 55.5531 586.835 55.8152 586.242 55.7972C585.791 55.7837 585.434 55.5845 585.452 55.0973C585.476 54.4376 585.933 54.1841 586.523 54.1392Z" fill="#008080"/>
<path d="M605.377 55.1465C605.318 55.5569 605.16 55.8795 604.691 55.846C604.237 55.8135 603.959 55.5507 603.973 55.0763C603.986 54.6492 604.22 54.3892 604.664 54.3916C605.157 54.394 605.351 54.7004 605.377 55.1465Z" fill="#008080"/>
<path d="M584.619 32.9525C588.724 32.9739 591.008 35.4884 592.353 39.0638C592.503 39.4642 592.494 39.9041 592.211 40.2883C591.272 41.5638 590.209 42.7053 588.714 43.3301C587.69 43.7575 586.653 44.1558 585.606 44.5213C583.729 45.1759 581.774 45.1638 580.001 44.4117C577.548 43.3719 576.484 41.9719 576.894 39.0611C577.334 35.9414 581.135 32.6893 584.619 32.9525Z" fill="#008080"/>
<path d="M591.359 38.5506C590.188 35.1142 586.728 33.024 583.334 33.7086C580.191 34.3424 577.466 37.1491 577.634 39.7308C579.525 37.8407 581.777 36.8666 584.344 36.886C586.773 36.904 589.334 36.6166 591.359 38.5506Z" fill="#472C23"/>
<path d="M589.886 38.3149C590.125 39.6344 590.051 40.8253 589.572 41.9982C590.299 41.3661 591.127 40.8606 591.541 39.8938C590.923 39.4723 590.695 38.6901 589.886 38.3149Z" fill="white"/>
<path d="M578.597 39.9116C577.279 40.7052 577.238 41.5337 578.47 42.4555C578.402 41.5963 578.533 40.765 578.597 39.9116Z" fill="white"/>
<path d="M606.821 32.953C610.411 32.7185 615.042 36.0757 614.627 40.9419C614.548 41.8621 614.021 42.5381 613.426 43.1418C612.459 44.1245 611.254 44.7127 609.87 44.8081C605.669 45.0982 602.101 43.8202 599.374 40.4931C599.009 40.0474 598.895 39.5616 599.084 39.0605C600.43 35.4872 602.714 32.972 606.821 32.953Z" fill="#008080"/>
<path d="M600.072 38.5369C600.087 38.5576 600.099 38.5925 600.117 38.596C600.138 38.6001 600.175 38.5839 600.186 38.5649C600.57 37.9431 601.171 37.625 601.84 37.4328C604.09 36.7858 606.375 36.7052 608.684 37.0493C610.488 37.3183 612.025 38.1281 613.379 39.3259C613.508 39.4393 613.604 39.6769 613.856 39.5583C613.94 37.0061 610.802 34.022 607.795 33.6236C604.487 33.1855 601.299 35.1731 600.072 38.5369Z" fill="#472C23"/>
<path d="M601.897 41.9806C601.32 40.8295 601.363 39.6262 601.525 38.3008C600.735 38.7351 600.468 39.4968 599.875 39.9311C600.386 40.8506 601.106 41.4256 601.897 41.9806Z" fill="white"/>
<path d="M612.953 42.5812C614.189 41.2313 614.145 40.6721 612.842 39.9204C612.902 40.7707 613.04 41.6013 612.953 42.5812Z" fill="white"/>
<path d="M596.888 47.9862C596.893 48.7099 596.299 49.4464 595.714 49.443C595.126 49.4395 594.54 48.7027 594.549 47.9775C594.557 47.2773 595.174 46.5052 595.723 46.5083C596.271 46.5118 596.884 47.2891 596.888 47.9862Z" fill="#008080"/>
<path d="M596.783 52.2917C596.767 52.9428 596.265 53.4999 595.704 53.4895C595.103 53.4781 594.626 52.8802 594.656 52.178C594.687 51.4453 595.221 50.7347 595.732 50.7457C596.271 50.7578 596.802 51.539 596.783 52.2917Z" fill="#008080"/>
<path d="M597.135 29.0916C597.137 29.8433 596.378 30.6355 595.685 30.6051C594.998 30.575 594.307 29.8243 594.303 29.1047C594.297 28.0632 594.896 27.3443 595.755 27.3626C596.566 27.3799 597.132 28.0891 597.135 29.0916Z" fill="#008080"/>
<path d="M595.687 71.1952C594.289 71.2536 592.892 71.1496 591.541 70.7983C588.349 69.9677 586.054 68.1257 585.115 64.8446C585.045 64.6008 584.966 64.338 584.991 64.0939C585.038 63.6298 585.344 63.4794 585.696 63.792C587.323 65.237 589.332 65.709 591.382 66.0991C594.559 66.7028 597.729 66.615 600.876 65.9445C602.629 65.571 604.364 65.0915 605.722 63.7975C605.884 63.6437 606.078 63.5849 606.263 63.7156C606.547 63.9165 606.483 64.2222 606.417 64.4967C606.05 66.0216 605.364 67.3425 604.212 68.4625C602.272 70.3501 599.89 71.0081 597.303 71.1897C596.767 71.2274 596.226 71.1952 595.687 71.1952Z" fill="#008080"/>
<defs>
<linearGradient id="paint0_linear_488_9622" x1="0" y1="46.7002" x2="680" y2="46.7002" gradientUnits="userSpaceOnUse">
<stop stop-color="#C39044"/>
<stop offset="1" stop-color="#B77C24"/>
</linearGradient>
</defs>
</svg>
