<svg width="729" height="259" viewBox="0 0 729 259" fill="none" xmlns="http://www.w3.org/2000/svg">
<path d="M39.3698 4.51498V128.222H1.08379L3.43152 4.69557L39.3698 4.51498ZM151.422 128.222L90.0195 45.5099L90.7419 128.222L51.7335 128.945L50.2887 5.95973L98.3268 5.77914L152.144 72.9603L148.171 5.77914L181.761 4.33438L185.012 127.68L151.422 128.222ZM302.699 6.32092L301.616 37.9249L236.782 36.8414L238.046 95.354L302.699 94.2704L304.866 126.055L197.774 128.403L195.787 3.25082L302.699 6.32092ZM406.913 128.222L406.552 73.8633L356.889 72.7797L354.902 128.403L315.713 128.042L320.228 0.000119517L441.768 4.69557L441.046 128.042L406.913 128.222ZM355.986 24.0192L355.444 47.4965L407.455 49.3024L406.733 26.0057L355.986 24.0192ZM553.703 128.222L492.301 45.5099L493.023 128.222L454.015 128.945L452.57 5.95973L500.608 5.77914L554.425 72.9603L550.452 5.77914L584.043 4.33438L587.293 127.68L553.703 128.222ZM598.068 8.12687L701.188 10.4746L728.999 42.4398L722.137 104.564L696.131 129.306L598.068 128.945V8.12687ZM668.681 101.133L684.573 89.575L682.045 45.8711L665.069 33.0489L630.214 36.2996L632.923 101.675L668.681 101.133ZM85.9632 203.129L85.0963 216.565L30.7735 215.698L30.4846 233.18L96.6544 234.914L97.5212 258.752L1.01156 258.174L0.000226565 159.497L100.266 161.087V186.514L29.7622 185.792V202.118L85.9632 203.129ZM195.173 158.197L197.485 184.203L131.604 183.769L131.17 197.35L197.629 200.673L200.808 257.452L111.522 258.463L110.944 239.103L174.802 238.525L174.658 224.367L110.077 225.523L108.921 158.342L195.173 158.197ZM295.048 160.798L294.181 186.081L242.314 185.214L243.325 232.024L295.048 231.157L296.781 256.585L211.107 258.463L209.518 158.342L295.048 160.798ZM391.422 203.129L390.555 216.565L336.232 215.698L335.943 233.18L402.113 234.914L402.98 258.752L306.47 258.174L305.459 159.497L405.725 161.087V186.514L335.221 185.792V202.118L391.422 203.129ZM495.286 258.319L446.164 192.149L446.742 258.319L415.536 258.896L414.38 160.509L452.81 160.364L495.864 214.109L492.686 160.364L519.558 159.208L522.159 257.885L495.286 258.319ZM616.308 160.798L615.441 186.081L563.575 185.214L564.586 232.024L616.308 231.157L618.042 256.585L532.368 258.463L530.779 158.342L616.308 160.798ZM712.682 203.129L711.815 216.565L657.493 215.698L657.204 233.18L723.374 234.914L724.24 258.752L627.731 258.174L626.719 159.497L726.985 161.087V186.514L656.481 185.792V202.118L712.682 203.129Z" fill="#3D2923"/>
</svg>
