<svg width="40" height="40" viewBox="0 0 40 40" fill="none" xmlns="http://www.w3.org/2000/svg">
<g clip-path="url(#clip0_488_9849)">
<path d="M37.0382 0H2.95306C1.32028 0 0 1.28903 0 2.88275V37.1085C0 38.7022 1.32028 39.9991 2.95306 39.9991H37.0382C38.671 39.9991 39.9991 38.7022 39.9991 37.1163V2.88275C39.9991 1.28903 38.671 0 37.0382 0ZM11.8669 34.0851H5.92955V14.9918H11.8669V34.0851ZM8.89823 12.3903C6.99203 12.3903 5.453 10.8513 5.453 8.95292C5.453 7.05452 6.99203 5.5155 8.89823 5.5155C10.7966 5.5155 12.3357 7.05452 12.3357 8.95292C12.3357 10.8435 10.7966 12.3903 8.89823 12.3903ZM34.0851 34.0851H28.1556V24.8041C28.1556 22.5932 28.1165 19.7417 25.0697 19.7417C21.9839 19.7417 21.5151 22.1557 21.5151 24.6479V34.0851H15.5934V14.9918H21.2808V17.6012H21.3589C22.1479 16.1012 24.0854 14.5153 26.9681 14.5153C32.9758 14.5153 34.0851 18.4683 34.0851 23.6088V34.0851Z" fill="#351E1E"/>
</g>
<defs>
<clipPath id="clip0_488_9849">
<rect width="39.8311" height="39.8311" fill="white" transform="scale(1.00422)"/>
</clipPath>
</defs>
</svg>
