<svg width="40" height="40" viewBox="0 0 40 40" fill="none" xmlns="http://www.w3.org/2000/svg">
<g clip-path="url(#clip0_488_9850)">
<path d="M19.9995 0C8.95419 0 0 8.95419 0 19.9995C0 29.3785 6.45745 37.2487 15.1685 39.4103V26.1114H11.0445V19.9995H15.1685V17.366C15.1685 10.559 18.2492 7.40383 24.9322 7.40383C26.1994 7.40383 28.3857 7.65262 29.2801 7.90062V13.4405C28.8081 13.3909 27.9882 13.3661 26.9698 13.3661C23.6907 13.3661 22.4235 14.6085 22.4235 17.838V19.9995H28.9561L27.8338 26.1114H22.4235V39.8527C32.3265 38.6567 39.9999 30.2249 39.9999 19.9995C39.9991 8.95419 31.0449 0 19.9995 0Z" fill="#351E1E"/>
</g>
<defs>
<clipPath id="clip0_488_9850">
<rect width="39.8311" height="39.8311" fill="white" transform="scale(1.00422)"/>
</clipPath>
</defs>
</svg>
