<svg width="40" height="40" viewBox="0 0 40 40" fill="none" xmlns="http://www.w3.org/2000/svg">
<g clip-path="url(#clip0_488_9848)">
<path d="M19.9995 3.60148C25.3432 3.60148 25.976 3.62492 28.0775 3.71866C30.0306 3.8046 31.0852 4.13272 31.7883 4.40615C32.718 4.76551 33.3899 5.203 34.0852 5.8983C34.7883 6.60141 35.2179 7.26546 35.5773 8.19512C35.8507 8.89823 36.1789 9.96071 36.2648 11.906C36.3585 14.0153 36.382 14.6481 36.382 19.9839C36.382 25.3275 36.3585 25.9603 36.2648 28.0619C36.1789 30.0149 35.8507 31.0696 35.5773 31.7727C35.2179 32.7024 34.7804 33.3742 34.0852 34.0695C33.382 34.7726 32.718 35.2023 31.7883 35.5617C31.0852 35.8351 30.0227 36.1632 28.0775 36.2492C25.9682 36.3429 25.3354 36.3663 19.9995 36.3663C14.6559 36.3663 14.0231 36.3429 11.9216 36.2492C9.96852 36.1632 8.91386 35.8351 8.21075 35.5617C7.28108 35.2023 6.60922 34.7648 5.91393 34.0695C5.21082 33.3664 4.78114 32.7024 4.42177 31.7727C4.14834 31.0696 3.82022 30.0071 3.73429 28.0619C3.64054 25.9525 3.6171 25.3197 3.6171 19.9839C3.6171 14.6403 3.64054 14.0075 3.73429 11.906C3.82022 9.95289 4.14834 8.89823 4.42177 8.19512C4.78114 7.26546 5.21863 6.5936 5.91393 5.8983C6.61703 5.19519 7.28108 4.76551 8.21075 4.40615C8.91386 4.13272 9.97633 3.8046 11.9216 3.71866C14.0231 3.62492 14.6559 3.60148 19.9995 3.60148ZM19.9995 0C14.57 0 13.8903 0.023437 11.7575 0.117185C9.63259 0.210933 8.17169 0.554675 6.90609 1.04685C5.58581 1.56246 4.46865 2.24214 3.3593 3.3593C2.24214 4.46865 1.56246 5.58581 1.04685 6.89828C0.554675 8.17169 0.210933 9.62478 0.117185 11.7497C0.023437 13.8903 0 14.57 0 19.9995C0 25.4291 0.023437 26.1088 0.117185 28.2415C0.210933 30.3665 0.554675 31.8274 1.04685 33.093C1.56246 34.4133 2.24214 35.5304 3.3593 36.6398C4.46865 37.7491 5.58581 38.4366 6.89828 38.9444C8.17169 39.4366 9.62478 39.7803 11.7497 39.8741C13.8825 39.9678 14.5622 39.9913 19.9917 39.9913C25.4213 39.9913 26.101 39.9678 28.2337 39.8741C30.3587 39.7803 31.8196 39.4366 33.0852 38.9444C34.3976 38.4366 35.5148 37.7491 36.6242 36.6398C37.7335 35.5304 38.421 34.4133 38.9288 33.1008C39.421 31.8274 39.7647 30.3743 39.8585 28.2493C39.9522 26.1166 39.9756 25.4369 39.9756 20.0074C39.9756 14.5778 39.9522 13.8981 39.8585 11.7654C39.7647 9.6404 39.421 8.1795 38.9288 6.9139C38.4366 5.58581 37.7569 4.46865 36.6398 3.3593C35.5304 2.24995 34.4133 1.56246 33.1008 1.05466C31.8274 0.562487 30.3743 0.218745 28.2493 0.124997C26.1088 0.023437 25.4291 0 19.9995 0Z" fill="#351E1E"/>
<path d="M19.9996 9.72639C14.3278 9.72639 9.72639 14.3278 9.72639 19.9996C9.72639 25.6713 14.3278 30.2728 19.9996 30.2728C25.6713 30.2728 30.2728 25.6713 30.2728 19.9996C30.2728 14.3278 25.6713 9.72639 19.9996 9.72639ZM19.9996 26.6635C16.32 26.6635 13.3357 23.6792 13.3357 19.9996C13.3357 16.32 16.32 13.3357 19.9996 13.3357C23.6792 13.3357 26.6635 16.32 26.6635 19.9996C26.6635 23.6792 23.6792 26.6635 19.9996 26.6635Z" fill="#351E1E"/>
<path d="M33.0776 9.32052C33.0776 10.6486 31.9995 11.7189 30.6792 11.7189C29.3512 11.7189 28.2809 10.6408 28.2809 9.32052C28.2809 7.99242 29.359 6.92213 30.6792 6.92213C31.9995 6.92213 33.0776 8.00024 33.0776 9.32052Z" fill="#351E1E"/>
</g>
<defs>
<clipPath id="clip0_488_9848">
<rect width="39.8311" height="39.8311" fill="white" transform="scale(1.00422)"/>
</clipPath>
</defs>
</svg>
