<svg width="165" height="253" viewBox="0 0 165 253" fill="none" xmlns="http://www.w3.org/2000/svg">
<path d="M0 0H74.4747V82.0197H32.8082V90.6032H74.4747V119.215H0V61.038H41.6664V28.6115H32.8082V52.4545H0V0ZM89.8672 0H164.342V119.215H89.8672V0ZM122.675 90.6032H131.534V28.6115H122.675V90.6032ZM0 133.785H74.4747V215.805H32.8082V224.389H74.4747V253H0V194.823H41.6664V162.397H32.8082V186.24H0V133.785ZM89.8672 133.785H164.342V162.397H122.675V170.98H164.342V253H89.8672V133.785ZM131.534 224.389V191.962H122.675V224.389H131.534Z" fill="#DC812E"/>
</svg>
