<svg width="39" height="42" viewBox="0 0 39 42" fill="none" xmlns="http://www.w3.org/2000/svg">
<path d="M38.8741 24.9966C38.8741 24.9966 38.0551 23.4452 35.9275 23.23C35.9275 23.23 34.5515 20.416 32.1434 20.5537C29.7373 20.6924 28.8306 21.9847 28.5838 22.1978C28.3339 22.41 26.6132 22.971 26.6132 22.971C26.6132 22.971 26.195 14.5584 27.3608 11.9544C28.5286 9.35352 28.4124 6.75773 27.7362 4.04465C27.06 1.33156 24.9497 -0.301372 24.7191 0.0464328C24.4825 0.393218 24.6416 1.37952 24.6416 1.37952C24.6416 1.37952 23.0128 0.333045 22.9363 1.25611C22.8557 2.18121 22.974 2.80848 22.974 2.80848C22.974 2.80848 21.6736 1.81298 21.5318 2.97165C21.39 4.13236 21.4757 4.89835 21.4757 4.89835C21.4757 4.89835 20.5179 4.14052 20.4282 4.92792C20.3353 5.71839 20.4567 6.38748 20.4567 6.38748C20.4567 6.38748 19.0125 6.13963 19.7366 8.07143C19.7366 8.07143 18.1139 7.89092 17.9161 11.3455C17.7172 14.7981 19.1584 16.9124 18.2771 18.7942C17.3959 20.6812 17.0654 26.4307 17.0654 26.4307C17.0654 26.4307 9.86856 30.0117 4.22514 33.9498C1.49573 35.854 1.13366 36.2314 0.0494419 37.0362C-0.674727 37.5767 6.77609 35.0768 8.01125 34.6597C9.24234 34.2456 13.7199 31.3989 14.438 30.9032C15.1621 30.4105 19.1012 29.6864 19.1012 29.6864C19.1012 29.6864 14.2646 35.3624 13.1304 36.2243C11.9942 37.0841 9.00775 38.5712 8.44678 39.6391C7.88274 40.7131 8.45593 41.7433 9.94608 41.985C11.4413 42.2257 12.4072 39.5065 13.4364 38.8864C14.4604 38.2662 18.8523 37.8562 20.9769 36.8342C23.1005 35.8122 29.4803 32.4301 30.5941 29.7873C31.7099 27.1416 32.8217 24.8671 33.8457 24.6111C34.8687 24.3601 37.2554 24.0409 38.8741 24.9966Z" fill="#520A20"/>
</svg>
