<svg width="25" height="18" viewBox="0 0 25 18" fill="none" xmlns="http://www.w3.org/2000/svg">
<path d="M23.0212 16.4329C23.0212 16.4329 22.9134 15.7003 21.6091 15.1779C21.6091 15.1779 21.2859 13.5607 20.3367 13.3206C19.3906 13.0794 18.0699 12.6485 18.0699 12.6485C18.0699 12.6485 19.487 10.2308 20.6928 9.6623C21.9047 9.09483 23.8544 7.25492 24.3162 6.0307C24.7769 4.80648 24.8313 2.48838 24.2228 2.66077C23.6143 2.83009 23.4614 3.79263 23.4614 3.79263C23.4614 3.79263 23.2284 2.72541 22.7297 3.04866C22.231 3.3719 22.0053 4.23181 22.0053 4.23181C22.0053 4.23181 21.9827 3.24363 21.4911 3.52275C20.9986 3.80392 20.6846 4.64947 20.6846 4.64947C20.6846 4.64947 20.4404 3.93833 19.9047 4.21026C19.368 4.48528 19.6615 4.6197 18.9945 5.14305C18.3305 5.66126 16.8877 6.86598 15.955 7.65613C15.0232 8.44731 12.6446 9.90551 12.6446 9.90551C12.6446 9.90551 9.84825 7.22209 9.49422 6.62896C9.13917 6.03789 4.15917 2.73978 3.09709 1.54019C2.03501 0.342653 1.20691 -0.370532 0.847747 0.200016C0.491667 0.767486 1.19357 1.41909 1.19357 1.41909C1.19357 1.41909 0.15815 1.16462 0.231007 1.84702C0.300787 2.53045 0.898041 2.7131 0.898041 2.7131C0.898041 2.7131 -0.0131951 2.52429 0.000145055 3.01787C0.0104067 3.51248 0.872361 4.00812 0.872361 4.00812C0.872361 4.00812 -0.0593911 3.68181 0.147894 4.34163C0.35518 5.00043 1.1946 5.35753 1.1946 5.35753C1.1946 5.35753 0.411641 5.2313 0.535807 5.56378C0.659973 5.89728 1.64508 6.45862 1.77746 6.47811C1.90881 6.50172 2.18277 7.30623 3.08375 8.38473C3.98575 9.47042 6.84878 11.1769 7.25822 11.6921C7.67074 12.2021 8.10172 13.7054 8.10172 13.7054C8.10172 13.7054 5.93035 14.7028 4.64354 14.631C3.35673 14.5612 2.08221 14.1364 1.67277 14.7428C1.26128 15.3473 0.507051 16.7049 1.33312 17.9999C1.33312 17.9999 4.57273 16.7695 6.27924 16.9953C7.98884 17.2231 12.1017 18.1005 14.8867 17.4673C17.6748 16.8342 19.2818 16.0163 20.3203 15.9588C21.3608 15.9004 22.035 15.8727 23.0212 16.4329Z" fill="#520A20"/>
</svg>
