<svg width="41" height="29" viewBox="0 0 41 29" fill="none" xmlns="http://www.w3.org/2000/svg">
<path d="M28.7401 19.7893C28.7401 19.7893 28.422 18.7769 27.6206 18.964C27.6206 18.964 27.6046 17.8125 27.1314 17.4173C26.6622 17.0192 31.3792 12.4512 31.7414 12.0051C32.1035 11.5589 35.3009 8.43356 36.7745 7.50917C38.2481 6.58778 40.6962 1.31956 40.7702 0C40.7702 0 35.7451 3.62752 34.4465 5.66538C33.146 7.70324 30.2047 9.39895 29.0032 10.4004C27.8017 11.4048 24.1782 17.2382 23.4489 17.5494C22.7186 17.8645 20.7548 18.6839 20.0285 18.6368C19.2981 18.5888 15.2984 16.2648 13.0615 15.9167C10.8286 15.5716 5.51932 14.7082 3.95766 14.7112C2.397 14.7132 0 14.7672 0 14.7672C0 14.7672 3.35542 17.7435 6.24463 18.0106C9.13785 18.2767 13.4997 20.1545 15.0694 20.7297C16.635 21.304 18.99 23.4298 18.99 23.4298C18.99 23.4298 18.5698 25.6258 18.0006 26.264C17.4323 26.9023 15.9407 28.1168 15.7326 28.3069C15.5255 28.502 16.586 29.0512 17.7505 28.9962C18.921 28.9412 20.0074 28.9032 21.1309 28.6431C22.2534 28.382 25.7118 27.6506 26.7803 25.1606C27.8457 22.6715 27.7187 20.2045 27.7187 20.2045C27.7187 20.2045 28.485 19.7753 28.7401 19.7893Z" fill="#520A20"/>
</svg>
