<svg width="589" height="80" viewBox="0 0 589 80" fill="none" xmlns="http://www.w3.org/2000/svg">
<path d="M45.3476 17.5909C44.4496 13.3705 38.074 12.9217 34.8413 12.5625C26.131 11.9339 17.5104 12.7421 8.97971 14.8074C6.91438 15.3462 4.93888 15.7053 2.78375 16.2441C1.97558 15.436 1.52658 14.6278 0.718409 13.7298C2.24496 12.293 3.8613 12.0236 5.38785 11.6644C15.2655 9.50925 25.1432 7.26436 34.9311 5.46842C43.1924 3.94187 51.6334 2.95412 59.8947 1.87656C71.4786 0.170412 83.242 -0.188825 95.0054 0.0805665C97.1605 0.170364 99.4054 0.529577 101.65 0.978562C103.985 1.33775 105.242 2.95417 105.601 5.28889C105.601 5.64808 105.063 6.00725 104.703 6.63583C101.201 4.2113 97.1605 4.48063 93.1197 4.57042C83.0624 5.01941 68.9642 5.28884 62.7682 6.72559C58.009 11.7542 53.6987 15.8848 49.1191 20.8236C48.5803 21.2726 48.2211 22.081 47.9517 22.7994C46.0659 30.2525 41.5761 36.3586 36.9066 42.1056C33.4943 46.3261 29.8127 50.3671 26.0412 54.2284C19.8452 60.3346 13.3798 66.2611 7.09402 72.3673C5.92666 73.3551 4.75929 74.253 3.41234 75.2407C2.24497 74.253 1.25716 73.3552 0 72.1878C1.07757 70.3919 1.88574 68.6857 3.0531 67.1591C6.196 62.9387 9.3389 58.8078 12.841 54.767C22.9881 43.1831 33.3148 31.5096 43.5516 19.9257C44.1802 19.1176 44.8088 18.2195 45.3476 17.5909ZM37.7148 9.77875C42.0251 10.9461 45.3476 12.7419 47.7721 15.346C50.1068 13.1011 52.6211 10.5869 55.315 7.80323C51.6334 7.35425 41.5761 8.70119 37.7148 9.77875ZM18.6778 55.7547C25.1432 51.3547 37.7148 36.8075 40.0495 31.0605C32.5964 38.9627 25.4126 47.224 18.6778 55.7547ZM74.7681 43.8117C80.2457 43.3627 85.454 42.2854 90.6622 41.7466C91.7398 41.6568 91.65 42.6445 92.2785 43.9016C88.4173 44.8894 79.4375 46.865 76.115 47.2242C73.3313 47.4936 71.0864 45.6976 71.0864 43.1833C71.1762 41.6567 71.266 39.7711 71.4456 37.5261C64.8904 39.5017 59.5026 44.5302 55.2822 49.3792C54.1148 50.9058 52.9474 52.3426 51.5107 53.959C50.5229 53.3304 49.7147 52.7915 48.9963 52.3425C50.2535 48.3016 56.0005 41.7464 63.9925 35.3708C65.519 35.281 67.0456 35.371 68.3027 35.0118C71.6252 33.8444 74.5885 35.6403 75.0375 38.6934C75.2171 40.3996 74.7681 42.1056 74.7681 43.8117ZM88.7785 43.5423C96.3214 34.4728 97.4888 33.5749 98.7459 32.5871L101.53 35.0118C98.2072 38.5139 94.5255 41.3874 91.9214 45.2487C90.0356 47.9426 89.7662 51.1751 94.1663 49.8282C102.966 46.4159 107.187 44.8893 114.909 41.8362C115.987 41.6566 116.885 42.0158 117.154 43.5423C112.216 45.6975 108.534 47.0446 104.313 48.9303C100.362 50.7262 96.0521 53.2404 92.3704 53.5098C87.4315 53.869 85.7253 47.224 88.7785 43.5423ZM101.979 30.0727C104.852 24.1461 106.648 23.5177 109.522 26.9299C107.905 28.4565 106.289 29.9831 104.403 31.6892C103.595 31.2402 102.697 30.6115 101.979 30.0727ZM117.361 36.8974C122.39 28.5463 128.406 20.8236 135.769 14.3582C138.822 11.5745 142.325 9.15017 145.737 6.90524C147.443 5.82767 149.418 5.28885 151.304 4.75007C154.806 3.49291 157.77 7.26427 156.423 10.8562C155.704 12.7419 154.627 14.6276 153.37 16.3338C150.496 19.6563 147.533 23.0687 144.3 26.2116C140.888 29.6239 137.386 32.7668 133.524 35.4607C136.398 34.2934 139.451 33.3056 142.504 32.4974C144.12 32.1383 146.006 31.9586 147.802 32.1382C151.394 32.228 152.831 35.5504 150.945 38.7831C150.496 39.8606 149.778 40.6689 148.969 41.8362C151.484 42.1954 153.639 41.8364 155.794 41.7466C158.937 41.4772 161.9 41.2076 164.864 41.2974C166.66 41.2974 166.839 42.375 166.39 44.3506C159.835 44.6199 158.219 44.6201 153.998 44.9793C152.023 45.1589 149.957 45.5179 148.072 45.7873C145.018 46.4158 141.876 47.1344 138.912 48.7508C134.602 50.9059 129.932 52.4324 125.443 54.1385C124.006 54.7671 122.479 54.7671 120.863 54.9467C120.324 53.959 119.875 53.2406 119.336 52.4324C119.606 51.8038 119.785 51.3547 120.055 51.0853C121.851 49.8282 123.737 48.3018 125.712 47.4936C128.855 46.416 132.088 45.518 135.41 44.7099C138.284 44.1711 140.708 42.8241 142.863 41.2078C147.982 37.2567 149.419 33.9342 141.876 36.269C133.704 38.6935 126.251 42.6444 119.785 48.571C117.989 50.2771 116.014 51.8037 116.373 54.8568C113.41 54.1385 112.781 52.0732 112.602 49.9181C112.242 46.1466 115.296 40.2199 117.361 36.8974ZM123.736 37.3464C125.802 36.0892 127.957 35.1914 130.112 33.7546C137.296 28.9056 143.671 23.0688 149.239 16.0646C150.316 14.8074 151.304 13.3705 152.023 11.9338C152.651 10.946 153.37 9.86861 152.741 8.34206C149.329 8.16246 146.455 9.95826 143.492 11.9338C134.512 18.6686 127.508 27.1994 121.581 36.7179C120.504 38.0649 123.198 37.526 123.736 37.3464ZM119.157 41.7466C118.708 42.9139 118.259 43.9914 117.81 45.1588C118.528 44.62 119.157 44.2608 119.875 43.6322C120.773 42.9138 121.671 42.1057 122.659 41.4772L122.3 41.6567C121.222 42.1955 120.145 42.2854 119.157 41.7466ZM184.766 35.6403C186.382 34.5627 187.549 33.6647 188.896 32.5871C189.794 33.3953 190.692 34.1138 191.68 35.0118C188.358 38.5139 184.676 41.3874 182.072 45.2487C180.186 47.9426 179.198 51.5343 183.868 49.5588C192.668 46.1465 197.337 44.8893 205.06 41.8362C206.137 41.6566 207.035 42.0158 207.305 43.5423C200.211 46.5954 195.721 48.122 188.537 51.8037C182.79 54.4078 178.21 53.6894 175.876 47.7628C172.284 49.9179 169.68 51.6243 166.986 53.2406C164.023 54.9468 163.394 54.6774 160.071 51.714C160.79 46.7752 162.676 44.1711 165.818 41.4772C166.627 40.8486 167.435 40.1301 168.333 39.4118C173.092 35.8199 178.39 33.6647 184.766 35.6403ZM165.639 48.571C171.835 45.1587 176.055 42.8241 182.072 38.424C175.337 38.0648 170.218 40.6689 165.639 48.571ZM247.206 9.23993C249.63 12.1134 249.63 13.4605 247.475 15.7952C245.05 18.4891 242.446 21.0033 239.663 23.1584C231.132 29.4442 222.062 34.7423 212.813 39.6812C209.221 41.5669 207.066 45.6077 207.246 50.2771C208.234 52.3424 229.965 45.8771 243.614 41.3873C243.973 42.6444 244.871 43.5425 243.434 44.2609C235.622 47.9426 216.944 53.9589 209.221 53.8691C204.911 53.7793 202.756 49.9181 203.744 45.2487C204.103 43.4527 205.899 41.8363 204.732 40.22C206.168 38.6934 207.515 37.526 208.503 36.1791C213.262 29.9831 218.111 24.1462 224.128 19.2074C229.156 15.0767 234.544 11.6645 240.74 9.50934C242.716 8.79096 245.679 7.71338 247.206 9.23993ZM244.512 12.6521C232.928 15.8848 220.985 26.2115 213.981 35.5504C225.026 29.1748 242.267 18.6686 244.512 12.6521ZM317.104 17.5909C316.206 13.3705 309.833 12.9217 306.6 12.5625C297.89 11.9339 289.27 12.7421 280.739 14.8074C278.674 15.3462 276.698 15.7053 274.543 16.2441C273.735 15.436 273.286 14.6278 272.477 13.7298C274.004 12.293 275.62 12.0236 277.147 11.6644C287.025 9.50925 296.902 7.26436 306.69 5.46842C314.949 3.94187 323.389 2.95412 331.651 1.87656C343.235 0.170412 354.998 -0.188825 366.762 0.0805665C368.917 0.170364 371.162 0.529577 373.407 0.978562C375.741 1.33775 376.998 2.95417 377.358 5.28889C377.358 5.64808 376.819 6.00725 376.46 6.63583C372.957 4.2113 368.917 4.48063 364.876 4.57042C354.818 5.01941 340.72 5.28884 334.524 6.72559C329.765 11.7542 325.455 15.8848 320.875 20.8236C320.336 21.2726 319.977 22.081 319.708 22.7994C317.822 30.2525 313.332 36.3586 308.666 42.1056C305.253 46.3261 301.572 50.3671 297.8 54.2284C291.604 60.3346 285.139 66.2611 278.853 72.3673C277.686 73.3551 276.518 74.253 275.171 75.2407C274.004 74.253 273.016 73.3552 271.759 72.1878C272.837 70.3919 273.645 68.6857 274.812 67.1591C277.955 62.9387 281.098 58.8078 284.6 54.767C294.747 43.1831 305.074 31.5096 315.308 19.9257C315.936 19.1176 316.565 18.2195 317.104 17.5909ZM309.474 9.77875C313.781 10.9461 317.104 12.7419 319.528 15.346C321.863 13.1011 324.377 10.5869 327.071 7.80323C323.389 7.35425 313.332 8.70119 309.474 9.77875ZM290.437 55.7547C296.902 51.3547 309.474 36.8075 311.806 31.0605C304.355 38.9627 297.172 47.224 290.437 55.7547ZM347.874 35.6403C349.49 34.5627 350.658 33.6647 352.005 32.5871C352.903 33.3953 353.801 34.1138 354.789 35.0118C351.466 38.5139 347.784 41.3874 345.18 45.2487C343.294 47.9426 342.307 51.5343 346.976 49.5588C355.776 46.1465 360.446 44.8893 368.168 41.8362C369.246 41.6566 370.144 42.0158 370.413 43.5423C363.319 46.5954 358.829 48.122 351.646 51.8037C345.899 54.4078 341.319 53.6894 338.984 47.7628C335.392 49.9179 332.788 51.6243 330.094 53.2406C327.131 54.9468 326.502 54.6774 323.18 51.714C323.898 46.7752 325.784 44.1711 328.927 41.4772C329.735 40.8486 330.543 40.1301 331.441 39.4118C336.201 35.8199 341.499 33.6647 347.874 35.6403ZM328.747 48.571C334.943 45.1587 339.164 42.8241 345.18 38.424C338.445 38.0648 333.327 40.6689 328.747 48.571ZM367.57 52.0731C364.427 55.7548 361.463 58.808 358.859 61.9509C356.165 65.0938 353.741 68.2367 351.137 71.649C349.88 70.751 348.982 70.0326 347.994 69.3142C348.353 68.1468 348.622 67.1591 349.251 66.3509C356.165 56.0242 363.529 45.8772 372.509 37.1668C373.855 35.8199 375.472 34.5626 376.998 33.3054C377.896 32.4973 379.064 32.0485 380.77 32.7669C380.949 33.3954 381.219 34.5626 381.578 35.8198C377.268 36.0892 373.406 41.477 371.341 44.5301C376.639 41.6566 383.733 35.6404 389.39 33.7546C391.905 32.8566 394.329 33.3955 396.484 35.2812C398.46 37.1669 397.472 40.7587 395.856 43.0934C400.705 42.5546 405.015 42.3752 409.954 41.7466C411.391 41.567 412.827 41.7465 413.097 44.4404C407.619 44.9792 398.819 45.7874 392.892 46.9548C391.007 47.4038 389.121 48.2118 387.415 49.0199C382.835 51.1751 377.986 52.7017 372.868 53.5997C370.982 53.8691 369.276 53.7792 367.57 52.0731ZM372.329 49.2893C381.039 47.0444 390.288 45.4282 394.599 37.1668C389.121 36.5383 381.668 41.1178 372.329 49.2893ZM430.218 39.3219C430.308 41.5668 421.149 44.5302 412.798 45.6077C412.259 51.1751 420.969 49.6487 424.381 49.4691C435.247 47.763 444.855 44.5303 454.733 41.7466C455.9 43.6323 454.463 44.171 453.925 44.3506C441.263 48.571 428.961 53.3303 418.006 53.3303C408.757 53.3303 405.973 43.9914 413.965 38.8729C417.557 36.4484 421.687 35.1914 426.447 35.2812C428.512 35.371 429.769 36.4484 430.218 39.3219ZM417.198 41.7466C419.981 41.118 422.047 40.5792 424.022 38.9628C421.238 38.9628 419.622 39.8608 417.198 41.7466ZM473.63 35.5504C469.32 36.8075 465.818 38.6933 462.405 41.1179C466.177 41.6567 469.948 41.1178 473.001 43.5423C477.851 42.4648 483.777 40.4893 488.177 40.8485C489.704 41.028 489.524 41.7466 489.793 43.7221C484.585 43.4527 480.993 45.069 476.144 46.1465C473.989 46.7751 471.834 47.6732 469.859 48.4814C464.022 50.7263 458.275 53.1507 452.258 55.3957C448.666 56.8324 444.985 58.0896 441.303 59.4366C439.507 60.0652 438.16 59.9753 437.172 57.91C437.532 56.3835 438.879 56.2039 440.136 55.6651C448.397 52.5222 456.569 49.1996 464.83 46.0567C465.548 45.7873 466.177 45.4282 467.793 44.7099C464.201 44.1711 461.508 44.4404 458.724 44.8894C456.748 45.3384 455.042 44.9791 453.965 43.3628C453.067 42.1954 453.516 40.9384 454.863 40.4894C459.263 38.2445 463.663 35.9097 468.063 33.9341C469.859 33.126 471.834 32.7667 473.63 35.5504ZM520.305 41.7466L521.203 44.5301C512.941 48.2118 500.819 54.1385 492.378 55.3957C487.17 56.2936 483.667 52.2528 485.284 47.2242C486.002 44.8895 487.439 42.9139 491.48 35.9995C488.427 36.6281 486.182 37.0771 483.667 37.7057C483.218 37.2567 482.769 36.7179 482.231 35.9995C480.255 33.8444 490.672 33.3952 494.623 32.0483C511.056 14.6276 516.174 10.2278 522.909 8.34206C525.423 10.3176 525.782 11.2154 524.166 13.191C522.639 15.2563 520.933 17.1421 518.958 18.7585C513.66 23.4279 508.631 27.2891 503.962 31.4198C508.631 31.4198 516.174 30.6117 515.994 34.2036C511.055 34.4729 505.937 34.2035 500.639 34.9219C498.394 35.1015 496.508 35.8198 495.251 37.6158C492.378 42.1056 489.145 46.6853 487.798 51.8936C489.504 52.3426 490.941 52.4324 496.688 50.4569C504.231 47.8528 513.211 44.7997 520.305 41.7466ZM520.305 13.3705C516.713 14.8072 505.039 26.481 502.704 29.7137C509.17 23.6075 520.394 15.346 520.305 13.3705ZM537.695 43.8117C543.173 43.3627 548.381 42.2854 553.589 41.7466C554.667 41.6568 554.577 42.6445 555.206 43.9016C551.344 44.8894 542.365 46.865 539.042 47.2242C536.259 47.4936 534.014 45.6976 534.014 43.1833C534.103 41.6567 534.193 39.7711 534.373 37.5261C527.818 39.5017 522.43 44.5302 518.209 49.3792C517.042 50.9058 515.875 52.3426 514.438 53.959C513.45 53.3304 512.642 52.7915 511.924 52.3425C513.181 48.3016 518.928 41.7464 526.92 35.3708C528.446 35.281 529.973 35.371 531.23 35.0118C534.552 33.8444 537.516 35.6403 537.965 38.6934C538.144 40.3996 537.695 42.1056 537.695 43.8117ZM566.969 50.1875C566.43 50.9058 564.814 52.7914 564.365 53.5098C572.447 50.0975 581.157 44.62 587.263 41.9261C588.341 44.2608 588.072 44.7996 587.802 44.8894C581.876 47.9425 574.333 51.3547 569.124 54.4976C555.206 62.7589 553.051 70.3916 546.046 76.9468C544.61 78.2938 543.083 79.7306 540.569 80L537.875 77.6654C537.875 77.0368 537.875 76.5877 538.054 76.2285C539.222 73.1754 541.467 70.8407 543.712 68.7754C546.855 65.812 549.908 62.9385 553.32 60.514C557.9 57.3711 560.773 52.7018 564.455 47.6731C561.132 48.5711 558.079 50.0977 554.936 51.1752C550.536 49.1099 550.087 47.8526 551.793 44.0811C553.589 40.3097 556.732 36.2689 560.055 33.7546L562.03 35.6403C558.618 39.1423 556.014 42.8239 554.218 47.7628C558.887 46.775 562.39 44.4404 565.982 42.1955C569.214 40.0404 572.267 37.4362 575.68 34.6525C576.039 35.0117 576.667 35.5506 577.745 36.269C575.68 38.6935 573.884 40.8486 572.177 43.0037C570.471 45.0691 569.035 47.4038 566.969 50.1875Z" fill="black"/>
</svg>
