<svg width="51" height="39" viewBox="0 0 51 39" fill="none" xmlns="http://www.w3.org/2000/svg">
<path d="M0 28.0319C0 28.0319 0.479691 26.6038 3.27382 26.0349C3.27382 26.0349 4.51162 22.9133 6.49055 22.7771C8.47047 22.6379 11.2646 22.2494 11.2646 22.2494C11.2646 22.2494 9.31171 16.9065 7.09844 15.3341C4.88417 13.7578 1.65442 9.37734 1.1667 6.76148C0.681986 4.14261 1.41007 -0.515275 2.56678 0.0465551C3.72449 0.613393 3.6814 2.58931 3.6814 2.58931C3.6814 2.58931 4.53466 0.539284 5.41596 1.36551C6.29726 2.19373 6.43951 3.99239 6.43951 3.99239C6.43951 3.99239 6.83706 2.02748 7.72137 2.76156C8.60167 3.50066 8.9242 5.30333 8.9242 5.30333C8.9242 5.30333 9.67025 3.97136 10.6447 4.70945C11.6201 5.44954 10.9862 5.61678 12.1269 6.89667C13.2646 8.18257 15.7212 11.1069 17.2986 13.0277C18.8769 14.9476 23.1101 18.7242 23.1101 18.7242C23.1101 18.7242 29.6748 14.3657 30.5932 13.3091C31.5165 12.2496 42.672 7.4515 45.2288 5.44053C47.7866 3.42655 49.6974 2.29989 50.2132 3.56576C50.7229 4.83664 49.0815 5.88219 49.0815 5.88219C49.0815 5.88219 51.2407 5.74798 50.8551 7.08896C50.4675 8.42693 49.2037 8.58117 49.2037 8.58117C49.2037 8.58117 51.0915 8.52909 50.8912 9.51354C50.6939 10.501 48.79 11.176 48.79 11.176C48.79 11.176 50.775 10.8595 50.12 12.1034C49.462 13.3482 47.6574 13.7598 47.6574 13.7598C47.6574 13.7598 49.2737 13.7909 48.9022 14.4148C48.5317 15.0317 46.3554 15.7978 46.088 15.7928C45.8166 15.7888 44.9774 17.296 42.7812 19.1368C40.5879 20.9795 34.2486 23.361 33.2371 24.2403C32.2306 25.1176 30.8225 27.9648 30.8225 27.9648C30.8225 27.9648 34.8134 30.7419 37.4073 31.0694C40.0061 31.3929 42.7131 31.0003 43.312 32.3613C43.9129 33.7193 44.9274 36.7067 42.8103 39.0001C42.8103 39.0001 36.7793 35.3667 33.2751 35.2045C29.7759 35.0403 21.2334 35.3087 15.8905 33.0423C10.5466 30.773 7.62728 28.5547 5.57024 28.0599C3.5152 27.5662 2.17321 27.2688 0 28.0319Z" fill="#520A20"/>
</svg>
