<svg width="72" height="55" viewBox="0 0 72 55" fill="none" xmlns="http://www.w3.org/2000/svg">
<path d="M0.237608 51.1676C0.237608 51.1676 0.235598 48.0343 3.41914 45.9273C3.41914 45.9273 3.24338 40.3436 7.15803 38.559C11.0707 36.7714 13.5743 38.0609 14.1437 38.1854C14.7172 38.313 17.8987 37.7717 17.8987 37.7717C17.8987 37.7717 11.5487 24.1507 7.54468 21.0104C3.53965 17.876 1.56223 13.6862 0.374175 8.84364C-0.813877 4.00004 1.14846 -0.332379 1.81027 0.0201198C2.46506 0.373623 3.0395 2.06481 3.0395 2.06481C3.0395 2.06481 4.73873 -0.946994 5.62851 0.446934C6.52131 1.83885 6.85976 2.92748 6.85976 2.92748C6.85976 2.92748 8.08397 0.275205 9.27503 1.98648C10.4621 3.69776 10.9622 4.98323 10.9622 4.98323C10.9622 4.98323 11.8369 2.99075 12.6393 4.15671C13.4438 5.32166 13.8053 6.48361 13.8053 6.48361C13.8053 6.48361 15.8831 4.89083 16.3471 8.54136C16.3471 8.54136 18.7564 6.9064 21.9419 12.1889C25.1335 17.4703 24.6132 22.0046 27.5748 24.2441C30.5294 26.4837 35.837 35.2861 35.837 35.2861C35.837 35.2861 50.1709 34.9466 62.3588 36.4641C68.2468 37.2002 69.1266 37.4935 71.5117 37.86C73.1045 38.1051 59.2666 40.3657 56.9729 40.7363C54.6832 41.1048 45.254 40.3396 43.7035 40.1608C42.1569 39.9811 35.3338 42.1151 35.3338 42.1151C35.3338 42.1151 47.6874 47.0461 50.1981 47.4619C52.7077 47.8746 58.658 47.733 60.4336 48.9542C62.2152 50.1754 62.165 52.2824 60.0148 53.9043C57.8637 55.5242 54.0695 52.0393 51.9344 51.9158C49.7984 51.7903 42.5314 54.7951 38.3276 54.9507C34.1257 55.1084 21.2419 55.0793 17.2831 51.8365C13.3232 48.5927 9.67774 45.9253 7.85499 46.3773C6.02822 46.8252 1.99609 48.3075 0.237608 51.1676Z" fill="#520A20"/>
</svg>
