<svg width="134" height="220" viewBox="0 0 134 220" fill="none" xmlns="http://www.w3.org/2000/svg">
<g clip-path="url(#clip0_306_194)">
<path d="M346.828 -229.443L348.602 -221.431L351.277 -209.323C353.839 -211.242 356.579 -212.886 359.467 -214.216L362.18 -238.298L367.143 -216.838C368.263 -217.092 369.404 -217.299 370.565 -217.453C371.695 -217.603 372.83 -217.688 373.959 -217.728L378.524 -247.19L382.155 -217.066C383.431 -216.813 384.695 -216.49 385.94 -216.095L397.81 -234.143L392.69 -213.151C394.342 -212.21 395.915 -211.133 397.395 -209.929L411.043 -220.252L402.191 -205.131C403.33 -203.73 404.363 -202.23 405.274 -200.625L417.558 -203.562L407.649 -195.317C408.34 -193.252 408.816 -191.115 409.041 -188.954L418.981 -186.965L409.125 -183.732C409.016 -182.158 408.761 -180.597 408.388 -179.061L415.335 -174.396L406.918 -174.669C406.519 -173.747 406.071 -172.839 405.563 -171.958C402.914 -167.366 398.887 -164.171 394.452 -161.396C389.484 -158.284 383.162 -155.483 380.825 -149.739C380.77 -149.471 380.626 -149.219 380.417 -149.01C380.212 -148.785 379.96 -148.636 379.688 -148.561C379.677 -148.554 379.668 -148.551 379.66 -148.549C379.614 -148.541 379.573 -148.53 379.526 -148.522C379.279 -148.467 379.014 -148.465 378.749 -148.539C378.42 -148.622 378.126 -148.803 377.934 -149.052C372.139 -154.029 379.688 -161.723 382.507 -166.052C387.055 -173.038 390.277 -182.882 382.981 -189.319C376.414 -195.105 365.788 -192.379 362.728 -184.191C361.335 -180.471 361.573 -175.58 364.481 -172.602C365.77 -171.283 367.357 -170.706 368.934 -170.735C362.42 -173.19 362.422 -182.82 368.532 -186.214C376.178 -190.47 384.374 -182.788 383.182 -174.859C382.501 -170.359 379.449 -167.2 375.772 -164.802C371.58 -162.063 367.552 -159.697 363.994 -156.102C357.057 -149.09 351.471 -140.146 348.893 -130.59C348.697 -129.86 348.068 -129.489 347.436 -129.483C346.804 -129.481 346.169 -129.846 345.965 -130.572C343.27 -140.096 337.576 -148.972 330.554 -155.899C326.953 -159.45 322.897 -161.767 318.672 -164.455C314.966 -166.808 311.876 -169.929 311.14 -174.421C309.851 -182.335 317.954 -190.115 325.65 -185.954C331.802 -182.634 331.921 -173.004 325.437 -170.47C327.014 -170.461 328.594 -171.056 329.867 -172.391C332.738 -175.405 332.917 -180.299 331.478 -184.001C328.319 -192.151 317.662 -194.747 311.165 -188.883C303.948 -182.357 307.29 -172.552 311.922 -165.622C314.794 -161.328 322.436 -153.726 316.702 -148.679C316.512 -148.428 316.22 -148.243 315.893 -148.157C315.629 -148.08 315.364 -148.079 315.116 -148.13C315.069 -148.138 315.028 -148.148 314.981 -148.156C314.973 -148.158 314.965 -148.16 314.954 -148.168C314.68 -148.239 314.426 -148.385 314.219 -148.607C314.007 -148.813 313.861 -149.064 313.803 -149.331C311.396 -155.047 305.04 -157.77 300.034 -160.822C295.566 -163.543 291.501 -166.689 288.796 -171.248C288.277 -172.123 287.818 -173.025 287.408 -173.942L278.995 -173.567L285.884 -178.316C285.493 -179.847 285.219 -181.405 285.091 -182.978L275.196 -186.091L285.112 -188.2C285.311 -190.364 285.76 -192.507 286.426 -194.58L276.417 -202.703L288.736 -199.916C289.628 -201.532 290.642 -203.045 291.764 -204.459L282.729 -219.471L296.502 -209.316C297.967 -210.538 299.527 -211.634 301.167 -212.594L295.793 -233.523L307.881 -215.62C309.12 -216.03 310.381 -216.369 311.654 -216.637L314.919 -246.803L319.841 -217.398C320.971 -217.373 322.107 -217.302 323.239 -217.165C324.401 -217.024 325.545 -216.832 326.667 -216.592L331.369 -238.111L334.375 -214.063C337.279 -212.769 340.038 -211.158 342.623 -209.271L345.151 -221.41L346.828 -229.443ZM679.501 99.2078L671.49 100.981L659.382 103.657C661.301 106.219 662.944 108.958 664.274 111.846L688.356 114.56L666.896 119.522C667.15 120.642 667.356 121.783 667.511 122.944C667.662 124.074 667.746 125.209 667.786 126.339L697.249 130.903L667.124 134.534C666.871 135.811 666.548 137.075 666.154 138.32L684.202 150.189L663.209 145.07C662.269 146.721 661.192 148.295 659.988 149.775L670.31 163.423L655.189 154.571C653.788 155.71 652.288 156.743 650.683 157.654L653.62 169.939L645.375 160.029C643.311 160.72 641.174 161.196 639.012 161.421L637.024 171.361L633.79 161.505C632.216 161.396 630.655 161.141 629.12 160.768L624.454 167.716L624.727 159.298C623.805 158.899 622.897 158.451 622.016 157.943C617.424 155.294 614.229 151.268 611.454 146.832C608.342 141.864 605.541 135.542 599.796 133.205C599.528 133.15 599.276 133.006 599.068 132.797C598.843 132.593 598.694 132.34 598.619 132.068C598.612 132.057 598.609 132.049 598.607 132.041C598.599 131.994 598.588 131.953 598.579 131.906C598.525 131.66 598.523 131.394 598.597 131.129C598.679 130.8 598.861 130.507 599.11 130.314C604.086 124.519 611.781 132.068 616.109 134.887C623.096 139.435 632.939 142.657 639.377 135.361C645.162 128.794 642.437 118.168 634.248 115.109C630.529 113.715 625.637 113.953 622.659 116.861C621.34 118.15 620.764 119.737 620.793 121.314C623.247 114.8 632.877 114.802 636.272 120.913C640.527 128.558 632.846 136.754 624.917 135.562C620.416 134.881 617.258 131.829 614.86 128.152C612.12 123.96 609.754 119.933 606.16 116.375C599.148 109.438 590.204 103.852 580.648 101.274C579.918 101.078 579.546 100.448 579.54 99.8164C579.538 99.1844 579.903 98.5495 580.63 98.3454C590.154 95.6512 599.029 89.9573 605.956 82.935C609.507 79.3342 611.824 75.2779 614.512 71.0534C616.866 67.3469 619.987 64.2573 624.479 63.5212C632.392 62.2329 640.173 70.3359 636.011 78.0324C632.691 84.1839 623.062 84.3026 620.528 77.8194C620.519 79.3962 621.114 80.9761 622.449 82.2493C625.462 85.1203 630.357 85.2988 634.058 83.8604C642.209 80.701 644.805 70.0436 638.94 63.5475C632.414 56.33 622.611 59.6721 615.68 64.3044C611.386 67.1763 603.784 74.8175 598.737 69.0836C598.486 68.8941 598.301 68.6022 598.214 68.2748C598.137 68.0111 598.136 67.7458 598.188 67.498C598.195 67.4512 598.206 67.41 598.214 67.3633C598.216 67.3553 598.218 67.3466 598.225 67.3355C598.297 67.0624 598.443 66.8084 598.665 66.6013C598.871 66.39 599.122 66.2429 599.388 66.1848C605.105 63.7778 607.828 57.4217 610.879 52.4161C613.6 47.9476 616.746 43.8831 621.306 41.1779C622.18 40.6591 623.083 40.2003 624 39.79L623.625 31.3766L628.375 38.2665C629.905 37.8751 631.463 37.6009 633.036 37.4728L636.149 27.5782L638.258 37.4938C640.422 37.6926 642.565 38.1421 644.638 38.8076L652.762 28.799L649.974 41.1185C651.59 42.0097 653.103 43.0244 654.517 44.146L669.529 35.1108L659.373 48.8836C660.596 50.3485 661.692 51.9093 662.652 53.549L683.581 48.175L665.678 60.2627C666.088 61.5022 666.427 62.763 666.695 64.0359L696.862 67.3001L667.456 72.2227C667.43 73.3525 667.359 74.4886 667.222 75.6203C667.082 76.782 666.889 77.9263 666.649 79.0487L688.168 83.75L664.121 86.7562C662.826 89.6602 661.216 92.4193 659.328 95.0044L671.468 97.5325L679.501 99.2078ZM350.851 431.88L349.077 423.869L346.401 411.761C343.839 413.68 341.1 415.324 338.212 416.654L335.499 440.736L330.536 419.276C329.417 419.529 328.275 419.737 327.115 419.891C325.984 420.042 324.85 420.127 323.72 420.166L319.156 449.629L315.525 419.505C314.248 419.251 312.984 418.929 311.739 418.533L299.87 436.582L304.989 415.589C303.338 414.649 301.764 413.572 300.284 412.367L286.636 422.69L295.488 407.569C294.349 406.169 293.316 404.668 292.405 403.063L280.12 406L290.029 397.755C289.339 395.691 288.863 393.554 288.638 391.392L278.698 389.404L288.554 386.17C288.663 384.596 288.918 383.035 289.291 381.499L282.343 376.834L290.761 377.106C291.16 376.185 291.608 375.276 292.116 374.396C294.765 369.804 298.791 366.609 303.226 363.834C308.194 360.722 314.517 357.921 316.854 352.176C316.91 351.908 317.053 351.656 317.262 351.448C317.466 351.223 317.718 351.074 317.991 350.999C318.002 350.992 318.01 350.989 318.018 350.987C318.065 350.979 318.106 350.968 318.153 350.959C318.399 350.905 318.665 350.903 318.93 350.977C319.259 351.06 319.552 351.241 319.745 351.49C325.54 356.467 317.991 364.161 315.172 368.489C310.624 375.476 307.402 385.319 314.698 391.757C321.265 397.543 331.891 394.817 334.95 386.629C336.344 382.909 336.106 378.017 333.198 375.039C331.909 373.721 330.322 373.144 328.745 373.173C335.259 375.628 335.257 385.258 329.146 388.652C321.501 392.907 313.305 385.226 314.497 377.297C315.178 372.797 318.23 369.638 321.907 367.24C326.098 364.501 330.126 362.135 333.684 358.54C340.622 351.528 346.207 342.584 348.786 333.028C348.981 332.298 349.611 331.926 350.243 331.921C350.875 331.919 351.51 332.283 351.714 333.01C354.408 342.534 360.102 351.41 367.125 358.337C370.725 361.888 374.782 364.204 379.007 366.892C382.713 369.246 385.803 372.367 386.539 376.859C387.827 384.772 379.724 392.553 372.028 388.391C365.877 385.071 365.758 375.442 372.241 372.908C370.665 372.899 369.085 373.494 367.811 374.829C364.94 377.843 364.762 382.737 366.2 386.439C369.36 394.589 380.017 397.185 386.513 391.32C393.731 384.794 390.389 374.991 385.756 368.06C382.885 363.766 375.243 356.164 380.977 351.117C381.167 350.866 381.459 350.681 381.786 350.595C382.05 350.517 382.315 350.516 382.563 350.568C382.61 350.575 382.651 350.586 382.698 350.594C382.706 350.596 382.714 350.598 382.725 350.605C382.998 350.677 383.252 350.823 383.459 351.045C383.671 351.251 383.818 351.502 383.876 351.769C386.283 357.484 392.639 360.208 397.645 363.259C402.113 365.98 406.178 369.126 408.883 373.686C409.402 374.561 409.86 375.463 410.271 376.38L418.684 376.005L411.794 380.754C412.186 382.285 412.46 383.843 412.588 385.416L422.483 388.529L412.567 390.639C412.368 392.803 411.919 394.945 411.253 397.018L421.262 405.142L408.942 402.354C408.051 403.97 407.036 405.483 405.915 406.897L414.95 421.91L401.178 411.753C399.712 412.976 398.152 414.072 396.512 415.032L401.886 435.961L389.799 418.058C388.559 418.468 387.298 418.807 386.025 419.076L382.761 449.242L377.838 419.837C376.708 419.811 375.572 419.74 374.441 419.603C373.279 419.463 372.135 419.27 371.012 419.03L366.31 440.548L363.304 416.501C360.4 415.207 357.641 413.596 355.056 411.708L352.528 423.848L350.851 431.88ZM18.1779 103.23L26.1891 101.457L38.2972 98.781C36.3781 96.219 34.7343 93.4797 33.4048 90.5917L9.32246 87.8783L30.7826 82.9155C30.5288 81.7961 30.3217 80.6543 30.1678 79.4943C30.0172 78.3638 29.9323 77.2292 29.8929 76.0998L0.430258 71.5353L30.5549 67.9043C30.8082 66.6276 31.131 65.3634 31.5257 64.1191L13.4773 52.25L34.4699 57.3691C35.41 55.7179 36.4871 54.1438 37.6918 52.6641L27.3688 39.0153L42.4899 47.8672C43.8902 46.7285 45.3906 45.6955 46.9956 44.7846L44.0586 32.4999L52.3035 42.409C54.3681 41.7183 56.5052 41.2422 58.6665 41.0178L60.6552 31.0772L63.8883 40.9332C65.4626 41.0428 67.0237 41.2974 68.5591 41.6701L73.2244 34.723L72.9519 43.1403C73.8738 43.5395 74.7819 43.9872 75.6627 44.4954C80.2549 47.1443 83.4501 51.1709 86.2252 55.606C89.337 60.574 92.1377 66.8965 97.8827 69.2338C98.1509 69.2887 98.403 69.4327 98.6112 69.6415C98.8361 69.8459 98.985 70.098 99.0598 70.3703C99.0672 70.3813 99.0697 70.3899 99.0716 70.3979C99.0799 70.4445 99.0912 70.4856 99.0994 70.5322C99.1538 70.7794 99.156 71.0448 99.0821 71.3094C98.9993 71.6385 98.818 71.9319 98.5692 72.1245C93.5923 77.9194 85.8979 70.3705 81.5694 67.5517C74.5831 63.004 64.7394 59.7814 58.3017 67.0777C52.5156 73.6447 55.2417 84.2704 63.4303 87.3299C67.15 88.7231 72.0415 88.4851 75.0195 85.5776C76.3384 84.2883 76.9147 82.7013 76.8861 81.1247C74.4313 87.6383 64.8013 87.6367 61.4067 81.526C57.1515 73.8807 64.833 65.6842 72.7621 66.8756C77.2624 67.5576 80.421 70.609 82.8192 74.286C85.5584 78.4774 87.9244 82.5053 91.519 86.0626C98.5309 93.0001 107.475 98.5857 117.031 101.164C117.761 101.359 118.132 101.989 118.139 102.621C118.141 103.253 117.776 103.888 117.049 104.092C107.525 106.787 98.6494 112.481 91.7224 119.503C88.1713 123.104 85.8545 127.16 83.1665 131.384C80.8131 135.09 77.692 138.181 73.2002 138.917C65.2863 140.205 57.5062 132.102 61.6675 124.406C64.9875 118.255 74.6168 118.136 77.1507 124.619C77.1601 123.042 76.5645 121.462 75.23 120.189C72.2163 117.318 67.3222 117.14 63.6204 118.578C55.4696 121.737 52.8736 132.395 58.7385 138.891C65.2644 146.109 75.0688 142.766 81.9987 138.134C86.2926 135.262 93.8946 127.621 98.9416 133.355C99.1928 133.544 99.3776 133.836 99.4643 134.164C99.5415 134.427 99.5425 134.693 99.4912 134.941C99.4835 134.987 99.4727 135.028 99.465 135.075C99.4626 135.083 99.4608 135.092 99.4535 135.103C99.382 135.376 99.2362 135.63 99.0138 135.837C98.8081 136.048 98.5578 136.196 98.2903 136.254C92.5742 138.661 89.8512 145.017 86.7994 150.022C84.0785 154.49 80.9325 158.555 76.3729 161.261C75.4983 161.779 74.5957 162.238 73.6787 162.648L74.0536 171.062L69.3042 164.172C67.7734 164.563 66.2155 164.838 64.6426 164.966L61.5297 174.86L59.4203 164.945C57.2563 164.746 55.1136 164.296 53.0408 163.631L44.917 173.64L47.7044 161.32C46.0884 160.429 44.5755 159.414 43.1615 158.292L28.1492 167.329L38.3054 153.556C37.0828 152.091 35.9867 150.53 35.0265 148.891L14.0977 154.265L32.0005 142.177C31.59 140.938 31.2519 139.677 30.9837 138.403L0.817104 135.139L30.222 130.216C30.2477 129.087 30.3188 127.95 30.4556 126.818C30.596 125.656 30.7886 124.512 31.0287 123.39L9.50985 118.688L33.5574 115.682C34.8517 112.778 36.462 110.019 38.3498 107.434L26.21 104.906L18.1779 103.23ZM347.068 -190.037C347.663 -190.776 348.279 -191.504 348.923 -192.209C350.264 -193.695 351.662 -195.135 353.19 -196.451C354.706 -197.768 356.302 -199.017 357.999 -200.127C359.701 -201.233 361.481 -202.233 363.355 -203.053C367.087 -204.703 371.153 -205.717 375.292 -205.819C377.357 -205.862 379.435 -205.695 381.464 -205.272C383.49 -204.842 385.466 -204.142 387.322 -203.218C389.185 -202.297 390.928 -201.124 392.459 -199.716C393.999 -198.324 395.349 -196.706 396.376 -194.903C397.426 -193.114 398.185 -191.157 398.613 -189.144C399.053 -187.139 399.188 -185.077 398.998 -183.055C398.615 -179.018 397.134 -175.216 395.042 -171.922C393.997 -170.268 392.815 -168.719 391.534 -167.276C390.232 -165.845 388.848 -164.502 387.393 -163.255C388.652 -164.697 389.872 -166.168 390.973 -167.721C392.07 -169.269 393.063 -170.89 393.893 -172.57C394.718 -174.252 395.422 -175.989 395.9 -177.771C396.378 -179.553 396.647 -181.371 396.661 -183.181C396.722 -186.788 395.709 -190.353 393.721 -193.246C391.766 -196.163 388.952 -198.461 385.734 -199.854C384.132 -200.55 382.441 -201.067 380.702 -201.34C378.972 -201.628 377.208 -201.734 375.452 -201.633C371.926 -201.447 368.451 -200.479 365.235 -198.94C363.626 -198.17 362.06 -197.279 360.575 -196.272C359.079 -195.271 357.671 -194.13 356.32 -192.921C354.96 -191.718 353.686 -190.409 352.468 -189.041C351.469 -187.946 350.546 -186.765 349.644 -185.572C348.788 -170.552 348.754 -155.494 349.307 -140.465C353.898 -150.4 361.353 -159.533 370.402 -165.079C372.168 -166.163 374.111 -167.215 375.798 -168.503C377.622 -169.896 379.154 -171.572 379.866 -173.876C381.297 -178.479 378.643 -184.008 373.465 -184.345C368.822 -184.641 365.025 -179.588 367.845 -175.475C369.212 -173.485 371.872 -172.444 374.044 -173.924C376.382 -175.51 375.309 -179.582 372.304 -178.549C370.459 -177.914 369.671 -180.836 371.505 -181.463C374.788 -182.595 378.419 -179.944 378.551 -176.47C378.592 -175.38 378.298 -174.399 377.78 -173.538C376.989 -171.976 375.88 -170.678 374.584 -169.71C370.715 -166.815 365.195 -166.831 361.627 -171.292C357.054 -177.022 358.547 -185.845 363.456 -190.849C368.062 -195.539 375.571 -196.815 381.473 -193.935C388.19 -190.662 391.327 -183.305 390.102 -176.112C389.356 -171.732 387.249 -167.736 384.82 -164.07C383.121 -161.514 378.065 -156.411 379.05 -152.821C384.233 -161.473 396.233 -163.493 401.984 -171.932C412.804 -187.807 401.287 -209.119 383.903 -213.715C370.753 -217.197 357.464 -211.823 348.056 -202.562C347.792 -202.308 347.48 -202.187 347.159 -202.161C347.104 -202.151 347.05 -202.147 346.994 -202.146C346.938 -202.146 346.884 -202.149 346.83 -202.159C346.508 -202.181 346.194 -202.299 345.928 -202.549C336.407 -211.697 323.054 -216.908 309.946 -213.266C292.621 -208.459 281.364 -187.008 292.376 -171.267C298.229 -162.898 310.252 -161.024 315.54 -152.436C316.482 -156.038 311.363 -161.078 309.634 -163.614C307.161 -167.251 305.005 -171.22 304.206 -175.591C302.893 -182.768 305.941 -190.163 312.617 -193.518C318.484 -196.469 326.008 -195.285 330.67 -190.651C335.641 -185.707 337.24 -176.903 332.737 -171.117C329.224 -166.613 323.705 -166.53 319.8 -169.378C318.492 -170.33 317.369 -171.615 316.558 -173.167C316.03 -174.022 315.724 -175 315.752 -176.089C315.842 -179.564 319.44 -182.259 322.737 -181.167C324.578 -180.562 323.825 -177.632 321.973 -178.245C318.955 -179.241 317.932 -175.156 320.289 -173.598C322.479 -172.145 325.126 -173.218 326.469 -175.225C329.238 -179.37 325.381 -184.378 320.741 -184.025C315.568 -183.626 312.982 -178.065 314.468 -173.479C315.208 -171.185 316.761 -169.527 318.601 -168.157C320.304 -166.889 322.26 -165.86 324.039 -164.798C333.154 -159.363 340.72 -150.321 345.431 -140.442C345.801 -155.477 345.584 -170.533 344.545 -185.543C343.629 -186.724 342.692 -187.894 341.679 -188.977C340.445 -190.33 339.155 -191.623 337.78 -192.809C336.415 -194.002 334.993 -195.126 333.485 -196.108C331.987 -197.097 330.411 -197.969 328.793 -198.719C325.558 -200.22 322.072 -201.145 318.544 -201.288C316.787 -201.367 315.024 -201.24 313.297 -200.931C311.562 -200.637 309.877 -200.1 308.284 -199.384C305.083 -197.952 302.297 -195.62 300.378 -192.68C298.426 -189.763 297.456 -186.186 297.561 -182.579C297.597 -180.77 297.888 -178.956 298.387 -177.179C298.887 -175.403 299.612 -173.674 300.458 -172.003C301.309 -170.334 302.321 -168.725 303.437 -167.19C304.556 -165.65 305.794 -164.194 307.071 -162.767C305.601 -163.997 304.201 -165.322 302.881 -166.738C301.583 -168.166 300.382 -169.7 299.317 -171.341C297.186 -174.609 295.658 -178.393 295.226 -182.425C295.011 -184.445 295.121 -186.508 295.537 -188.518C295.94 -190.536 296.676 -192.503 297.703 -194.304C298.709 -196.12 300.039 -197.754 301.562 -199.164C303.076 -200.59 304.804 -201.785 306.656 -202.729C308.501 -203.676 310.468 -204.399 312.488 -204.853C314.512 -205.302 316.588 -205.493 318.653 -205.476C322.793 -205.424 326.871 -204.459 330.623 -202.855C332.507 -202.058 334.299 -201.08 336.014 -199.995C337.725 -198.906 339.336 -197.675 340.867 -196.377C342.413 -195.079 343.827 -193.657 345.186 -192.187C345.839 -191.49 346.464 -190.769 347.068 -190.037ZM640.095 99.4475C640.835 100.042 641.563 100.658 642.267 101.303C643.753 102.643 645.193 104.041 646.509 105.57C647.826 107.086 649.076 108.682 650.185 110.378C651.291 112.081 652.29 113.861 653.11 115.735C654.76 119.467 655.775 123.533 655.877 127.672C655.92 129.736 655.754 131.815 655.329 133.844C654.9 135.87 654.2 137.845 653.276 139.701C652.354 141.565 651.182 143.307 649.773 144.838C648.381 146.379 646.763 147.728 644.96 148.756C643.172 149.806 641.215 150.565 639.202 150.993C637.197 151.432 635.135 151.568 633.113 151.378C629.076 150.994 625.274 149.513 621.98 147.422C620.327 146.376 618.778 145.195 617.334 143.914C615.903 142.611 614.56 141.227 613.313 139.772C614.755 141.032 616.226 142.252 617.779 143.352C619.328 144.45 620.949 145.443 622.628 146.273C624.31 147.098 626.048 147.801 627.829 148.28C629.611 148.758 631.429 149.027 633.239 149.04C636.846 149.102 640.411 148.088 643.304 146.1C646.22 144.146 648.519 141.332 649.912 138.114C650.608 136.511 651.125 134.821 651.397 133.082C651.686 131.352 651.792 129.588 651.692 127.831C651.505 124.306 650.538 120.831 648.998 117.614C648.228 116.006 647.337 114.44 646.33 112.955C645.329 111.459 644.189 110.05 642.979 108.7C641.777 107.339 640.468 106.065 639.1 104.848C638.005 103.848 636.824 102.926 635.631 102.023C620.61 101.167 605.553 101.133 590.523 101.686C600.459 106.277 609.592 113.732 615.138 122.781C616.221 124.547 617.274 126.49 618.563 128.177C619.955 130 621.632 131.533 623.935 132.245C628.539 133.675 634.068 131.021 634.404 125.844C634.701 121.201 629.647 117.405 625.535 120.224C623.545 121.591 622.504 124.251 623.983 126.423C625.57 128.761 629.642 127.688 628.609 124.683C627.974 122.838 630.895 122.05 631.522 123.884C632.654 127.167 630.003 130.797 626.529 130.93C625.44 130.971 624.458 130.677 623.598 130.159C622.036 129.367 620.738 128.259 619.769 126.963C616.875 123.094 616.89 117.573 621.351 114.006C627.081 109.433 635.904 110.925 640.909 115.835C645.599 120.441 646.874 127.95 643.995 133.852C640.722 140.569 633.365 143.706 626.172 142.481C621.792 141.735 617.796 139.628 614.13 137.199C611.573 135.5 606.471 130.444 602.881 131.429C611.532 136.612 613.552 148.611 621.992 154.363C637.866 165.182 659.178 153.666 663.775 136.282C667.257 123.132 661.883 109.843 652.622 100.435C652.368 100.171 652.246 99.8588 652.22 99.5377C652.21 99.4831 652.206 99.4285 652.206 99.3732C652.205 99.3173 652.209 99.2627 652.218 99.2085C652.24 98.8872 652.358 98.5725 652.609 98.3063C661.755 88.7859 666.966 75.4326 663.325 62.3255C658.517 44.9994 637.066 33.7426 621.325 44.7545C612.957 50.6081 611.083 62.6315 602.495 67.9189C606.097 68.8607 611.137 63.7423 613.672 62.0126C617.309 59.5397 621.279 57.3842 625.649 56.5849C632.826 55.2722 640.221 58.3199 643.576 64.9959C646.527 70.8629 645.343 78.3865 640.709 83.0491C635.765 88.0195 626.961 89.6191 621.176 85.1163C616.672 81.6033 616.588 76.0836 619.436 72.1794C620.388 70.8714 621.673 69.7476 623.225 68.9372C624.08 68.4086 625.058 68.1023 626.147 68.1307C629.622 68.2208 632.317 71.8185 631.226 75.1156C630.621 76.9565 627.69 76.204 628.303 74.3515C629.299 71.3344 625.214 70.3108 623.656 72.6679C622.204 74.8579 623.276 77.5048 625.283 78.8476C629.429 81.6166 634.436 77.7594 634.083 73.1204C633.684 67.9473 628.124 65.3608 623.537 66.8468C621.243 67.5874 619.585 69.1399 618.215 70.9799C616.947 72.6829 615.918 74.6387 614.856 76.4179C609.42 85.533 600.379 93.0989 590.5 97.81C605.535 98.1798 620.59 97.9629 635.6 96.9245C636.782 96.0082 637.951 95.0712 639.034 94.0578C640.387 92.8236 641.68 91.5338 642.867 90.1587C644.059 88.794 645.183 87.372 646.165 85.8636C647.155 84.3662 648.026 82.7897 648.776 81.1721C650.276 77.9377 651.202 74.4505 651.345 70.9227C651.424 69.1655 651.297 67.4022 650.987 65.6762C650.694 63.941 650.156 62.2563 649.441 60.663C648.009 57.4624 645.676 54.6762 642.736 52.7574C639.819 50.8047 636.242 49.8345 632.637 49.9399C630.827 49.9755 629.013 50.2666 627.236 50.7663C625.46 51.2661 623.732 51.991 622.06 52.8365C620.391 53.6875 618.782 54.6998 617.247 55.8153C615.707 56.934 614.251 58.1726 612.824 59.4496C614.054 57.9797 615.379 56.5792 616.795 55.2598C618.223 53.9612 619.757 52.7608 621.398 51.695C624.666 49.5639 628.45 48.0361 632.482 47.6043C634.502 47.3893 636.565 47.4996 638.575 47.9149C640.593 48.3185 642.559 49.0534 644.36 50.0817C646.176 51.0872 647.81 52.417 649.221 53.9403C650.647 55.4543 651.841 57.1817 652.785 59.0346C653.732 60.8789 654.456 62.8462 654.91 64.8667C655.358 66.8904 655.55 68.966 655.532 71.0317C655.48 75.1714 654.516 79.2497 652.911 83.0013C652.114 84.8852 651.137 86.6773 650.051 88.3927C648.963 90.1032 647.732 91.7145 646.434 93.2457C645.137 94.791 643.714 96.2057 642.244 97.5641C641.548 98.2188 640.827 98.8436 640.095 99.4475ZM350.611 392.475C350.016 393.215 349.4 393.943 348.756 394.647C347.415 396.133 346.017 397.573 344.488 398.889C342.973 400.206 341.377 401.456 339.68 402.566C337.978 403.672 336.197 404.671 334.324 405.491C330.592 407.141 326.526 408.155 322.387 408.257C320.322 408.301 318.244 408.134 316.215 407.71C314.189 407.281 312.213 406.581 310.357 405.657C308.493 404.735 306.751 403.563 305.22 402.154C303.68 400.762 302.33 399.144 301.303 397.341C300.252 395.553 299.494 393.595 299.065 391.583C298.626 389.577 298.49 387.516 298.681 385.494C299.063 381.457 300.545 377.655 302.636 374.361C303.682 372.707 304.864 371.158 306.145 369.715C307.447 368.283 308.831 366.941 310.286 365.694C309.026 367.136 307.806 368.607 306.706 370.16C305.608 371.709 304.616 373.33 303.785 375.009C302.96 376.691 302.256 378.428 301.778 380.21C301.3 381.992 301.031 383.81 301.017 385.62C300.956 389.227 301.97 392.792 303.958 395.685C305.911 398.601 308.726 400.9 311.944 402.293C313.547 402.989 315.237 403.505 316.976 403.779C318.706 404.067 320.47 404.173 322.226 404.073C325.752 403.886 329.227 402.919 332.444 401.379C334.052 400.61 335.618 399.718 337.103 398.712C338.599 397.711 340.008 396.57 341.358 395.36C342.718 394.157 343.992 392.849 345.21 391.481C346.209 390.386 347.132 389.204 348.034 388.012C348.89 372.991 348.924 357.934 348.371 342.904C343.781 352.84 336.325 361.973 327.277 367.518C325.511 368.602 323.568 369.655 321.88 370.943C320.057 372.336 318.524 374.012 317.812 376.315C316.382 380.919 319.036 386.448 324.214 386.784C328.857 387.081 332.653 382.027 329.834 377.915C328.466 375.925 325.807 374.884 323.634 376.364C321.297 377.95 322.37 382.022 325.374 380.989C327.219 380.354 328.007 383.275 326.174 383.903C322.891 385.035 319.26 382.383 319.128 378.909C319.086 377.821 319.381 376.838 319.899 375.978C320.69 374.416 321.798 373.118 323.095 372.149C326.964 369.255 332.484 369.271 336.052 373.732C340.625 379.461 339.132 388.284 334.222 393.289C329.617 397.979 322.108 399.254 316.205 396.375C309.489 393.102 306.352 385.745 307.577 378.552C308.323 374.172 310.43 370.176 312.859 366.51C314.557 363.953 319.614 358.852 318.628 355.261C313.446 363.912 301.446 365.932 295.695 374.372C284.875 390.246 296.392 411.558 313.775 416.155C326.926 419.637 340.215 414.263 349.623 405.002C349.886 404.748 350.199 404.626 350.52 404.6C350.575 404.59 350.629 404.586 350.684 404.586C350.74 404.586 350.795 404.589 350.849 404.598C351.171 404.62 351.485 404.738 351.751 404.989C361.271 414.135 374.624 419.347 387.732 415.705C405.058 410.898 416.315 389.446 405.303 373.705C399.449 365.337 387.426 363.463 382.138 354.875C381.196 358.477 386.315 363.517 388.044 366.052C390.517 369.689 392.673 373.659 393.472 378.03C394.785 385.207 391.737 392.601 385.061 395.956C379.194 398.908 371.671 397.723 367.008 393.089C362.038 388.145 360.438 379.34 364.941 373.556C368.454 369.051 373.973 368.968 377.878 371.816C379.186 372.768 380.31 374.053 381.12 375.605C381.648 376.46 381.955 377.438 381.926 378.527C381.836 382.003 378.239 384.698 374.941 383.606C373.101 383 373.853 380.07 375.706 380.683C378.723 381.68 379.746 377.595 377.389 376.037C375.199 374.584 372.552 375.656 371.209 377.663C368.441 381.809 372.298 386.816 376.937 386.464C382.11 386.064 384.696 380.504 383.21 375.918C382.47 373.623 380.917 371.965 379.077 370.595C377.374 369.327 375.418 368.299 373.639 367.236C364.524 361.801 356.958 352.76 352.247 342.881C351.877 357.916 352.094 372.971 353.133 387.981C354.049 389.163 354.986 390.332 355.999 391.415C357.233 392.768 358.523 394.061 359.898 395.248C361.262 396.44 362.684 397.564 364.193 398.547C365.69 399.535 367.267 400.408 368.884 401.158C372.119 402.658 375.606 403.583 379.134 403.727C380.891 403.806 382.654 403.678 384.38 403.369C386.116 403.075 387.8 402.538 389.393 401.822C392.594 400.389 395.38 398.057 397.299 395.117C399.252 392.2 400.222 388.623 400.117 385.017C400.081 383.208 399.79 381.393 399.29 379.617C398.79 377.841 398.066 376.112 397.22 374.441C396.369 372.772 395.357 371.163 394.241 369.628C393.122 368.088 391.884 366.632 390.607 365.205C392.077 366.435 393.477 367.76 394.797 369.176C396.095 370.604 397.296 372.138 398.362 373.779C400.493 377.047 402.02 380.831 402.452 384.862C402.667 386.883 402.557 388.946 402.142 390.956C401.738 392.973 401.003 394.94 399.975 396.741C398.969 398.557 397.639 400.191 396.116 401.601C394.602 403.028 392.874 404.222 391.022 405.166C389.178 406.113 387.21 406.837 385.19 407.291C383.166 407.739 381.09 407.93 379.025 407.913C374.885 407.861 370.807 406.897 367.055 405.292C365.171 404.495 363.379 403.517 361.664 402.432C359.953 401.343 358.342 400.113 356.811 398.814C355.265 397.517 353.851 396.094 352.492 394.624C351.84 393.927 351.215 393.208 350.611 392.475ZM57.5828 102.99C56.8433 102.395 56.1154 101.779 55.4113 101.135C53.9253 99.7947 52.4856 98.3968 51.1692 96.868C49.8523 95.3521 48.6024 93.7565 47.4932 92.0594C46.3871 90.3573 45.3879 88.5766 44.5676 86.7032C42.9178 82.9713 41.9035 78.9051 41.8015 74.7664C41.7583 72.7016 41.9244 70.6232 42.3482 68.5943C42.7775 66.5684 43.4773 64.5924 44.4015 62.7367C45.3232 60.873 46.4963 59.1307 47.904 57.5994C49.2963 56.0591 50.914 54.7096 52.7173 53.682C54.5057 52.6319 56.463 51.8731 58.4757 51.445C60.4809 51.0053 62.5421 50.8699 64.5647 51.0603C68.6013 51.443 72.4033 52.9247 75.6972 55.0158C77.351 56.0617 78.8999 57.2432 80.3432 58.5244C81.7743 59.8264 83.1174 61.2107 84.3646 62.6656C82.9227 61.406 81.4515 60.1859 79.8982 59.0854C78.3498 57.988 76.7283 56.9954 75.0495 56.1653C73.3676 55.3402 71.6299 54.6364 69.8482 54.1583C68.0664 53.6802 66.2485 53.4112 64.4383 53.3976C60.8311 53.336 57.2667 54.3497 54.3735 56.3377C51.4573 58.2922 49.1587 61.1059 47.7655 64.3243C47.0695 65.9268 46.5528 67.6173 46.2802 69.356C45.9916 71.0862 45.8856 72.8503 45.986 74.6064C46.1727 78.1322 47.1397 81.6072 48.6795 84.8238C49.4491 86.4321 50.3407 87.9979 51.3472 89.4832C52.3483 90.9789 53.4889 92.3877 54.6986 93.7378C55.9016 95.0984 57.2103 96.3724 58.5782 97.5901C59.6733 98.5896 60.8546 99.513 62.0468 100.415C77.0676 101.271 92.1252 101.305 107.155 100.752C97.2191 96.161 88.0861 88.7057 82.5405 79.6573C81.4566 77.8912 80.4043 75.948 79.1152 74.2606C77.7227 72.4374 76.0463 70.9052 73.7429 70.1926C69.1391 68.7624 63.6105 71.4164 63.2741 76.594C62.9774 81.2376 68.0311 85.0329 72.1428 82.2137C74.1326 80.8466 75.1736 78.1868 73.6942 76.0146C72.1069 73.6767 68.0349 74.75 69.0685 77.7546C69.7038 79.5996 66.7823 80.3877 66.1551 78.5543C65.0228 75.2707 67.6745 71.6404 71.1484 71.5081C72.2372 71.4665 73.2193 71.7609 74.0799 72.279C75.6418 73.0704 76.9397 74.1786 77.9082 75.4749C80.8027 79.3441 80.7871 84.8644 76.3261 88.432C70.5967 93.0048 61.7733 91.5125 56.7688 86.6026C52.0787 81.9967 50.8033 74.488 53.6826 68.5855C56.9556 61.8692 64.3129 58.7318 71.5056 59.9571C75.886 60.7031 79.8815 62.8102 83.5479 65.2387C86.1043 66.9375 91.2068 71.9942 94.7965 71.0086C86.1448 65.8261 84.1253 53.8264 75.6857 48.075C59.8113 37.2554 38.4992 48.7723 33.9029 66.1555C30.4209 79.306 35.7946 92.5949 45.0556 102.003C45.3096 102.267 45.4313 102.579 45.4572 102.901C45.4674 102.955 45.4714 103.01 45.4717 103.065C45.4721 103.121 45.4687 103.176 45.4592 103.23C45.4372 103.551 45.3194 103.866 45.0685 104.132C35.9227 113.652 30.7111 127.005 34.3527 140.112C39.1601 157.438 60.6114 168.695 76.3524 157.683C84.7208 151.83 86.5948 139.806 95.1828 134.519C91.5807 133.577 86.5407 138.696 84.0052 140.425C80.3686 142.898 76.399 145.054 72.0281 145.853C64.8513 147.166 57.4564 144.118 54.1014 137.442C51.1499 131.575 52.3345 124.051 56.9682 119.389C61.9127 114.418 70.7166 112.819 76.5019 117.322C81.0065 120.835 81.0892 126.354 78.2414 130.258C77.2893 131.566 76.0044 132.69 74.4523 133.501C73.5974 134.029 72.6195 134.335 71.5303 134.307C68.0551 134.217 65.36 130.619 66.4517 127.322C67.0566 125.481 69.9874 126.234 69.3746 128.086C68.3783 131.103 72.463 132.127 74.0211 129.77C75.474 127.58 74.4008 124.933 72.3945 123.59C68.2488 120.821 63.2416 124.678 63.5948 129.317C63.9935 134.491 69.5546 137.077 74.1407 135.591C76.4353 134.85 78.0928 133.298 79.4631 131.458C80.7309 129.755 81.7602 127.799 82.8224 126.02C88.2577 116.905 97.2993 109.339 107.178 104.628C92.1432 104.258 77.0877 104.475 62.0778 105.513C60.896 106.43 59.7267 107.367 58.6438 108.38C57.2908 109.614 55.9977 110.904 54.8114 112.279C53.6188 113.644 52.4948 115.066 51.512 116.574C50.5236 118.072 49.6511 119.648 48.9012 121.266C47.4006 124.5 46.4759 127.987 46.3321 131.515C46.2531 133.272 46.3805 135.035 46.6902 136.762C46.9839 138.497 47.5212 140.182 48.2366 141.775C49.6688 144.976 52.0014 147.762 54.9412 149.68C57.8584 151.633 61.4355 152.603 65.041 152.498C66.8503 152.462 68.6649 152.172 70.4413 151.672C72.217 151.172 73.946 150.447 75.6177 149.601C77.2864 148.75 78.8956 147.738 80.4306 146.623C81.9704 145.503 83.4266 144.265 84.8531 142.988C83.6237 144.458 82.2981 145.859 80.8824 147.178C79.4548 148.477 77.9204 149.677 76.2795 150.743C73.0112 152.874 69.2275 154.402 65.1959 154.834C63.1757 155.049 61.1124 154.938 59.1026 154.523C57.0848 154.119 55.1185 153.384 53.3174 152.356C51.5012 151.351 49.8672 150.021 48.4569 148.498C47.0306 146.984 45.8365 145.256 44.8922 143.403C43.9455 141.559 43.2216 139.592 42.7677 137.571C42.3193 135.547 42.1279 133.472 42.146 131.406C42.1976 127.266 43.1624 123.188 44.7667 119.437C45.5642 117.553 46.5416 115.761 47.6269 114.045C48.7154 112.335 49.9464 110.724 51.2441 109.192C52.5418 107.647 53.9644 106.232 55.434 104.874C56.1309 104.219 56.8506 103.594 57.5828 102.99Z" fill="#150033"/>
<path d="M46.2509 102.614C46.2505 102.558 46.2465 102.504 46.2364 102.45C46.2105 102.129 46.0888 101.816 45.8347 101.552C36.5738 92.1439 31.2001 78.855 34.6821 65.7045C39.2783 48.3213 60.5911 36.8044 76.4649 47.624C84.9038 53.3754 86.924 65.3752 95.5757 70.5577C91.9853 71.5432 86.8834 66.4866 84.3271 64.7878C80.6607 62.3593 76.6651 60.2522 72.2848 59.5061C65.0926 58.2808 57.7353 61.4182 54.4617 68.1345C51.5819 74.0371 52.8578 81.5457 57.5479 86.1516C62.5525 91.0615 71.3752 92.5539 77.1053 87.981C81.5669 84.4134 81.5825 78.8932 78.6874 75.0239L79.8937 73.8096C81.1822 75.4971 82.2352 77.4402 83.319 79.2063C88.8647 88.2547 97.9976 95.71 107.933 100.301C92.9037 100.853 77.8467 100.82 62.8253 99.9638C61.6325 99.062 60.4518 98.1392 59.3567 97.1391C57.9888 95.9215 56.6801 94.6475 55.4771 93.2869C54.2681 91.9368 53.1269 90.5285 52.1258 89.0322C51.1192 87.547 50.2276 85.9812 49.458 84.3729C47.9182 81.1569 46.9512 77.6812 46.7645 74.1554C46.6642 72.3993 46.7701 70.6346 47.0587 68.905C47.3313 67.1663 47.8481 65.4752 48.5441 63.8734C49.9372 60.6555 52.2358 57.8412 55.152 55.8868C58.0452 53.8987 61.6102 52.885 65.2168 52.9466C67.0264 52.9602 68.8444 53.2293 70.6267 53.7073C72.4084 54.1854 74.1461 54.8892 75.828 55.7143C77.5068 56.545 79.1283 57.5376 80.6767 58.6344C82.2301 59.7343 83.7012 60.955 85.1431 62.2147C83.896 60.7597 82.5534 59.3755 81.1217 58.0734C79.6784 56.7923 78.1295 55.6107 76.4758 54.5649C73.1818 52.4738 69.3799 50.992 65.3432 50.6093C63.3206 50.4189 61.2588 50.5543 59.2542 50.994C57.2415 51.4221 55.2842 52.1809 53.4958 53.2311C51.6919 54.2586 50.0742 55.6081 48.6825 57.1485C47.2748 58.6797 46.1018 60.4215 45.1801 62.2858C44.2559 64.1415 43.556 66.1174 43.1267 68.1433C42.7029 70.1723 42.5368 72.25 42.5801 74.3154C42.682 78.4541 43.6963 82.5203 45.3461 86.2522C46.1665 88.1262 47.1656 89.9063 48.2717 91.6084C49.3809 93.3056 50.6314 94.9017 51.9477 96.417C53.2641 97.9464 54.7038 99.3437 56.1898 100.684C56.8939 101.328 57.6219 101.944 58.3613 102.539C57.6292 103.143 56.9088 103.768 56.2125 104.421C54.7429 105.779 53.3204 107.195 52.0227 108.739C50.7243 110.271 49.4939 111.882 48.4054 113.592C47.3201 115.308 46.3427 117.101 45.5452 118.984C43.9409 122.735 42.9762 126.814 42.9246 130.953C42.9064 133.018 43.0978 135.095 43.5462 137.118C44.0001 139.139 44.724 141.106 45.6707 142.95C46.615 144.803 47.8091 146.531 49.2354 148.045C50.6463 149.568 52.2803 150.898 54.096 151.903C55.897 152.932 57.8633 153.667 59.8811 154.07C61.8916 154.485 63.9542 154.596 65.9744 154.381C70.0061 153.948 73.7897 152.421 77.058 150.29C78.6989 149.224 80.2333 148.024 81.6609 146.725C83.076 145.406 84.4023 144.005 85.6316 142.535C84.2051 143.813 82.749 145.05 81.2091 146.17C79.6742 147.286 78.0649 148.298 76.3963 149.149C74.7245 149.994 72.9956 150.719 71.2198 151.219C69.444 151.718 67.6295 152.01 65.8195 152.045C62.2134 152.151 58.6369 151.18 55.7197 149.228C52.7799 147.309 50.4473 144.523 49.0151 141.322C48.2997 139.728 47.7624 138.044 47.4687 136.309C47.1591 134.582 47.0316 132.82 47.1106 131.062C47.2544 127.535 48.1791 124.048 49.6797 120.813C50.4297 119.195 51.3021 117.619 52.2905 116.121C53.2733 114.614 54.3967 113.191 55.5899 111.826C56.7762 110.451 58.0693 109.161 59.4223 107.927C60.5052 106.914 61.6752 105.977 62.8563 105.061C77.8656 104.022 92.9217 103.805 107.957 104.175C98.0778 108.886 89.0362 116.452 83.6009 125.567C82.5387 127.346 81.5101 129.302 80.2416 131.005L79.0206 129.806C81.8678 125.901 81.785 120.382 77.281 116.869C71.4964 112.366 62.6918 113.966 57.7473 118.936C53.1136 123.598 51.9297 131.122 54.8805 136.989C58.2349 143.665 65.6298 146.713 72.8072 145.4C77.1782 144.601 81.1478 142.445 84.7844 139.972C87.3198 138.243 92.3605 133.124 95.9619 134.066C87.3739 139.354 85.5005 151.377 77.1315 157.231C61.3899 168.242 39.9392 156.986 35.1319 139.66C31.4902 126.552 36.7018 113.199 45.8477 103.679C46.0985 103.413 46.2164 103.099 46.2384 102.777C46.2479 102.725 46.2512 102.67 46.2509 102.614Z" fill="#F46C68"/>
<path d="M74.5218 69.7426C76.8252 70.4552 78.5016 71.9874 79.8941 73.8106L78.6877 75.0249C77.7198 73.7286 76.4213 72.6204 74.8594 71.8289C73.9982 71.3109 73.0167 71.0165 71.9279 71.0581C68.4539 71.1904 65.8029 74.8207 66.9346 78.1043C67.5618 79.9376 70.4833 79.1497 69.848 77.3047C68.815 74.3 72.887 73.2267 74.4736 75.5646C75.953 77.7368 74.9121 80.3966 72.9223 81.7637C68.8106 84.5829 63.7569 80.787 64.0536 76.144C64.3894 70.9664 69.918 68.3124 74.5218 69.7426Z" fill="#F46C68"/>
<path d="M74.9196 135.141C77.2142 134.401 78.8718 132.848 80.242 131.008L79.021 129.809C78.0689 131.117 76.784 132.24 75.2318 133.051C74.3769 133.579 73.3991 133.885 72.3099 133.857C68.8346 133.767 66.1396 130.169 67.2313 126.872C67.8362 125.032 70.767 125.784 70.1542 127.637C69.1578 130.654 73.2425 131.677 74.8007 129.32C76.2535 127.13 75.1803 124.483 73.174 123.14C69.0283 120.371 64.0212 124.229 64.3743 128.868C64.7731 134.041 70.3335 136.627 74.9196 135.141Z" fill="#F46C68"/>
</g>
<defs>
<clipPath id="clip0_306_194">
<rect width="132.406" height="218.225" fill="white" transform="translate(0 0.806796) scale(1.00201) rotate(-0.348476)"/>
</clipPath>
</defs>
</svg>
