<svg width="134" height="220" viewBox="0 0 134 220" fill="none" xmlns="http://www.w3.org/2000/svg">
<g clip-path="url(#clip0_306_202)">
<path d="M-216.933 -226.014L-218.609 -217.982L-221.137 -205.842C-223.722 -207.73 -226.481 -209.34 -229.385 -210.635L-232.391 -234.682L-237.093 -213.163C-238.216 -213.404 -239.359 -213.597 -240.522 -213.736C-241.653 -213.873 -242.79 -213.944 -243.919 -213.97L-248.842 -243.375L-252.106 -213.209C-253.38 -212.94 -254.64 -212.602 -255.88 -212.191L-267.968 -230.094L-262.594 -209.165C-264.233 -208.205 -265.794 -207.109 -267.259 -205.887L-281.031 -216.043L-271.996 -201.03C-273.118 -199.616 -274.132 -198.103 -275.024 -196.488L-287.343 -199.275L-277.334 -191.151C-278 -189.078 -278.45 -186.936 -278.648 -184.772L-288.564 -182.662L-278.669 -179.549C-278.541 -177.976 -278.267 -176.419 -277.876 -174.888L-284.765 -170.138L-276.352 -170.513C-275.942 -169.596 -275.483 -168.694 -274.964 -167.82C-272.259 -163.26 -268.194 -160.114 -263.726 -157.393C-258.72 -154.342 -252.364 -151.618 -249.957 -145.903C-249.899 -145.635 -249.752 -145.385 -249.541 -145.179C-249.334 -144.956 -249.08 -144.811 -248.806 -144.739C-248.795 -144.732 -248.787 -144.729 -248.779 -144.728C-248.732 -144.72 -248.691 -144.709 -248.644 -144.701C-248.397 -144.65 -248.131 -144.651 -247.867 -144.728C-247.539 -144.815 -247.248 -145 -247.058 -145.251C-241.324 -150.298 -248.966 -157.9 -251.838 -162.194C-256.471 -169.124 -259.812 -178.928 -252.595 -185.454C-246.098 -191.319 -235.44 -188.723 -232.282 -180.572C-230.843 -176.87 -231.022 -171.976 -233.893 -168.963C-235.166 -167.628 -236.746 -167.032 -238.323 -167.042C-231.839 -169.576 -231.958 -179.205 -238.11 -182.525C-245.806 -186.687 -253.909 -178.906 -252.62 -170.992C-251.884 -166.501 -248.794 -163.379 -245.088 -161.026C-240.864 -158.338 -236.807 -156.021 -233.206 -152.47C-226.183 -145.543 -220.489 -136.668 -217.795 -127.144C-217.591 -126.416 -216.956 -126.052 -216.324 -126.054C-215.692 -126.06 -215.062 -126.432 -214.867 -127.162C-212.289 -136.718 -206.703 -145.662 -199.766 -152.674C-196.208 -156.268 -192.18 -158.634 -187.988 -161.373C-184.311 -163.772 -181.259 -166.93 -180.578 -171.43C-179.386 -179.36 -187.583 -187.04 -195.228 -182.786C-201.338 -179.391 -201.34 -169.761 -194.826 -167.306C-196.403 -167.278 -197.99 -167.854 -199.279 -169.173C-202.187 -172.152 -202.425 -177.043 -201.032 -180.762C-197.971 -188.951 -187.346 -191.676 -180.779 -185.891C-173.483 -179.453 -176.706 -169.609 -181.253 -162.623C-184.073 -158.295 -191.621 -150.6 -185.826 -145.623C-185.634 -145.375 -185.34 -145.193 -185.011 -145.111C-184.746 -145.037 -184.481 -145.039 -184.234 -145.093C-184.187 -145.101 -184.146 -145.113 -184.1 -145.121C-184.092 -145.123 -184.083 -145.125 -184.072 -145.133C-183.8 -145.208 -183.548 -145.357 -183.343 -145.581C-183.134 -145.79 -182.99 -146.042 -182.935 -146.31C-180.598 -152.055 -174.276 -154.856 -169.308 -157.967C-164.873 -160.742 -160.847 -163.938 -158.197 -168.53C-157.689 -169.411 -157.241 -170.319 -156.842 -171.24L-148.425 -170.968L-155.372 -175.633C-154.999 -177.168 -154.744 -178.729 -154.635 -180.304L-144.779 -183.537L-154.719 -185.525C-154.945 -187.687 -155.42 -189.824 -156.111 -191.888L-146.202 -200.133L-158.486 -197.196C-159.397 -198.801 -160.43 -200.302 -161.569 -201.702L-152.717 -216.823L-166.365 -206.501C-167.845 -207.706 -169.419 -208.783 -171.07 -209.722L-165.951 -230.715L-177.82 -212.666C-179.065 -213.062 -180.329 -213.384 -181.606 -213.638L-185.237 -243.762L-189.802 -214.299C-190.931 -214.26 -192.066 -214.175 -193.196 -214.024C-194.356 -213.87 -195.498 -213.663 -196.617 -213.409L-201.58 -234.869L-204.293 -210.787C-207.181 -209.458 -209.921 -207.814 -212.483 -205.895L-215.158 -218.003L-216.933 -226.014ZM-545.583 106.659L-537.551 108.334L-525.411 110.863C-527.299 113.448 -528.909 116.207 -530.204 119.111L-554.251 122.117L-532.732 126.818C-532.972 127.941 -533.165 129.084 -533.306 130.247C-533.442 131.379 -533.514 132.515 -533.539 133.645L-562.945 138.567L-532.778 141.832C-532.509 143.105 -532.171 144.365 -531.761 145.606L-549.664 157.693L-528.735 152.319C-527.775 153.959 -526.679 155.519 -525.456 156.985L-535.612 170.757L-520.6 161.722C-519.186 162.844 -517.673 163.858 -516.057 164.75L-518.844 177.069L-510.72 167.061C-508.648 167.726 -506.505 168.176 -504.341 168.374L-502.231 178.29L-499.118 168.395C-497.546 168.267 -495.988 167.993 -494.457 167.602L-489.708 174.492L-490.082 166.078C-489.165 165.668 -488.263 165.209 -487.388 164.69C-482.829 161.986 -479.683 157.921 -476.962 153.452C-473.911 148.446 -471.187 142.09 -465.471 139.683C-465.203 139.625 -464.953 139.478 -464.747 139.267C-464.525 139.06 -464.379 138.806 -464.308 138.533C-464.3 138.522 -464.298 138.513 -464.296 138.505C-464.289 138.458 -464.278 138.417 -464.27 138.37C-464.219 138.123 -464.22 137.857 -464.297 137.593C-464.384 137.265 -464.568 136.974 -464.82 136.785C-469.867 131.051 -477.469 138.693 -481.762 141.564C-488.693 146.197 -498.497 149.538 -505.023 142.321C-510.888 135.825 -508.292 125.167 -500.141 122.008C-496.438 120.569 -491.544 120.748 -488.531 123.619C-487.197 124.892 -486.601 126.472 -486.611 128.049C-489.144 121.566 -498.774 121.684 -502.094 127.836C-506.256 135.532 -498.475 143.635 -490.561 142.346C-486.069 141.61 -482.948 138.52 -480.595 134.814C-477.907 130.59 -475.59 126.533 -472.039 122.933C-465.112 115.91 -456.236 110.216 -446.712 107.522C-445.985 107.317 -445.621 106.683 -445.622 106.051C-445.628 105.419 -446.001 104.789 -446.73 104.594C-456.286 102.015 -465.23 96.4299 -472.242 89.4924C-475.837 85.935 -478.203 81.9072 -480.942 77.7157C-483.34 74.0381 -486.499 70.9867 -490.999 70.3053C-498.928 69.1134 -506.61 77.3104 -502.354 84.9557C-498.96 91.0664 -489.33 91.068 -486.875 84.5544C-486.846 86.131 -487.422 87.718 -488.742 89.0073C-491.72 91.9148 -496.612 92.1528 -500.331 90.7596C-508.519 87.6995 -511.245 77.0745 -505.459 70.5075C-499.022 63.2111 -489.178 66.4337 -482.192 70.9814C-477.863 73.8009 -470.169 81.3491 -465.192 75.5542C-464.943 75.3617 -464.762 75.0675 -464.679 74.739C-464.605 74.4745 -464.607 74.2092 -464.662 73.962C-464.67 73.9153 -464.681 73.8742 -464.69 73.8276C-464.692 73.8197 -464.694 73.811 -464.701 73.8C-464.776 73.5278 -464.925 73.2756 -465.15 73.0712C-465.358 72.8624 -465.611 72.7184 -465.878 72.6635C-471.624 70.3262 -474.424 64.0037 -477.536 59.0357C-480.311 54.6006 -483.506 50.5746 -488.098 47.9251C-488.979 47.417 -489.887 46.9692 -490.809 46.57L-490.537 38.1527L-495.202 45.0998C-496.738 44.7271 -498.299 44.4719 -499.873 44.3629L-503.106 34.5069L-505.095 44.4475C-507.256 44.6725 -509.393 45.1481 -511.458 45.8387L-519.703 35.9297L-516.766 48.2143C-518.371 49.1252 -519.871 50.1582 -521.271 51.2969L-536.392 42.445L-526.069 56.0932C-527.274 57.5729 -528.351 59.1469 -529.291 60.7982L-550.284 55.6791L-532.235 67.5482C-532.63 68.7925 -532.954 70.0574 -533.206 71.3335L-563.331 74.9644L-533.868 79.5289C-533.828 80.6583 -533.743 81.7935 -533.593 82.9234C-533.438 84.0833 -533.232 85.2252 -532.977 86.3446L-554.438 91.3074L-530.356 94.0208C-529.026 96.9088 -527.382 99.6481 -525.463 102.21L-537.571 104.886L-545.583 106.659ZM-212.911 435.309L-211.235 427.277L-208.707 415.137C-206.122 417.025 -203.362 418.635 -200.458 419.929L-197.452 443.977L-192.751 422.458C-191.629 422.698 -190.485 422.891 -189.323 423.032C-188.19 423.169 -187.055 423.24 -185.925 423.265L-181.002 452.67L-177.738 422.504C-176.465 422.235 -175.204 421.897 -173.964 421.487L-161.877 439.39L-167.251 418.461C-165.611 417.501 -164.05 416.405 -162.585 415.182L-148.812 425.338L-157.848 410.326C-156.726 408.912 -155.711 407.399 -154.82 405.783L-142.501 408.57L-152.509 400.447C-151.844 398.374 -151.394 396.231 -151.196 394.067L-141.28 391.958L-151.174 388.844C-151.303 387.271 -151.577 385.713 -151.968 384.183L-145.078 379.433L-153.492 379.808C-153.902 378.892 -154.361 377.989 -154.88 377.115C-157.584 372.555 -161.649 369.409 -166.118 366.688C-171.123 363.637 -177.48 360.913 -179.886 355.197C-179.945 354.93 -180.092 354.679 -180.303 354.474C-180.51 354.251 -180.764 354.105 -181.037 354.034C-181.048 354.027 -181.057 354.024 -181.065 354.022C-181.112 354.015 -181.153 354.004 -181.2 353.996C-181.447 353.945 -181.713 353.946 -181.976 354.023C-182.305 354.11 -182.596 354.295 -182.785 354.546C-188.519 359.593 -180.877 367.195 -178.006 371.489C-173.373 378.419 -170.032 388.223 -177.249 394.749C-183.745 400.614 -194.403 398.018 -197.562 389.867C-199 386.165 -198.822 381.271 -195.951 378.257C-194.678 376.923 -193.098 376.327 -191.521 376.337C-198.004 378.871 -197.886 388.5 -191.734 391.82C-184.038 395.982 -175.935 388.201 -177.223 380.287C-177.96 375.795 -181.05 372.674 -184.756 370.321C-188.98 367.633 -193.036 365.316 -196.638 361.765C-203.66 354.838 -209.354 345.963 -212.048 336.439C-212.253 335.711 -212.887 335.347 -213.519 335.349C-214.151 335.355 -214.782 335.727 -214.977 336.456C-217.555 346.012 -223.141 354.956 -230.078 361.968C-233.635 365.563 -237.663 367.929 -241.855 370.668C-245.532 373.066 -248.584 376.225 -249.266 380.725C-250.458 388.654 -242.261 396.335 -234.616 392.081C-228.505 388.686 -228.504 379.056 -235.017 376.601C-233.441 376.573 -231.854 377.148 -230.564 378.468C-227.657 381.447 -227.419 386.338 -228.812 390.057C-231.872 398.246 -242.497 400.971 -249.064 395.186C-256.361 388.748 -253.138 378.904 -248.59 371.918C-245.771 367.589 -238.223 359.895 -244.018 354.918C-244.21 354.669 -244.504 354.488 -244.833 354.405C-245.097 354.331 -245.363 354.334 -245.61 354.388C-245.656 354.396 -245.697 354.408 -245.744 354.416C-245.752 354.418 -245.761 354.42 -245.772 354.428C-246.044 354.502 -246.296 354.651 -246.5 354.876C-246.709 355.084 -246.853 355.337 -246.908 355.605C-249.245 361.349 -255.568 364.15 -260.536 367.262C-264.971 370.037 -268.997 373.233 -271.647 377.825C-272.155 378.706 -272.602 379.614 -273.002 380.535L-281.419 380.262L-274.472 384.928C-274.845 386.463 -275.1 388.024 -275.209 389.598L-285.065 392.832L-275.124 394.821C-274.899 396.982 -274.424 399.119 -273.733 401.184L-283.642 409.429L-271.357 406.492C-270.447 408.097 -269.413 409.597 -268.275 410.997L-277.127 426.119L-263.479 415.796C-261.999 417 -260.425 418.077 -258.774 419.017L-263.893 440.01L-252.024 421.962C-250.78 422.356 -249.515 422.68 -248.238 422.933L-244.607 453.057L-240.043 423.595C-238.913 423.555 -237.778 423.47 -236.648 423.32C-235.488 423.165 -234.347 422.959 -233.227 422.704L-228.264 444.164L-225.55 420.082C-222.662 418.752 -219.923 417.109 -217.361 415.19L-214.685 427.298L-212.911 435.309ZM115.74 102.636L107.708 100.96L95.5677 98.4323C97.4555 95.8472 99.0658 93.0881 100.36 90.1841L124.408 87.1779L102.889 82.4766C103.129 81.3542 103.322 80.2099 103.462 79.0481C103.599 77.9159 103.67 76.7803 103.696 75.6506L133.1 70.728L102.934 67.4638C102.665 66.1902 102.327 64.93 101.917 63.6906L119.82 51.6028L98.891 56.9769C97.9308 55.3372 96.8348 53.7764 95.6121 52.3115L105.768 38.5381L90.756 47.5733C89.342 46.4517 87.8291 45.437 86.2131 44.5457L89.0006 32.2262L80.8767 42.2349C78.8039 41.5693 76.6612 41.1193 74.4973 40.9211L72.3879 31.0054L69.2749 40.9C67.702 41.0288 66.1441 41.3024 64.6134 41.6937L59.8639 34.8039L60.2388 43.2172C59.3218 43.6276 58.4192 44.0864 57.5446 44.6052C52.985 47.3098 49.839 51.3749 47.1181 55.8435C44.0669 60.849 41.3434 67.2051 35.6272 69.6121C35.3597 69.6702 35.1094 69.8172 34.9037 70.0286C34.6814 70.2357 34.5355 70.4897 34.4641 70.7628C34.4568 70.7739 34.4544 70.7825 34.4526 70.7905C34.4449 70.8373 34.4341 70.8785 34.4264 70.9252C34.375 71.1731 34.376 71.4384 34.4532 71.7021C34.54 72.0301 34.7248 72.3214 34.9759 72.5109C40.023 78.2448 47.625 70.6029 51.9188 67.7317C58.8493 63.0993 68.6531 59.7572 75.179 66.9747C81.0446 73.4708 78.4479 84.1289 70.2972 87.2877C66.5947 88.7261 61.7006 88.5476 58.6875 85.6766C57.353 84.4034 56.7574 82.8235 56.7669 81.2467C59.3007 87.7299 68.93 87.6112 72.25 81.4597C76.412 73.7631 68.6313 65.6608 60.7173 66.9484C56.2256 67.6852 53.1044 70.7747 50.7511 74.4806C48.0631 78.7051 45.7462 82.7615 42.1951 86.3622C35.2681 93.3845 26.3926 99.0785 16.8687 101.773C16.1414 101.977 15.7774 102.612 15.7788 103.244C15.7844 103.876 16.1568 104.506 16.8865 104.701C26.4425 107.279 35.3866 112.865 42.3985 119.803C45.9932 123.36 48.3591 127.388 51.0983 131.579C53.4966 135.256 56.6551 138.308 61.1555 138.99C69.0845 140.181 76.7655 131.984 72.5108 124.34C69.1162 118.229 59.4862 118.227 57.0314 124.741C57.0028 123.164 57.5791 121.577 58.898 120.288C61.8766 117.381 66.7682 117.143 70.4872 118.536C78.6758 121.596 81.4013 132.221 75.6158 138.788C69.1782 146.084 59.3339 142.862 52.3481 138.314C48.0197 135.495 40.3253 127.946 35.3483 133.741C35.0995 133.934 34.9183 134.228 34.8355 134.556C34.7615 134.821 34.7638 135.086 34.8181 135.334C34.8264 135.38 34.8377 135.421 34.846 135.468C34.8485 135.476 34.8503 135.484 34.8578 135.495C34.9325 135.768 35.0815 136.02 35.3063 136.224C35.5146 136.433 35.7667 136.577 36.0348 136.632C41.7799 138.969 44.5799 145.292 47.6924 150.26C50.4674 154.694 53.6626 158.721 58.2548 161.37C59.1356 161.879 60.0437 162.326 60.9657 162.725L60.6932 171.143L65.3584 164.196C66.8938 164.568 68.4549 164.824 70.0293 164.933L73.2624 174.789L75.251 164.848C77.4124 164.623 79.5495 164.147 81.614 163.457L89.859 173.366L86.9219 161.081C88.5269 160.17 90.0274 159.137 91.4276 157.999L106.549 166.852L96.2258 153.204C97.4305 151.723 98.5075 150.15 99.4477 148.498L120.44 153.618L102.392 141.749C102.787 140.504 103.11 139.239 103.363 137.963L133.487 134.332L104.025 129.767C103.985 128.638 103.9 127.503 103.75 126.372C103.595 125.212 103.389 124.07 103.135 122.951L124.595 117.988L100.513 115.275C99.1832 112.387 97.5394 109.647 95.6203 107.085L107.728 104.41L115.74 102.636ZM-216.693 -186.609C-217.297 -187.341 -217.922 -188.061 -218.575 -188.757C-219.933 -190.227 -221.349 -191.65 -222.893 -192.947C-224.425 -194.246 -226.036 -195.476 -227.746 -196.565C-229.462 -197.65 -231.254 -198.628 -233.138 -199.425C-236.889 -201.03 -240.968 -201.994 -245.107 -202.046C-247.172 -202.064 -249.249 -201.872 -251.272 -201.424C-253.293 -200.97 -255.26 -200.246 -257.104 -199.299C-258.957 -198.355 -260.685 -197.161 -262.199 -195.734C-263.722 -194.324 -265.052 -192.69 -266.057 -190.874C-267.086 -189.073 -267.82 -187.107 -268.224 -185.089C-268.639 -183.078 -268.75 -181.015 -268.535 -178.995C-268.102 -174.963 -266.575 -171.18 -264.444 -167.911C-263.378 -166.27 -262.178 -164.736 -260.879 -163.308C-259.56 -161.893 -258.159 -160.567 -256.689 -159.338C-257.966 -160.764 -259.204 -162.22 -260.324 -163.76C-261.44 -165.295 -262.452 -166.904 -263.302 -168.573C-264.148 -170.245 -264.873 -171.974 -265.373 -173.749C-265.872 -175.526 -266.163 -177.34 -266.199 -179.15C-266.304 -182.756 -265.334 -186.332 -263.382 -189.25C-261.463 -192.19 -258.677 -194.523 -255.476 -195.955C-253.882 -196.67 -252.198 -197.207 -250.463 -197.501C-248.736 -197.811 -246.973 -197.938 -245.216 -197.859C-241.688 -197.715 -238.202 -196.79 -234.967 -195.29C-233.349 -194.54 -231.773 -193.667 -230.275 -192.679C-228.768 -191.696 -227.345 -190.573 -225.98 -189.379C-224.605 -188.193 -223.315 -186.9 -222.081 -185.547C-221.068 -184.464 -220.131 -183.294 -219.215 -182.113C-218.177 -167.104 -217.959 -152.048 -218.33 -137.012C-223.041 -146.891 -230.607 -155.933 -239.722 -161.368C-241.501 -162.431 -243.457 -163.459 -245.16 -164.727C-247 -166.097 -248.553 -167.755 -249.293 -170.049C-250.779 -174.636 -248.192 -180.196 -243.019 -180.595C-238.38 -180.948 -234.522 -175.941 -237.292 -171.795C-238.635 -169.789 -241.282 -168.716 -243.472 -170.168C-245.829 -171.726 -244.805 -175.811 -241.788 -174.815C-239.935 -174.202 -239.183 -177.133 -241.024 -177.738C-244.321 -178.829 -247.919 -176.134 -248.009 -172.659C-248.037 -171.569 -247.731 -170.591 -247.202 -169.737C-246.392 -168.185 -245.268 -166.901 -243.96 -165.948C-240.056 -163.1 -234.536 -163.184 -231.023 -167.688C-226.52 -173.473 -228.12 -182.277 -233.09 -187.221C-237.753 -191.855 -245.277 -193.039 -251.144 -190.088C-257.82 -186.734 -260.867 -179.339 -259.555 -172.161C-258.755 -167.79 -256.6 -163.821 -254.127 -160.184C-252.397 -157.649 -247.279 -152.608 -248.221 -149.007C-253.508 -157.594 -265.531 -159.468 -271.385 -167.837C-282.397 -183.579 -271.14 -205.029 -253.814 -209.837C-240.707 -213.478 -227.354 -208.267 -217.833 -199.121C-217.567 -198.87 -217.253 -198.752 -216.932 -198.73C-216.877 -198.721 -216.822 -198.717 -216.767 -198.718C-216.711 -198.718 -216.656 -198.722 -216.602 -198.732C-216.281 -198.758 -215.968 -198.88 -215.706 -199.134C-206.297 -208.396 -193.008 -213.77 -179.857 -210.288C-162.474 -205.692 -150.957 -184.379 -161.777 -168.505C-167.528 -160.066 -179.527 -158.046 -184.71 -149.394C-185.696 -152.985 -180.639 -158.086 -178.94 -160.643C-176.512 -164.309 -174.405 -168.305 -173.659 -172.685C-172.433 -179.877 -175.571 -187.235 -182.287 -190.508C-188.19 -193.387 -195.698 -192.112 -200.304 -187.422C-205.214 -182.417 -206.706 -173.595 -202.134 -167.865C-198.566 -163.404 -193.046 -163.387 -189.177 -166.282C-187.88 -167.25 -186.772 -168.549 -185.981 -170.111C-185.463 -170.972 -185.169 -171.954 -185.21 -173.042C-185.342 -176.516 -188.972 -179.167 -192.256 -178.036C-194.089 -177.408 -193.301 -174.487 -191.456 -175.122C-188.452 -176.155 -187.378 -172.083 -189.716 -170.497C-191.888 -169.017 -194.548 -170.058 -195.915 -172.048C-198.735 -176.16 -194.939 -181.213 -190.296 -180.917C-185.118 -180.581 -182.464 -175.052 -183.894 -170.448C-184.607 -168.145 -186.139 -166.469 -187.962 -165.076C-189.65 -163.788 -191.593 -162.735 -193.359 -161.652C-202.407 -156.106 -209.863 -146.973 -214.453 -137.037C-215.006 -152.067 -214.972 -167.124 -214.116 -182.145C-213.214 -183.338 -212.291 -184.519 -211.292 -185.614C-210.074 -186.982 -208.8 -188.29 -207.44 -189.493C-206.089 -190.702 -204.681 -191.844 -203.185 -192.845C-201.7 -193.851 -200.134 -194.743 -198.525 -195.512C-195.309 -197.052 -191.834 -198.019 -188.308 -198.206C-186.552 -198.306 -184.788 -198.2 -183.058 -197.912C-181.319 -197.64 -179.628 -197.123 -178.026 -196.427C-174.808 -195.034 -171.994 -192.735 -170.039 -189.819C-168.051 -186.926 -167.038 -183.361 -167.099 -179.754C-167.113 -177.944 -167.382 -176.126 -167.86 -174.344C-168.338 -172.561 -169.042 -170.824 -169.867 -169.143C-170.698 -167.464 -171.69 -165.842 -172.788 -164.294C-173.888 -162.74 -175.108 -161.269 -176.368 -159.827C-174.913 -161.075 -173.529 -162.417 -172.227 -163.849C-170.945 -165.292 -169.764 -166.841 -168.718 -168.495C-166.627 -171.789 -165.145 -175.591 -164.763 -179.627C-164.572 -181.65 -164.708 -183.712 -165.147 -185.717C-165.575 -187.73 -166.335 -189.687 -167.384 -191.475C-168.412 -193.279 -169.761 -194.897 -171.302 -196.289C-172.833 -197.696 -174.575 -198.869 -176.439 -199.791C-178.295 -200.715 -180.271 -201.415 -182.297 -201.844C-184.326 -202.268 -186.404 -202.434 -188.469 -202.392C-192.607 -202.29 -196.674 -201.275 -200.406 -199.626C-202.279 -198.805 -204.06 -197.806 -205.762 -196.7C-207.459 -195.591 -209.055 -194.34 -210.57 -193.023C-212.1 -191.707 -213.497 -190.267 -214.837 -188.781C-215.482 -188.076 -216.098 -187.348 -216.693 -186.609ZM-506.178 106.419C-506.91 107.023 -507.63 107.648 -508.327 108.3C-509.796 109.659 -511.219 111.074 -512.516 112.619C-513.815 114.151 -515.045 115.762 -516.134 117.472C-517.219 119.187 -518.196 120.98 -518.994 122.863C-520.598 126.615 -521.563 130.693 -521.614 134.833C-521.633 136.898 -521.441 138.974 -520.992 140.998C-520.538 143.018 -519.815 144.986 -518.868 146.83C-517.924 148.682 -516.73 150.41 -515.303 151.924C-513.892 153.448 -512.258 154.777 -510.443 155.783C-508.641 156.811 -506.675 157.546 -504.657 157.95C-502.647 158.364 -500.584 158.475 -498.564 158.26C-494.532 157.828 -490.749 156.301 -487.481 154.17C-485.84 153.104 -484.305 151.903 -482.878 150.605C-481.462 149.285 -480.136 147.885 -478.907 146.415C-480.333 147.692 -481.79 148.93 -483.329 150.049C-484.864 151.165 -486.474 152.178 -488.142 153.028C-489.814 153.874 -491.543 154.598 -493.319 155.098C-495.094 155.598 -496.909 155.889 -498.719 155.925C-502.325 156.03 -505.902 155.06 -508.819 153.107C-511.758 151.188 -514.091 148.403 -515.523 145.202C-516.239 143.608 -516.776 141.924 -517.07 140.188C-517.379 138.462 -517.507 136.699 -517.428 134.942C-517.284 131.414 -516.359 127.927 -514.859 124.692C-514.109 123.075 -513.236 121.498 -512.248 120.001C-511.265 118.493 -510.142 117.071 -508.949 115.706C-507.763 114.331 -506.47 113.041 -505.117 111.807C-504.034 110.794 -502.864 109.857 -501.683 108.94C-486.673 107.902 -471.617 107.684 -456.582 108.055C-466.461 112.766 -475.503 120.332 -480.938 129.447C-482 131.226 -483.029 133.182 -484.298 134.885C-485.668 136.725 -487.325 138.277 -489.62 139.018C-494.206 140.504 -499.766 137.917 -500.166 132.744C-500.519 128.105 -495.512 124.248 -491.365 127.017C-489.359 128.36 -488.286 131.007 -489.739 133.197C-491.297 135.554 -495.382 134.53 -494.385 131.513C-493.773 129.66 -496.703 128.908 -497.308 130.749C-498.4 134.046 -495.705 137.644 -492.23 137.734C-491.14 137.762 -490.162 137.456 -489.308 136.927C-487.756 136.117 -486.471 134.993 -485.519 133.685C-482.671 129.781 -482.754 124.261 -487.258 120.748C-493.043 116.245 -501.847 117.845 -506.792 122.815C-511.425 127.478 -512.609 135.002 -509.659 140.869C-506.304 147.545 -498.909 150.592 -491.732 149.28C-487.361 148.48 -483.391 146.325 -479.755 143.852C-477.219 142.122 -472.179 137.004 -468.577 137.946C-477.165 143.233 -479.039 155.256 -487.408 161.11C-503.149 172.122 -524.6 160.865 -529.407 143.539C-533.049 130.432 -527.837 117.079 -518.691 107.558C-518.441 107.292 -518.323 106.978 -518.301 106.657C-518.291 106.602 -518.288 106.547 -518.288 106.492C-518.289 106.436 -518.293 106.381 -518.303 106.327C-518.329 106.006 -518.45 105.693 -518.704 105.43C-527.965 96.0216 -533.339 82.7327 -529.857 69.5822C-525.261 52.199 -503.948 40.682 -488.074 51.5017C-479.635 57.253 -477.615 69.2528 -468.963 74.4353C-472.554 75.4208 -477.656 70.3641 -480.212 68.6654C-483.878 66.2368 -487.874 64.1298 -492.254 63.3837C-499.447 62.1584 -506.804 65.2958 -510.077 72.0122C-512.957 77.9147 -511.681 85.4233 -506.991 90.0292C-501.987 94.9391 -493.164 96.4315 -487.434 91.8587C-482.973 88.2911 -482.957 82.7708 -485.852 78.9015C-486.82 77.6052 -488.118 76.4971 -489.68 75.7056C-490.541 75.1875 -491.523 74.8931 -492.612 74.9348C-496.086 75.0671 -498.737 78.6974 -497.605 81.9809C-496.978 83.8143 -494.056 83.0263 -494.692 81.1813C-495.725 78.1766 -491.652 77.1033 -490.066 79.4413C-488.586 81.6134 -489.627 84.2732 -491.617 85.6404C-495.729 88.4595 -500.783 84.6636 -500.486 80.0206C-500.15 74.843 -494.621 72.1891 -490.018 73.6192C-487.714 74.3319 -486.038 75.864 -484.645 77.6872C-483.357 79.3747 -482.304 81.3179 -481.22 83.084C-475.674 92.1323 -466.541 99.5877 -456.606 104.178C-471.635 104.731 -486.692 104.697 -501.714 103.841C-502.907 102.94 -504.087 102.017 -505.182 101.017C-506.55 99.799 -507.859 98.5251 -509.062 97.1645C-510.271 95.8144 -511.412 94.4061 -512.413 92.9098C-513.42 91.4246 -514.311 89.8588 -515.08 88.2505C-516.62 85.0345 -517.587 81.5589 -517.774 78.033C-517.874 76.277 -517.768 74.5122 -517.48 72.7826C-517.207 71.0439 -516.69 69.3528 -515.994 67.751C-514.601 64.5331 -512.303 61.7188 -509.386 59.7644C-506.493 57.7763 -502.928 56.7627 -499.322 56.8243C-497.512 56.8378 -495.694 57.1068 -493.912 57.5849C-492.13 58.063 -490.392 58.7668 -488.711 59.592C-487.032 60.4226 -485.41 61.4152 -483.862 62.512C-482.308 63.6119 -480.837 64.8327 -479.395 66.0923C-480.643 64.6374 -481.985 63.2531 -483.417 61.951C-484.86 60.6699 -486.409 59.4883 -488.063 58.4425C-491.357 56.3513 -495.159 54.8696 -499.195 54.4869C-501.218 54.2965 -503.28 54.4319 -505.284 54.8716C-507.297 55.2997 -509.254 56.0585 -511.043 57.1087C-512.847 58.1362 -514.464 59.4857 -515.856 61.0261C-517.264 62.5573 -518.437 64.2991 -519.358 66.1634C-520.283 68.019 -520.983 69.995 -521.412 72.0209C-521.836 74.0498 -522.002 76.1276 -521.959 78.193C-521.857 82.3317 -520.843 86.398 -519.193 90.1299C-518.373 92.0038 -517.373 93.784 -516.267 95.4861C-515.158 97.1832 -513.908 98.7793 -512.591 100.295C-511.276 101.824 -509.835 103.221 -508.349 104.562C-507.645 105.208 -506.917 105.824 -506.178 106.419ZM-213.15 395.904C-212.546 396.636 -211.922 397.357 -211.269 398.053C-209.91 399.522 -208.495 400.946 -206.95 402.243C-205.419 403.541 -203.808 404.771 -202.097 405.86C-200.382 406.946 -198.589 407.923 -196.706 408.721C-192.954 410.325 -188.876 411.29 -184.736 411.341C-182.671 411.36 -180.595 411.168 -178.572 410.719C-176.551 410.265 -174.584 409.541 -172.739 408.595C-170.887 407.65 -169.159 406.457 -167.645 405.03C-166.122 403.619 -164.792 401.985 -163.787 400.169C-162.758 398.368 -162.023 396.402 -161.62 394.384C-161.205 392.374 -161.094 390.31 -161.309 388.291C-161.741 384.259 -163.269 380.476 -165.4 377.207C-166.466 375.566 -167.666 374.032 -168.964 372.604C-170.284 371.189 -171.684 369.863 -173.154 368.634C-171.877 370.06 -170.639 371.516 -169.52 373.056C-168.404 374.591 -167.392 376.2 -166.541 377.869C-165.695 379.541 -164.97 381.27 -164.47 383.046C-163.971 384.821 -163.68 386.636 -163.644 388.446C-163.539 392.052 -164.509 395.628 -166.462 398.546C-168.38 401.485 -171.166 403.818 -174.367 405.25C-175.961 405.966 -177.645 406.503 -179.38 406.797C-181.107 407.107 -182.87 407.234 -184.627 407.155C-188.155 407.011 -191.641 406.087 -194.876 404.586C-196.494 403.836 -198.07 402.964 -199.568 401.975C-201.075 400.993 -202.498 399.869 -203.863 398.676C-205.238 397.489 -206.528 396.197 -207.762 394.844C-208.775 393.761 -209.712 392.591 -210.628 391.41C-211.666 376.4 -211.884 361.344 -211.514 346.309C-206.803 356.188 -199.237 365.23 -190.122 370.665C-188.343 371.727 -186.387 372.756 -184.684 374.024C-182.844 375.394 -181.291 377.052 -180.551 379.346C-179.065 383.932 -181.651 389.493 -186.825 389.892C-191.464 390.245 -195.321 385.238 -192.552 381.092C-191.209 379.085 -188.562 378.012 -186.372 379.465C-184.015 381.023 -185.039 385.108 -188.056 384.112C-189.908 383.499 -190.661 386.43 -188.82 387.034C-185.523 388.127 -181.925 385.431 -181.835 381.956C-181.806 380.867 -182.113 379.888 -182.641 379.034C-183.452 377.482 -184.576 376.197 -185.884 375.245C-189.788 372.398 -195.307 372.48 -198.82 376.984C-203.323 382.769 -201.724 391.573 -196.753 396.518C-192.091 401.152 -184.567 402.336 -178.7 399.385C-172.024 396.03 -168.976 388.635 -170.289 381.458C-171.088 377.087 -173.244 373.118 -175.717 369.481C-177.446 366.945 -182.565 361.906 -181.623 358.303C-176.336 366.891 -164.312 368.765 -158.459 377.134C-147.447 392.875 -158.704 414.326 -176.03 419.133C-189.137 422.775 -202.49 417.563 -212.01 408.418C-212.277 408.167 -212.591 408.049 -212.912 408.027C-212.967 408.017 -213.021 408.014 -213.077 408.014C-213.133 408.015 -213.187 408.019 -213.241 408.029C-213.562 408.055 -213.875 408.176 -214.138 408.431C-223.546 417.691 -236.835 423.065 -249.986 419.583C-267.369 414.987 -278.886 393.674 -268.066 377.8C-262.315 369.361 -250.316 367.341 -245.133 358.69C-244.147 362.28 -249.204 367.382 -250.903 369.938C-253.331 373.605 -255.438 377.6 -256.184 381.981C-257.41 389.173 -254.272 396.53 -247.556 399.804C-241.653 402.683 -234.145 401.407 -229.539 396.717C-224.629 391.713 -223.137 382.889 -227.709 377.16C-231.277 372.698 -236.797 372.683 -240.667 375.578C-241.963 376.546 -243.071 377.844 -243.862 379.406C-244.381 380.268 -244.675 381.249 -244.633 382.338C-244.501 385.812 -240.871 388.463 -237.587 387.331C-235.754 386.703 -236.542 383.782 -238.387 384.418C-241.391 385.451 -242.465 381.379 -240.127 379.792C-237.955 378.313 -235.295 379.353 -233.928 381.343C-231.108 385.455 -234.904 390.509 -239.547 390.213C-244.725 389.876 -247.379 384.348 -245.949 379.744C-245.236 377.44 -243.704 375.764 -241.881 374.372C-240.193 373.083 -238.25 372.031 -236.484 370.947C-227.436 365.401 -219.98 356.268 -215.39 346.333C-214.837 361.362 -214.871 376.419 -215.727 391.441C-216.628 392.633 -217.551 393.814 -218.551 394.909C-219.768 396.277 -221.042 397.585 -222.403 398.789C-223.753 399.998 -225.161 401.139 -226.658 402.14C-228.143 403.147 -229.709 404.038 -231.317 404.808C-234.534 406.348 -238.009 407.315 -241.534 407.501C-243.29 407.602 -245.055 407.496 -246.785 407.207C-248.524 406.935 -250.215 406.418 -251.816 405.721C-255.034 404.328 -257.849 402.03 -259.803 399.113C-261.791 396.22 -262.805 392.655 -262.743 389.048C-262.73 387.239 -262.461 385.421 -261.982 383.639C-261.504 381.856 -260.801 380.119 -259.975 378.437C-259.145 376.758 -258.152 375.137 -257.055 373.589C-255.955 372.035 -254.735 370.564 -253.475 369.122C-254.93 370.369 -256.314 371.712 -257.616 373.144C-258.898 374.587 -260.079 376.136 -261.125 377.79C-263.216 381.084 -264.698 384.885 -265.08 388.922C-265.271 390.945 -265.135 393.006 -264.696 395.011C-264.268 397.024 -263.509 398.981 -262.459 400.769C-261.431 402.573 -260.082 404.191 -258.541 405.583C-257.01 406.99 -255.268 408.164 -253.404 409.085C-251.548 410.009 -249.572 410.709 -247.546 411.139C-245.518 411.562 -243.439 411.728 -241.374 411.686C-237.236 411.584 -233.169 410.57 -229.438 408.92C-227.564 408.099 -225.783 407.1 -224.081 405.994C-222.384 404.885 -220.788 403.634 -219.273 402.318C-217.743 401.002 -216.346 399.561 -215.006 398.075C-214.361 397.371 -213.745 396.643 -213.15 395.904ZM76.3347 102.876C77.0669 102.272 77.7873 101.647 78.4836 100.994C79.9531 99.636 81.3757 98.2207 82.6734 96.676C83.9718 95.1442 85.2022 93.5336 86.2906 91.8231C87.376 90.1076 88.3534 88.3149 89.1509 86.4317C90.7552 82.68 91.7199 78.6017 91.7715 74.4621C91.7897 72.3969 91.5983 70.3207 91.1499 68.2971C90.6959 66.2766 89.9721 64.3092 89.0254 62.4649C88.0811 60.6126 86.887 58.8847 85.4607 57.3706C84.0497 55.8473 82.4158 54.5176 80.6001 53.5121C78.7991 52.4837 76.8327 51.7488 74.815 51.3452C72.8045 50.93 70.7418 50.8196 68.7217 51.0346C64.69 51.4664 60.9064 52.9943 57.6381 55.1253C55.9972 56.1912 54.4628 57.3915 53.0352 58.6901C51.62 60.0095 50.2938 61.41 49.0644 62.88C50.4909 61.6029 51.9471 60.365 53.487 59.2457C55.0219 58.1295 56.6312 57.1172 58.2998 56.2668C59.9715 55.4213 61.7005 54.6964 63.4763 54.1967C65.2521 53.6969 67.0666 53.4058 68.8766 53.3703C72.4827 53.2648 76.0592 54.235 78.9764 56.1877C81.9161 58.1065 84.2487 60.8921 85.6809 64.0934C86.3964 65.6872 86.9337 67.3713 87.2274 69.1066C87.537 70.8331 87.6644 72.5958 87.5854 74.353C87.4417 77.8808 86.5169 81.3674 85.0164 84.6024C84.2664 86.22 83.394 87.7965 82.4055 89.2939C81.4227 90.8017 80.2993 92.2243 79.1062 93.589C77.9199 94.9642 76.6268 96.254 75.2737 97.4882C74.1908 98.5009 73.0209 99.4386 71.8398 100.355C56.8305 101.393 41.7744 101.611 26.7393 101.24C36.6183 96.5292 45.6599 88.9634 51.0951 79.8482C52.1574 78.0691 53.186 76.1132 54.4545 74.4102C55.8247 72.5702 57.4823 71.0178 59.7769 70.2772C64.3629 68.7911 69.9234 71.3776 70.3228 76.5507C70.6759 81.1904 65.6688 85.0469 61.5231 82.2779C59.5168 80.9351 58.4436 78.2882 59.8964 76.0982C61.4552 73.7411 65.5399 74.7648 64.5429 77.7818C63.9301 79.6344 66.8609 80.3868 67.4658 78.5459C68.5582 75.2489 65.8625 71.6511 62.3872 71.561C61.298 71.5326 60.3195 71.8389 59.4653 72.3675C57.9131 73.1779 56.6288 74.3017 55.6761 75.6097C52.8289 79.5139 52.9116 85.0336 57.4157 88.5466C63.2003 93.0495 72.0049 91.4499 76.9494 86.4795C81.5831 81.8169 82.767 74.2933 79.8162 68.4262C76.4617 61.7502 69.0668 58.7025 61.8895 60.0152C57.5185 60.8145 53.5489 62.97 49.9123 65.4429C47.3768 67.1727 42.3362 72.2911 38.7347 71.3492C47.3228 66.0619 49.1962 54.0385 57.5652 48.1849C73.3068 37.1729 94.7575 48.4298 99.5648 65.7558C103.206 78.8629 97.9948 92.2162 88.849 101.737C88.5982 102.003 88.4803 102.317 88.4583 102.639C88.4488 102.694 88.4455 102.748 88.4458 102.804C88.4462 102.859 88.4502 102.914 88.4603 102.968C88.4862 103.289 88.6079 103.602 88.862 103.865C98.1229 113.273 103.497 126.562 100.015 139.713C95.4184 157.096 74.1056 168.613 58.2318 157.793C49.7928 152.042 47.7727 140.042 39.121 134.86C42.7114 133.874 47.8133 138.931 50.3696 140.629C54.036 143.058 58.0316 145.165 62.4119 145.911C69.6041 147.136 76.9614 143.999 80.2349 137.283C83.1148 131.38 81.8388 123.871 77.1488 119.266C72.1442 114.356 63.3215 112.863 57.5914 117.436C53.1298 121.004 53.1142 126.524 56.0093 130.393C56.9773 131.69 58.2757 132.798 59.8376 133.589C60.6989 134.107 61.6804 134.401 62.7692 134.36C66.2431 134.228 68.8942 130.597 67.7624 127.314C67.1352 125.481 64.2138 126.269 64.8491 128.114C65.882 131.118 61.8101 132.192 60.2234 129.854C58.744 127.681 59.7849 125.022 61.7747 123.654C65.8865 120.835 70.9402 124.631 70.6435 129.274C70.3076 134.452 64.7784 137.106 60.1746 135.676C57.8712 134.963 56.1949 133.431 54.8024 131.608C53.5139 129.92 52.4609 127.977 51.3771 126.211C45.8314 117.163 36.6984 109.707 26.7629 105.117C41.7923 104.564 56.8493 104.598 71.8708 105.453C73.0636 106.355 74.2442 107.278 75.3394 108.278C76.7073 109.496 78.016 110.77 79.219 112.13C80.428 113.48 81.5692 114.889 82.5703 116.385C83.5769 117.87 84.4684 119.436 85.238 121.044C86.7778 124.26 87.7449 127.736 87.9316 131.262C88.0319 133.018 87.926 134.782 87.6373 136.512C87.3648 138.251 86.848 139.942 86.152 141.544C84.7588 144.762 82.4603 147.576 79.5441 149.53C76.6509 151.519 73.0858 152.532 69.4793 152.471C67.6697 152.457 65.8517 152.189 64.0694 151.71C62.2876 151.232 60.55 150.528 58.8681 149.703C57.1893 148.872 55.5678 147.88 54.0194 146.783C52.466 145.682 50.9949 144.462 49.553 143.203C50.8001 144.657 52.1427 146.042 53.5744 147.344C55.0177 148.625 56.5666 149.807 58.2203 150.852C61.5143 152.943 65.3162 154.425 69.3528 154.808C71.3755 154.998 73.4372 154.863 75.4419 154.423C77.4546 153.995 79.4118 153.236 81.2003 152.186C83.0042 151.159 84.6218 149.809 86.0136 148.269C87.4213 146.738 88.5943 144.996 89.516 143.131C90.4402 141.276 91.1401 139.3 91.5694 137.274C91.9932 135.245 92.1593 133.167 92.116 131.102C92.014 126.963 90.9998 122.897 89.35 119.165C88.5296 117.291 87.5305 115.511 86.4243 113.809C85.3151 112.112 84.0647 110.516 82.7484 109C81.432 107.471 79.9923 106.074 78.5063 104.733C77.8015 104.087 77.0742 103.471 76.3347 102.876Z" fill="#150033"/>
<path d="M87.6611 102.362C87.6608 102.306 87.6641 102.252 87.6736 102.198C87.6956 101.876 87.8135 101.562 88.0643 101.295C97.2101 91.7749 102.422 78.4217 98.7801 65.3145C93.9728 47.9885 72.5215 36.7316 56.7805 47.7436C48.4121 53.5972 46.5381 65.6206 37.95 70.908C41.5521 71.8498 46.5921 66.7314 49.1276 65.0017C52.7642 62.5287 56.7338 60.3732 61.1048 59.5739C68.2815 58.2612 75.6764 61.3089 79.0314 67.9849C81.9829 73.852 80.7984 81.3756 76.1647 86.0382C71.2202 91.0086 62.4162 92.6082 56.631 88.1054C52.1263 84.5923 52.0436 79.0727 54.8914 75.1685L53.6704 73.9689C52.4025 75.6719 51.3733 77.6278 50.311 79.4069C44.8758 88.5221 35.8342 96.088 25.9552 100.799C40.9903 101.169 56.0458 100.952 71.0557 99.9136C72.2374 98.9973 73.4068 98.0602 74.4896 97.0469C75.8427 95.8127 77.1358 94.5229 78.3221 93.1478C79.5146 91.7831 80.6386 90.361 81.6215 88.8526C82.6099 87.3552 83.4823 85.7787 84.2323 84.1612C85.7329 80.9267 86.6576 77.4396 86.8014 73.9117C86.8803 72.1545 86.7529 70.3912 86.4433 68.6653C86.1496 66.93 85.6123 65.2453 84.8969 63.6521C83.4646 60.4514 81.132 57.6653 78.1923 55.7465C75.2751 53.7937 71.698 52.8235 68.0925 52.929C66.2831 52.9645 64.4686 53.2557 62.6922 53.7554C60.9164 54.2552 59.1874 54.98 57.5157 55.8255C55.8471 56.6766 54.2378 57.6888 52.7029 58.8044C51.163 59.9231 49.7068 61.1616 48.2804 62.4387C49.5097 60.9687 50.8353 59.5682 52.2511 58.2488C53.6787 56.9502 55.2131 55.7499 56.854 54.684C60.1223 52.553 63.9059 51.0251 67.9376 50.5933C69.9577 50.3784 72.021 50.4887 74.0309 50.904C76.0486 51.3075 78.015 52.0425 79.816 53.0708C81.6323 54.0763 83.2663 55.406 84.6766 56.9293C86.1029 58.4434 87.297 60.1707 88.2413 62.0237C89.188 63.868 89.9119 65.8353 90.3658 67.8558C90.8142 69.8795 91.0056 71.955 90.9874 74.0208C90.9358 78.1604 89.9711 82.2387 88.3668 85.9904C87.5693 87.8742 86.5919 89.6664 85.5065 91.3818C84.4181 93.0923 83.1871 94.7035 81.8893 96.2347C80.5916 97.7801 79.1691 99.1947 77.6995 100.553C77.0032 101.206 76.2828 101.831 75.5506 102.435C76.2901 103.03 77.0181 103.646 77.7222 104.29C79.2082 105.63 80.6479 107.028 81.9643 108.557C83.2812 110.073 84.5311 111.669 85.6402 113.366C86.7464 115.068 87.7455 116.849 88.5659 118.722C90.2157 122.454 91.23 126.52 91.3319 130.659C91.3752 132.724 91.2091 134.802 90.7853 136.831C90.356 138.857 89.6561 140.833 88.7319 142.688C87.8102 144.552 86.6372 146.294 85.2295 147.826C83.8371 149.366 82.2195 150.715 80.4162 151.743C78.6278 152.793 76.6705 153.552 74.6578 153.98C72.6525 154.419 70.5914 154.555 68.5687 154.365C64.5321 153.981 60.7302 152.5 57.4362 150.409C55.7825 149.363 54.2335 148.182 52.7903 146.901C51.3592 145.599 50.016 144.214 48.7689 142.759C50.2108 144.019 51.6819 145.239 53.2353 146.34C54.7837 147.437 56.4052 148.43 58.084 149.26C59.7659 150.085 61.5035 150.789 63.2853 151.267C65.067 151.745 66.885 152.014 68.6952 152.027C72.3024 152.089 75.8668 151.075 78.76 149.087C81.6762 147.133 83.9747 144.319 85.3679 141.101C86.0639 139.498 86.5807 137.808 86.8532 136.069C87.1419 134.339 87.2478 132.575 87.1475 130.819C86.9608 127.293 85.9937 123.818 84.4539 120.601C83.6843 118.993 82.7928 117.427 81.7862 115.942C80.7851 114.446 79.6445 113.037 78.4349 111.687C77.2319 110.327 75.9232 109.053 74.5553 107.835C73.4601 106.836 72.2789 105.913 71.0867 105.01C56.0658 104.155 41.0082 104.12 25.9788 104.673C35.9143 109.264 45.0473 116.719 50.593 125.768C51.6768 127.534 52.7292 129.477 54.0183 131.165L55.2246 129.95C52.3301 126.081 52.3457 120.561 56.8067 116.993C62.5361 112.42 71.3595 113.913 76.3641 118.822C81.0541 123.428 82.3295 130.937 79.4502 136.84C76.1773 143.556 68.82 146.693 61.6272 145.468C57.2468 144.722 53.2513 142.615 49.5849 140.186C47.0286 138.488 41.926 133.431 38.3363 134.416C46.988 139.599 49.0075 151.599 57.4471 157.35C73.3215 168.17 94.6337 156.653 99.2299 139.27C102.712 126.119 97.3382 112.83 88.0773 103.422C87.8232 103.159 87.7015 102.846 87.6756 102.525C87.6655 102.473 87.6615 102.418 87.6611 102.362Z" fill="#F46C68"/>
<path d="M58.9924 69.8368C56.6978 70.5774 55.0402 72.1299 53.67 73.9698L54.891 75.1694C55.8431 73.8614 57.128 72.7375 58.6801 71.9271C59.535 71.3986 60.5129 71.0923 61.6021 71.1207C65.0774 71.2107 67.7724 74.8085 66.6807 78.1056C66.0758 79.9465 63.145 79.1941 63.7578 77.3415C64.7542 74.3244 60.6694 73.3007 59.1113 75.6578C57.6584 77.8478 58.7316 80.4948 60.7379 81.8376C64.8837 84.6066 69.8908 80.7494 69.5376 76.1104C69.1389 70.9373 63.5784 68.3508 58.9924 69.8368Z" fill="#F46C68"/>
<path d="M59.3902 135.234C57.0868 134.522 55.4104 132.99 54.0179 131.166L55.2243 129.952C56.1922 131.248 57.4907 132.357 59.0526 133.148C59.9138 133.666 60.8953 133.96 61.9841 133.919C65.458 133.787 68.1091 130.156 66.9774 126.873C66.3501 125.039 63.4287 125.827 64.064 127.672C65.097 130.677 61.025 131.75 59.4383 129.412C57.9589 127.24 58.9999 124.58 60.9896 123.213C65.1014 120.394 70.1551 124.19 69.8584 128.833C69.5226 134.011 63.994 136.665 59.3902 135.234Z" fill="#F46C68"/>
</g>
<defs>
<clipPath id="clip0_306_202">
<rect width="132.406" height="218.225" fill="white" transform="matrix(-1.00199 0.00609425 0.00609425 1.00199 132.67 0)"/>
</clipPath>
</defs>
</svg>
