<svg width="18" height="14" viewBox="0 0 18 14" fill="none" xmlns="http://www.w3.org/2000/svg">
<path d="M0 9.91288C0 9.91288 0.169632 9.40786 1.15772 9.2067C1.15772 9.2067 1.59544 8.10281 2.29524 8.05465C2.9954 8.00542 3.98349 7.868 3.98349 7.868C3.98349 7.868 3.29289 5.97861 2.51021 5.42259C1.72718 4.86515 0.585051 3.31609 0.412579 2.39105C0.241169 1.46494 0.498641 -0.182216 0.907687 0.0164632C1.31709 0.216913 1.30185 0.915655 1.30185 0.915655C1.30185 0.915655 1.60358 0.190706 1.91524 0.482881C2.22689 0.775765 2.27719 1.41182 2.27719 1.41182C2.27719 1.41182 2.41778 0.716975 2.7305 0.976568C3.04179 1.23793 3.15585 1.87541 3.15585 1.87541C3.15585 1.87541 3.41968 1.40439 3.76427 1.6654C4.10921 1.92711 3.88505 1.98625 4.28843 2.43886C4.69074 2.89359 5.55948 3.92772 6.11727 4.60698C6.67541 5.28589 8.1724 6.62139 8.1724 6.62139C8.1724 6.62139 10.4939 5.08012 10.8186 4.70649C11.1451 4.3318 15.09 2.63506 15.9942 1.92392C16.8987 1.21173 17.5744 0.813307 17.7568 1.26095C17.9371 1.71037 17.3566 2.08011 17.3566 2.08011C17.3566 2.08011 18.1202 2.03265 17.9838 2.50686C17.8468 2.98 17.3998 3.03454 17.3998 3.03454C17.3998 3.03454 18.0674 3.01613 17.9966 3.36426C17.9268 3.71345 17.2535 3.95215 17.2535 3.95215C17.2535 3.95215 17.9555 3.84024 17.7239 4.2801C17.4912 4.72031 16.853 4.86586 16.853 4.86586C16.853 4.86586 17.4246 4.87684 17.2932 5.09748C17.1622 5.31563 16.3926 5.58656 16.298 5.58479C16.2021 5.58338 15.9053 6.11637 15.1286 6.7673C14.353 7.41894 12.1113 8.26112 11.7536 8.57206C11.3977 8.8823 10.8997 9.88915 10.8997 9.88915C10.8997 9.88915 12.311 10.8712 13.2283 10.987C14.1473 11.1014 15.1046 10.9626 15.3163 11.4439C15.5288 11.9241 15.8876 12.9805 15.1389 13.7915C15.1389 13.7915 13.0062 12.5067 11.767 12.4493C10.5296 12.3912 7.50872 12.4861 5.61933 11.6847C3.72957 10.8822 2.69722 10.0977 1.9698 9.92279C1.24308 9.7482 0.768509 9.64301 0 9.91288Z" fill="#520A20"/>
</svg>
