<svg width="153" height="43" viewBox="0 0 153 43" fill="none" xmlns="http://www.w3.org/2000/svg">
<rect x="0.832307" y="1.37509" width="151.867" height="38.2566" rx="19.1219" transform="rotate(-0.348476 0.832307 1.37509)" fill="black"/>
<g clip-path="url(#clip0_615_4654)">
<rect x="0.453275" y="1.37509" width="151.867" height="38.2566" rx="19.1219" transform="rotate(-0.348476 0.453275 1.37509)" fill="#751313"/>
<path d="M37.3418 14.7116L37.3709 19.4859L35.6069 20.4148L37.3788 20.788L37.4119 26.23L26.6107 26.2123L26.7748 14.7758L37.3418 14.7116ZM29.3714 19.0003L34.2793 18.9705L34.3475 16.4659L29.3067 16.5968L29.3714 19.0003ZM34.4625 21.6404L29.3882 21.7547L29.2526 24.1595L34.3948 24.2284L34.4625 21.6404ZM50.1447 14.3833L50.6506 20.7073L48.03 20.7733L49.6649 26.0721L45.9093 26.1617L44.3913 20.8622L42.9053 20.8378L42.6698 26.0311L38.5639 26.173L38.3437 14.6721L50.1447 14.3833ZM46.8027 16.6072L42.7298 16.6821L42.7433 18.9023L46.8831 18.8437L46.8027 16.6072ZM63.5703 26.1544L51.6841 26.1599L51.6154 14.8585L63.0324 14.572L63.5703 26.1544ZM60.3502 23.72L59.8425 17.0955L55.5371 17.3721L55.3588 23.7503L60.3502 23.72ZM74.7254 14.4842L74.6426 17.3394L67.8825 17.4973L67.9283 22.2883L74.6718 22.1471L74.9951 25.8846L65.096 25.9782L64.509 14.5463L74.7254 14.4842ZM84.5951 18.9149L84.5701 14.8083L88.3423 14.7019L88.4765 25.7859L84.7034 25.7421L84.6107 21.4857L79.4858 21.5168L79.5127 25.9406L75.9904 25.962L75.9229 14.8609L79.0274 14.7585L79.2192 18.8474L84.5951 18.9149ZM97.4182 23.0438L97.402 14.8972L101.125 14.9413L100.957 25.7601L89.4708 25.6296L89.6037 14.5439L92.9438 14.7573L92.8761 22.8377L97.4182 23.0438ZM113.002 14.2514L113.24 20.3266L110.619 20.3926L114.825 25.7592L111.07 25.8488L106.98 20.4815L105.494 20.4572L105.443 25.7328L102.522 25.834L102.118 14.2508L113.002 14.2514ZM108.909 16.4799L105.32 16.5351L105.332 18.5216L108.988 18.4827L108.909 16.4799ZM123.472 19.0457L123.387 21.5503L118.496 21.6635L118.472 23.2329L126.118 23.2031L126.232 25.5229L115.949 25.6355L115.763 14.2513L126.063 14.1719L126.081 17.11L118.352 17.2572L118.364 19.1435L123.472 19.0457Z" fill="#FCDBBB"/>
<g clip-path="url(#clip1_615_4654)">
<path d="M112.713 -104.439L113.382 -101.415L114.392 -96.8439C115.36 -97.5683 116.394 -98.1888 117.484 -98.6907L118.508 -107.781L120.382 -99.6806C120.804 -99.7766 121.235 -99.8545 121.673 -99.9126C122.1 -99.9695 122.528 -100.002 122.954 -100.016L124.677 -111.138L126.048 -99.7667C126.53 -99.6711 127.007 -99.5493 127.477 -99.4L131.957 -106.213L130.025 -98.2887C130.648 -97.9338 131.242 -97.5272 131.801 -97.0727L136.953 -100.969L133.611 -95.2613C134.041 -94.7327 134.431 -94.1663 134.775 -93.5604L139.412 -94.6691L135.672 -91.5568C135.933 -90.7775 136.112 -89.9708 136.197 -89.1549L139.949 -88.4042L136.229 -87.1838C136.188 -86.5895 136.091 -86.0002 135.951 -85.4207L138.573 -83.6596L135.396 -83.7625C135.245 -83.4145 135.076 -83.0717 134.884 -82.7394C133.884 -81.0059 132.364 -79.7998 130.69 -78.7523C128.815 -77.5776 126.428 -76.5204 125.546 -74.352C125.525 -74.2508 125.471 -74.1556 125.392 -74.0768C125.315 -73.9919 125.22 -73.9357 125.117 -73.9075C125.113 -73.9047 125.11 -73.9037 125.107 -73.903C125.089 -73.8999 125.073 -73.8956 125.056 -73.8925C124.963 -73.872 124.862 -73.8712 124.762 -73.8991C124.638 -73.9303 124.527 -73.9987 124.455 -74.0927C122.267 -75.9713 125.117 -78.8758 126.181 -80.5097C127.898 -83.147 129.114 -86.8628 126.36 -89.2928C123.881 -91.4768 119.87 -90.4479 118.715 -87.3569C118.189 -85.9528 118.279 -84.1063 119.376 -82.9822C119.863 -82.4843 120.462 -82.2668 121.057 -82.2776C118.599 -83.2042 118.599 -86.8394 120.906 -88.1208C123.792 -89.727 126.886 -86.8274 126.436 -83.8343C126.179 -82.1355 125.027 -80.9433 123.639 -80.038C122.056 -79.004 120.536 -78.1109 119.193 -76.754C116.574 -74.1071 114.465 -70.7309 113.493 -67.1237C113.419 -66.8482 113.181 -66.7079 112.942 -66.7058C112.704 -66.705 112.464 -66.8427 112.387 -67.1169C111.37 -70.712 109.221 -74.0624 106.57 -76.6772C105.211 -78.0177 103.679 -78.8922 102.085 -79.9069C100.686 -80.7952 99.5192 -81.9734 99.2413 -83.6689C98.755 -86.6563 101.814 -89.5931 104.719 -88.0223C107.041 -86.7691 107.086 -83.1342 104.638 -82.1777C105.234 -82.1742 105.83 -82.3988 106.311 -82.9027C107.394 -84.0404 107.462 -85.8878 106.919 -87.2852C105.726 -90.3619 101.703 -91.3419 99.251 -89.128C96.5266 -86.6646 97.7881 -82.9636 99.5367 -80.3477C100.621 -78.7268 103.505 -75.8572 101.341 -73.9521C101.269 -73.8573 101.159 -73.7875 101.035 -73.7548C100.936 -73.7256 100.836 -73.7253 100.742 -73.7446C100.725 -73.7475 100.709 -73.7516 100.691 -73.7545C100.688 -73.7554 100.685 -73.7561 100.681 -73.7589C100.578 -73.7858 100.482 -73.8409 100.404 -73.9248C100.324 -74.0025 100.269 -74.0972 100.247 -74.1982C99.338 -76.3557 96.9387 -77.3838 95.0492 -78.5355C93.3626 -79.5626 91.8281 -80.7502 90.807 -82.4713C90.6111 -82.8015 90.4379 -83.1422 90.283 -83.4881L87.1072 -83.3466L89.7079 -85.1394C89.5602 -85.7172 89.4567 -86.3053 89.4083 -86.899L85.6733 -88.0741L89.4163 -88.8704C89.4913 -89.6872 89.661 -90.4961 89.9122 -91.2785L86.1341 -94.3451L90.7845 -93.2929C91.1209 -93.9029 91.504 -94.474 91.9274 -95.0077L88.5167 -100.675L93.7157 -96.8411C94.2689 -97.3026 94.8579 -97.7163 95.4768 -98.0785L93.4482 -105.979L98.0111 -99.2208C98.479 -99.3758 98.9549 -99.5034 99.4356 -99.6049L100.668 -110.992L102.526 -99.8922C102.952 -99.8825 103.381 -99.8556 103.808 -99.804C104.247 -99.751 104.679 -99.6783 105.103 -99.5876L106.877 -107.711L108.012 -98.6331C109.108 -98.1445 110.15 -97.5367 111.126 -96.8241L112.08 -101.407L112.713 -104.439ZM238.29 19.6205L235.266 20.29L230.696 21.2999C231.42 22.267 232.041 23.3011 232.543 24.3912L241.633 25.4155L233.532 27.2888C233.628 27.7114 233.706 28.1422 233.764 28.5803C233.821 29.007 233.853 29.4353 233.868 29.8619L244.99 31.5849L233.619 32.9555C233.523 33.4374 233.401 33.9146 233.252 34.3846L240.065 38.8649L232.141 36.9326C231.786 37.5559 231.379 38.1498 230.924 38.7086L234.821 43.8605L229.113 40.5191C228.584 40.949 228.018 41.3389 227.412 41.6827L228.521 46.32L225.409 42.5795C224.629 42.8402 223.823 43.0199 223.007 43.1046L222.256 46.857L221.036 43.1366C220.441 43.0954 219.852 42.9991 219.273 42.8584L217.511 45.4808L217.614 42.3034C217.266 42.1528 216.924 41.9837 216.591 41.7919C214.858 40.792 213.651 39.2721 212.604 37.5979C211.429 35.7225 210.372 33.3359 208.203 32.4537C208.102 32.4329 208.007 32.3786 207.928 32.2998C207.844 32.2226 207.787 32.1274 207.759 32.0246C207.756 32.0205 207.755 32.0172 207.755 32.0142C207.751 31.9966 207.747 31.9811 207.744 31.9635C207.724 31.8704 207.723 31.77 207.751 31.6702C207.782 31.5459 207.85 31.4352 207.944 31.3625C209.823 29.175 212.727 32.0246 214.361 33.0886C216.999 34.8055 220.714 36.0218 223.144 33.2675C225.328 30.7886 224.3 26.7776 221.209 25.6227C219.804 25.0968 217.958 25.1867 216.834 26.2842C216.336 26.7709 216.118 27.3699 216.129 27.9651C217.056 25.5063 220.691 25.5069 221.972 27.8136C223.579 30.6995 220.679 33.7935 217.686 33.3436C215.987 33.0864 214.795 31.9343 213.89 30.5463C212.856 28.9641 211.962 27.4437 210.606 26.1009C207.959 23.4821 204.582 21.3734 200.975 20.4005C200.7 20.3265 200.56 20.0888 200.557 19.8502C200.556 19.6116 200.694 19.372 200.969 19.295C204.564 18.2779 207.914 16.1286 210.529 13.4778C211.869 12.1186 212.744 10.5874 213.758 8.99275C214.647 7.59363 215.825 6.42738 217.521 6.14949C220.508 5.6632 223.445 8.7219 221.874 11.6272C220.621 13.9493 216.986 13.9941 216.029 11.5468C216.026 12.142 216.25 12.7384 216.754 13.219C217.892 14.3028 219.739 14.3701 221.137 13.8272C224.214 12.6345 225.193 8.61157 222.98 6.15941C220.516 3.43494 216.815 4.69653 214.199 6.44514C212.578 7.52922 209.709 10.4136 207.804 8.24921C207.709 8.17767 207.639 8.0675 207.606 7.94388C207.577 7.84436 207.577 7.7442 207.596 7.65065C207.599 7.63301 207.603 7.61745 207.606 7.59981C207.607 7.59679 207.608 7.59353 207.61 7.58934C207.637 7.48623 207.692 7.39037 207.776 7.31219C207.854 7.23242 207.949 7.17688 208.05 7.15494C210.207 6.24637 211.235 3.84707 212.387 1.95757C213.414 0.270782 214.602 -1.26348 216.323 -2.28464C216.653 -2.48049 216.994 -2.65366 217.34 -2.80857L217.198 -5.98446L218.991 -3.38366C219.569 -3.53139 220.157 -3.6349 220.751 -3.68327L221.926 -7.41829L222.722 -3.67532C223.539 -3.60029 224.348 -3.43062 225.13 -3.1794L228.197 -6.95746L227.145 -2.30709C227.755 -1.97067 228.326 -1.58763 228.86 -1.16424L234.526 -4.57486L230.693 0.62409C231.154 1.17706 231.568 1.76625 231.93 2.3852L239.831 0.356593L233.073 4.91947C233.227 5.38736 233.355 5.86329 233.456 6.34379L244.844 7.57596L233.744 9.43416C233.734 9.86061 233.707 10.2895 233.656 10.7167C233.603 11.1552 233.53 11.5871 233.439 12.0108L241.562 13.7855L232.485 14.9203C231.996 16.0165 231.388 17.058 230.676 18.0338L235.258 18.9881L238.29 19.6205ZM114.231 145.198L113.562 142.174L112.552 137.603C111.585 138.328 110.551 138.948 109.461 139.45L108.436 148.541L106.563 140.44C106.14 140.536 105.71 140.614 105.272 140.672C104.845 140.729 104.417 140.761 103.99 140.776L102.267 151.897L100.897 140.526C100.415 140.431 99.9374 140.309 99.4675 140.16L94.9871 146.973L96.9195 139.048C96.2962 138.693 95.702 138.287 95.1435 137.832L89.9915 141.729L93.333 136.021C92.9031 135.492 92.5132 134.926 92.1693 134.32L87.5321 135.429L91.2726 132.316C91.0119 131.537 90.8322 130.73 90.7474 129.914L86.9951 129.164L90.7155 127.943C90.7569 127.349 90.853 126.76 90.9937 126.18L88.3713 124.419L91.5486 124.522C91.6993 124.174 91.8683 123.831 92.0602 123.499C93.0601 121.765 94.58 120.559 96.2542 119.512C98.1295 118.337 100.516 117.28 101.398 115.111C101.419 115.01 101.474 114.915 101.552 114.836C101.629 114.751 101.725 114.695 101.827 114.667C101.832 114.664 101.835 114.663 101.838 114.662C101.855 114.659 101.871 114.655 101.889 114.652C101.982 114.631 102.082 114.63 102.182 114.658C102.306 114.69 102.417 114.758 102.49 114.852C104.677 116.731 101.828 119.635 100.763 121.269C99.0466 123.906 97.8303 127.622 100.585 130.052C103.063 132.236 107.074 131.207 108.229 128.116C108.755 126.712 108.665 124.866 107.568 123.742C107.081 123.244 106.482 123.026 105.887 123.037C108.346 123.964 108.345 127.599 106.038 128.88C103.153 130.486 100.059 127.587 100.508 124.594C100.766 122.895 101.918 121.703 103.306 120.797C104.888 119.763 106.408 118.87 107.751 117.513C110.37 114.866 112.479 111.49 113.452 107.883C113.526 107.608 113.764 107.467 114.002 107.465C114.241 107.464 114.48 107.602 114.557 107.876C115.574 111.471 117.724 114.822 120.374 117.437C121.734 118.777 123.265 119.652 124.86 120.666C126.259 121.555 127.425 122.733 127.703 124.428C128.189 127.415 125.131 130.352 122.226 128.782C119.904 127.528 119.859 123.894 122.306 122.937C121.711 122.933 121.114 123.158 120.634 123.662C119.55 124.8 119.483 126.647 120.026 128.044C121.218 131.121 125.241 132.101 127.693 129.887C130.418 127.424 129.156 123.723 127.408 121.107C126.324 119.486 123.439 116.617 125.604 114.711C125.675 114.617 125.785 114.547 125.909 114.514C126.008 114.485 126.109 114.485 126.202 114.504C126.22 114.507 126.235 114.511 126.253 114.514C126.256 114.515 126.259 114.515 126.263 114.518C126.367 114.545 126.462 114.6 126.541 114.684C126.62 114.762 126.676 114.856 126.698 114.957C127.606 117.115 130.006 118.143 131.895 119.295C133.582 120.322 135.116 121.509 136.137 123.231C136.333 123.561 136.506 123.901 136.661 124.247L139.837 124.106L137.236 125.899C137.384 126.477 137.488 127.065 137.536 127.658L141.271 128.834L137.528 129.63C137.453 130.447 137.283 131.256 137.032 132.038L140.81 135.105L136.16 134.052C135.823 134.662 135.44 135.233 135.017 135.767L138.428 141.434L133.229 137.6C132.676 138.062 132.087 138.476 131.468 138.838L133.496 146.738L128.934 139.98C128.466 140.135 127.99 140.263 127.509 140.364L126.277 151.751L124.419 140.652C123.992 140.642 123.563 140.615 123.136 140.563C122.698 140.511 122.266 140.438 121.842 140.347L120.067 148.47L118.932 139.392C117.836 138.904 116.795 138.296 115.819 137.583L114.864 142.166L114.231 145.198ZM-11.346 21.1388L-8.32197 20.4694L-3.75138 19.4594C-4.4758 18.4923 -5.09629 17.4583 -5.59818 16.3681L-14.6888 15.3438L-6.588 13.4705C-6.68378 13.0479 -6.76199 12.6169 -6.82007 12.179C-6.87692 11.7523 -6.90897 11.324 -6.92386 10.8977L-18.0454 9.17467L-6.67394 7.80405C-6.57833 7.32212 -6.45649 6.84491 -6.30748 6.37518L-13.1204 1.89483L-5.19613 3.82721C-4.84123 3.20389 -4.43468 2.60971 -3.97991 2.05117L-7.87662 -3.10099L-2.16872 0.240434C-1.64014 -0.189406 -1.07375 -0.579361 -0.4679 -0.923192L-1.57658 -5.56043L1.53573 -1.81994C2.31506 -2.08065 3.12177 -2.26037 3.93764 -2.3451L4.68832 -6.09749L5.90874 -2.37704C6.50303 -2.33567 7.09231 -2.23956 7.6719 -2.09886L9.43294 -4.72126L9.33007 -1.54389C9.67808 -1.39321 10.0209 -1.22418 10.3534 -1.03237C12.0868 -0.0324539 13.293 1.48749 14.3405 3.16166C15.5151 5.037 16.5723 7.42362 18.741 8.30589C18.8422 8.3266 18.9374 8.38097 19.016 8.45979C19.1008 8.53694 19.1571 8.63214 19.1853 8.73492C19.1881 8.73907 19.189 8.7423 19.1898 8.74531C19.1929 8.76292 19.1971 8.77842 19.2003 8.79603C19.2208 8.88934 19.2216 8.98951 19.1937 9.08938C19.1625 9.21362 19.094 9.32438 19.0001 9.39706C17.1214 11.5845 14.2169 8.73498 12.583 7.67093C9.94582 5.95426 6.23002 4.73779 3.79993 7.49203C1.61579 9.97093 2.64485 13.9819 5.73587 15.1368C7.13998 15.6627 8.98645 15.5729 10.1106 14.4754C10.6084 13.9887 10.826 13.3896 10.8152 12.7945C9.88854 15.2532 6.2534 15.2526 4.97201 12.946C3.36574 10.06 6.26537 6.96601 9.25843 7.4157C10.9572 7.67317 12.1495 8.82501 13.0548 10.213C14.0888 11.7952 14.9819 13.3156 16.3388 14.6584C18.9857 17.2772 22.3619 19.3857 25.9691 20.3589C26.2445 20.4326 26.3849 20.6705 26.3872 20.9091C26.388 21.1477 26.2503 21.3873 25.9758 21.4643C22.3807 22.4814 19.0304 24.6307 16.4156 27.2815C15.0751 28.6407 14.2006 30.1719 13.1859 31.7666C12.2976 33.1655 11.1194 34.3319 9.42383 34.6098C6.43646 35.0961 3.49964 32.0374 5.07046 29.1324C6.32369 26.8103 9.95856 26.7655 10.915 29.2127C10.9186 28.6175 10.6938 28.0212 10.19 27.5406C9.05242 26.4568 7.20499 26.3894 5.80761 26.9324C2.73087 28.125 1.75091 32.148 3.96481 34.6001C6.42822 37.3246 10.1292 36.063 12.7451 34.3144C14.3659 33.2303 17.2355 30.3459 19.1407 32.5103C19.2355 32.5819 19.3053 32.6921 19.338 32.8157C19.3671 32.9152 19.3675 33.0153 19.3481 33.1089C19.3452 33.1265 19.3412 33.1421 19.3383 33.1597C19.3373 33.1628 19.3367 33.166 19.3339 33.1702C19.3069 33.2733 19.2519 33.3692 19.168 33.4474C19.0903 33.5271 18.9958 33.5827 18.8949 33.6046C16.7371 34.5132 15.7092 36.9125 14.5573 38.802C13.5302 40.4885 12.3426 42.023 10.6215 43.0442C10.2913 43.24 9.9506 43.4132 9.60445 43.5681L9.74596 46.744L7.95315 44.1432C7.37532 44.2909 6.78725 44.3945 6.19351 44.4428L5.01843 48.1778L4.22217 44.4349C3.40532 44.3598 2.59648 44.1902 1.81404 43.939L-1.25254 47.717L-0.200348 43.0666C-0.810336 42.7302 -1.38143 42.3472 -1.9152 41.9238L-7.58203 45.3349L-3.74828 40.1359C-4.2098 39.5827 -4.62355 38.9938 -4.986 38.3748L-12.8862 40.4034L-6.12827 35.8405C-6.28322 35.3727 -6.41085 34.8967 -6.51208 34.416L-17.8994 33.1838L-6.79961 31.3256C-6.78992 30.8992 -6.76308 30.4703 -6.71142 30.0429C-6.65844 29.6044 -6.58571 29.1724 -6.49508 28.7487L-14.618 26.9741L-5.54058 25.8393C-5.05199 24.7431 -4.44412 23.7016 -3.73151 22.7257L-8.31405 21.7714L-11.346 21.1388ZM112.803 -89.5638C113.028 -89.8429 113.261 -90.1177 113.504 -90.3835C114.01 -90.9444 114.537 -91.4881 115.115 -91.9848C115.687 -92.4819 116.289 -92.9537 116.93 -93.3726C117.572 -93.7902 118.244 -94.1673 118.952 -94.477C120.36 -95.0998 121.895 -95.4826 123.458 -95.5211C124.237 -95.5374 125.021 -95.4745 125.787 -95.3145C126.552 -95.1525 127.298 -94.8883 127.998 -94.5394C128.702 -94.1915 129.36 -93.7487 129.938 -93.2173C130.519 -92.6917 131.029 -92.0811 131.416 -91.4004C131.813 -90.7253 132.099 -89.9865 132.261 -89.2267C132.427 -88.4698 132.478 -87.6915 132.406 -86.928C132.261 -85.4042 131.702 -83.9691 130.913 -82.7257C130.518 -82.1014 130.072 -81.5167 129.589 -80.9719C129.097 -80.4317 128.575 -79.9247 128.025 -79.4539C128.501 -79.9982 128.961 -80.5536 129.377 -81.1399C129.791 -81.7244 130.166 -82.3362 130.479 -82.9702C130.791 -83.6051 131.056 -84.261 131.237 -84.9336C131.417 -85.6064 131.519 -86.2924 131.524 -86.9757C131.547 -88.3374 131.164 -89.6828 130.414 -90.7752C129.676 -91.876 128.614 -92.7437 127.399 -93.2696C126.794 -93.5323 126.156 -93.7274 125.5 -93.8303C124.847 -93.9392 124.181 -93.9792 123.518 -93.9411C122.187 -93.8706 120.875 -93.5056 119.661 -92.9243C119.054 -92.6338 118.463 -92.2973 117.902 -91.9173C117.338 -91.5394 116.806 -91.1089 116.296 -90.6523C115.783 -90.1982 115.302 -89.7042 114.842 -89.1878C114.465 -88.7744 114.116 -88.3285 113.776 -87.8785C113.453 -82.2084 113.44 -76.5244 113.649 -70.8511C115.382 -74.6016 118.196 -78.0491 121.612 -80.1425C122.278 -80.5516 123.012 -80.9489 123.649 -81.4352C124.337 -81.9609 124.915 -82.5937 125.184 -83.4632C125.724 -85.201 124.722 -87.2879 122.768 -87.4149C121.015 -87.5269 119.582 -85.6193 120.647 -84.0669C121.163 -83.3158 122.167 -82.9229 122.987 -83.4813C123.869 -84.0803 123.464 -85.6174 122.33 -85.2274C121.633 -84.9876 121.336 -86.0904 122.028 -86.3272C123.267 -86.7544 124.638 -85.7537 124.688 -84.4423C124.703 -84.0311 124.592 -83.6606 124.397 -83.3357C124.098 -82.7461 123.68 -82.2562 123.19 -81.8906C121.73 -80.7978 119.646 -80.8039 118.299 -82.4878C116.573 -84.6508 117.136 -87.9812 118.99 -89.8703C120.728 -91.6408 123.563 -92.1222 125.791 -91.0353C128.326 -89.7998 129.51 -87.0226 129.048 -84.3075C128.766 -82.654 127.971 -81.1457 127.054 -79.7617C126.413 -78.7968 124.504 -76.8707 124.876 -75.5156C126.833 -78.7812 131.362 -79.5438 133.533 -82.7296C137.617 -88.7218 133.27 -96.7668 126.708 -98.5018C121.744 -99.8161 116.728 -97.7877 113.176 -94.2918C113.077 -94.1959 112.959 -94.15 112.838 -94.1402C112.817 -94.1364 112.797 -94.1349 112.776 -94.1348C112.755 -94.1346 112.734 -94.1359 112.714 -94.1395C112.592 -94.1478 112.473 -94.1923 112.373 -94.287C108.779 -97.7398 103.739 -99.7071 98.7909 -98.3324C92.2507 -96.5177 88.0014 -88.4203 92.1582 -82.4784C94.3678 -79.3195 98.9062 -78.6121 100.902 -75.3703C101.258 -76.73 99.3258 -78.6325 98.6728 -79.5896C97.7393 -80.9623 96.9256 -82.4608 96.6239 -84.1107C96.1284 -86.8198 97.2789 -89.6112 99.7989 -90.8777C102.014 -91.9916 104.854 -91.5447 106.614 -89.7955C108.49 -87.9291 109.094 -84.6058 107.394 -82.422C106.068 -80.7218 103.984 -80.6903 102.511 -81.7653C102.017 -82.1247 101.593 -82.6097 101.287 -83.1956C101.087 -83.5183 100.972 -83.8874 100.982 -84.2986C101.016 -85.6105 102.374 -86.6278 103.619 -86.2157C104.314 -85.9871 104.03 -84.881 103.33 -85.1123C102.192 -85.4885 101.805 -83.9465 102.695 -83.3584C103.522 -82.81 104.521 -83.2151 105.028 -83.9724C106.073 -85.5373 104.617 -87.4274 102.866 -87.2944C100.913 -87.1436 99.9367 -85.0446 100.498 -83.3135C100.777 -82.4473 101.363 -81.8216 102.058 -81.3044C102.701 -80.8258 103.439 -80.4373 104.11 -80.0365C107.551 -77.9848 110.407 -74.5718 112.186 -70.8427C112.325 -76.5181 112.243 -82.2013 111.851 -87.8672C111.505 -88.3133 111.152 -88.7547 110.769 -89.1635C110.303 -89.6742 109.816 -90.1623 109.297 -90.6102C108.782 -91.0603 108.245 -91.4846 107.676 -91.8556C107.111 -92.2287 106.516 -92.558 105.905 -92.8411C104.684 -93.4076 103.368 -93.7566 102.036 -93.8109C101.373 -93.8407 100.707 -93.7926 100.056 -93.676C99.4007 -93.5651 98.7648 -93.3623 98.1634 -93.0922C96.9552 -92.5516 95.9035 -91.6711 95.1791 -90.5614C94.442 -89.4602 94.0758 -88.1099 94.1156 -86.7487C94.129 -86.0657 94.2389 -85.3807 94.4276 -84.7102C94.6162 -84.0396 94.8898 -83.3872 95.209 -82.7562C95.5302 -82.1263 95.9123 -81.5188 96.3337 -80.9394C96.7562 -80.3581 97.2235 -79.8085 97.7056 -79.27C97.1507 -79.734 96.622 -80.2344 96.124 -80.7689C95.6338 -81.3077 95.1807 -81.887 94.7783 -82.5064C93.9739 -83.7401 93.3972 -85.1683 93.2342 -86.6902C93.153 -87.4528 93.1947 -88.2316 93.3514 -88.9905C93.5038 -89.7522 93.7814 -90.4945 94.1694 -91.1743C94.5489 -91.8599 95.0509 -92.4767 95.6259 -93.0091C96.1974 -93.5475 96.8497 -93.9982 97.5489 -94.3547C98.2451 -94.7121 98.9877 -94.9853 99.7504 -95.1566C100.514 -95.3259 101.298 -95.3982 102.078 -95.3915C103.64 -95.3721 105.18 -95.0079 106.596 -94.4023C107.307 -94.1013 107.983 -93.7323 108.631 -93.3226C109.277 -92.9117 109.885 -92.4471 110.463 -91.9569C111.046 -91.4671 111.58 -90.9301 112.093 -90.3754C112.34 -90.1121 112.576 -89.8401 112.803 -89.5638ZM223.416 19.711C223.695 19.9356 223.969 20.1681 224.235 20.4113C224.796 20.9173 225.34 21.445 225.837 22.0221C226.334 22.5943 226.806 23.1968 227.224 23.8372C227.642 24.4797 228.019 25.1519 228.329 25.8591C228.951 27.2678 229.334 28.8027 229.373 30.365C229.389 31.1444 229.326 31.9289 229.166 32.6948C229.004 33.4596 228.74 34.2054 228.391 34.9059C228.043 35.6094 227.601 36.2672 227.069 36.8452C226.543 37.4266 225.933 37.936 225.252 38.3239C224.577 38.7203 223.838 39.0068 223.078 39.1684C222.321 39.3341 221.543 39.3854 220.78 39.3136C219.256 39.1689 217.821 38.6098 216.578 37.8204C215.953 37.4257 215.369 36.9796 214.824 36.496C214.283 36.0045 213.777 35.482 213.306 34.9328C213.85 35.4083 214.405 35.8688 214.992 36.2843C215.576 36.6985 216.188 37.0732 216.822 37.3865C217.457 37.698 218.113 37.9637 218.785 38.1441C219.458 38.3246 220.144 38.4261 220.828 38.4313C222.189 38.4545 223.535 38.0719 224.627 37.3214C225.728 36.5837 226.595 35.5216 227.121 34.3066C227.384 33.7018 227.579 33.0636 227.682 32.4073C227.791 31.7542 227.831 31.0883 227.793 30.4254C227.722 29.0944 227.357 27.7827 226.776 26.5685C226.486 25.9614 226.149 25.3703 225.769 24.8097C225.391 24.2451 224.961 23.7133 224.504 23.2036C224.05 22.69 223.556 22.2091 223.04 21.7495C222.626 21.3722 222.181 21.0239 221.731 20.6832C216.06 20.3602 210.377 20.3472 204.703 20.5561C208.454 22.2889 211.901 25.1032 213.995 28.5188C214.404 29.1854 214.801 29.9189 215.288 30.5559C215.813 31.2441 216.446 31.8225 217.315 32.0915C219.053 32.6314 221.14 31.6295 221.267 29.6751C221.379 27.9225 219.472 26.4896 217.919 27.5537C217.168 28.0698 216.775 29.0738 217.334 29.8938C217.933 30.7763 219.47 30.3712 219.08 29.237C218.84 28.5405 219.943 28.2431 220.179 28.9351C220.607 30.1746 219.606 31.545 218.295 31.5949C217.884 31.6106 217.513 31.4995 217.188 31.3039C216.598 31.0052 216.109 30.5869 215.743 30.0975C214.65 28.637 214.656 26.5532 216.34 25.2065C218.503 23.4803 221.833 24.0437 223.723 25.897C225.493 27.6357 225.974 30.47 224.888 32.6981C223.652 35.2334 220.875 36.4177 218.16 35.9552C216.506 35.6736 214.998 34.8782 213.614 33.9615C212.649 33.3202 210.723 31.4114 209.368 31.7835C212.634 33.7397 213.396 38.2694 216.582 40.4404C222.574 44.5247 230.619 40.1772 232.354 33.6154C233.668 28.6514 231.64 23.6351 228.144 20.0836C228.048 19.9842 228.002 19.8662 227.993 19.745C227.989 19.7244 227.987 19.7038 227.987 19.6829C227.987 19.6618 227.988 19.6412 227.992 19.6208C228 19.4995 228.045 19.3807 228.139 19.2802C231.592 15.6864 233.559 10.6458 232.184 5.69814C230.37 -0.842095 222.272 -5.09134 216.33 -0.934541C213.171 1.27508 212.464 5.81367 209.222 7.80955C210.582 8.16507 212.484 6.23298 213.441 5.58003C214.814 4.64656 216.313 3.83288 217.963 3.53117C220.672 3.03566 223.463 4.18611 224.73 6.70616C225.843 8.92086 225.396 11.7609 223.647 13.5209C221.781 15.3971 218.458 16.001 216.274 14.3012C214.574 12.9751 214.542 10.8916 215.617 9.41781C215.977 8.92407 216.462 8.49984 217.047 8.19392C217.37 7.99441 217.739 7.87879 218.15 7.8895C219.462 7.92349 220.48 9.28158 220.068 10.5262C219.839 11.2211 218.733 10.937 218.964 10.2377C219.34 9.09885 217.798 8.71243 217.21 9.60219C216.662 10.4289 217.067 11.428 217.824 11.9349C219.389 12.9801 221.279 11.5241 221.146 9.77301C220.995 7.82025 218.896 6.84389 217.165 7.40486C216.299 7.68443 215.673 8.27045 215.156 8.965C214.678 9.60786 214.289 10.3461 213.888 11.0177C211.836 14.4585 208.423 17.3145 204.694 19.0929C210.37 19.2325 216.053 19.1506 221.719 18.7586C222.165 18.4127 222.606 18.059 223.015 17.6765C223.526 17.2106 224.014 16.7237 224.462 16.2046C224.912 15.6895 225.336 15.1527 225.707 14.5833C226.08 14.0181 226.409 13.423 226.692 12.8124C227.259 11.5914 227.608 10.2751 227.662 8.94343C227.692 8.28012 227.644 7.6145 227.527 6.96299C227.416 6.30796 227.213 5.67203 226.943 5.0706C226.403 3.86241 225.522 2.8107 224.413 2.08639C223.311 1.34927 221.961 0.983022 220.6 1.02284C219.917 1.03626 219.232 1.14616 218.562 1.3348C217.891 1.52344 217.239 1.79707 216.608 2.11624C215.978 2.43749 215.37 2.81958 214.791 3.2407C214.209 3.66297 213.66 4.1305 213.121 4.61257C213.585 4.05768 214.086 3.52901 214.62 3.03097C215.159 2.54078 215.738 2.08766 216.358 1.68533C217.591 0.880906 219.02 0.304172 220.542 0.141191C221.304 0.0600335 222.083 0.101669 222.842 0.258427C223.603 0.410771 224.346 0.688193 225.025 1.07637C225.711 1.45593 226.328 1.95788 226.86 2.5329C227.399 3.10441 227.849 3.75645 228.206 4.4559C228.563 5.15209 228.836 5.89471 229.008 6.65742C229.177 7.4213 229.249 8.2048 229.243 8.98459C229.223 10.5472 228.859 12.0867 228.253 13.5029C227.952 14.214 227.583 14.8905 227.174 15.538C226.763 16.1837 226.298 16.7919 225.808 17.3699C225.319 17.9532 224.781 18.4873 224.227 19C223.964 19.2472 223.692 19.483 223.416 19.711ZM114.141 130.323C113.916 130.602 113.684 130.877 113.441 131.143C112.935 131.704 112.407 132.248 111.83 132.744C111.258 133.241 110.655 133.713 110.015 134.132C109.372 134.55 108.7 134.927 107.993 135.237C106.584 135.859 105.049 136.242 103.487 136.281C102.707 136.297 101.923 136.234 101.157 136.074C100.392 135.912 99.6464 135.648 98.9459 135.299C98.2424 134.951 97.5847 134.508 97.0067 133.977C96.4252 133.451 95.9158 132.841 95.528 132.16C95.1315 131.485 94.8451 130.746 94.6835 129.986C94.5178 129.229 94.4664 128.451 94.5383 127.688C94.6828 126.164 95.2421 124.729 96.0314 123.485C96.4262 122.861 96.8722 122.277 97.3558 121.732C97.8473 121.191 98.3699 120.684 98.9191 120.214C98.4436 120.758 97.983 121.313 97.5676 121.9C97.1533 122.484 96.7787 123.096 96.4651 123.73C96.1536 124.365 95.888 125.021 95.7075 125.693C95.527 126.366 95.4255 127.052 95.4203 127.735C95.3971 129.097 95.7797 130.443 96.5302 131.535C97.2677 132.636 98.3301 133.503 99.545 134.029C100.15 134.292 100.788 134.487 101.444 134.59C102.097 134.699 102.763 134.739 103.426 134.701C104.757 134.631 106.069 134.266 107.283 133.684C107.89 133.394 108.481 133.057 109.042 132.677C109.607 132.299 110.138 131.869 110.648 131.412C111.162 130.958 111.642 130.464 112.102 129.948C112.479 129.534 112.828 129.088 113.168 128.638C113.491 122.968 113.504 117.284 113.296 111.611C111.563 115.362 108.748 118.809 105.333 120.903C104.666 121.312 103.933 121.709 103.296 122.195C102.607 122.721 102.029 123.354 101.76 124.223C101.22 125.961 102.222 128.048 104.177 128.175C105.929 128.287 107.362 126.379 106.298 124.827C105.782 124.076 104.778 123.683 103.958 124.241C103.075 124.84 103.48 126.377 104.615 125.987C105.311 125.748 105.609 126.85 104.917 127.087C103.677 127.515 102.307 126.514 102.257 125.202C102.241 124.791 102.352 124.421 102.548 124.096C102.846 123.506 103.265 123.016 103.754 122.651C105.215 121.558 107.298 121.564 108.645 123.248C110.371 125.411 109.808 128.741 107.955 130.63C106.216 132.401 103.382 132.882 101.153 131.795C98.6182 130.56 97.4339 127.783 97.8964 125.067C98.178 123.414 98.9734 121.906 99.8901 120.522C100.531 119.557 102.44 117.631 102.068 116.276C100.112 119.541 95.5822 120.304 93.4112 123.49C89.327 129.482 93.6744 137.527 100.236 139.262C105.2 140.576 110.217 138.548 113.768 135.052C113.867 134.956 113.985 134.91 114.107 134.9C114.127 134.896 114.148 134.895 114.169 134.895C114.19 134.895 114.21 134.896 114.231 134.899C114.352 134.908 114.471 134.952 114.571 135.047C118.165 138.499 123.206 140.467 128.153 139.092C134.693 137.277 138.943 129.18 134.786 123.238C132.576 120.079 128.038 119.372 126.042 116.13C125.686 117.49 127.618 119.392 128.271 120.349C129.205 121.722 130.018 123.22 130.32 124.87C130.816 127.58 129.665 130.371 127.145 131.637C124.931 132.751 122.091 132.304 120.33 130.555C118.454 128.689 117.85 125.365 119.55 123.181C120.876 121.481 122.96 121.45 124.434 122.525C124.927 122.884 125.352 123.369 125.657 123.955C125.857 124.278 125.973 124.647 125.962 125.058C125.928 126.37 124.57 127.387 123.325 126.975C122.63 126.747 122.914 125.641 123.614 125.872C124.753 126.248 125.139 124.706 124.249 124.118C123.423 123.57 122.423 123.974 121.916 124.732C120.871 126.297 122.327 128.187 124.078 128.054C126.031 127.903 127.007 125.804 126.447 124.073C126.167 123.207 125.581 122.581 124.886 122.064C124.244 121.585 123.505 121.197 122.834 120.796C119.393 118.744 116.537 115.331 114.759 111.602C114.619 117.278 114.701 122.961 115.093 128.627C115.439 129.073 115.792 129.514 116.175 129.923C116.641 130.434 117.127 130.922 117.646 131.37C118.162 131.82 118.698 132.244 119.268 132.615C119.833 132.988 120.428 133.318 121.039 133.601C122.26 134.167 123.576 134.516 124.908 134.57C125.571 134.6 126.236 134.552 126.888 134.435C127.543 134.324 128.179 134.122 128.781 133.851C129.989 133.311 131.04 132.43 131.765 131.32C132.502 130.219 132.868 128.869 132.828 127.508C132.815 126.825 132.705 126.14 132.516 125.469C132.328 124.799 132.054 124.146 131.735 123.515C131.414 122.886 131.032 122.278 130.61 121.699C130.188 121.117 129.721 120.568 129.239 120.029C129.793 120.493 130.322 120.994 130.82 121.528C131.31 122.067 131.763 122.646 132.166 123.266C132.97 124.499 133.547 125.928 133.71 127.45C133.791 128.212 133.749 128.991 133.593 129.75C133.44 130.511 133.163 131.254 132.775 131.933C132.395 132.619 131.893 133.236 131.318 133.768C130.747 134.307 130.094 134.757 129.395 135.114C128.699 135.471 127.956 135.744 127.194 135.916C126.43 136.085 125.646 136.157 124.867 136.151C123.304 136.131 121.764 135.767 120.348 135.161C119.637 134.86 118.961 134.491 118.313 134.082C117.667 133.671 117.059 133.206 116.481 132.716C115.898 132.226 115.364 131.689 114.851 131.134C114.605 130.871 114.369 130.6 114.141 130.323ZM3.52856 21.0483C3.24942 20.8238 2.97464 20.5912 2.70884 20.348C2.1479 19.842 1.60445 19.3144 1.10754 18.7373C0.610426 18.165 0.138632 17.5627 -0.280067 16.9221C-0.697616 16.2796 -1.07477 15.6074 -1.38443 14.9003C-2.00721 13.4915 -2.39007 11.9566 -2.42856 10.3943C-2.44489 9.61491 -2.38219 8.83038 -2.22222 8.06449C-2.06017 7.29976 -1.79597 6.55386 -1.44711 5.85337C-1.09919 5.14987 -0.656392 4.49217 -0.125001 3.91415C0.400573 3.33269 1.01121 2.82328 1.69192 2.43541C2.36701 2.03899 3.10584 1.75256 3.86559 1.59097C4.62254 1.42499 5.40059 1.37388 6.16409 1.44576C7.68784 1.59021 9.12299 2.14955 10.3664 2.93889C10.9907 3.33367 11.5753 3.77969 12.1201 4.26329C12.6604 4.7548 13.1674 5.27734 13.6382 5.82655C13.0939 5.35106 12.5385 4.89048 11.9522 4.47508C11.3677 4.06082 10.7556 3.68614 10.1219 3.37281C9.48699 3.06133 8.83106 2.79566 8.15849 2.61518C7.48592 2.43472 6.79969 2.33316 6.11636 2.32805C4.75472 2.30479 3.40923 2.68743 2.31709 3.43789C1.21629 4.17565 0.348629 5.23776 -0.177265 6.45267C-0.439995 7.05757 -0.635053 7.69568 -0.73795 8.35202C-0.846894 9.00514 -0.886896 9.67106 -0.849015 10.334C-0.778549 11.6649 -0.413502 12.9766 0.167742 14.1908C0.458248 14.7979 0.794797 15.389 1.17475 15.9496C1.55264 16.5142 1.9832 17.0461 2.43982 17.5557C2.89392 18.0693 3.38793 18.5502 3.9043 19.0099C4.31769 19.3871 4.76359 19.7357 5.21362 20.0761C10.8837 20.3992 16.5676 20.4121 22.241 20.2032C18.4905 18.4704 15.043 15.6562 12.9496 12.2406C12.5405 11.5739 12.1432 10.8404 11.6566 10.2034C11.131 9.51519 10.4982 8.93683 9.62868 8.66782C7.89083 8.12795 5.8039 9.12977 5.67691 11.0842C5.56491 12.8371 7.47258 14.2697 9.02469 13.2056C9.77579 12.6895 10.1687 11.6855 9.61028 10.8655C9.01111 9.983 7.47401 10.3881 7.86418 11.5223C8.10399 12.2188 7.0012 12.5163 6.76444 11.8242C6.33699 10.5847 7.33796 9.21435 8.6493 9.16441C9.0603 9.14869 9.43102 9.25981 9.75589 9.45539C10.3455 9.75415 10.8354 10.1725 11.201 10.6618C12.2936 12.1224 12.2877 14.2062 10.6038 15.5528C8.44105 17.279 5.1104 16.7157 3.22128 14.8623C1.45087 13.1236 0.969441 10.2893 2.05631 8.06118C3.29178 5.52591 6.06902 4.3416 8.78416 4.80411C10.4377 5.08574 11.9459 5.88111 13.3299 6.79783C14.2949 7.43909 16.2209 9.34789 17.576 8.97586C14.3102 7.01956 13.5478 2.4899 10.3621 0.318877C4.36978 -3.76534 -3.67514 0.582088 -5.41013 7.14391C-6.72451 12.108 -4.69605 17.1243 -1.20022 20.6758C-1.10432 20.7751 -1.05839 20.8931 -1.04861 21.0145C-1.04477 21.0351 -1.04326 21.0558 -1.04313 21.0766C-1.043 21.0977 -1.04427 21.1184 -1.04785 21.1388C-1.05616 21.2601 -1.10065 21.3789 -1.19533 21.4791C-4.6477 25.0729 -6.615 30.1135 -5.24034 35.0612C-3.42565 41.6014 4.67178 45.8507 10.6137 41.6939C13.7726 39.4843 14.48 34.9456 17.7218 32.9498C16.3621 32.5942 14.4596 34.5263 13.5025 35.1793C12.1298 36.1128 10.6313 36.9264 8.98136 37.2282C6.27228 37.7237 3.48085 36.5732 2.21439 34.0532C1.10027 31.8385 1.54742 28.9984 3.29655 27.2384C5.16299 25.3622 8.48631 24.7584 10.6701 26.4581C12.3706 27.7842 12.4018 29.8677 11.3268 31.3415C10.9674 31.8352 10.4824 32.2595 9.89645 32.5654C9.57375 32.7649 9.20463 32.8803 8.79348 32.8698C7.48163 32.8358 6.4643 31.4777 6.8764 30.2332C7.10473 29.5383 8.21106 29.8223 7.97974 30.5216C7.60363 31.6605 9.14554 32.0469 9.73369 31.1571C10.2821 30.3305 9.87701 29.3313 9.11968 28.8244C7.55475 27.7792 5.66465 29.2352 5.79795 30.9863C5.94848 32.9391 8.04768 33.9154 9.77883 33.3545C10.645 33.0749 11.2707 32.4889 11.7879 31.7943C12.2665 31.1515 12.655 30.4132 13.056 29.7416C15.1077 26.3008 18.5207 23.4448 22.2499 21.6665C16.5744 21.5269 10.8913 21.6087 5.22532 22.0007C4.77924 22.3466 4.33784 22.7003 3.92907 23.0828C3.41833 23.5487 2.93021 24.0356 2.48239 24.5547C2.03223 25.0698 1.60795 25.6066 1.23695 26.176C0.863843 26.7412 0.534508 27.3363 0.251408 27.9469C-0.315025 29.1679 -0.664087 30.4842 -0.718359 31.8159C-0.748175 32.4792 -0.700075 33.1446 -0.583195 33.7963C-0.472322 34.4514 -0.269515 35.0873 0.000552161 35.6887C0.541184 36.8969 1.4217 37.9486 2.53139 38.6729C3.63259 39.4101 4.98286 39.7763 6.34388 39.7365C7.02686 39.7231 7.71181 39.6134 8.38237 39.4245C9.0527 39.2359 9.70535 38.9623 10.3364 38.6431C10.9663 38.3218 11.5737 37.9397 12.1531 37.5186C12.7344 37.0961 13.2841 36.6288 13.8226 36.1467C13.3585 36.7016 12.8581 37.2303 12.3237 37.7284C11.7848 38.2185 11.2056 38.6716 10.5862 39.074C9.35246 39.8784 7.92422 40.4551 6.40234 40.6181C5.63977 40.6993 4.86093 40.6576 4.10225 40.5009C3.34058 40.3485 2.59833 40.0709 1.91846 39.6829C1.23286 39.3034 0.616066 38.8014 0.0836908 38.2264C-0.454692 37.6549 -0.905456 37.0029 -1.26191 36.3034C-1.61927 35.6072 -1.89251 34.8646 -2.06386 34.1019C-2.23313 33.338 -2.30537 32.5545 -2.29852 31.7747C-2.27904 30.2121 -1.91487 28.6726 -1.30928 27.2564C-1.00825 26.5454 -0.639293 25.8688 -0.22959 25.2213C0.181286 24.5756 0.645951 23.9676 1.13584 23.3894C1.62569 22.8061 2.16268 22.2721 2.71742 21.7593C2.98048 21.5122 3.25217 21.2763 3.52856 21.0483Z" fill="#150033"/>
<path d="M-0.751665 20.9064C-0.751793 20.8853 -0.753309 20.8647 -0.757143 20.8443C-0.766923 20.7231 -0.812855 20.6049 -0.908755 20.5055C-4.40458 16.954 -6.43305 11.9377 -5.11867 6.97368C-3.38367 0.411859 4.66148 -3.93557 10.6535 0.148644C13.8391 2.31967 14.6016 6.84934 17.8675 8.80564C16.5122 9.17767 14.5863 7.26887 13.6214 6.62761C12.2374 5.7109 10.7291 4.91551 9.07562 4.63388C6.36071 4.17136 3.58348 5.35568 2.34778 7.89096C1.26068 10.119 1.74233 12.9534 3.51274 14.6921C5.40187 16.5454 8.73229 17.1088 10.8953 15.3826C12.5794 14.0359 12.5853 11.9521 11.4925 10.4916L11.9478 10.0332C12.4342 10.6702 12.8317 11.4037 13.2408 12.0703C15.3342 15.4859 18.7817 18.3002 22.5322 20.033C16.8589 20.2417 11.1752 20.2289 5.50485 19.9059C5.05459 19.5655 4.60892 19.2171 4.19553 18.8396C3.67916 18.38 3.18515 17.8991 2.73106 17.3855C2.27467 16.8758 1.84388 16.3442 1.46599 15.7794C1.08603 15.2188 0.749481 14.6277 0.458975 14.0206C-0.122268 12.8066 -0.487314 11.4946 -0.557781 10.1637C-0.595664 9.50083 -0.555662 8.83468 -0.446716 8.18179C-0.34382 7.52546 -0.148764 6.88711 0.113968 6.28244C0.639864 5.06776 1.50752 4.00542 2.60832 3.26766C3.70047 2.51721 5.04619 2.13456 6.40759 2.15781C7.09069 2.16293 7.77693 2.2645 8.44973 2.44497C9.1223 2.62544 9.77823 2.8911 10.4131 3.20257C11.0468 3.51614 11.6589 3.89082 12.2434 4.30485C12.8298 4.72002 13.3851 5.18083 13.9294 5.65632C13.4586 5.10711 12.9518 4.58457 12.4114 4.09306C11.8666 3.60946 11.2819 3.16344 10.6576 2.76867C9.41422 1.97932 7.97907 1.41998 6.45532 1.27552C5.69183 1.20365 4.91355 1.25476 4.15683 1.42074C3.39707 1.58233 2.65824 1.86877 1.98315 2.26519C1.30221 2.65307 0.691574 3.16246 0.166232 3.74392C-0.365158 4.32194 -0.807957 4.97942 -1.15588 5.68315C-1.50474 6.38364 -1.76893 7.12953 -1.93099 7.89427C-2.09096 8.66015 -2.15366 9.44445 -2.13732 10.2241C-2.09884 11.7864 -1.71597 13.3213 -1.0932 14.73C-0.783536 15.4374 -0.406383 16.1094 0.011167 16.7519C0.429865 17.3925 0.901892 17.995 1.39877 18.567C1.89569 19.1444 2.43914 19.6718 3.00007 20.1778C3.26588 20.421 3.54065 20.6535 3.81979 20.8781C3.54341 21.1061 3.27148 21.3419 3.00865 21.5884C2.45391 22.1012 1.91692 22.6354 1.42707 23.2185C0.936947 23.7967 0.472516 24.4049 0.0616396 25.0504C-0.348064 25.6979 -0.717014 26.3747 -1.01805 27.0855C-1.62364 28.5017 -1.98781 30.0412 -2.00729 31.6038C-2.01414 32.3834 -1.9419 33.1671 -1.77263 33.931C-1.60129 34.6937 -1.32804 35.4363 -0.97068 36.1325C-0.614228 36.8317 -0.163463 37.484 0.37492 38.0555C0.907527 38.6305 1.52432 39.1324 2.20969 39.512C2.88956 39.9002 3.63181 40.1776 4.39348 40.33C5.15239 40.4865 5.93101 40.5284 6.69357 40.4472C8.21545 40.284 9.64369 39.7075 10.8774 38.9031C11.4968 38.5007 12.076 38.0476 12.6149 37.5574C13.1491 37.0594 13.6497 36.5307 14.1138 35.9758C13.5753 36.4579 13.0256 36.9252 12.4444 37.3477C11.865 37.769 11.2575 38.1511 10.6276 38.4722C9.99658 38.7913 9.34393 39.065 8.6736 39.2536C8.00328 39.4422 7.31833 39.5521 6.63511 39.5656C5.27386 39.6054 3.92381 39.2391 2.82262 38.502C1.71293 37.7777 0.832414 36.7262 0.291781 35.5178C0.0217123 34.9161 -0.181092 34.2804 -0.291965 33.6254C-0.408846 32.9737 -0.456946 32.3083 -0.427129 31.645C-0.372857 30.3133 -0.0237945 28.9972 0.542637 27.776C0.825737 27.1654 1.15507 26.5703 1.52818 26.0051C1.89918 25.4359 2.32323 24.8989 2.77362 24.3837C3.22144 23.8647 3.70956 23.3778 4.2203 22.9119C4.62907 22.5296 5.0707 22.1759 5.51655 21.8298C11.1823 21.4378 16.8656 21.3557 22.5411 21.4955C18.812 23.2739 15.3989 26.1299 13.3473 29.5707C12.9463 30.2422 12.558 30.9805 12.0792 31.6234L11.6182 31.1706C12.693 29.6968 12.6618 27.6133 10.9616 26.2872C8.77801 24.5874 5.45445 25.1912 3.58801 27.0675C1.83888 28.8275 1.39197 31.6675 2.50586 33.8822C3.77208 36.4023 6.56351 37.5527 9.27282 37.0572C10.9228 36.7555 12.4212 35.9418 13.794 35.0084C14.7511 34.3554 16.6538 32.4233 18.0133 32.7788C14.7715 34.7747 14.0643 39.3133 10.9052 41.5229C4.96301 45.6797 -3.13419 41.4305 -4.94888 34.8903C-6.32354 29.9426 -4.35624 24.902 -0.903873 21.3082C-0.809189 21.2077 -0.764696 21.0892 -0.756391 20.9679C-0.752801 20.9481 -0.751537 20.9275 -0.751665 20.9064Z" fill="#F46C68"/>
<path d="M9.91994 8.49796C10.7894 8.76697 11.4222 9.34532 11.9479 10.0335L11.4925 10.4919C11.1271 10.0026 10.637 9.58427 10.0474 9.28551C9.72229 9.08994 9.35179 8.97882 8.94079 8.99453C7.62945 9.04447 6.62872 10.4148 7.05593 11.6543C7.2927 12.3464 8.39548 12.0489 8.15567 11.3525C7.76574 10.2183 9.30284 9.81312 9.90177 10.6957C10.4602 11.5156 10.0673 12.5196 9.31618 13.0357C7.76407 14.0999 5.85641 12.667 5.9684 10.9144C6.09517 8.95991 8.1821 7.95809 9.91994 8.49796Z" fill="#F46C68"/>
<path d="M10.0699 33.1846C10.9361 32.905 11.5618 32.319 12.079 31.6245L11.6181 31.1717C11.2587 31.6654 10.7737 32.0896 10.1878 32.3955C9.86507 32.5951 9.49595 32.7104 9.08479 32.7C7.77294 32.666 6.75562 31.3079 7.16772 30.0633C7.39605 29.3684 8.50237 29.6524 8.27105 30.3517C7.89494 31.4906 9.43685 31.877 10.025 30.9873C10.5734 30.1606 10.1683 29.1614 9.411 28.6545C7.84606 27.6093 5.95597 29.0653 6.08927 30.8165C6.2398 32.7694 8.33876 33.7456 10.0699 33.1846Z" fill="#F46C68"/>
</g>
<g clip-path="url(#clip2_615_4654)">
<path d="M39.0156 -103.99L38.3829 -100.958L37.4286 -96.3758C36.4528 -97.0884 35.4113 -97.6963 34.3151 -98.1849L33.1803 -107.262L31.4054 -99.1394C30.9817 -99.2302 30.55 -99.3029 30.1113 -99.3557C29.6841 -99.4073 29.2552 -99.4342 28.8287 -99.4439L26.9706 -110.544L25.7384 -99.1566C25.2577 -99.0551 24.782 -98.9275 24.3138 -98.7725L19.751 -105.53L21.7796 -97.6303C21.1606 -97.2678 20.5717 -96.8541 20.0185 -96.3928L14.8197 -100.226L18.2304 -94.5595C17.807 -94.0257 17.4239 -93.4546 17.0875 -92.8446L12.4371 -93.8968L16.2152 -90.8302C15.964 -90.0478 15.7941 -89.2389 15.7193 -88.4221L11.9763 -87.6258L15.7113 -86.4508C15.7597 -85.857 15.8632 -85.269 16.0109 -84.6911L13.4101 -82.8983L16.586 -83.0398C16.7409 -82.6937 16.9141 -82.353 17.11 -82.023C18.1309 -80.3019 19.6654 -79.1143 21.3522 -78.0873C23.2417 -76.9355 25.641 -75.9074 26.5496 -73.7499C26.5715 -73.6489 26.627 -73.5544 26.7068 -73.4765C26.785 -73.3926 26.8808 -73.3376 26.984 -73.3106C26.9881 -73.3078 26.9914 -73.3069 26.9944 -73.3062C27.012 -73.3033 27.0276 -73.2993 27.0452 -73.2964C27.1386 -73.277 27.239 -73.2774 27.3385 -73.3065C27.4623 -73.3392 27.5723 -73.409 27.6438 -73.5038C29.8083 -75.409 26.9236 -78.2786 25.8397 -79.8994C24.0909 -82.5155 22.8295 -86.2163 25.554 -88.6797C28.0062 -90.8936 32.0294 -89.9136 33.2218 -86.8369C33.7647 -85.4393 33.6974 -83.5919 32.6136 -82.4545C32.133 -81.9507 31.5366 -81.7259 30.9414 -81.7295C33.3887 -82.6859 33.3439 -86.3208 31.0218 -87.574C28.1165 -89.1451 25.058 -86.208 25.5443 -83.2207C25.8222 -81.5251 26.9887 -80.3469 28.3876 -79.4586C29.9822 -78.4439 31.5134 -77.5694 32.8729 -76.2289C35.5237 -73.6141 37.6732 -70.2638 38.69 -66.6687C38.7673 -66.3942 39.0067 -66.2567 39.2453 -66.2575C39.4839 -66.2596 39.7218 -66.4002 39.7955 -66.6754C40.7687 -70.2826 42.8772 -73.6588 45.4959 -76.3057C46.8387 -77.6626 48.3592 -78.5557 49.9416 -79.5897C51.3296 -80.495 52.4817 -81.6873 52.7389 -83.3861C53.1888 -86.3791 50.0946 -89.2785 47.2089 -87.6725C44.9022 -86.3911 44.9016 -82.756 47.3604 -81.8293C46.7652 -81.8185 46.1662 -82.0358 45.6795 -82.5339C44.582 -83.6583 44.4921 -85.5048 45.018 -86.9086C46.1732 -89.9997 50.1839 -91.0285 52.6628 -88.8446C55.417 -86.4145 54.2006 -82.6984 52.4839 -80.0615C51.4196 -78.4276 48.5703 -75.5231 50.7578 -73.6444C50.8304 -73.5505 50.9415 -73.482 51.0655 -73.4508C51.1653 -73.4229 51.2655 -73.4237 51.3588 -73.4442C51.3764 -73.4474 51.3919 -73.4516 51.4095 -73.4547C51.4125 -73.4557 51.4158 -73.4564 51.4199 -73.4592C51.5227 -73.4874 51.6179 -73.5437 51.695 -73.6285C51.7741 -73.7071 51.8282 -73.8025 51.849 -73.9038C52.7312 -76.0722 55.1178 -77.1294 56.9932 -78.304C58.6671 -79.3516 60.1871 -80.5577 61.1872 -82.2911C61.379 -82.6236 61.5481 -82.9664 61.6987 -83.3142L64.8761 -83.2113L62.2537 -84.9724C62.3944 -85.552 62.4907 -86.1412 62.5319 -86.7355L66.2523 -87.956L62.4999 -88.7066C62.415 -89.5225 62.2355 -90.3292 61.9748 -91.1085L65.7153 -94.2209L61.078 -93.1122C60.7342 -93.718 60.3443 -94.2844 59.9144 -94.813L63.2558 -100.521L58.1039 -96.6244C57.5451 -97.0792 56.9512 -97.4857 56.3279 -97.8404L58.2602 -105.765L53.7799 -98.9518C53.3102 -99.101 52.8327 -99.2228 52.3508 -99.3185L50.9802 -110.69L49.2571 -99.5681C48.8308 -99.5532 48.4023 -99.5212 47.9758 -99.4643C47.5379 -99.406 47.1069 -99.3281 46.6844 -99.2323L44.811 -107.333L43.7868 -98.2425C42.6966 -97.7406 41.6626 -97.1201 40.6955 -96.3957L39.6855 -100.966L39.0156 -103.99ZM-85.0435 21.5871L-82.0115 22.2197L-77.429 23.174C-78.1416 24.1499 -78.7494 25.1914 -79.238 26.2876L-88.3155 27.4223L-80.1923 29.197C-80.2832 29.6207 -80.3559 30.0524 -80.4089 30.4912C-80.4605 30.9186 -80.4874 31.3472 -80.4971 31.7739L-91.5971 33.6321L-80.2098 34.8643C-80.1083 35.345 -79.9807 35.8207 -79.826 36.2888L-86.5839 40.8517L-78.6837 38.8231C-78.3212 39.442 -77.9075 40.031 -77.4459 40.5842L-81.2795 45.7831L-75.6126 42.3725C-75.0789 42.7959 -74.5078 43.179 -73.8978 43.5154L-74.95 48.1658L-71.8834 44.3877C-71.101 44.6389 -70.2921 44.8088 -69.4753 44.8836L-68.679 48.6266L-67.5039 44.8916C-66.9102 44.8432 -66.3222 44.7397 -65.7443 44.5919L-63.9515 47.1927L-64.093 44.0169C-63.7469 43.862 -63.4062 43.6888 -63.076 43.4929C-61.3549 42.472 -60.1673 40.9375 -59.1402 39.2507C-57.9884 37.3612 -56.9604 34.9619 -54.8026 34.0533C-54.7016 34.0314 -54.6072 33.9759 -54.5295 33.8961C-54.4456 33.8179 -54.3905 33.722 -54.3636 33.6189C-54.3608 33.6147 -54.3599 33.6115 -54.3592 33.6085C-54.3563 33.5908 -54.3522 33.5753 -54.3493 33.5576C-54.3299 33.4643 -54.3303 33.3639 -54.3594 33.2644C-54.3922 33.1405 -54.462 33.0306 -54.5568 32.9591C-56.4619 30.7946 -59.3315 33.6793 -60.9524 34.7631C-63.5685 36.512 -67.2692 37.7733 -69.7326 35.0489C-71.9465 32.5967 -70.9666 28.5735 -67.8898 27.3811C-66.4922 26.8382 -64.6448 26.9055 -63.5074 27.9893C-63.0037 28.4699 -62.7789 29.0663 -62.7824 29.6615C-63.7389 27.2142 -67.3738 27.259 -68.627 29.5811C-70.198 32.4864 -67.261 35.5449 -64.2736 35.0586C-62.5781 34.7807 -61.3999 33.6142 -60.5116 32.2153C-59.4969 30.6206 -58.6224 29.0894 -57.2819 27.7302C-54.6671 25.0794 -51.3168 22.9299 -47.7217 21.9131C-47.4471 21.8358 -47.3097 21.5964 -47.3102 21.3578C-47.3124 21.1193 -47.4529 20.8813 -47.7284 20.8076C-51.3356 19.8344 -54.7118 17.726 -57.3587 15.1072C-58.7156 13.7644 -59.6087 12.2439 -60.6427 10.6617C-61.5479 9.27352 -62.7402 8.12168 -64.439 7.86444C-67.4319 7.41452 -70.3317 10.5087 -68.7254 13.3947C-67.4441 15.7013 -63.8089 15.702 -62.8823 13.2432C-62.8715 13.8383 -63.0888 14.4374 -63.5869 14.9241C-64.7113 16.0216 -66.5577 16.1114 -67.9616 15.5855C-71.0526 14.4304 -72.0814 10.4197 -69.8975 7.94076C-67.4674 5.18653 -63.7516 6.40301 -61.1144 8.11967C-59.4805 9.18396 -56.576 12.0333 -54.6973 9.84581C-54.6034 9.77312 -54.535 9.66211 -54.5038 9.53811C-54.4758 9.43823 -54.4767 9.33808 -54.4972 9.24477C-54.5003 9.22716 -54.5046 9.21166 -54.5077 9.19405C-54.5086 9.19104 -54.5094 9.1878 -54.5122 9.18364C-54.5404 9.08086 -54.5966 8.98568 -54.6815 8.90853C-54.7601 8.82971 -54.8555 8.77533 -54.9565 8.75461C-57.1251 7.87235 -58.1821 5.48573 -59.357 3.61038C-60.4045 1.93622 -61.6106 0.416514 -63.3441 -0.583635C-63.6766 -0.775452 -64.0194 -0.94447 -64.3674 -1.09516L-64.2645 -4.27253L-66.0256 -1.65012C-66.6052 -1.79081 -67.1944 -1.88716 -67.7887 -1.9283L-69.0091 -5.64875L-69.7598 -1.89637C-70.5757 -1.81141 -71.3824 -1.63192 -72.1617 -1.3712L-75.274 -5.11168L-74.1653 -0.474453C-74.7712 -0.13063 -75.3376 0.259326 -75.8662 0.689173L-81.5741 -2.65226L-77.6774 2.49967C-78.1321 3.05821 -78.5387 3.65239 -78.8936 4.27571L-86.8178 2.34334L-80.0049 6.82368C-80.1539 7.29342 -80.276 7.77087 -80.3714 8.25256L-91.7428 9.62316L-80.6211 11.3462C-80.6062 11.7725 -80.5741 12.201 -80.5173 12.6275C-80.459 13.0654 -80.381 13.4964 -80.285 13.919L-88.386 15.7923L-79.2954 16.8166C-78.7935 17.9068 -78.173 18.9408 -77.4486 19.9079L-82.0192 20.9179L-85.0435 21.5871ZM40.5339 145.646L41.1665 142.614L42.1208 138.032C43.0966 138.744 44.1382 139.352 45.2344 139.841L46.3691 148.918L48.1438 140.795C48.5675 140.886 48.9992 140.959 49.438 141.012C49.8654 141.063 50.294 141.09 50.7205 141.1L52.5786 152.2L53.8108 140.813C54.2916 140.711 54.7673 140.584 55.2354 140.429L59.7982 147.187L57.7696 139.286C58.3886 138.924 58.9778 138.51 59.5307 138.049L64.7297 141.882L61.3191 136.216C61.7425 135.682 62.1255 135.111 62.4619 134.501L67.1123 135.553L63.3342 132.486C63.5855 131.704 63.7554 130.895 63.8302 130.078L67.5731 129.282L63.8381 128.107C63.7895 127.513 63.6862 126.925 63.5385 126.347L66.1393 124.554L62.9634 124.696C62.8085 124.35 62.6353 124.009 62.4395 123.679C61.4186 121.958 59.884 120.77 58.1973 119.743C56.3078 118.591 53.9085 117.563 52.9999 115.406C52.9777 115.305 52.9224 115.21 52.8427 115.132C52.7645 115.048 52.6686 114.993 52.5655 114.966C52.5613 114.964 52.5581 114.963 52.555 114.962C52.5374 114.959 52.5218 114.955 52.5042 114.952C52.4109 114.933 52.3105 114.933 52.211 114.962C52.0871 114.995 51.9772 115.065 51.9056 115.16C49.7412 117.065 52.6259 119.934 53.7097 121.555C55.4586 124.171 56.7199 127.872 53.9954 130.336C51.5433 132.549 47.5201 131.569 46.3277 128.493C45.7847 127.095 45.8521 125.248 46.9359 124.11C47.4165 123.607 48.0128 123.382 48.608 123.385C46.1607 124.342 46.2056 127.977 48.5277 129.23C51.4329 130.801 54.4914 127.864 54.0051 124.877C53.7272 123.181 52.5608 122.003 51.1619 121.114C49.5672 120.1 48.036 119.225 46.6766 117.885C44.0258 115.27 41.8764 111.92 40.8594 108.325C40.7821 108.05 40.5427 107.913 40.3042 107.913C40.0656 107.915 39.8276 108.056 39.7539 108.331C38.7807 111.938 36.6723 115.315 34.0535 117.962C32.7107 119.318 31.1903 120.212 29.6078 121.246C28.2198 122.151 27.0678 123.343 26.8105 125.042C26.3606 128.035 29.4548 130.934 32.3406 129.328C34.6472 128.047 34.6478 124.412 32.1891 123.485C32.7842 123.474 33.3833 123.692 33.87 124.19C34.9675 125.314 35.0573 127.161 34.5314 128.564C33.3763 131.656 29.3655 132.684 26.8866 130.5C24.1324 128.07 25.3489 124.355 27.0655 121.717C28.1298 120.083 30.9791 117.179 28.7917 115.3C28.719 115.206 28.608 115.138 28.484 115.107C28.3841 115.079 28.2839 115.08 28.1906 115.1C28.173 115.103 28.1575 115.107 28.1399 115.111C28.1369 115.111 28.1337 115.112 28.1295 115.115C28.0267 115.143 27.9316 115.2 27.8544 115.284C27.7756 115.363 27.7212 115.458 27.7005 115.559C26.8182 117.728 24.4316 118.785 22.5563 119.96C20.8821 121.007 19.3624 122.214 18.3622 123.947C18.1704 124.279 18.0016 124.622 17.8507 124.97L14.6733 124.867L17.2957 126.628C17.1551 127.208 17.0587 127.797 17.0176 128.391L13.2971 129.612L17.0495 130.363C17.1345 131.179 17.314 131.985 17.5747 132.765L13.8342 135.877L18.4714 134.768C18.8152 135.374 19.2052 135.94 19.635 136.469L16.2936 142.177L21.4453 138.28C22.0041 138.735 22.598 139.142 23.2214 139.496L21.289 147.421L25.7693 140.608C26.239 140.757 26.7165 140.879 27.1984 140.975L28.569 152.346L30.2921 141.224C30.7186 141.209 31.1469 141.177 31.5734 141.12C32.0113 141.062 32.4423 140.984 32.8648 140.888L34.7384 148.989L35.7627 139.898C36.8528 139.396 37.8869 138.776 38.854 138.052L39.864 142.622L40.5339 145.646ZM164.593 20.0688L161.561 19.4361L156.978 18.4818C157.691 17.506 158.299 16.4645 158.787 15.3683L167.865 14.2335L159.742 12.4589C159.833 12.0352 159.906 11.6032 159.958 11.1647C160.01 10.7373 160.037 10.3086 160.047 9.88219L171.146 8.02402L159.759 6.79182C159.658 6.31109 159.53 5.8354 159.375 5.36752L166.133 0.80463L158.233 2.83325C157.87 2.21429 157.457 1.6251 156.995 1.07213L160.829 -4.12705L155.162 -0.716434C154.628 -1.13981 154.057 -1.52285 153.447 -1.85929L154.499 -6.50966L151.433 -2.73159C150.65 -2.9828 149.842 -3.15271 149.025 -3.2275L148.228 -6.97048L147.053 -3.23546C146.46 -3.18687 145.872 -3.08359 145.294 -2.93585L143.501 -5.53664L143.642 -2.36076C143.296 -2.20586 142.956 -2.03267 142.625 -1.83682C140.904 -0.815901 139.717 0.718606 138.69 2.40539C137.538 4.29488 136.51 6.69418 134.352 7.60276C134.251 7.62471 134.157 7.68023 134.079 7.76C133.995 7.83818 133.94 7.93405 133.913 8.03717C133.91 8.04135 133.909 8.0446 133.909 8.04762C133.906 8.06526 133.902 8.08081 133.899 8.09845C133.879 8.19201 133.88 8.29218 133.909 8.3917C133.942 8.51555 134.011 8.62548 134.106 8.69701C136.011 10.8615 138.881 7.9768 140.502 6.89295C143.118 5.14433 146.819 3.88275 149.282 6.60722C151.496 9.05938 150.516 13.0826 147.439 14.275C146.042 14.8179 144.194 14.7506 143.057 13.6668C142.553 13.1862 142.328 12.5898 142.332 11.9946C143.288 14.4419 146.923 14.3971 148.176 12.075C149.748 9.16973 146.81 6.11123 143.823 6.5973C142.128 6.87542 140.949 8.04167 140.061 9.44056C139.046 11.0352 138.172 12.5664 136.831 13.9256C134.217 16.5764 130.866 18.7258 127.271 19.7428C126.997 19.8198 126.859 20.0594 126.86 20.298C126.862 20.5366 127.002 20.7746 127.278 20.8483C130.885 21.8215 134.261 23.9299 136.908 26.5487C138.265 27.8915 139.158 29.4119 140.192 30.9941C141.097 32.3821 142.29 33.5342 143.988 33.7914C146.982 34.2413 149.881 31.1471 148.275 28.2614C146.994 25.9548 143.358 25.9541 142.432 28.4129C142.421 27.8178 142.638 27.2187 143.136 26.732C144.261 25.6345 146.107 25.5447 147.511 26.0706C150.602 27.2257 151.631 31.2364 149.447 33.7153C147.017 36.4696 143.301 35.2531 140.664 33.5364C139.03 32.4721 136.125 29.6228 134.247 31.8103C134.153 31.883 134.084 31.994 134.053 32.118C134.025 32.2179 134.026 32.318 134.047 32.4113C134.05 32.4289 134.054 32.4444 134.057 32.462C134.058 32.465 134.059 32.4683 134.062 32.4725C134.09 32.5752 134.146 32.6704 134.231 32.7476C134.31 32.8264 134.405 32.8808 134.506 32.9015C136.675 33.7837 137.732 36.1704 138.906 38.0457C139.954 39.7196 141.16 41.2396 142.894 42.2397C143.226 42.4315 143.569 42.6006 143.917 42.7512L143.814 45.9286L145.575 43.3062C146.155 43.4469 146.744 43.5433 147.338 43.5844L148.559 47.3048L149.309 43.5525C150.125 43.4675 150.932 43.288 151.711 43.0273L154.823 46.7678L153.715 42.1306C154.321 41.7867 154.887 41.3968 155.416 40.9669L161.124 44.3088L157.227 39.1569C157.682 38.5981 158.088 38.0042 158.443 37.3808L166.367 39.3132L159.554 34.8329C159.704 34.3631 159.825 33.8857 159.921 33.4038L171.292 32.0332L160.171 30.3101C160.156 29.8838 160.124 29.4553 160.067 29.0286C160.009 28.5907 159.931 28.1597 159.835 27.7371L167.936 25.8638L158.845 24.8395C158.343 23.7493 157.723 22.7153 156.998 21.7482L161.569 20.7382L164.593 20.0688ZM39.106 -89.1155C38.878 -89.3919 38.6422 -89.6638 38.3958 -89.9266C37.883 -90.4814 37.3488 -91.0186 36.7657 -91.5082C36.1874 -91.9983 35.5795 -92.4628 34.9338 -92.8739C34.2862 -93.2836 33.6097 -93.6525 32.8986 -93.9536C31.4824 -94.5591 29.943 -94.9233 28.3803 -94.9428C27.6008 -94.9496 26.8171 -94.8772 26.0532 -94.7079C25.2905 -94.5366 24.5479 -94.2633 23.8517 -93.906C23.1525 -93.5495 22.5002 -93.0987 21.9287 -92.5604C21.3536 -92.0277 20.8517 -91.411 20.4721 -90.7256C20.084 -90.0457 19.8065 -89.3035 19.6542 -88.5418C19.4974 -87.7829 19.4558 -87.004 19.537 -86.2415C19.7002 -84.7196 20.2767 -83.2914 21.0811 -82.0576C21.4834 -81.4382 21.9365 -80.859 22.4267 -80.3201C22.9248 -79.7859 23.4534 -79.2853 24.0083 -78.8212C23.5263 -79.3597 23.059 -79.9094 22.6365 -80.4907C22.2151 -81.0701 21.833 -81.6773 21.512 -82.3074C21.1928 -82.9385 20.9192 -83.5911 20.7306 -84.2614C20.5419 -84.932 20.432 -85.6167 20.4186 -86.2999C20.3788 -87.6612 20.745 -89.0112 21.4821 -90.1127C22.2065 -91.2223 23.2579 -92.1029 24.4664 -92.6435C25.068 -92.9136 25.7037 -93.1164 26.3587 -93.2272C27.0105 -93.3441 27.6759 -93.3922 28.3392 -93.3622C29.6709 -93.3079 30.987 -92.9588 32.2081 -92.3924C32.8187 -92.1093 33.4138 -91.78 33.9791 -91.4069C34.5482 -91.0359 35.0853 -90.6118 35.6004 -90.1614C36.1195 -89.7136 36.6064 -89.2255 37.0723 -88.7147C37.4545 -88.306 37.8083 -87.8643 38.1541 -87.4185C38.5461 -81.7528 38.6282 -76.0694 38.4884 -70.3939C36.71 -74.1231 33.8541 -77.5361 30.4133 -79.5878C29.7417 -79.9888 29.0034 -80.3771 28.3605 -80.8556C27.666 -81.3729 27.0797 -81.9986 26.8004 -82.8648C26.2394 -84.5959 27.2158 -86.6949 29.1685 -86.8456C30.9197 -86.9789 32.3759 -85.0888 31.3305 -83.5237C30.8236 -82.7663 29.8244 -82.3612 28.9977 -82.9096C28.108 -83.4978 28.4944 -85.0397 29.6332 -84.6636C30.3326 -84.4323 30.6166 -85.5386 29.9217 -85.7669C28.6771 -86.179 27.319 -85.1617 27.285 -83.8499C27.2743 -83.4385 27.3899 -83.0694 27.5895 -82.7469C27.8954 -82.161 28.3196 -81.6762 28.8133 -81.3166C30.2871 -80.2416 32.3706 -80.273 33.6968 -81.9732C35.3965 -84.157 34.7927 -87.4804 32.9164 -89.3468C31.1564 -91.0959 28.3164 -91.5428 26.1017 -90.429C23.5816 -89.1627 22.4312 -86.3713 22.9267 -83.662C23.2284 -82.012 24.0421 -80.5136 24.9756 -79.1408C25.6285 -78.1837 27.5606 -76.281 27.2051 -74.9215C25.2092 -78.1631 20.6706 -78.8705 18.461 -82.0296C14.3042 -87.9718 18.5534 -96.069 25.0937 -97.8837C30.0414 -99.2583 35.082 -97.291 38.6757 -93.8387C38.7762 -93.744 38.8947 -93.6995 39.0161 -93.6912C39.0367 -93.6876 39.0574 -93.6864 39.0782 -93.6865C39.0993 -93.6866 39.12 -93.6881 39.1403 -93.692C39.2615 -93.7017 39.3797 -93.7477 39.4789 -93.8436C43.0306 -97.3399 48.0469 -99.3683 53.0109 -98.0539C59.5728 -96.319 63.9202 -88.2738 59.836 -82.2818C57.6649 -79.0962 53.1355 -78.3337 51.179 -75.0678C50.8069 -76.4231 52.7157 -78.349 53.357 -79.3139C54.2737 -80.6979 55.0691 -82.2062 55.3507 -83.8597C55.8133 -86.5746 54.6289 -89.3518 52.0936 -90.5875C49.8656 -91.6744 47.0312 -91.1929 45.2926 -89.4225C43.4392 -87.5334 42.8759 -84.203 44.602 -82.04C45.9487 -80.3561 48.0325 -80.35 49.4931 -81.4428C49.9824 -81.8082 50.4007 -82.2983 50.6995 -82.8879C50.895 -83.213 51.0059 -83.5835 50.9904 -83.9945C50.9405 -85.3059 49.5701 -86.3066 48.3307 -85.8794C47.6386 -85.6424 47.9361 -84.5398 48.6325 -84.7796C49.7667 -85.1696 50.1719 -83.6325 49.2893 -83.0335C48.4694 -82.4751 47.4653 -82.868 46.9493 -83.6191C45.8851 -85.1712 47.318 -87.0789 49.0706 -86.9671C51.0251 -86.8401 52.0269 -84.7532 51.487 -83.0154C51.218 -82.1459 50.6397 -81.5131 49.9514 -80.9874C49.3145 -80.5011 48.5809 -80.1036 47.9143 -79.6947C44.4987 -77.6013 41.6844 -74.1538 39.9516 -70.4033C39.743 -76.0766 39.7557 -81.7604 40.079 -87.4307C40.4194 -87.8809 40.7677 -88.3266 41.145 -88.74C41.6047 -89.2563 42.0855 -89.7504 42.5991 -90.2045C43.1088 -90.6608 43.6404 -91.0916 44.2052 -91.4695C44.7659 -91.8495 45.3569 -92.186 45.964 -92.4765C47.1782 -93.0578 48.49 -93.4228 49.8209 -93.4933C50.4838 -93.5312 51.1497 -93.4912 51.8028 -93.3825C52.4592 -93.2796 53.0975 -93.0845 53.7022 -92.8218C54.9169 -92.2959 55.9792 -91.4282 56.717 -90.3274C57.4674 -89.2353 57.85 -87.8896 57.8268 -86.5279C57.8217 -85.8448 57.7201 -85.1586 57.5396 -84.4858C57.3592 -83.813 57.0935 -83.1573 56.782 -82.5224C56.4685 -81.8887 56.0938 -81.2766 55.6795 -80.6921C55.2641 -80.1057 54.8035 -79.5504 54.3281 -79.0061C54.8773 -79.4769 55.3998 -79.9837 55.8913 -80.5241C56.3749 -81.0689 56.821 -81.6536 57.2157 -82.2779C58.0051 -83.5213 58.5644 -84.9564 58.7089 -86.4802C58.7807 -87.2437 58.7296 -88.022 58.5636 -88.7789C58.402 -89.5387 58.1154 -90.2775 57.7192 -90.9526C57.3313 -91.6335 56.8219 -92.2442 56.2405 -92.7695C55.6624 -93.3009 55.0047 -93.7437 54.3012 -94.0916C53.6007 -94.4405 52.8549 -94.7047 52.0901 -94.8667C51.3242 -95.0267 50.5397 -95.0894 49.7603 -95.0733C48.198 -95.0348 46.6631 -94.6519 45.2543 -94.0292C44.547 -93.7195 43.875 -93.3424 43.2325 -92.9248C42.5919 -92.5061 41.9893 -92.0341 41.4173 -91.537C40.84 -91.0401 40.3126 -90.4966 39.8066 -89.9357C39.5631 -89.6694 39.3306 -89.3946 39.106 -89.1155ZM-70.1687 21.4966C-70.445 21.7246 -70.717 21.9604 -70.9798 22.2069C-71.5345 22.7197 -72.0718 23.2539 -72.5614 23.837C-73.0515 24.4152 -73.5159 25.0234 -73.9268 25.6689C-74.3365 26.3164 -74.7055 26.9932 -75.0065 27.704C-75.6121 29.1202 -75.9763 30.6597 -75.9957 32.2223C-76.0026 33.0019 -75.9304 33.7856 -75.7609 34.5495C-75.5895 35.3122 -75.3163 36.0548 -74.9589 36.751C-74.6025 37.4502 -74.1519 38.1025 -73.6133 38.674C-73.0807 39.249 -72.4639 39.7509 -71.7785 40.1305C-71.0987 40.5187 -70.3564 40.7961 -69.5948 40.9485C-68.8358 41.105 -68.057 41.1469 -67.2947 41.0657C-65.7728 40.9025 -64.3445 40.326 -63.1108 39.5216C-62.4914 39.1192 -61.9122 38.6661 -61.3733 38.1759C-60.8389 37.6779 -60.3385 37.1492 -59.8745 36.5943C-60.4129 37.0764 -60.9626 37.5437 -61.5439 37.9662C-62.1233 38.3875 -62.7307 38.7696 -63.3606 39.0907C-63.9917 39.4098 -64.6443 39.6835 -65.3146 39.8721C-65.985 40.0607 -66.6699 40.1706 -67.3531 40.1841C-68.7144 40.2239 -70.0644 39.8576 -71.1656 39.1205C-72.2753 38.3962 -73.1558 37.3447 -73.6964 36.1363C-73.9665 35.5346 -74.1693 34.8989 -74.2802 34.2439C-74.3971 33.5922 -74.4452 32.9268 -74.4153 32.2635C-74.3611 30.9318 -74.012 29.6157 -73.4456 28.3945C-73.1625 27.7839 -72.8331 27.1888 -72.46 26.6236C-72.089 26.0544 -71.665 25.5174 -71.2148 25.0023C-70.767 24.4832 -70.2789 23.9963 -69.7682 23.5304C-69.3594 23.1481 -68.9178 22.7944 -68.4719 22.4483C-62.8062 22.0563 -57.1228 21.9742 -51.4474 22.1141C-55.1765 23.8924 -58.5895 26.7484 -60.6412 30.1892C-61.0422 30.8607 -61.4305 31.5991 -61.9093 32.2419C-62.4266 32.9365 -63.0522 33.5225 -63.9184 33.802C-65.6496 34.363 -67.7485 33.3866 -67.8993 31.4339C-68.0326 29.6827 -66.1425 28.2267 -64.5773 29.272C-63.82 29.7789 -63.4149 30.778 -63.9633 31.6047C-64.5514 32.4945 -66.0934 32.1081 -65.7173 30.9692C-65.486 30.2699 -66.5923 29.9858 -66.8206 30.6807C-67.2327 31.9253 -66.2154 33.2834 -64.9035 33.3174C-64.4924 33.3281 -64.123 33.2125 -63.8006 33.013C-63.2147 32.7071 -62.7298 32.2828 -62.3702 31.7891C-61.2955 30.3153 -61.3267 28.2318 -63.0269 26.9057C-65.2104 25.2059 -68.534 25.8098 -70.4004 27.686C-72.1496 29.446 -72.5965 32.286 -71.4826 34.5007C-70.2164 37.0208 -67.425 38.1712 -64.7157 37.6757C-63.0657 37.374 -61.5672 36.5603 -60.1945 35.6269C-59.2374 34.9739 -57.3349 33.0418 -55.9752 33.3973C-59.2168 35.3932 -59.9242 39.9318 -63.0833 42.1414C-69.0255 46.2982 -77.1227 42.049 -78.9373 35.5088C-80.312 30.5611 -78.3447 25.5205 -74.8923 21.9267C-74.7977 21.8262 -74.7531 21.7077 -74.7448 21.5864C-74.7413 21.5657 -74.74 21.5451 -74.7401 21.5242C-74.7403 21.5031 -74.7418 21.4825 -74.7456 21.4621C-74.7554 21.3409 -74.8013 21.2227 -74.8972 21.1233C-78.393 17.5718 -80.4215 12.5555 -79.1071 7.59148C-77.3721 1.02966 -69.327 -3.31776 -63.335 0.766453C-60.1494 2.93748 -59.3868 7.46713 -56.121 9.42343C-57.4763 9.79547 -59.4022 7.88666 -60.3671 7.24541C-61.7511 6.3287 -63.2594 5.53331 -64.9129 5.25169C-67.6278 4.78917 -70.405 5.97349 -71.6407 8.50876C-72.7276 10.7368 -72.2461 13.5712 -70.4757 15.3098C-68.5866 17.1632 -65.2562 17.7266 -63.0932 16.0004C-61.4093 14.6537 -61.4032 12.5699 -62.496 11.1094C-62.8614 10.62 -63.3515 10.2017 -63.9411 9.90296C-64.2662 9.70739 -64.6367 9.59627 -65.0477 9.61198C-66.3591 9.66193 -67.3598 11.0323 -66.9326 12.2718C-66.6958 12.9638 -65.593 12.6664 -65.8328 11.9699C-66.2228 10.8357 -64.6856 10.4306 -64.0867 11.3131C-63.5283 12.1331 -63.921 13.1371 -64.6723 13.6531C-66.2244 14.7173 -68.1321 13.2844 -68.0203 11.5318C-67.8933 9.57735 -65.8064 8.57553 -64.0685 9.1154C-63.1991 9.38441 -62.5663 9.96277 -62.0406 10.651C-61.5543 11.288 -61.1568 12.0215 -60.7477 12.6882C-58.6543 16.1037 -55.2068 18.918 -51.4563 20.6508C-57.1296 20.8595 -62.8133 20.8467 -68.4836 20.5237C-68.9339 20.1833 -69.3795 19.8349 -69.7929 19.4574C-70.3093 18.9978 -70.8033 18.5169 -71.2574 18.0033C-71.7138 17.4936 -72.1446 16.9621 -72.5222 16.3972C-72.9024 15.8366 -73.2387 15.2455 -73.5292 14.6384C-74.1103 13.4244 -74.4755 12.1125 -74.546 10.7815C-74.5839 10.1186 -74.5439 9.45248 -74.4349 8.79959C-74.3321 8.14327 -74.137 7.50492 -73.8743 6.90025C-73.3484 5.68556 -72.4807 4.62323 -71.3799 3.88547C-70.2878 3.13501 -68.9421 2.75237 -67.5806 2.77562C-66.8975 2.78074 -66.2113 2.88229 -65.5385 3.06277C-64.8659 3.24324 -64.21 3.50891 -63.5751 3.82038C-62.9414 4.13395 -62.3293 4.50862 -61.7448 4.92266C-61.1585 5.33783 -60.6032 5.79863 -60.0589 6.27412C-60.5296 5.72492 -61.0364 5.20237 -61.5769 4.71087C-62.1217 4.22727 -62.7063 3.78124 -63.3306 3.38646C-64.574 2.59711 -66.0092 2.03779 -67.5329 1.89333C-68.2964 1.82146 -69.0747 1.87256 -69.8314 2.03854C-70.5912 2.20013 -71.33 2.48656 -72.0051 2.88298C-72.686 3.27086 -73.2966 3.78027 -73.822 4.36172C-74.3534 4.93974 -74.7962 5.59721 -75.1441 6.30095C-75.493 7.00143 -75.7572 7.74732 -75.9192 8.51206C-76.0792 9.27794 -76.1419 10.0623 -76.1258 10.8419C-76.0873 12.4042 -75.7044 13.9391 -75.0816 15.3478C-74.772 16.0552 -74.3948 16.7272 -73.9773 17.3697C-73.5586 18.0103 -73.0868 18.6129 -72.5897 19.1848C-72.093 19.7622 -71.5493 20.2896 -70.9884 20.7956C-70.7226 21.0395 -70.4478 21.272 -70.1687 21.4966ZM40.4434 130.772C40.6714 131.048 40.9072 131.32 41.1537 131.583C41.6664 132.137 42.2007 132.675 42.7838 133.164C43.362 133.654 43.97 134.119 44.6157 134.53C45.2632 134.94 45.9399 135.309 46.6508 135.61C48.067 136.215 49.6065 136.579 51.1691 136.599C51.9487 136.606 52.7324 136.533 53.4963 136.364C54.259 136.193 55.0016 135.919 55.6978 135.562C56.397 135.206 57.0493 134.755 57.6208 134.216C58.1958 133.684 58.6977 133.067 59.0773 132.382C59.4655 131.702 59.7429 130.96 59.8953 130.198C60.0518 129.439 60.0936 128.66 60.0125 127.898C59.8495 126.376 59.2728 124.948 58.4684 123.714C58.066 123.095 57.6129 122.515 57.1227 121.976C56.6247 121.442 56.096 120.942 55.5411 120.478C56.0232 121.016 56.4905 121.566 56.913 122.147C57.3343 122.726 57.7164 123.334 58.0377 123.964C58.3568 124.595 58.6305 125.247 58.8191 125.918C59.0078 126.588 59.1177 127.273 59.1311 127.956C59.1709 129.317 58.8046 130.668 58.0675 131.769C57.3435 132.878 56.2917 133.759 55.0833 134.3C54.4817 134.57 53.846 134.772 53.1909 134.884C52.5392 135 51.8738 135.049 51.2105 135.019C49.8788 134.964 48.5627 134.615 47.3415 134.049C46.7309 133.766 46.1358 133.437 45.5706 133.063C45.0014 132.692 44.4644 132.268 43.9493 131.818C43.4302 131.37 42.9433 130.882 42.4774 130.371C42.0952 129.963 41.7414 129.521 41.3955 129.075C41.0036 123.409 40.9215 117.726 41.0611 112.051C42.8394 115.78 45.6954 119.193 49.1362 121.244C49.8078 121.645 50.5461 122.034 51.1889 122.512C51.8835 123.029 52.4697 123.655 52.7491 124.521C53.31 126.252 52.3337 128.351 50.3809 128.502C48.6298 128.635 47.1738 126.745 48.219 125.18C48.7259 124.423 49.725 124.018 50.5517 124.566C51.4415 125.154 51.0551 126.696 49.9162 126.32C49.2169 126.089 48.9329 127.195 49.6277 127.423C50.8723 127.836 52.2304 126.818 52.2644 125.506C52.2751 125.095 52.1595 124.726 51.96 124.403C51.6541 123.818 51.2298 123.333 50.7361 122.973C49.2624 121.898 47.1788 121.93 45.8527 123.63C44.153 125.813 44.7568 129.137 46.633 131.003C48.393 132.752 51.2331 133.199 53.4477 132.086C55.9678 130.819 57.1183 128.028 56.6227 125.319C56.321 123.669 55.5074 122.17 54.5739 120.797C53.9209 119.84 51.9888 117.938 52.3444 116.578C54.3402 119.82 58.8788 120.527 61.0885 123.686C65.2453 129.628 60.996 137.726 54.4558 139.54C49.5081 140.915 44.4675 138.948 40.8737 135.495C40.7732 135.401 40.6547 135.356 40.5334 135.348C40.5127 135.344 40.4921 135.343 40.4712 135.343C40.4501 135.343 40.4295 135.345 40.4091 135.348C40.2879 135.358 40.1697 135.404 40.0706 135.5C36.5191 138.996 31.5028 141.024 26.5387 139.71C19.9769 137.975 15.6295 129.93 19.7137 123.938C21.8847 120.752 26.4142 119.99 28.3707 116.724C28.7427 118.079 26.8339 120.005 26.1927 120.97C25.2759 122.354 24.4806 123.862 24.199 125.516C23.7364 128.231 24.9207 131.008 27.456 132.244C29.6841 133.331 32.5185 132.849 34.2571 131.079C36.1105 129.189 36.6738 125.859 34.9477 123.696C33.601 122.012 31.5172 122.006 30.0566 123.099C29.5673 123.464 29.149 123.954 28.8502 124.544C28.6546 124.869 28.5435 125.24 28.5592 125.651C28.6092 126.962 29.9795 127.963 31.219 127.535C31.9111 127.298 31.6136 126.196 30.9172 126.436C29.783 126.826 29.3778 125.289 30.2604 124.69C31.0803 124.131 32.0843 124.524 32.6004 125.275C33.6646 126.827 32.2317 128.735 30.479 128.623C28.5246 128.496 27.5228 126.409 28.0627 124.671C28.3317 123.802 28.91 123.169 29.5982 122.644C30.2352 122.157 30.9687 121.76 31.6354 121.351C35.051 119.257 37.8652 115.81 39.5981 112.059C39.8067 117.733 39.794 123.416 39.4709 129.087C39.1305 129.537 38.7822 129.983 38.4049 130.396C37.9453 130.912 37.4644 131.406 36.9508 131.861C36.4411 132.317 35.9095 132.748 35.3447 133.126C34.784 133.506 34.193 133.842 33.5859 134.133C32.3717 134.714 31.0599 135.079 29.729 135.149C29.0661 135.187 28.4002 135.147 27.7471 135.038C27.0907 134.935 26.4524 134.74 25.8477 134.477C24.6331 133.951 23.5707 133.084 22.833 131.983C22.0825 130.891 21.6999 129.545 21.7231 128.184C21.7282 127.501 21.8298 126.814 22.0102 126.142C22.1907 125.469 22.4564 124.813 22.7679 124.178C23.0814 123.545 23.4561 122.932 23.8701 122.348C24.2855 121.762 24.7461 121.206 25.2216 120.662C24.6724 121.133 24.1499 121.64 23.6584 122.18C23.1748 122.725 22.7287 123.309 22.334 123.934C21.5446 125.177 20.9853 126.612 20.8408 128.136C20.769 128.9 20.8201 129.678 20.986 130.435C21.1476 131.194 21.4341 131.933 21.8305 132.608C22.2184 133.289 22.7278 133.9 23.3092 134.425C23.8872 134.957 24.5449 135.399 25.2484 135.747C25.9489 136.096 26.6948 136.36 27.4596 136.522C28.2254 136.682 29.01 136.745 29.7894 136.729C31.3517 136.69 32.8866 136.308 34.2953 135.685C35.0027 135.375 35.6747 134.998 36.3172 134.58C36.9578 134.162 37.5603 133.69 38.1323 133.193C38.7097 132.696 39.2371 132.152 39.7431 131.591C39.9863 131.325 40.2188 131.051 40.4434 130.772ZM149.718 20.1592C149.995 19.9313 150.267 19.6954 150.529 19.449C151.084 18.9362 151.621 18.402 152.111 17.8189C152.601 17.2406 153.066 16.6327 153.477 15.987C153.886 15.3394 154.255 14.6627 154.556 13.9518C155.162 12.5357 155.526 10.9962 155.545 9.43356C155.552 8.65399 155.48 7.87028 155.311 7.10639C155.139 6.34369 154.866 5.60106 154.509 4.90486C154.152 4.20564 153.702 3.55338 153.163 2.98187C152.631 2.40684 152.014 1.9049 151.328 1.52533C150.649 1.13716 149.906 0.859736 149.145 0.7074C148.386 0.550643 147.607 0.508999 146.845 0.590156C145.323 0.753137 143.894 1.32989 142.661 2.1343C142.041 2.53664 141.462 2.98974 140.923 3.47993C140.389 3.97797 139.888 4.50665 139.424 5.06154C139.963 4.57946 140.513 4.11217 141.094 3.68966C141.673 3.26832 142.281 2.88623 142.911 2.56521C143.542 2.24603 144.194 1.9724 144.865 1.78376C145.535 1.59512 146.22 1.48523 146.903 1.4718C148.264 1.43199 149.614 1.79823 150.716 2.53535C151.825 3.25966 152.706 4.31114 153.246 5.51957C153.516 6.12122 153.719 6.75692 153.83 7.41195C153.947 8.0637 153.995 8.72908 153.965 9.39239C153.911 10.7241 153.562 12.0402 152.996 13.2613C152.712 13.8719 152.383 14.467 152.01 15.0323C151.639 15.6014 151.215 16.1385 150.765 16.6536C150.317 17.1727 149.829 17.6596 149.318 18.1255C148.909 18.5077 148.467 18.8617 148.022 19.2076C142.356 19.5996 136.672 19.6817 130.997 19.5418C134.726 17.7635 138.139 14.9075 140.191 11.4667C140.592 10.7951 140.98 10.0568 141.459 9.41397C141.976 8.71941 142.602 8.1334 143.468 7.85383C145.199 7.29286 147.298 8.26922 147.449 10.222C147.582 11.9733 145.692 13.4291 144.127 12.3839C143.37 11.877 142.965 10.8778 143.513 10.0512C144.102 9.1614 145.644 9.54781 145.267 10.6867C145.036 11.386 146.142 11.67 146.371 10.9751C146.783 9.73054 145.765 8.37246 144.453 8.33847C144.042 8.32775 143.673 8.44338 143.35 8.64289C142.765 8.94879 142.28 9.37303 141.92 9.86677C140.845 11.3405 140.877 13.4241 142.577 14.7502C144.76 16.4499 148.084 15.8461 149.95 13.9699C151.699 12.2099 152.146 9.36983 151.033 7.15513C149.766 4.63507 146.975 3.48463 144.266 3.98013C142.616 4.28185 141.117 5.09551 139.744 6.029C138.787 6.68194 136.885 8.61403 135.525 8.25851C138.767 6.26263 139.474 1.72404 142.633 -0.485576C148.575 -4.64238 156.673 -0.39313 158.487 6.1471C159.862 11.0948 157.895 16.1354 154.442 19.7292C154.348 19.8297 154.303 19.9482 154.295 20.0697C154.291 20.0904 154.29 20.111 154.29 20.1319C154.29 20.153 154.292 20.1736 154.296 20.194C154.305 20.3152 154.351 20.4334 154.447 20.5325C157.943 24.084 159.971 29.1003 158.657 34.0644C156.922 40.6262 148.877 44.9736 142.885 40.8894C139.699 38.7184 138.937 34.1887 135.671 32.2324C137.026 31.8604 138.952 33.7692 139.917 34.4104C141.301 35.3272 142.809 36.1225 144.463 36.4042C147.178 36.8667 149.955 35.6824 151.191 33.1471C152.278 30.919 151.796 28.0846 150.026 26.346C148.137 24.4926 144.806 23.9293 142.643 25.6554C140.959 27.0021 140.953 29.0859 142.046 30.5465C142.411 31.0358 142.901 31.4541 143.491 31.7529C143.816 31.9485 144.187 32.0594 144.598 32.0439C145.909 31.9939 146.91 30.6236 146.482 29.3841C146.246 28.692 145.143 28.9895 145.383 29.6859C145.773 30.8202 144.236 31.2253 143.637 30.3428C143.078 29.5228 143.471 28.5188 144.222 28.0027C145.774 26.9385 147.682 28.3714 147.57 30.1241C147.443 32.0785 145.356 33.0803 143.618 32.5405C142.749 32.2715 142.116 31.6931 141.59 31.0049C141.104 30.3679 140.706 29.6344 140.297 28.9677C138.204 25.5521 134.756 22.7379 131.006 21.005C136.679 20.7964 142.363 20.8091 148.033 21.1322C148.484 21.4726 148.929 21.8209 149.343 22.1984C149.859 22.6581 150.353 23.139 150.807 23.6526C151.263 24.1622 151.694 24.6938 152.072 25.2587C152.452 25.8193 152.789 26.4104 153.079 27.0175C153.66 28.2314 154.025 29.5434 154.096 30.8743C154.134 31.5372 154.094 32.2032 153.985 32.8563C153.882 33.5126 153.687 34.151 153.424 34.7556C152.898 35.9703 152.031 37.0326 150.93 37.7704C149.838 38.5209 148.492 38.9035 147.131 38.8802C146.447 38.8751 145.761 38.7738 145.088 38.5931C144.416 38.4126 143.76 38.147 143.125 37.8355C142.491 37.5219 141.879 37.1472 141.295 36.7332C140.708 36.3178 140.153 35.8572 139.609 35.3817C140.08 35.9309 140.586 36.4535 141.127 36.945C141.672 37.4286 142.256 37.8746 142.881 38.2694C144.124 39.0587 145.559 39.6181 147.083 39.7625C147.846 39.8344 148.625 39.7833 149.381 39.6173C150.141 39.4557 150.88 39.1691 151.555 38.7729C152.236 38.385 152.847 37.8756 153.372 37.2941C153.903 36.7161 154.346 36.0586 154.694 35.3549C155.043 34.6544 155.307 33.9085 155.469 33.1438C155.629 32.3779 155.692 31.5936 155.675 30.8139C155.637 29.2517 155.254 27.7167 154.631 26.308C154.322 25.6007 153.945 24.9287 153.527 24.2862C153.108 23.6455 152.636 23.0432 152.139 22.471C151.642 21.8937 151.099 21.3663 150.538 20.8603C150.272 20.6164 149.997 20.3838 149.718 20.1592Z" fill="#150033"/>
<path d="M153.992 19.9652C153.992 19.9441 153.993 19.9235 153.996 19.9031C154.005 19.7818 154.049 19.663 154.144 19.5625C157.596 15.9687 159.564 10.9281 158.189 5.98044C156.374 -0.559793 148.277 -4.80904 142.335 -0.652243C139.176 1.55737 138.469 6.09598 135.227 8.09186C136.586 8.44738 138.489 6.51529 139.446 5.86235C140.819 4.92887 142.317 4.11519 143.967 3.81347C146.676 3.31796 149.468 4.46841 150.734 6.98847C151.848 9.20316 151.401 12.0432 149.652 13.8032C147.786 15.6794 144.462 16.2833 142.278 14.5835C140.578 13.2574 140.547 11.1739 141.622 9.70012L141.161 9.2473C140.682 9.89015 140.294 10.6284 139.893 11.3C137.841 14.7408 134.428 17.5968 130.699 19.3751C136.374 19.5148 142.058 19.4329 147.724 19.0409C148.17 18.695 148.611 18.3413 149.02 17.9588C149.531 17.4929 150.019 17.006 150.466 16.487C150.917 15.9718 151.341 15.435 151.712 14.8656C152.085 14.3004 152.414 13.7053 152.697 13.0947C153.264 11.8737 153.613 10.5574 153.667 9.22572C153.697 8.56242 153.649 7.8968 153.532 7.24528C153.421 6.59025 153.218 5.95433 152.948 5.3529C152.408 4.14471 151.527 3.093 150.417 2.36869C149.316 1.63157 147.966 1.26532 146.605 1.30513C145.922 1.31856 145.237 1.42847 144.566 1.61711C143.896 1.80575 143.243 2.07937 142.612 2.39854C141.983 2.71979 141.375 3.10188 140.796 3.52299C140.214 3.94527 139.665 4.4128 139.126 4.89487C139.59 4.33998 140.091 3.81131 140.625 3.31327C141.164 2.82308 141.743 2.36997 142.363 1.96764C143.596 1.16322 145.025 0.586468 146.546 0.423487C147.309 0.342335 148.088 0.383972 148.847 0.540734C149.608 0.693072 150.351 0.970507 151.03 1.35868C151.716 1.73825 152.333 2.24018 152.865 2.8152C153.404 3.38671 153.854 4.03876 154.211 4.73821C154.568 5.4344 154.841 6.17702 155.013 6.93973C155.182 7.70361 155.254 8.48709 155.247 9.26689C155.228 10.8295 154.864 12.369 154.258 13.7852C153.957 14.4963 153.588 15.1728 153.178 15.8203C152.768 16.466 152.303 17.0742 151.813 17.6522C151.323 18.2355 150.786 18.7695 150.231 19.2823C149.969 19.5288 149.697 19.7646 149.42 19.9926C149.699 20.2172 149.974 20.4497 150.24 20.6929C150.801 21.1989 151.344 21.7266 151.841 22.3037C152.338 22.8759 152.81 23.4784 153.229 24.1188C153.646 24.7613 154.024 25.4335 154.333 26.1407C154.956 27.5494 155.339 29.0843 155.377 30.6466C155.394 31.426 155.331 32.2105 155.171 32.9764C155.009 33.7412 154.745 34.4871 154.396 35.1875C154.048 35.891 153.605 36.5488 153.074 37.1268C152.548 37.7082 151.938 38.2176 151.257 38.6055C150.582 39.0019 149.843 39.2884 149.083 39.45C148.326 39.6157 147.548 39.667 146.785 39.5952C145.261 39.4505 143.826 38.8914 142.582 38.102C141.958 37.7073 141.373 37.2612 140.829 36.7776C140.288 36.2861 139.781 35.7636 139.311 35.2144C139.855 35.6899 140.41 36.1504 140.997 36.5658C141.581 36.9801 142.193 37.3548 142.827 37.6681C143.462 37.9796 144.118 38.2453 144.79 38.4257C145.463 38.6062 146.149 38.7078 146.832 38.7129C148.194 38.7361 149.54 38.3535 150.632 37.603C151.733 36.8653 152.6 35.8032 153.126 34.5883C153.389 33.9834 153.584 33.3452 153.687 32.6889C153.796 32.0358 153.836 31.3699 153.798 30.707C153.727 29.376 153.362 28.0643 152.781 26.8501C152.491 26.243 152.154 25.6519 151.774 25.0913C151.396 24.5267 150.966 23.9949 150.509 23.4852C150.055 22.9716 149.561 22.4907 149.045 22.0311C148.631 21.6538 148.185 21.3055 147.735 20.9648C142.065 20.6418 136.381 20.6288 130.708 20.8377C134.458 22.5705 137.906 25.3848 139.999 28.8004C140.408 29.467 140.806 30.2005 141.292 30.8375L141.748 30.3791C140.655 28.9186 140.661 26.8348 142.345 25.4881C144.508 23.7619 147.838 24.3253 149.727 26.1786C151.498 27.9173 151.979 30.7517 150.892 32.9797C149.657 35.515 146.88 36.6993 144.164 36.2368C142.511 35.9552 141.003 35.1598 139.619 34.2431C138.654 33.6018 136.728 31.693 135.373 32.0651C138.638 34.0214 139.401 38.551 142.587 40.722C148.579 44.8063 156.624 40.4588 158.359 33.897C159.673 28.933 157.645 23.9167 154.149 20.3652C154.053 20.2658 154.007 20.1479 153.997 20.0267C153.993 20.007 153.992 19.9863 153.992 19.9652Z" fill="#F46C68"/>
<path d="M143.172 7.68747C142.306 7.96703 141.68 8.55304 141.163 9.24759L141.624 9.70041C141.983 9.20667 142.468 8.78242 143.054 8.47651C143.377 8.277 143.746 8.16138 144.157 8.17209C145.469 8.20608 146.486 9.56417 146.074 10.8088C145.846 11.5037 144.739 11.2196 144.971 10.5203C145.347 9.38145 143.805 8.99503 143.217 9.88478C142.668 10.7115 143.073 11.7106 143.831 12.2175C145.396 13.2628 147.286 11.8068 147.152 10.0556C147.002 8.10286 144.903 7.1265 143.172 7.68747Z" fill="#F46C68"/>
<path d="M143.322 32.3739C142.452 32.1049 141.819 31.5265 141.294 30.8383L141.749 30.3799C142.115 30.8692 142.605 31.2875 143.194 31.5863C143.519 31.7819 143.89 31.8928 144.301 31.8773C145.612 31.8273 146.613 30.457 146.186 29.2175C145.949 28.5254 144.846 28.8229 145.086 29.5193C145.476 30.6536 143.939 31.0587 143.34 30.1762C142.781 29.3562 143.174 28.3522 143.925 27.8361C145.478 26.7719 147.385 28.2048 147.273 29.9575C147.147 31.9121 145.06 32.9137 143.322 32.3739Z" fill="#F46C68"/>
</g>
</g>
<rect x="0.453275" y="1.37509" width="151.867" height="38.2566" rx="19.1219" transform="rotate(-0.348476 0.453275 1.37509)" stroke="black" stroke-width="1.13434"/>
<defs>
<clipPath id="clip0_615_4654">
<rect x="0.453275" y="1.37509" width="151.867" height="38.2566" rx="19.1219" transform="rotate(-0.348476 0.453275 1.37509)" fill="white"/>
</clipPath>
<clipPath id="clip1_615_4654">
<rect width="50.0647" height="82.514" fill="white" transform="translate(-18.2092 -17.524) scale(1.00033) rotate(-0.348476)"/>
</clipPath>
<clipPath id="clip2_615_4654">
<rect width="50.0647" height="82.514" fill="white" transform="matrix(-1.00031 0.00608403 0.00608403 1.00031 170.983 -18.6745)"/>
</clipPath>
</defs>
</svg>
