<svg width="88" height="11" viewBox="0 0 88 11" fill="none" xmlns="http://www.w3.org/2000/svg">
<path d="M9.41532 1.38054e-05L9.32302 2.63073L3.09238 2.73842L3.10777 7.1537L9.32302 7.0614L9.59994 10.5075L0.477057 10.5382L0.000143769 1.38054e-05H9.41532ZM19.055 10.6921L10.5167 10.6306L10.6398 2.56919L18.9473 2.50765L19.055 10.6921ZM16.1012 8.4306L16.2243 4.66145L13.4244 4.59991L13.4859 8.4306H16.1012ZM19.9817 10.4613L20.1663 1.86151L29.7815 2.41535L29.6122 10.4613L26.1815 10.3998L26.4277 4.50761L23.5201 4.56915L23.3508 10.3998L19.9817 10.4613ZM36.1546 10.5382H30.7086L30.7701 1.38054e-05L33.4778 0.0307829V2.84611L35.0316 2.76919L35.1085 5.16913H33.4778V8.07676H36.2316L36.1546 10.5382ZM37.3692 1.35383L45.2921 1.53844L44.9075 10.5382L37.1538 10.5536L37.1692 4.92298L42.3691 4.89222L42.3844 3.58455L37.3076 3.52301L37.3692 1.35383ZM42.3075 6.70756H39.4768L39.4922 8.46137H42.3229L42.3075 6.70756ZM55.3052 10.5382H46.2131L46.9208 1.24614L56.0283 1.44614L55.659 4.15377L49.4438 4.06146L49.1822 7.73831L55.3975 7.846L55.3052 10.5382ZM62.4011 10.5382H56.955L57.0166 1.38054e-05L59.7242 0.0307829V2.84611L61.278 2.76919L61.3549 5.16913H59.7242V8.07676H62.478L62.4011 10.5382ZM75.6585 7.07678L75.4892 1.38054e-05H78.9199L79.0892 10.5382H68.1971L68.0125 0.246163L71.3816 0.3077L71.4739 7.01525L75.6585 7.07678ZM80.1241 10.569L80.0164 8.61521H84.5086L84.6009 7.16909L80.0934 6.8614L80.0318 2.04612H88.0009L87.847 4.06146L83.2164 3.90762L83.1856 5.41528L87.8932 5.50759L88.0009 10.3998L80.1241 10.569Z" fill="#482727"/>
</svg>
