<svg width="17" height="17" viewBox="0 0 17 17" fill="none" xmlns="http://www.w3.org/2000/svg">
<g clip-path="url(#clip0_615_4688)">
<path d="M15.7416 0H1.25508C0.561133 0 0 0.547852 0 1.2252V15.7715C0 16.4488 0.561133 17 1.25508 17H15.7416C16.4355 17 17 16.4488 17 15.7748V1.2252C17 0.547852 16.4355 0 15.7416 0ZM5.04355 14.4865H2.52012V6.37168H5.04355V14.4865ZM3.78184 5.26602C2.97168 5.26602 2.31758 4.61191 2.31758 3.80508C2.31758 2.99824 2.97168 2.34414 3.78184 2.34414C4.58867 2.34414 5.24277 2.99824 5.24277 3.80508C5.24277 4.60859 4.58867 5.26602 3.78184 5.26602ZM14.4865 14.4865H11.9664V10.542C11.9664 9.60234 11.9498 8.39043 10.6549 8.39043C9.34336 8.39043 9.14414 9.41641 9.14414 10.4756V14.4865H6.62734V6.37168H9.04453V7.48066H9.07773C9.41308 6.84316 10.2365 6.16914 11.4617 6.16914C14.015 6.16914 14.4865 7.84922 14.4865 10.034V14.4865Z" fill="#351E1E"/>
</g>
<defs>
<clipPath id="clip0_615_4688">
<rect width="17" height="17" fill="white"/>
</clipPath>
</defs>
</svg>
