<svg width="301" height="80" viewBox="0 0 301 80" fill="none" xmlns="http://www.w3.org/2000/svg">
<path d="M12.1357 1.38997V39.4752H0.348752L1.07154 1.44557L12.1357 1.38997ZM46.6326 39.4752L27.729 14.0109L27.9514 39.4752L15.9421 39.6976L15.4973 1.83476L30.2866 1.77917L46.855 22.4619L45.6318 1.77917L55.9732 1.33437L56.974 39.3084L46.6326 39.4752ZM93.2058 1.94596L92.8722 11.6758L72.9122 11.3422L73.3014 29.3562L93.2058 29.0226L93.873 38.808L60.9029 39.5308L60.2913 1.00078L93.2058 1.94596ZM125.29 39.4752L125.179 22.7399L109.889 22.4063L109.277 39.5308L97.2124 39.4196L98.6024 2.62415e-06L136.02 1.44557L135.798 39.4196L125.29 39.4752ZM109.611 7.39465L109.444 14.6225L125.457 15.1785L125.234 8.00624L109.611 7.39465ZM170.481 39.4752L151.578 14.0109L151.8 39.4752L139.791 39.6976L139.346 1.83476L154.135 1.77917L170.704 22.4619L169.48 1.77917L179.822 1.33437L180.823 39.3084L170.481 39.4752ZM184.14 2.50195L215.887 3.22473L224.449 13.0657L222.336 32.1917L214.33 39.8088L184.14 39.6976V2.50195ZM205.879 31.1354L210.772 27.577L209.993 14.1221L204.767 10.1746L194.036 11.1754L194.87 31.3022L205.879 31.1354ZM26.1906 62.7581L25.9265 66.8515L9.37662 66.5874L9.28858 71.9133L29.4478 72.4415L29.7119 79.7041L0.309369 79.5281L0.00125891 49.4653L30.5482 49.9495V57.6963L9.06851 57.4762V62.45L26.1906 62.7581ZM59.4624 49.0692L60.1667 56.992L40.0955 56.86L39.9634 60.9974L60.2107 62.0098L61.179 79.308L33.9773 79.6161L33.8012 73.718L53.2562 73.5419L53.2122 69.2284L33.5371 69.5805L33.185 49.1132L59.4624 49.0692ZM89.89 49.8614L89.6259 57.5642L73.8243 57.3001L74.1324 71.5612L89.89 71.2971L90.4182 79.0439L64.3169 79.6161L63.8327 49.1132L89.89 49.8614ZM119.251 62.7581L118.987 66.8515L102.437 66.5874L102.349 71.9133L122.508 72.4415L122.773 79.7041L93.37 79.5281L93.0619 49.4653L123.609 49.9495V57.6963L102.129 57.4762V62.45L119.251 62.7581ZM150.895 79.5721L135.929 59.4129L136.105 79.5721L126.598 79.7482L126.246 49.7734L137.954 49.7294L151.071 66.1033L150.102 49.7294L158.289 49.3773L159.081 79.44L150.895 79.5721ZM187.765 49.8614L187.501 57.5642L171.699 57.3001L172.007 71.5612L187.765 71.2971L188.293 79.0439L162.192 79.6161L161.708 49.1132L187.765 49.8614ZM217.126 62.7581L216.862 66.8515L200.312 66.5874L200.224 71.9133L220.383 72.4415L220.647 79.7041L191.245 79.5281L190.937 49.4653L221.484 49.9495V57.6963L200.004 57.4762V62.45L217.126 62.7581Z" fill="#3D2923"/>
<path d="M230.342 3.70124H262.361V28.1094H244.447V30.6638H262.361V39.1783H230.342V21.8655H248.256V12.2157H244.447V19.3111H230.342V3.70124ZM268.979 3.70124H300.999V39.1783H268.979V3.70124ZM283.085 30.6638H286.893V12.2157H283.085V30.6638ZM230.342 43.5143H262.361V67.9225H244.447V70.4769H262.361V78.9913H230.342V61.6786H248.256V52.0288H244.447V59.1242H230.342V43.5143ZM268.979 43.5143H300.999V52.0288H283.085V54.5832H300.999V78.9913H268.979V43.5143ZM286.893 70.4769V60.8271H283.085V70.4769H286.893Z" fill="#DC812E"/>
</svg>
