<svg width="25" height="27" viewBox="0 0 25 27" fill="none" xmlns="http://www.w3.org/2000/svg">
<path d="M24.9905 16.0692C24.9905 16.0692 24.464 15.0719 23.0962 14.9336C23.0962 14.9336 22.2117 13.1246 20.6636 13.2131C19.1168 13.3022 18.5339 14.133 18.3753 14.27C18.2146 14.4064 17.1085 14.767 17.1085 14.767C17.1085 14.767 16.8396 9.35895 17.5891 7.68498C18.3398 6.01298 18.2651 4.34425 17.8304 2.60013C17.3957 0.856003 16.0391 -0.193739 15.8909 0.0298496C15.7388 0.252783 15.841 0.886836 15.841 0.886836C15.841 0.886836 14.7939 0.2141 14.7447 0.807496C14.6929 1.4022 14.769 1.80545 14.769 1.80545C14.769 1.80545 13.933 1.16549 13.8419 1.91035C13.7507 2.65652 13.8058 3.14894 13.8058 3.14894C13.8058 3.14894 13.1901 2.66176 13.1324 3.16795C13.0727 3.67611 13.1508 4.10624 13.1508 4.10624C13.1508 4.10624 12.2223 3.94691 12.6878 5.18878C12.6878 5.18878 11.6447 5.07273 11.5175 7.29354C11.3896 9.51304 12.3161 10.8723 11.7496 12.082C11.1831 13.295 10.9706 16.9911 10.9706 16.9911C10.9706 16.9911 6.34407 19.2932 2.71616 21.8249C0.961543 23.049 0.728778 23.2916 0.0317841 23.809C-0.433753 24.1565 4.35605 22.5494 5.15009 22.2812C5.9415 22.015 8.81994 20.185 9.28155 19.8663C9.74708 19.5496 12.2794 19.0841 12.2794 19.0841C12.2794 19.0841 9.17009 22.733 8.44097 23.287C7.71053 23.8398 5.7907 24.7958 5.43007 25.4823C5.06747 26.1727 5.43595 26.8349 6.39391 26.9903C7.35514 27.1451 7.97608 25.397 8.63767 24.9984C9.29597 24.5997 12.1194 24.3361 13.4852 23.6791C14.8503 23.0221 18.9516 20.8479 19.6676 19.149C20.385 17.4482 21.0996 15.986 21.758 15.8214C22.4156 15.6601 23.9499 15.4549 24.9905 16.0692Z" fill="#520A20"/>
</svg>
