<svg width="27" height="19" viewBox="0 0 27 19" fill="none" xmlns="http://www.w3.org/2000/svg">
<path d="M18.8297 12.9654C18.8297 12.9654 18.6213 12.3021 18.0963 12.4247C18.0963 12.4247 18.0858 11.6703 17.7758 11.4114C17.4684 11.1505 20.5588 8.15772 20.7961 7.86539C21.0334 7.57306 23.1282 5.52544 24.0936 4.91981C25.0591 4.31614 26.663 0.864537 26.7115 0C26.7115 0 23.4192 2.37665 22.5684 3.7118C21.7163 5.04695 19.7893 6.15794 19.0021 6.81404C18.2149 7.47211 15.8409 11.294 15.3631 11.4979C14.8846 11.7043 13.598 12.2412 13.1221 12.2104C12.6436 12.1789 10.0231 10.6563 8.55754 10.4282C7.09458 10.2021 3.61611 9.6364 2.59295 9.63837C1.57045 9.63968 0 9.67507 0 9.67507C0 9.67507 2.19838 11.625 4.09131 11.8C5.98687 11.9744 8.84464 13.2047 9.87304 13.5816C10.8988 13.9578 12.4417 15.3506 12.4417 15.3506C12.4417 15.3506 12.1664 16.7893 11.7935 17.2075C11.4212 17.6257 10.4439 18.4214 10.3076 18.5459C10.1719 18.6737 10.8667 19.0336 11.6296 18.9975C12.3965 18.9615 13.1083 18.9366 13.8444 18.7662C14.5798 18.5951 16.8457 18.1159 17.5457 16.4845C18.2438 14.8538 18.1605 13.2374 18.1605 13.2374C18.1605 13.2374 18.6626 12.9563 18.8297 12.9654Z" fill="#520A20"/>
</svg>
