<svg width="239" height="41" viewBox="0 0 239 41" fill="none" xmlns="http://www.w3.org/2000/svg">
<path d="M18.4071 9.01535C18.0426 6.85237 15.4547 6.62237 14.1425 6.43828C10.6069 6.11613 7.10768 6.53032 3.64496 7.58881C2.80662 7.86493 2.00475 8.04899 1.12995 8.32511C0.801908 7.91092 0.619657 7.49673 0.29161 7.03652C0.911254 6.30018 1.56734 6.16208 2.18699 5.978C6.19645 4.87349 10.2059 3.72299 14.1789 2.80257C17.5323 2.02021 20.9586 1.51399 24.3119 0.961736C29.0139 0.0873363 33.7888 -0.0967728 38.5637 0.0412903C39.4385 0.0873114 40.3497 0.271408 41.261 0.501513C42.2087 0.685597 42.719 1.51401 42.8648 2.71056C42.8648 2.89464 42.6461 3.07871 42.5003 3.40086C41.0787 2.15829 39.4385 2.29632 37.7983 2.34234C33.7159 2.57245 27.9933 2.71053 25.4783 3.44686C23.5465 6.02404 21.7969 8.14095 19.938 10.6721C19.7193 10.9022 19.5735 11.3165 19.4641 11.6847C18.6987 15.5044 16.8762 18.6338 14.9808 21.5791C13.5957 23.7421 12.1013 25.8131 10.5704 27.792C8.05538 30.9215 5.43101 33.9588 2.87954 37.0883C2.40569 37.5945 1.93185 38.0546 1.3851 38.5609C0.911259 38.0546 0.510295 37.5945 0 36.9963C0.437396 36.0758 0.765441 35.2014 1.23929 34.4191C2.51502 32.2561 3.79076 30.139 5.2123 28.0681C9.3311 22.1314 13.5228 16.1487 17.6781 10.2119C17.9332 9.79776 18.1884 9.3375 18.4071 9.01535ZM15.3088 5.01161C17.0584 5.60988 18.4071 6.53022 19.3912 7.86483C20.3389 6.7143 21.3595 5.42581 22.453 3.99916C20.9585 3.76905 16.8762 4.45936 15.3088 5.01161ZM7.58154 28.5743C10.2059 26.3193 15.3089 18.8639 16.2565 15.9185C13.2312 19.9684 10.3153 24.2023 7.58154 28.5743ZM30.3492 22.4535C32.5726 22.2234 34.6867 21.6712 36.8008 21.3951C37.2382 21.3491 37.2017 21.8553 37.4569 22.4996C35.8895 23.0058 32.2446 24.0183 30.8959 24.2024C29.766 24.3405 28.8547 23.42 28.8547 22.1314C28.8912 21.3491 28.9276 20.3827 29.0005 19.2321C26.3397 20.2446 24.1528 22.8217 22.4396 25.3069C21.9658 26.0892 21.4919 26.8256 20.9087 27.654C20.5078 27.3318 20.1797 27.0556 19.8881 26.8255C20.3984 24.7546 22.7312 21.3951 25.9752 18.1276C26.5949 18.0815 27.2145 18.1276 27.7248 17.9435C29.0735 17.3453 30.2763 18.2657 30.4585 19.8304C30.5314 20.7048 30.3492 21.5791 30.3492 22.4535ZM36.0361 22.3154C39.0979 17.6673 39.5717 17.2071 40.082 16.7009L41.212 17.9435C39.8634 19.7384 38.3689 21.211 37.3119 23.1899C36.5464 24.5706 36.4371 26.2273 38.2231 25.5369C41.7952 23.7881 43.5083 23.0058 46.643 21.4411C47.0804 21.349 47.4449 21.5331 47.5542 22.3154C45.5495 23.4199 44.0551 24.1103 42.3419 25.0768C40.7381 25.9972 38.9886 27.2857 37.4941 27.4238C35.4894 27.6079 34.7968 24.2023 36.0361 22.3154ZM41.3942 15.4123C42.5606 12.3749 43.2896 12.0528 44.456 13.8016C43.7999 14.584 43.1438 15.3663 42.3784 16.2407C42.0503 16.0106 41.6858 15.6884 41.3942 15.4123ZM47.6381 18.9099C49.6792 14.63 52.1214 10.6721 55.1102 7.3586C56.3495 5.93195 57.7711 4.68946 59.1562 3.53893C59.8487 2.98668 60.6506 2.71054 61.416 2.43441C62.8376 1.79012 64.0404 3.72294 63.4936 5.56378C63.202 6.53022 62.7647 7.49666 62.2544 8.37105C61.088 10.0738 59.8851 11.8227 58.573 13.4334C57.1879 15.1822 55.7663 16.793 54.199 18.1736C55.3654 17.5753 56.6047 17.0691 57.8439 16.6549C58.5 16.4709 59.2655 16.3788 59.9945 16.4708C61.4525 16.5168 62.0357 18.2196 61.2702 19.8763C61.088 20.4286 60.7964 20.8428 60.4683 21.4411C61.4889 21.6251 62.3637 21.4411 63.2385 21.3951C64.5142 21.2571 65.7171 21.1189 66.9199 21.1649C67.6489 21.1649 67.7218 21.7172 67.5396 22.7297C64.8787 22.8677 64.2226 22.8678 62.5095 23.0519C61.7076 23.1439 60.8693 23.3279 60.1038 23.466C58.8645 23.7881 57.5888 24.1564 56.386 24.9848C54.6364 26.0893 52.741 26.8716 50.9185 27.746C50.3353 28.0681 49.7157 28.0682 49.0596 28.1602C48.8409 27.654 48.6586 27.2858 48.44 26.8716C48.5493 26.5495 48.6222 26.3193 48.7315 26.1812C49.4605 25.5369 50.226 24.7547 51.0279 24.3405C52.3036 23.7882 53.6158 23.328 54.9644 22.9138C56.1308 22.6377 57.115 21.9474 57.9898 21.119C60.0674 19.094 60.6506 17.3913 57.5888 18.5878C54.2719 19.8304 51.2466 21.8552 48.6222 24.8926C47.8932 25.767 47.0913 26.5494 47.2371 28.1141C46.0343 27.746 45.7791 26.6875 45.7062 25.583C45.5604 23.6501 46.7997 20.6127 47.6381 18.9099ZM50.226 19.14C51.0643 18.4957 51.9391 18.0356 52.8139 17.2992C55.7299 14.8141 58.3178 11.8227 60.5777 8.23311C61.0151 7.58881 61.416 6.85241 61.7076 6.11607C61.9628 5.60984 62.2544 5.05766 61.9992 4.2753C60.6141 4.18326 59.4478 5.10361 58.2449 6.11607C54.5999 9.56765 51.7569 13.9397 49.3512 18.8179C48.9138 19.5082 50.0073 19.232 50.226 19.14ZM48.3671 21.3951C48.1848 21.9934 48.0025 22.5456 47.8203 23.1439C48.1119 22.8678 48.367 22.6837 48.6586 22.3615C49.0231 21.9933 49.3876 21.5792 49.7886 21.257L49.6428 21.3491C49.2054 21.6252 48.768 21.6712 48.3671 21.3951ZM74.9984 18.2656C75.6545 17.7134 76.1283 17.2531 76.675 16.7009C77.0395 17.1151 77.4041 17.4833 77.805 17.9435C76.4564 19.7384 74.9619 21.211 73.9049 23.1899C73.1395 24.5706 72.7385 26.4113 74.6339 25.3989C78.2059 23.6501 80.1013 23.0058 83.236 21.4411C83.6734 21.349 84.0379 21.5331 84.1472 22.3154C81.2677 23.8802 79.4452 24.6625 76.5293 26.5494C74.1965 27.884 72.3375 27.5158 71.3899 24.4784C69.9319 25.5829 68.8748 26.4574 67.7813 27.2858C66.5785 28.1602 66.3234 28.0221 64.9747 26.5034C65.2663 23.9723 66.0318 22.6377 67.3075 21.257C67.6355 20.9349 67.9636 20.5667 68.3281 20.1985C70.2599 18.3577 72.4105 17.2532 74.9984 18.2656ZM67.2346 24.8926C69.7496 23.1438 71.4628 21.9473 73.9049 19.6923C71.1712 19.5082 69.0935 20.8428 67.2346 24.8926ZM100.343 4.73546C101.328 6.20814 101.328 6.89849 100.453 8.09503C99.4686 9.47567 98.4116 10.7642 97.2817 11.8687C93.8189 15.0902 90.1375 17.8054 86.3832 20.3366C84.9252 21.303 84.0504 23.3739 84.1233 25.767C84.5243 26.8255 93.3451 23.512 98.8854 21.211C99.0312 21.8553 99.3957 22.3155 98.8125 22.6837C95.6414 24.5706 88.0599 27.6539 84.9252 27.6079C83.1757 27.5619 82.3009 25.583 82.7018 23.1899C82.8476 22.2695 83.5766 21.4411 83.1028 20.6127C83.6859 19.8304 84.2327 19.2321 84.6336 18.5418C86.5655 15.3663 88.5337 12.375 90.9759 9.84379C93.0171 7.72683 95.204 5.97804 97.719 4.87354C98.5209 4.50537 99.7238 3.95311 100.343 4.73546ZM99.2499 6.48422C94.5479 8.14098 89.7001 13.4334 86.857 18.2196C91.3404 14.9521 98.3387 9.56763 99.2499 6.48422ZM128.716 9.01535C128.351 6.85237 125.765 6.62237 124.452 6.43828C120.917 6.11613 117.418 6.53032 113.955 7.58881C113.117 7.86493 112.315 8.04899 111.44 8.32511C111.112 7.91092 110.93 7.49673 110.602 7.03652C111.221 6.30018 111.877 6.16208 112.497 5.978C116.506 4.87349 120.516 3.72299 124.489 2.80257C127.841 2.02021 131.267 1.51399 134.621 0.961736C139.323 0.0873363 144.098 -0.0967728 148.872 0.0412903C149.747 0.0873114 150.659 0.271408 151.57 0.501513C152.517 0.685597 153.028 1.51401 153.174 2.71056C153.174 2.89464 152.955 3.07871 152.809 3.40086C151.387 2.15829 149.747 2.29632 148.107 2.34234C144.025 2.57245 138.302 2.71053 135.787 3.44686C133.855 6.02404 132.106 8.14095 130.247 10.6721C130.028 10.9022 129.882 11.3165 129.773 11.6847C129.007 15.5044 127.185 18.6338 125.291 21.5791C123.906 23.7421 122.411 25.8131 120.88 27.792C118.365 30.9215 115.741 33.9588 113.189 37.0883C112.716 37.5945 112.242 38.0546 111.695 38.5609C111.221 38.0546 110.82 37.5945 110.31 36.9963C110.747 36.0758 111.075 35.2014 111.549 34.4191C112.825 32.2561 114.101 30.139 115.522 28.0681C119.641 22.1314 123.833 16.1487 127.987 10.2119C128.242 9.79776 128.497 9.3375 128.716 9.01535ZM125.619 5.01161C127.367 5.60988 128.716 6.53022 129.7 7.86483C130.648 6.7143 131.668 5.42581 132.762 3.99916C131.267 3.76905 127.185 4.45936 125.619 5.01161ZM117.891 28.5743C120.516 26.3193 125.619 18.8639 126.565 15.9185C123.541 19.9684 120.625 24.2023 117.891 28.5743ZM141.206 18.2656C141.862 17.7134 142.336 17.2531 142.883 16.7009C143.247 17.1151 143.612 17.4833 144.013 17.9435C142.664 19.7384 141.169 21.211 140.112 23.1899C139.347 24.5706 138.946 26.4113 140.841 25.3989C144.413 23.6501 146.309 23.0058 149.444 21.4411C149.881 21.349 150.245 21.5331 150.355 22.3154C147.475 23.8802 145.653 24.6625 142.737 26.5494C140.404 27.884 138.545 27.5158 137.597 24.4784C136.139 25.5829 135.082 26.4574 133.989 27.2858C132.786 28.1602 132.531 28.0221 131.182 26.5034C131.474 23.9723 132.239 22.6377 133.515 21.257C133.843 20.9349 134.171 20.5667 134.536 20.1985C136.467 18.3577 138.618 17.2532 141.206 18.2656ZM133.442 24.8926C135.957 23.1438 137.67 21.9473 140.112 19.6923C137.379 19.5082 135.301 20.8428 133.442 24.8926ZM149.2 26.6875C147.925 28.5743 146.722 30.1391 145.665 31.7499C144.571 33.3606 143.587 34.9713 142.53 36.7201C142.02 36.2599 141.655 35.8917 141.254 35.5235C141.4 34.9252 141.51 34.419 141.765 34.0048C144.571 28.7124 147.56 23.512 151.205 19.048C151.752 18.3577 152.408 17.7133 153.028 17.069C153.392 16.6548 153.866 16.4248 154.559 16.793C154.632 17.1152 154.741 17.7133 154.887 18.3576C153.137 18.4957 151.57 21.257 150.731 22.8217C152.882 21.349 155.761 18.2657 158.058 17.2992C159.078 16.839 160.063 17.1152 160.937 18.0816C161.739 19.0481 161.338 20.8888 160.682 22.0854C162.65 21.8092 164.4 21.7173 166.405 21.3951C166.988 21.3031 167.571 21.3951 167.68 22.7757C165.457 23.0519 161.885 23.4661 159.479 24.0643C158.714 24.2944 157.948 24.7085 157.256 25.1227C155.397 26.2272 153.429 27.0096 151.351 27.4698C150.586 27.6079 149.893 27.5619 149.2 26.6875ZM151.132 25.2608C154.668 24.1103 158.422 23.2819 160.172 19.048C157.948 18.7259 154.923 21.0729 151.132 25.2608ZM174.63 20.1525C174.667 21.303 170.949 22.8217 167.559 23.374C167.34 26.2273 170.876 25.445 172.261 25.3529C176.671 24.4785 180.572 22.8218 184.581 21.3951C185.055 22.3616 184.472 22.6376 184.253 22.7297C179.114 24.8926 174.12 27.3318 169.673 27.3318C165.919 27.3318 164.789 22.5456 168.033 19.9224C169.491 18.6798 171.167 18.0356 173.099 18.0816C173.938 18.1276 174.448 18.6798 174.63 20.1525ZM169.345 21.3951C170.475 21.073 171.313 20.7968 172.115 19.9684C170.985 19.9684 170.329 20.4287 169.345 21.3951ZM192.252 18.2196C190.502 18.8639 189.08 19.8303 187.695 21.0729C189.226 21.349 190.757 21.0729 191.996 22.3154C193.965 21.7632 196.37 20.7507 198.156 20.9348C198.776 21.0269 198.703 21.3951 198.812 22.4076C196.698 22.2695 195.24 23.0979 193.272 23.6501C192.397 23.9723 191.523 24.4325 190.721 24.8467C188.351 25.9972 186.019 27.2398 183.577 28.3903C182.119 29.1266 180.624 29.7709 179.13 30.4613C178.401 30.7834 177.854 30.7374 177.453 29.6789C177.599 28.8965 178.146 28.8045 178.656 28.5284C182.009 26.9176 185.326 25.2148 188.68 23.604C188.971 23.466 189.226 23.282 189.882 22.9138C188.424 22.6377 187.331 22.7757 186.201 23.0058C185.399 23.2359 184.707 23.0518 184.269 22.2234C183.905 21.6252 184.087 20.9809 184.634 20.7508C186.42 19.6003 188.206 18.4037 189.992 17.3912C190.721 16.9771 191.523 16.7929 192.252 18.2196ZM211.197 21.3951L211.562 22.8217C208.208 24.7085 203.288 27.746 199.861 28.3903C197.747 28.8505 196.326 26.7796 196.982 24.2024C197.274 23.0058 197.857 21.9934 199.497 18.4498C198.258 18.7719 197.346 19.002 196.326 19.3241C196.144 19.094 195.961 18.8179 195.743 18.4498C194.941 17.3453 199.169 17.1151 200.773 16.4247C207.443 7.49666 209.521 5.24174 212.254 4.2753C213.275 5.28777 213.421 5.74791 212.765 6.76037C212.145 7.81885 211.452 8.78533 210.651 9.61371C208.5 12.0068 206.459 13.9857 204.563 16.1026C206.459 16.1026 209.521 15.6885 209.448 17.5293C207.443 17.6674 205.365 17.5293 203.215 17.8975C202.304 17.9895 201.538 18.3577 201.028 19.2781C199.861 21.5791 198.549 23.9262 198.003 26.5955C198.695 26.8256 199.278 26.8716 201.611 25.8591C204.673 24.5245 208.318 22.9598 211.197 21.3951ZM211.197 6.85238C209.739 7.58871 205.001 13.5715 204.053 15.2283C206.678 12.0988 211.234 7.86484 211.197 6.85238ZM218.256 22.4535C220.48 22.2234 222.594 21.6712 224.708 21.3951C225.145 21.3491 225.109 21.8553 225.364 22.4996C223.797 23.0058 220.152 24.0183 218.803 24.2024C217.673 24.3405 216.762 23.42 216.762 22.1314C216.798 21.3491 216.835 20.3827 216.908 19.2321C214.247 20.2446 212.06 22.8217 210.347 25.3069C209.873 26.0892 209.399 26.8256 208.816 27.654C208.415 27.3318 208.087 27.0556 207.795 26.8255C208.306 24.7546 210.638 21.3951 213.882 18.1276C214.502 18.0815 215.122 18.1276 215.632 17.9435C216.981 17.3453 218.183 18.2657 218.366 19.8304C218.439 20.7048 218.256 21.5791 218.256 22.4535ZM230.139 25.7211C229.92 26.0892 229.264 27.0556 229.082 27.4238C232.362 25.675 235.898 22.8678 238.377 21.4871C238.814 22.6837 238.705 22.9598 238.595 23.0058C236.19 24.5705 233.128 26.3193 231.014 27.93C225.364 32.1639 224.489 36.0757 221.646 39.4353C221.063 40.1256 220.443 40.8619 219.423 41L218.329 39.8035C218.329 39.4814 218.329 39.2512 218.402 39.0671C218.876 37.5024 219.787 36.3059 220.698 35.2474C221.974 33.7287 223.214 32.256 224.599 31.0134C226.458 29.4027 227.624 27.0097 229.118 24.4325C227.77 24.8927 226.53 25.6751 225.255 26.2273C223.469 25.1688 223.286 24.5245 223.979 22.5916C224.708 20.6587 225.984 18.5878 227.332 17.2992L228.134 18.2656C226.749 20.0604 225.692 21.9473 224.963 24.4784C226.858 23.9722 228.28 22.7757 229.738 21.6252C231.05 20.5207 232.289 19.1861 233.675 17.7594C233.82 17.9435 234.076 18.2197 234.513 18.5878C233.675 19.8304 232.946 20.9349 232.253 22.0394C231.561 23.0979 230.977 24.2944 230.139 25.7211Z" fill="black"/>
</svg>
