<svg width="192" height="236" viewBox="0 0 192 236" fill="none" xmlns="http://www.w3.org/2000/svg">
<g filter="url(#filter0_n_615_4694)">
<path d="M99.4379 84.2414L89.5616 47.9035L76.5538 14.27C74.0969 7.91733 68.6793 3.17458 62.0576 1.57946C53.1703 -0.561406 43.9288 3.3649 39.3002 11.248L5.68269 68.5037C-0.0885885 78.3331 -0.554113 90.3994 4.44268 100.644L61.9459 218.541C65.0305 224.866 71.4509 228.877 78.4871 228.877H181.039L184.797 233.797C185.563 234.799 186.865 235.229 188.077 234.88C191.484 233.899 190.775 228.877 187.23 228.877H181.039L156.786 197.133C153.152 192.377 146.815 190.59 141.232 192.749C135.293 195.045 128.558 192.867 125.088 187.528L114.726 171.587C111.998 167.391 110.23 162.644 109.548 157.685L99.4379 84.2414Z" fill="url(#paint0_linear_615_4694)"/>
<path d="M99.4379 84.2414L89.5616 47.9035L76.5538 14.27C74.0969 7.91733 68.6793 3.17458 62.0576 1.57946C53.1703 -0.561406 43.9288 3.3649 39.3002 11.248L5.68269 68.5037C-0.0885885 78.3331 -0.554113 90.3994 4.44268 100.644L61.9459 218.541C65.0305 224.866 71.4509 228.877 78.4871 228.877H181.039L184.797 233.797C185.563 234.799 186.865 235.229 188.077 234.88C191.484 233.899 190.775 228.877 187.23 228.877H181.039L156.786 197.133C153.152 192.377 146.815 190.59 141.232 192.749C135.293 195.045 128.558 192.867 125.088 187.528L114.726 171.587C111.998 167.391 110.23 162.644 109.548 157.685L99.4379 84.2414Z" fill="url(#paint1_linear_615_4694)" fill-opacity="0.2"/>
<path d="M99.4379 84.2414L89.5616 47.9035L76.5538 14.27C74.0969 7.91733 68.6793 3.17458 62.0576 1.57946C53.1703 -0.561406 43.9288 3.3649 39.3002 11.248L5.68269 68.5037C-0.0885885 78.3331 -0.554113 90.3994 4.44268 100.644L61.9459 218.541C65.0305 224.866 71.4509 228.877 78.4871 228.877H181.039L184.797 233.797C185.563 234.799 186.865 235.229 188.077 234.88C191.484 233.899 190.775 228.877 187.23 228.877H181.039L156.786 197.133C153.152 192.377 146.815 190.59 141.232 192.749C135.293 195.045 128.558 192.867 125.088 187.528L114.726 171.587C111.998 167.391 110.23 162.644 109.548 157.685L99.4379 84.2414Z" stroke="#87ACA1" stroke-width="2"/>
</g>
<defs>
<filter id="filter0_n_615_4694" x="0" y="0" width="191.295" height="236" filterUnits="userSpaceOnUse" color-interpolation-filters="sRGB">
<feFlood flood-opacity="0" result="BackgroundImageFix"/>
<feBlend mode="normal" in="SourceGraphic" in2="BackgroundImageFix" result="shape"/>
<feTurbulence type="fractalNoise" baseFrequency="2 2" stitchTiles="stitch" numOctaves="3" result="noise" seed="7129" />
<feColorMatrix in="noise" type="luminanceToAlpha" result="alphaNoise" />
<feComponentTransfer in="alphaNoise" result="coloredNoise1">
<feFuncA type="discrete" tableValues="1 1 1 1 1 1 1 1 1 1 1 1 1 1 1 1 1 1 1 1 1 1 1 1 1 1 1 1 1 1 1 1 1 1 1 1 1 1 1 1 1 1 1 1 1 1 1 1 1 1 1 0 0 0 0 0 0 0 0 0 0 0 0 0 0 0 0 0 0 0 0 0 0 0 0 0 0 0 0 0 0 0 0 0 0 0 0 0 0 0 0 0 0 0 0 0 0 0 0 0 "/>
</feComponentTransfer>
<feComposite operator="in" in2="shape" in="coloredNoise1" result="noise1Clipped" />
<feFlood flood-color="rgba(0, 0, 0, 0.25)" result="color1Flood" />
<feComposite operator="in" in2="noise1Clipped" in="color1Flood" result="color1" />
<feMerge result="effect1_noise_615_4694">
<feMergeNode in="shape" />
<feMergeNode in="color1" />
</feMerge>
</filter>
<linearGradient id="paint0_linear_615_4694" x1="143.74" y1="42.3241" x2="115.046" y2="191.535" gradientUnits="userSpaceOnUse">
<stop stop-color="#2A5751"/>
<stop offset="1" stop-color="#07534C"/>
</linearGradient>
<linearGradient id="paint1_linear_615_4694" x1="136.403" y1="38.8906" x2="55.452" y2="91.506" gradientUnits="userSpaceOnUse">
<stop stop-color="#B46510"/>
<stop offset="1" stop-opacity="0"/>
</linearGradient>
</defs>
</svg>
