<svg width="184" height="186" viewBox="0 0 184 186" fill="none" xmlns="http://www.w3.org/2000/svg">
<g filter="url(#filter0_n_615_4656)">
<path d="M60.0985 17.0939L61.6107 15.3011C67.2892 8.56897 75.3555 4.29932 84.1155 3.38893L95.6988 2.18513C104.544 1.2659 113.398 3.84389 120.367 9.36784L135.202 21.1269C140.006 24.9354 145.75 27.3758 151.827 28.1902L152.308 28.2546C170.495 30.6922 183.478 47.1046 181.664 65.3643L177.817 104.083C177.046 111.843 173.635 119.103 168.153 124.65L119.491 173.884C113.095 180.355 104.375 183.997 95.2768 183.997H36.0627C14.2945 183.997 -1.8821 163.85 2.8212 142.596L9.89498 110.629L13.4973 91.2192C14.9633 83.32 19.1756 76.1937 25.3891 71.1007L31.3155 66.2431C36.9236 61.6464 40.9176 55.3791 42.7157 48.3543L44.7663 40.3425C46.0656 35.2662 48.5191 30.5582 51.9358 26.5854L60.0985 17.0939Z" fill="url(#paint0_linear_615_4656)"/>
<path d="M60.0985 17.0939L61.6107 15.3011C67.2892 8.56897 75.3555 4.29932 84.1155 3.38893L95.6988 2.18513C104.544 1.2659 113.398 3.84389 120.367 9.36784L135.202 21.1269C140.006 24.9354 145.75 27.3758 151.827 28.1902L152.308 28.2546C170.495 30.6922 183.478 47.1046 181.664 65.3643L177.817 104.083C177.046 111.843 173.635 119.103 168.153 124.65L119.491 173.884C113.095 180.355 104.375 183.997 95.2768 183.997H36.0627C14.2945 183.997 -1.8821 163.85 2.8212 142.596L9.89498 110.629L13.4973 91.2192C14.9633 83.32 19.1756 76.1937 25.3891 71.1007L31.3155 66.2431C36.9236 61.6464 40.9176 55.3791 42.7157 48.3543L44.7663 40.3425C46.0656 35.2662 48.5191 30.5582 51.9358 26.5854L60.0985 17.0939Z" stroke="#FFB47B" stroke-width="4"/>
</g>
<defs>
<filter id="filter0_n_615_4656" x="0" y="0" width="183.837" height="186" filterUnits="userSpaceOnUse" color-interpolation-filters="sRGB">
<feFlood flood-opacity="0" result="BackgroundImageFix"/>
<feBlend mode="normal" in="SourceGraphic" in2="BackgroundImageFix" result="shape"/>
<feTurbulence type="fractalNoise" baseFrequency="2 2" stitchTiles="stitch" numOctaves="3" result="noise" seed="7129" />
<feColorMatrix in="noise" type="luminanceToAlpha" result="alphaNoise" />
<feComponentTransfer in="alphaNoise" result="coloredNoise1">
<feFuncA type="discrete" tableValues="1 1 1 1 1 1 1 1 1 1 1 1 1 1 1 1 1 1 1 1 1 1 1 1 1 1 1 1 1 1 1 1 1 1 1 1 1 1 1 1 1 1 1 1 1 1 1 1 1 1 1 0 0 0 0 0 0 0 0 0 0 0 0 0 0 0 0 0 0 0 0 0 0 0 0 0 0 0 0 0 0 0 0 0 0 0 0 0 0 0 0 0 0 0 0 0 0 0 0 0 "/>
</feComponentTransfer>
<feComposite operator="in" in2="shape" in="coloredNoise1" result="noise1Clipped" />
<feFlood flood-color="rgba(0, 0, 0, 0.1)" result="color1Flood" />
<feComposite operator="in" in2="noise1Clipped" in="color1Flood" result="color1" />
<feMerge result="effect1_noise_615_4656">
<feMergeNode in="shape" />
<feMergeNode in="color1" />
</feMerge>
</filter>
<linearGradient id="paint0_linear_615_4656" x1="51.5777" y1="-3.76905" x2="44.3446" y2="99.6118" gradientUnits="userSpaceOnUse">
<stop stop-color="#F3D496"/>
<stop offset="1" stop-color="#EAA560"/>
</linearGradient>
</defs>
</svg>
