<svg width="136" height="230" viewBox="0 0 136 230" fill="none" xmlns="http://www.w3.org/2000/svg">
<g filter="url(#filter0_n_615_4696)">
<path d="M58.6115 19.9888L47.9391 9.16722C40.6971 1.824 29.947 -0.834031 20.1174 2.28817C8.73291 5.90425 0.999603 16.4746 0.999603 28.4196V194.972C0.999603 213.765 16.2343 228.999 35.0271 228.999H100.645C122.381 228.999 138.544 208.9 133.88 187.671L125.961 151.619C124.099 143.145 119.071 135.702 111.905 130.812L110.599 129.921C104.147 125.519 99.4061 119.031 97.1721 111.546L87.0614 77.6745C86.5094 75.8253 86.1157 73.9324 85.8846 72.0164L83.4077 51.4803C82.1612 41.1461 76.2532 31.9508 67.3719 26.522L65.0921 25.1284C62.7309 23.6851 60.5546 21.9592 58.6115 19.9888Z" fill="url(#paint0_linear_615_4696)"/>
<path d="M58.6115 19.9888L47.9391 9.16722C40.6971 1.824 29.947 -0.834031 20.1174 2.28817C8.73291 5.90425 0.999603 16.4746 0.999603 28.4196V194.972C0.999603 213.765 16.2343 228.999 35.0271 228.999H100.645C122.381 228.999 138.544 208.9 133.88 187.671L125.961 151.619C124.099 143.145 119.071 135.702 111.905 130.812L110.599 129.921C104.147 125.519 99.4061 119.031 97.1721 111.546L87.0614 77.6745C86.5094 75.8253 86.1157 73.9324 85.8846 72.0164L83.4077 51.4803C82.1612 41.1461 76.2532 31.9508 67.3719 26.522L65.0921 25.1284C62.7309 23.6851 60.5546 21.9592 58.6115 19.9888Z" fill="url(#paint1_linear_615_4696)" fill-opacity="0.2"/>
<path d="M58.6115 19.9888L47.9391 9.16722C40.6971 1.824 29.947 -0.834031 20.1174 2.28817C8.73291 5.90425 0.999603 16.4746 0.999603 28.4196V194.972C0.999603 213.765 16.2343 228.999 35.0271 228.999H100.645C122.381 228.999 138.544 208.9 133.88 187.671L125.961 151.619C124.099 143.145 119.071 135.702 111.905 130.812L110.599 129.921C104.147 125.519 99.4061 119.031 97.1721 111.546L87.0614 77.6745C86.5094 75.8253 86.1157 73.9324 85.8846 72.0164L83.4077 51.4803C82.1612 41.1461 76.2532 31.9508 67.3719 26.522L65.0921 25.1284C62.7309 23.6851 60.5546 21.9592 58.6115 19.9888Z" stroke="#87ACA1" stroke-width="2"/>
</g>
<defs>
<filter id="filter0_n_615_4696" x="0" y="0" width="135.688" height="230" filterUnits="userSpaceOnUse" color-interpolation-filters="sRGB">
<feFlood flood-opacity="0" result="BackgroundImageFix"/>
<feBlend mode="normal" in="SourceGraphic" in2="BackgroundImageFix" result="shape"/>
<feTurbulence type="fractalNoise" baseFrequency="2 2" stitchTiles="stitch" numOctaves="3" result="noise" seed="7129" />
<feColorMatrix in="noise" type="luminanceToAlpha" result="alphaNoise" />
<feComponentTransfer in="alphaNoise" result="coloredNoise1">
<feFuncA type="discrete" tableValues="1 1 1 1 1 1 1 1 1 1 1 1 1 1 1 1 1 1 1 1 1 1 1 1 1 1 1 1 1 1 1 1 1 1 1 1 1 1 1 1 1 1 1 1 1 1 1 1 1 1 1 0 0 0 0 0 0 0 0 0 0 0 0 0 0 0 0 0 0 0 0 0 0 0 0 0 0 0 0 0 0 0 0 0 0 0 0 0 0 0 0 0 0 0 0 0 0 0 0 0 "/>
</feComponentTransfer>
<feComposite operator="in" in2="shape" in="coloredNoise1" result="noise1Clipped" />
<feFlood flood-color="rgba(0, 0, 0, 0.25)" result="color1Flood" />
<feComposite operator="in" in2="noise1Clipped" in="color1Flood" result="color1" />
<feMerge result="effect1_noise_615_4696">
<feMergeNode in="shape" />
<feMergeNode in="color1" />
</feMerge>
</filter>
<linearGradient id="paint0_linear_615_4696" x1="77.7651" y1="42.4151" x2="49.066" y2="191.651" gradientUnits="userSpaceOnUse">
<stop stop-color="#37CFC1"/>
<stop offset="1" stop-color="#07534C"/>
</linearGradient>
<linearGradient id="paint1_linear_615_4696" x1="70.4273" y1="38.981" x2="-10.5375" y2="91.6052" gradientUnits="userSpaceOnUse">
<stop stop-color="#B46510"/>
<stop offset="1" stop-opacity="0"/>
</linearGradient>
</defs>
</svg>
