<svg width="211" height="250" viewBox="0 0 211 250" fill="none" xmlns="http://www.w3.org/2000/svg">
<g filter="url(#filter0_n_615_4702)">
<path d="M91.2184 21.491L88.2145 17.1853C82.6989 9.27948 74.0916 4.08112 64.5271 2.87935L51.7008 1.26774C41.5168 -0.011862 31.2989 3.36933 23.8884 10.4711L11.4961 22.347C3.30721 30.1947 -0.437935 41.6038 1.50682 52.7779L30.6911 220.464C33.5301 236.776 47.689 248.684 64.2466 248.684H125.161C146.428 248.684 162.494 229.41 158.665 208.492L153.855 182.211C150.623 164.554 163.728 148.11 181.661 147.32C205.051 146.29 218.038 119.792 204.523 100.674L197.023 90.0647L190.055 81.8844C186.946 78.234 183.101 75.2813 178.772 73.2194L169.448 68.7788L115.31 46.3785C109.395 43.9308 104.288 39.8654 100.578 34.6485L91.2184 21.491Z" fill="url(#paint0_linear_615_4702)"/>
<path d="M91.2184 21.491L88.2145 17.1853C82.6989 9.27948 74.0916 4.08112 64.5271 2.87935L51.7008 1.26774C41.5168 -0.011862 31.2989 3.36933 23.8884 10.4711L11.4961 22.347C3.30721 30.1947 -0.437935 41.6038 1.50682 52.7779L30.6911 220.464C33.5301 236.776 47.689 248.684 64.2466 248.684H125.161C146.428 248.684 162.494 229.41 158.665 208.492L153.855 182.211C150.623 164.554 163.728 148.11 181.661 147.32C205.051 146.29 218.038 119.792 204.523 100.674L197.023 90.0647L190.055 81.8844C186.946 78.234 183.101 75.2813 178.772 73.2194L169.448 68.7788L115.31 46.3785C109.395 43.9308 104.288 39.8654 100.578 34.6485L91.2184 21.491Z" stroke="#FFB47B" stroke-width="2"/>
</g>
<defs>
<filter id="filter0_n_615_4702" x="0" y="0" width="211" height="249.685" filterUnits="userSpaceOnUse" color-interpolation-filters="sRGB">
<feFlood flood-opacity="0" result="BackgroundImageFix"/>
<feBlend mode="normal" in="SourceGraphic" in2="BackgroundImageFix" result="shape"/>
<feTurbulence type="fractalNoise" baseFrequency="2 2" stitchTiles="stitch" numOctaves="3" result="noise" seed="7129" />
<feColorMatrix in="noise" type="luminanceToAlpha" result="alphaNoise" />
<feComponentTransfer in="alphaNoise" result="coloredNoise1">
<feFuncA type="discrete" tableValues="1 1 1 1 1 1 1 1 1 1 1 1 1 1 1 1 1 1 1 1 1 1 1 1 1 1 1 1 1 1 1 1 1 1 1 1 1 1 1 1 1 1 1 1 1 1 1 1 1 1 1 0 0 0 0 0 0 0 0 0 0 0 0 0 0 0 0 0 0 0 0 0 0 0 0 0 0 0 0 0 0 0 0 0 0 0 0 0 0 0 0 0 0 0 0 0 0 0 0 0 "/>
</feComponentTransfer>
<feComposite operator="in" in2="shape" in="coloredNoise1" result="noise1Clipped" />
<feFlood flood-color="rgba(0, 0, 0, 0.1)" result="color1Flood" />
<feComposite operator="in" in2="noise1Clipped" in="color1Flood" result="color1" />
<feMerge result="effect1_noise_615_4702">
<feMergeNode in="shape" />
<feMergeNode in="color1" />
</feMerge>
</filter>
<linearGradient id="paint0_linear_615_4702" x1="63.9815" y1="28.5722" x2="63.9815" y2="71.4592" gradientUnits="userSpaceOnUse">
<stop stop-color="#DD8C57"/>
<stop offset="1" stop-color="#D1873E"/>
</linearGradient>
</defs>
</svg>
