<svg width="268" height="333" viewBox="0 0 268 333" fill="none" xmlns="http://www.w3.org/2000/svg">
<g filter="url(#filter0_n_615_4701)">
<path d="M149.583 29.9139L134.404 12.0372C132.023 9.23255 128.651 7.4559 124.991 7.07805L65.297 0.91497C61.608 0.534097 57.9156 1.60419 55.0019 3.8986L6.28104 42.2641C2.0125 45.6254 0.0227306 51.1188 1.14852 56.434L57.1485 320.824C58.5456 327.42 64.3681 332.138 71.1105 332.138H252.882C262.015 332.138 268.798 323.679 266.812 314.764L241.09 199.286L231.346 147.131C230.726 143.811 228.948 140.818 226.329 138.685L189.95 109.062C187.586 107.138 185.901 104.507 185.141 101.556L174.765 61.2835C174.215 59.1486 173.178 57.1702 171.735 55.5034L149.583 29.9139Z" fill="url(#paint0_linear_615_4701)"/>
<path d="M149.583 29.9139L134.404 12.0372C132.023 9.23255 128.651 7.4559 124.991 7.07805L65.297 0.91497C61.608 0.534097 57.9156 1.60419 55.0019 3.8986L6.28104 42.2641C2.0125 45.6254 0.0227306 51.1188 1.14852 56.434L57.1485 320.824C58.5456 327.42 64.3681 332.138 71.1105 332.138H252.882C262.015 332.138 268.798 323.679 266.812 314.764L241.09 199.286L231.346 147.131C230.726 143.811 228.948 140.818 226.329 138.685L189.95 109.062C187.586 107.138 185.901 104.507 185.141 101.556L174.765 61.2835C174.215 59.1486 173.178 57.1702 171.735 55.5034L149.583 29.9139Z" stroke="#FFB47B" stroke-width="1.67489"/>
</g>
<defs>
<filter id="filter0_n_615_4701" x="0" y="0" width="268" height="332.978" filterUnits="userSpaceOnUse" color-interpolation-filters="sRGB">
<feFlood flood-opacity="0" result="BackgroundImageFix"/>
<feBlend mode="normal" in="SourceGraphic" in2="BackgroundImageFix" result="shape"/>
<feTurbulence type="fractalNoise" baseFrequency="4.776435375213623 4.776435375213623" stitchTiles="stitch" numOctaves="3" result="noise" seed="7129" />
<feColorMatrix in="noise" type="luminanceToAlpha" result="alphaNoise" />
<feComponentTransfer in="alphaNoise" result="coloredNoise1">
<feFuncA type="discrete" tableValues="1 1 1 1 1 1 1 1 1 1 1 1 1 1 1 1 1 1 1 1 1 1 1 1 1 1 1 1 1 1 1 1 1 1 1 1 1 1 1 1 1 1 1 1 1 1 1 1 1 1 1 0 0 0 0 0 0 0 0 0 0 0 0 0 0 0 0 0 0 0 0 0 0 0 0 0 0 0 0 0 0 0 0 0 0 0 0 0 0 0 0 0 0 0 0 0 0 0 0 0 "/>
</feComponentTransfer>
<feComposite operator="in" in2="shape" in="coloredNoise1" result="noise1Clipped" />
<feFlood flood-color="rgba(0, 0, 0, 0.1)" result="color1Flood" />
<feComposite operator="in" in2="noise1Clipped" in="color1Flood" result="color1" />
<feMerge result="effect1_noise_615_4701">
<feMergeNode in="shape" />
<feMergeNode in="color1" />
</feMerge>
</filter>
<linearGradient id="paint0_linear_615_4701" x1="165.114" y1="-7.86414" x2="178.126" y2="179.347" gradientUnits="userSpaceOnUse">
<stop stop-color="#F3D496"/>
<stop offset="1" stop-color="#EAA560"/>
</linearGradient>
</defs>
</svg>
