<svg width="230" height="217" viewBox="0 0 230 217" fill="none" xmlns="http://www.w3.org/2000/svg">
<g filter="url(#filter0_n_615_4713)">
<path d="M136.537 19.457L146.003 7.72574C147.436 5.95004 149.514 4.81461 151.782 4.56818L188.697 0.557747C191.014 0.305985 193.335 1.00319 195.13 2.49047L225.674 27.7992C228.118 29.8243 229.251 33.0286 228.625 36.1403L193.715 209.572C192.905 213.597 189.368 216.493 185.262 216.493H72.1462C66.6653 216.493 62.5753 211.446 63.7104 206.084L77.7224 139.892C78.8298 134.661 74.958 129.693 69.6147 129.49L8.81881 127.175C1.7032 126.904 -2.03582 118.613 2.47151 113.1L30.4114 78.9284L40.8971 68.2841C41.7113 67.4577 42.6838 66.804 43.7565 66.3622L58.0693 60.468L119.211 38.5943C120.678 38.0694 121.976 37.1569 122.966 35.9536L136.537 19.457Z" fill="url(#paint0_linear_615_4713)"/>
<path d="M136.537 19.457L146.003 7.72574C147.436 5.95004 149.514 4.81461 151.782 4.56818L188.697 0.557747C191.014 0.305985 193.335 1.00319 195.13 2.49047L225.674 27.7992C228.118 29.8243 229.251 33.0286 228.625 36.1403L193.715 209.572C192.905 213.597 189.368 216.493 185.262 216.493H72.1462C66.6653 216.493 62.5753 211.446 63.7104 206.084L77.7224 139.892C78.8298 134.661 74.958 129.693 69.6147 129.49L8.81881 127.175C1.7032 126.904 -2.03582 118.613 2.47151 113.1L30.4114 78.9284L40.8971 68.2841C41.7113 67.4577 42.6838 66.804 43.7565 66.3622L58.0693 60.468L119.211 38.5943C120.678 38.0694 121.976 37.1569 122.966 35.9536L136.537 19.457Z" stroke="#FFB47B" stroke-width="1.01384"/>
</g>
<defs>
<filter id="filter0_n_615_4713" x="0" y="0" width="229.302" height="217" filterUnits="userSpaceOnUse" color-interpolation-filters="sRGB">
<feFlood flood-opacity="0" result="BackgroundImageFix"/>
<feBlend mode="normal" in="SourceGraphic" in2="BackgroundImageFix" result="shape"/>
<feTurbulence type="fractalNoise" baseFrequency="7.8907566070556641 7.8907566070556641" stitchTiles="stitch" numOctaves="3" result="noise" seed="7129" />
<feColorMatrix in="noise" type="luminanceToAlpha" result="alphaNoise" />
<feComponentTransfer in="alphaNoise" result="coloredNoise1">
<feFuncA type="discrete" tableValues="1 1 1 1 1 1 1 1 1 1 1 1 1 1 1 1 1 1 1 1 1 1 1 1 1 1 1 1 1 1 1 1 1 1 1 1 1 1 1 1 1 1 1 1 1 1 1 1 1 1 1 0 0 0 0 0 0 0 0 0 0 0 0 0 0 0 0 0 0 0 0 0 0 0 0 0 0 0 0 0 0 0 0 0 0 0 0 0 0 0 0 0 0 0 0 0 0 0 0 0 "/>
</feComponentTransfer>
<feComposite operator="in" in2="shape" in="coloredNoise1" result="noise1Clipped" />
<feFlood flood-color="rgba(0, 0, 0, 0.1)" result="color1Flood" />
<feComposite operator="in" in2="noise1Clipped" in="color1Flood" result="color1" />
<feMerge result="effect1_noise_615_4713">
<feMergeNode in="shape" />
<feMergeNode in="color1" />
</feMerge>
</filter>
<linearGradient id="paint0_linear_615_4713" x1="163.857" y1="25.5983" x2="163.857" y2="62.7926" gradientUnits="userSpaceOnUse">
<stop stop-color="#DD8C57"/>
<stop offset="1" stop-color="#D1873E"/>
</linearGradient>
</defs>
</svg>
