<svg width="127" height="229" viewBox="0 0 127 229" fill="none" xmlns="http://www.w3.org/2000/svg">
<g filter="url(#filter0_n_615_4693)">
<path d="M48.8164 33.4432L36.8451 6.33344C34.5697 1.18085 28.1551 -0.610727 23.5391 2.61719C21.4091 4.10672 20.0325 6.44925 19.7677 9.0349L1.17942 190.535C-0.873289 210.578 14.8551 228 35.003 228H115.415C124.06 228 128.314 217.482 122.101 211.472C121.28 210.678 120.607 209.744 120.113 208.714L98.9698 164.574C97.5897 161.693 96.6225 158.632 96.0968 155.481L82.8124 75.8485C82.6093 74.6307 82.5071 73.3981 82.5071 72.1634C82.5071 63.5164 77.5291 55.642 69.718 51.9329L64.3035 49.3619C57.3998 46.0837 51.9036 40.4344 48.8164 33.4432Z" fill="url(#paint0_linear_615_4693)"/>
<path d="M48.8164 33.4432L36.8451 6.33344C34.5697 1.18085 28.1551 -0.610727 23.5391 2.61719C21.4091 4.10672 20.0325 6.44925 19.7677 9.0349L1.17942 190.535C-0.873289 210.578 14.8551 228 35.003 228H115.415C124.06 228 128.314 217.482 122.101 211.472C121.28 210.678 120.607 209.744 120.113 208.714L98.9698 164.574C97.5897 161.693 96.6225 158.632 96.0968 155.481L82.8124 75.8485C82.6093 74.6307 82.5071 73.3981 82.5071 72.1634C82.5071 63.5164 77.5291 55.642 69.718 51.9329L64.3035 49.3619C57.3998 46.0837 51.9036 40.4344 48.8164 33.4432Z" fill="url(#paint1_linear_615_4693)" fill-opacity="0.2"/>
<path d="M48.8164 33.4432L36.8451 6.33344C34.5697 1.18085 28.1551 -0.610727 23.5391 2.61719C21.4091 4.10672 20.0325 6.44925 19.7677 9.0349L1.17942 190.535C-0.873289 210.578 14.8551 228 35.003 228H115.415C124.06 228 128.314 217.482 122.101 211.472C121.28 210.678 120.607 209.744 120.113 208.714L98.9698 164.574C97.5897 161.693 96.6225 158.632 96.0968 155.481L82.8124 75.8485C82.6093 74.6307 82.5071 73.3981 82.5071 72.1634C82.5071 63.5164 77.5291 55.642 69.718 51.9329L64.3035 49.3619C57.3998 46.0837 51.9036 40.4344 48.8164 33.4432Z" stroke="#87ACA1" stroke-width="2"/>
</g>
<defs>
<filter id="filter0_n_615_4693" x="0" y="0" width="126.053" height="229" filterUnits="userSpaceOnUse" color-interpolation-filters="sRGB">
<feFlood flood-opacity="0" result="BackgroundImageFix"/>
<feBlend mode="normal" in="SourceGraphic" in2="BackgroundImageFix" result="shape"/>
<feTurbulence type="fractalNoise" baseFrequency="2 2" stitchTiles="stitch" numOctaves="3" result="noise" seed="7129" />
<feColorMatrix in="noise" type="luminanceToAlpha" result="alphaNoise" />
<feComponentTransfer in="alphaNoise" result="coloredNoise1">
<feFuncA type="discrete" tableValues="1 1 1 1 1 1 1 1 1 1 1 1 1 1 1 1 1 1 1 1 1 1 1 1 1 1 1 1 1 1 1 1 1 1 1 1 1 1 1 1 1 1 1 1 1 1 1 1 1 1 1 0 0 0 0 0 0 0 0 0 0 0 0 0 0 0 0 0 0 0 0 0 0 0 0 0 0 0 0 0 0 0 0 0 0 0 0 0 0 0 0 0 0 0 0 0 0 0 0 0 "/>
</feComponentTransfer>
<feComposite operator="in" in2="shape" in="coloredNoise1" result="noise1Clipped" />
<feFlood flood-color="rgba(0, 0, 0, 0.25)" result="color1Flood" />
<feComposite operator="in" in2="noise1Clipped" in="color1Flood" result="color1" />
<feMerge result="effect1_noise_615_4693">
<feMergeNode in="shape" />
<feMergeNode in="color1" />
</feMerge>
</filter>
<linearGradient id="paint0_linear_615_4693" x1="74.0471" y1="41.5639" x2="45.3708" y2="190.681" gradientUnits="userSpaceOnUse">
<stop stop-color="#869E91"/>
<stop offset="1" stop-color="#07534C"/>
</linearGradient>
<linearGradient id="paint1_linear_615_4693" x1="66.715" y1="38.1326" x2="-14.1855" y2="90.715" gradientUnits="userSpaceOnUse">
<stop stop-color="#B46510"/>
<stop offset="1" stop-opacity="0"/>
</linearGradient>
</defs>
</svg>
