<svg width="26" height="20" viewBox="0 0 26 20" fill="none" xmlns="http://www.w3.org/2000/svg">
<path d="M0.0862386 18.571C0.0862386 18.571 0.0855093 17.4338 1.24096 16.6691C1.24096 16.6691 1.17717 14.6425 2.59797 13.9948C4.01804 13.346 4.92673 13.814 5.1334 13.8592C5.34152 13.9055 6.49625 13.709 6.49625 13.709C6.49625 13.709 4.19155 8.76539 2.73831 7.62561C1.2847 6.48802 0.567003 4.96735 0.135805 3.20976C-0.295393 1.4518 0.416828 -0.120635 0.65703 0.0073024C0.894681 0.135605 1.10317 0.749414 1.10317 0.749414C1.10317 0.749414 1.7199 -0.343707 2.04284 0.162213C2.36688 0.667403 2.48972 1.06252 2.48972 1.06252C2.48972 1.06252 2.93404 0.0998842 3.36633 0.720984C3.79716 1.34208 3.97868 1.80864 3.97868 1.80864C3.97868 1.80864 4.29616 1.08548 4.58739 1.50866C4.87935 1.93147 5.01056 2.35319 5.01056 2.35319C5.01056 2.35319 5.7647 1.7751 5.9331 3.10004C5.9331 3.10004 6.80753 2.50664 7.96371 4.42389C9.12207 6.34077 8.93326 7.98646 10.0082 8.79929C11.0805 9.61211 13.0069 12.8069 13.0069 12.8069C13.0069 12.8069 18.2093 12.6837 22.6328 13.2345C24.7698 13.5016 25.0891 13.6081 25.9548 13.7411C26.5329 13.83 21.5105 14.6505 20.678 14.785C19.847 14.9188 16.4247 14.641 15.862 14.5762C15.3006 14.5109 12.8242 15.2855 12.8242 15.2855C12.8242 15.2855 17.3079 17.0751 18.2191 17.226C19.13 17.3759 21.2896 17.3245 21.9341 17.7677C22.5807 18.2109 22.5625 18.9756 21.7821 19.5643C21.0013 20.1522 19.6243 18.8874 18.8493 18.8426C18.0741 18.797 15.4366 19.8876 13.9108 19.9441C12.3858 20.0013 7.70965 19.9907 6.27281 18.8138C4.83561 17.6365 3.51249 16.6684 2.85093 16.8324C2.18791 16.995 0.724469 17.533 0.0862386 18.571Z" fill="#520A20"/>
</svg>
