<svg width="16" height="12" viewBox="0 0 16 12" fill="none" xmlns="http://www.w3.org/2000/svg">
<path d="M14.9319 10.6587C14.9319 10.6587 14.862 10.1834 14.016 9.84466C14.016 9.84466 13.8064 8.7957 13.1907 8.63995C12.577 8.48354 11.7204 8.20399 11.7204 8.20399C11.7204 8.20399 12.6396 6.63586 13.4217 6.26713C14.2077 5.89906 15.4723 4.70566 15.7719 3.91161C16.0707 3.11756 16.106 1.614 15.7113 1.72582C15.3166 1.83564 15.2174 2.45996 15.2174 2.45996C15.2174 2.45996 15.0663 1.76775 14.7429 1.97741C14.4194 2.18707 14.273 2.74482 14.273 2.74482C14.273 2.74482 14.2583 2.10387 13.9395 2.28491C13.62 2.46728 13.4163 3.01572 13.4163 3.01572C13.4163 3.01572 13.2579 2.55446 12.9105 2.73085C12.5624 2.90922 12.7528 2.99641 12.3201 3.33586C11.8895 3.67199 10.9537 4.45339 10.3486 4.96589C9.74429 5.47906 8.20147 6.42487 8.20147 6.42487C8.20147 6.42487 6.38773 4.68436 6.15811 4.29965C5.92781 3.91628 2.69771 1.77706 2.00882 0.998992C1.31994 0.222251 0.782818 -0.240333 0.549862 0.129734C0.318903 0.497804 0.774169 0.920445 0.774169 0.920445C0.774169 0.920445 0.102578 0.755394 0.149835 1.19801C0.195095 1.64129 0.582484 1.75976 0.582484 1.75976C0.582484 1.75976 -0.00855856 1.63729 9.40849e-05 1.95744C0.00674997 2.27825 0.565828 2.59973 0.565828 2.59973C0.565828 2.59973 -0.0385221 2.38808 0.0959268 2.81606C0.230376 3.24336 0.77484 3.47498 0.77484 3.47498C0.77484 3.47498 0.266997 3.39311 0.347533 3.60876C0.428069 3.82507 1.06703 4.18916 1.15289 4.20181C1.23808 4.21712 1.41578 4.73894 2.00017 5.43847C2.58522 6.14267 4.44223 7.24953 4.7078 7.58366C4.97536 7.91446 5.25491 8.88955 5.25491 8.88955C5.25491 8.88955 3.84652 9.53648 3.01188 9.48989C2.17723 9.44463 1.35056 9.16909 1.08499 9.56245C0.818085 9.95448 0.328882 10.8351 0.86468 11.675C0.86468 11.675 2.96595 10.877 4.07282 11.0234C5.18169 11.1712 7.84937 11.7403 9.65577 11.3296C11.4642 10.9189 12.5065 10.3884 13.1801 10.3512C13.855 10.3132 14.2923 10.2953 14.9319 10.6587Z" fill="#520A20"/>
</svg>
