<svg width="135" height="190" viewBox="0 0 135 190" fill="none" xmlns="http://www.w3.org/2000/svg">
<g filter="url(#filter0_n_615_4698)">
<path d="M77.6814 13.0726L74.4912 11.4209C72.5146 10.3974 70.6845 9.11292 69.0501 7.60189C64.4601 3.35837 58.4389 1.00148 52.1878 1.00148H36.8524C18.2464 1.00148 3.08551 15.9363 2.80604 34.5402L1.00493 154.437C0.719459 173.44 16.0458 188.998 35.0512 188.998H99.3701C122.079 188.998 138.424 167.191 132.052 145.394L120.768 106.793C119.683 103.082 117.458 99.8067 114.408 97.4309C111.136 94.8828 108.82 91.3052 107.835 87.2772L95.1001 35.219C92.7637 25.6682 86.4128 17.5936 77.6814 13.0726Z" fill="url(#paint0_linear_615_4698)"/>
<path d="M77.6814 13.0726L74.4912 11.4209C72.5146 10.3974 70.6845 9.11292 69.0501 7.60189C64.4601 3.35837 58.4389 1.00148 52.1878 1.00148H36.8524C18.2464 1.00148 3.08551 15.9363 2.80604 34.5402L1.00493 154.437C0.719459 173.44 16.0458 188.998 35.0512 188.998H99.3701C122.079 188.998 138.424 167.191 132.052 145.394L120.768 106.793C119.683 103.082 117.458 99.8067 114.408 97.4309C111.136 94.8828 108.82 91.3052 107.835 87.2772L95.1001 35.219C92.7637 25.6682 86.4128 17.5936 77.6814 13.0726Z" fill="url(#paint1_linear_615_4698)" fill-opacity="0.2"/>
<path d="M77.6814 13.0726L74.4912 11.4209C72.5146 10.3974 70.6845 9.11292 69.0501 7.60189C64.4601 3.35837 58.4389 1.00148 52.1878 1.00148H36.8524C18.2464 1.00148 3.08551 15.9363 2.80604 34.5402L1.00493 154.437C0.719459 173.44 16.0458 188.998 35.0512 188.998H99.3701C122.079 188.998 138.424 167.191 132.052 145.394L120.768 106.793C119.683 103.082 117.458 99.8067 114.408 97.4309C111.136 94.8828 108.82 91.3052 107.835 87.2772L95.1001 35.219C92.7637 25.6682 86.4128 17.5936 77.6814 13.0726Z" stroke="#87ACA1" stroke-width="2"/>
</g>
<defs>
<filter id="filter0_n_615_4698" x="0" y="0" width="134.444" height="190" filterUnits="userSpaceOnUse" color-interpolation-filters="sRGB">
<feFlood flood-opacity="0" result="BackgroundImageFix"/>
<feBlend mode="normal" in="SourceGraphic" in2="BackgroundImageFix" result="shape"/>
<feTurbulence type="fractalNoise" baseFrequency="2 2" stitchTiles="stitch" numOctaves="3" result="noise" seed="7129" />
<feColorMatrix in="noise" type="luminanceToAlpha" result="alphaNoise" />
<feComponentTransfer in="alphaNoise" result="coloredNoise1">
<feFuncA type="discrete" tableValues="1 1 1 1 1 1 1 1 1 1 1 1 1 1 1 1 1 1 1 1 1 1 1 1 1 1 1 1 1 1 1 1 1 1 1 1 1 1 1 1 1 1 1 1 1 1 1 1 1 1 1 0 0 0 0 0 0 0 0 0 0 0 0 0 0 0 0 0 0 0 0 0 0 0 0 0 0 0 0 0 0 0 0 0 0 0 0 0 0 0 0 0 0 0 0 0 0 0 0 0 "/>
</feComponentTransfer>
<feComposite operator="in" in2="shape" in="coloredNoise1" result="noise1Clipped" />
<feFlood flood-color="rgba(0, 0, 0, 0.25)" result="color1Flood" />
<feComposite operator="in" in2="noise1Clipped" in="color1Flood" result="color1" />
<feMerge result="effect1_noise_615_4698">
<feMergeNode in="shape" />
<feMergeNode in="color1" />
</feMerge>
</filter>
<linearGradient id="paint0_linear_615_4698" x1="80.1265" y1="35.0786" x2="51.4083" y2="184.414" gradientUnits="userSpaceOnUse">
<stop stop-color="#218980"/>
<stop offset="1" stop-color="#07534C"/>
</linearGradient>
<linearGradient id="paint1_linear_615_4698" x1="72.7837" y1="31.6423" x2="-8.23499" y2="84.3015" gradientUnits="userSpaceOnUse">
<stop stop-color="#B46510"/>
<stop offset="1" stop-opacity="0"/>
</linearGradient>
</defs>
</svg>
