<svg width="145" height="229" viewBox="0 0 145 229" fill="none" xmlns="http://www.w3.org/2000/svg">
<g filter="url(#filter0_n_615_4699)">
<path d="M82.1427 75.8124L69.433 33.0909C66.1535 22.0676 57.54 13.439 46.5224 10.1403L30.3483 5.29772C28.9539 4.88023 27.6203 4.28158 26.3817 3.51709C14.8839 -3.57937 0.169295 5.26297 1.03841 18.7464L12.469 196.08C13.626 214.03 28.5221 227.997 46.5089 227.997H134.994C142.935 227.997 146.842 218.335 141.135 212.815C139.414 211.15 138.443 208.859 138.443 206.465V171.156C138.443 166.546 137.508 161.982 135.695 157.743L119.15 119.061C116.074 111.868 110.618 105.95 103.697 102.301L100.844 100.797C93.6159 96.9856 87.9959 90.7059 85.0069 83.1004L82.1427 75.8124Z" fill="url(#paint0_linear_615_4699)"/>
<path d="M82.1427 75.8124L69.433 33.0909C66.1535 22.0676 57.54 13.439 46.5224 10.1403L30.3483 5.29772C28.9539 4.88023 27.6203 4.28158 26.3817 3.51709C14.8839 -3.57937 0.169295 5.26297 1.03841 18.7464L12.469 196.08C13.626 214.03 28.5221 227.997 46.5089 227.997H134.994C142.935 227.997 146.842 218.335 141.135 212.815C139.414 211.15 138.443 208.859 138.443 206.465V171.156C138.443 166.546 137.508 161.982 135.695 157.743L119.15 119.061C116.074 111.868 110.618 105.95 103.697 102.301L100.844 100.797C93.6159 96.9856 87.9959 90.7059 85.0069 83.1004L82.1427 75.8124Z" fill="url(#paint1_linear_615_4699)" fill-opacity="0.2"/>
<path d="M82.1427 75.8124L69.433 33.0909C66.1535 22.0676 57.54 13.439 46.5224 10.1403L30.3483 5.29772C28.9539 4.88023 27.6203 4.28158 26.3817 3.51709C14.8839 -3.57937 0.169295 5.26297 1.03841 18.7464L12.469 196.08C13.626 214.03 28.5221 227.997 46.5089 227.997H134.994C142.935 227.997 146.842 218.335 141.135 212.815C139.414 211.15 138.443 208.859 138.443 206.465V171.156C138.443 166.546 137.508 161.982 135.695 157.743L119.15 119.061C116.074 111.868 110.618 105.95 103.697 102.301L100.844 100.797C93.6159 96.9856 87.9959 90.7059 85.0069 83.1004L82.1427 75.8124Z" stroke="#87ACA1" stroke-width="2"/>
</g>
<defs>
<filter id="filter0_n_615_4699" x="0" y="0" width="144.852" height="229" filterUnits="userSpaceOnUse" color-interpolation-filters="sRGB">
<feFlood flood-opacity="0" result="BackgroundImageFix"/>
<feBlend mode="normal" in="SourceGraphic" in2="BackgroundImageFix" result="shape"/>
<feTurbulence type="fractalNoise" baseFrequency="2 2" stitchTiles="stitch" numOctaves="3" result="noise" seed="7129" />
<feColorMatrix in="noise" type="luminanceToAlpha" result="alphaNoise" />
<feComponentTransfer in="alphaNoise" result="coloredNoise1">
<feFuncA type="discrete" tableValues="1 1 1 1 1 1 1 1 1 1 1 1 1 1 1 1 1 1 1 1 1 1 1 1 1 1 1 1 1 1 1 1 1 1 1 1 1 1 1 1 1 1 1 1 1 1 1 1 1 1 1 0 0 0 0 0 0 0 0 0 0 0 0 0 0 0 0 0 0 0 0 0 0 0 0 0 0 0 0 0 0 0 0 0 0 0 0 0 0 0 0 0 0 0 0 0 0 0 0 0 "/>
</feComponentTransfer>
<feComposite operator="in" in2="shape" in="coloredNoise1" result="noise1Clipped" />
<feFlood flood-color="rgba(0, 0, 0, 0.25)" result="color1Flood" />
<feComposite operator="in" in2="noise1Clipped" in="color1Flood" result="color1" />
<feMerge result="effect1_noise_615_4699">
<feMergeNode in="shape" />
<feMergeNode in="color1" />
</feMerge>
</filter>
<linearGradient id="paint0_linear_615_4699" x1="91.4789" y1="40.9578" x2="62.7098" y2="190.558" gradientUnits="userSpaceOnUse">
<stop stop-color="#347571"/>
<stop offset="1" stop-color="#07534C"/>
</linearGradient>
<linearGradient id="paint1_linear_615_4699" x1="84.1232" y1="37.5153" x2="2.96108" y2="90.2677" gradientUnits="userSpaceOnUse">
<stop stop-color="#B46510"/>
<stop offset="1" stop-opacity="0"/>
</linearGradient>
</defs>
</svg>
