<svg width="167" height="163" viewBox="0 0 167 163" fill="none" xmlns="http://www.w3.org/2000/svg">
<g filter="url(#filter0_n_615_4657)">
<path d="M93.8677 15.116L94.4145 14.4911C100.101 7.99275 108.044 3.89854 116.636 3.03779L125.281 2.1717C133.875 1.31071 142.475 3.74936 149.338 8.99342L151.415 10.5801C161.913 18.6018 166.82 31.9743 164.002 44.8825L144.502 134.221C141.089 149.853 127.249 160.998 111.249 160.998H67.1149C49.9755 160.998 37.2849 145.064 41.1196 128.359L42.5791 122.001C45.5712 108.967 35.9444 96.4351 22.5794 95.9658C4.58745 95.334 -4.54455 74.0412 7.39921 60.5707L8.66099 59.1476L13.1696 54.9271C16.4056 51.8978 20.2022 49.5299 24.346 47.9562L30.8671 45.4798L73.0948 31.5487C78.7695 29.6767 83.8512 26.3436 87.8292 21.8847L93.8677 15.116Z" fill="url(#paint0_linear_615_4657)"/>
<path d="M93.8677 15.116L94.4145 14.4911C100.101 7.99275 108.044 3.89854 116.636 3.03779L125.281 2.1717C133.875 1.31071 142.475 3.74936 149.338 8.99342L151.415 10.5801C161.913 18.6018 166.82 31.9743 164.002 44.8825L144.502 134.221C141.089 149.853 127.249 160.998 111.249 160.998H67.1149C49.9755 160.998 37.2849 145.064 41.1196 128.359L42.5791 122.001C45.5712 108.967 35.9444 96.4351 22.5794 95.9658C4.58745 95.334 -4.54455 74.0412 7.39921 60.5707L8.66099 59.1476L13.1696 54.9271C16.4056 51.8978 20.2022 49.5299 24.346 47.9562L30.8671 45.4798L73.0948 31.5487C78.7695 29.6767 83.8512 26.3436 87.8292 21.8847L93.8677 15.116Z" stroke="#FFB47B" stroke-width="4"/>
</g>
<defs>
<filter id="filter0_n_615_4657" x="0" y="0" width="166.79" height="163" filterUnits="userSpaceOnUse" color-interpolation-filters="sRGB">
<feFlood flood-opacity="0" result="BackgroundImageFix"/>
<feBlend mode="normal" in="SourceGraphic" in2="BackgroundImageFix" result="shape"/>
<feTurbulence type="fractalNoise" baseFrequency="2 2" stitchTiles="stitch" numOctaves="3" result="noise" seed="7129" />
<feColorMatrix in="noise" type="luminanceToAlpha" result="alphaNoise" />
<feComponentTransfer in="alphaNoise" result="coloredNoise1">
<feFuncA type="discrete" tableValues="1 1 1 1 1 1 1 1 1 1 1 1 1 1 1 1 1 1 1 1 1 1 1 1 1 1 1 1 1 1 1 1 1 1 1 1 1 1 1 1 1 1 1 1 1 1 1 1 1 1 1 0 0 0 0 0 0 0 0 0 0 0 0 0 0 0 0 0 0 0 0 0 0 0 0 0 0 0 0 0 0 0 0 0 0 0 0 0 0 0 0 0 0 0 0 0 0 0 0 0 "/>
</feComponentTransfer>
<feComposite operator="in" in2="shape" in="coloredNoise1" result="noise1Clipped" />
<feFlood flood-color="rgba(0, 0, 0, 0.1)" result="color1Flood" />
<feComposite operator="in" in2="noise1Clipped" in="color1Flood" result="color1" />
<feMerge result="effect1_noise_615_4657">
<feMergeNode in="shape" />
<feMergeNode in="color1" />
</feMerge>
</filter>
<linearGradient id="paint0_linear_615_4657" x1="115.802" y1="19.6629" x2="115.802" y2="47.2009" gradientUnits="userSpaceOnUse">
<stop stop-color="#DD8C57"/>
<stop offset="1" stop-color="#D1873E"/>
</linearGradient>
</defs>
</svg>
