<svg width="180" height="182" viewBox="0 0 180 182" fill="none" xmlns="http://www.w3.org/2000/svg">
<g filter="url(#filter0_n_615_4667)">
<path d="M58.2785 15.5089L59.7824 13.7259C65.4299 7.03056 73.4521 2.78425 82.1643 1.87883L93.6842 0.681607C102.481 -0.2326 111.286 2.33131 118.217 7.82507L132.971 19.5198C137.75 23.3075 143.462 25.7345 149.506 26.5446L149.984 26.6086C168.071 29.0329 180.983 45.3555 179.179 63.5154L175.354 102.022C174.587 109.74 171.194 116.961 165.742 122.477L117.347 171.442C110.986 177.878 102.313 181.5 93.2646 181.5H34.3741C12.7249 181.5 -3.36328 161.462 1.31431 140.325L8.34942 108.533L11.932 89.229C13.39 81.373 17.5793 74.2856 23.7589 69.2205L29.6528 64.3895C35.2303 59.8178 39.2025 53.5848 40.9907 46.5984L43.0301 38.6304C44.3223 33.5818 46.7624 28.8996 50.1604 24.9485L58.2785 15.5089Z" fill="url(#paint0_linear_615_4667)"/>
<path d="M58.2785 15.5089L59.7824 13.7259C65.4299 7.03056 73.4521 2.78425 82.1643 1.87883L93.6842 0.681607C102.481 -0.2326 111.286 2.33131 118.217 7.82507L132.971 19.5198C137.75 23.3075 143.462 25.7345 149.506 26.5446L149.984 26.6086C168.071 29.0329 180.983 45.3555 179.179 63.5154L175.354 102.022C174.587 109.74 171.194 116.961 165.742 122.477L117.347 171.442C110.986 177.878 102.313 181.5 93.2646 181.5H34.3741C12.7249 181.5 -3.36328 161.462 1.31431 140.325L8.34942 108.533L11.932 89.229C13.39 81.373 17.5793 74.2856 23.7589 69.2205L29.6528 64.3895C35.2303 59.8178 39.2025 53.5848 40.9907 46.5984L43.0301 38.6304C44.3223 33.5818 46.7624 28.8996 50.1604 24.9485L58.2785 15.5089Z" stroke="#FFB47B"/>
</g>
<defs>
<filter id="filter0_n_615_4667" x="0" y="0" width="179.847" height="182" filterUnits="userSpaceOnUse" color-interpolation-filters="sRGB">
<feFlood flood-opacity="0" result="BackgroundImageFix"/>
<feBlend mode="normal" in="SourceGraphic" in2="BackgroundImageFix" result="shape"/>
<feTurbulence type="fractalNoise" baseFrequency="2.0084159374237061 2.0084159374237061" stitchTiles="stitch" numOctaves="3" result="noise" seed="7129" />
<feColorMatrix in="noise" type="luminanceToAlpha" result="alphaNoise" />
<feComponentTransfer in="alphaNoise" result="coloredNoise1">
<feFuncA type="discrete" tableValues="1 1 1 1 1 1 1 1 1 1 1 1 1 1 1 1 1 1 1 1 1 1 1 1 1 1 1 1 1 1 1 1 1 1 1 1 1 1 1 1 1 1 1 1 1 1 1 1 1 1 1 0 0 0 0 0 0 0 0 0 0 0 0 0 0 0 0 0 0 0 0 0 0 0 0 0 0 0 0 0 0 0 0 0 0 0 0 0 0 0 0 0 0 0 0 0 0 0 0 0 "/>
</feComponentTransfer>
<feComposite operator="in" in2="shape" in="coloredNoise1" result="noise1Clipped" />
<feFlood flood-color="rgba(0, 0, 0, 0.1)" result="color1Flood" />
<feComposite operator="in" in2="noise1Clipped" in="color1Flood" result="color1" />
<feMerge result="effect1_noise_615_4667">
<feMergeNode in="shape" />
<feMergeNode in="color1" />
</feMerge>
</filter>
<linearGradient id="paint0_linear_615_4667" x1="49.8043" y1="-5.24002" x2="42.6107" y2="97.5757" gradientUnits="userSpaceOnUse">
<stop stop-color="#F3D496"/>
<stop offset="1" stop-color="#EAA560"/>
</linearGradient>
</defs>
</svg>
