<svg width="146" height="224" viewBox="0 0 146 224" fill="none" xmlns="http://www.w3.org/2000/svg">
<g filter="url(#filter0_n_615_4706)">
<path d="M76.9565 13.5531L70.7199 4.72082C68.7004 1.8608 65.3078 0.296348 61.8214 0.617402L32.266 3.33908C28.8839 3.65054 25.9045 5.69206 24.3932 8.73377L1.6009 54.6061C0.692027 56.4353 0.377809 58.5029 0.702203 60.5195L25.4994 214.669C26.2631 219.416 30.3604 222.907 35.169 222.907H135.625C141.749 222.907 146.371 217.35 145.256 211.329L130.501 131.68L124.888 95.5518C124.563 93.4634 123.572 91.536 122.062 90.0574L99.218 67.6905L87.4376 57.112C85.7894 55.632 84.6916 53.6369 84.3235 51.4526L78.6138 17.5747C78.3698 16.1269 77.8034 14.7525 76.9565 13.5531Z" fill="url(#paint0_linear_615_4706)"/>
<path d="M76.9565 13.5531L70.7199 4.72082C68.7004 1.8608 65.3078 0.296348 61.8214 0.617402L32.266 3.33908C28.8839 3.65054 25.9045 5.69206 24.3932 8.73377L1.6009 54.6061C0.692027 56.4353 0.377809 58.5029 0.702203 60.5195L25.4994 214.669C26.2631 219.416 30.3604 222.907 35.169 222.907H135.625C141.749 222.907 146.371 217.35 145.256 211.329L130.501 131.68L124.888 95.5518C124.563 93.4634 123.572 91.536 122.062 90.0574L99.218 67.6905L87.4376 57.112C85.7894 55.632 84.6916 53.6369 84.3235 51.4526L78.6138 17.5747C78.3698 16.1269 77.8034 14.7525 76.9565 13.5531Z" stroke="#FFB47B" stroke-width="1.15068"/>
</g>
<defs>
<filter id="filter0_n_615_4706" x="0" y="0" width="146" height="223.483" filterUnits="userSpaceOnUse" color-interpolation-filters="sRGB">
<feFlood flood-opacity="0" result="BackgroundImageFix"/>
<feBlend mode="normal" in="SourceGraphic" in2="BackgroundImageFix" result="shape"/>
<feTurbulence type="fractalNoise" baseFrequency="6.9523806571960449 6.9523806571960449" stitchTiles="stitch" numOctaves="3" result="noise" seed="7129" />
<feColorMatrix in="noise" type="luminanceToAlpha" result="alphaNoise" />
<feComponentTransfer in="alphaNoise" result="coloredNoise1">
<feFuncA type="discrete" tableValues="1 1 1 1 1 1 1 1 1 1 1 1 1 1 1 1 1 1 1 1 1 1 1 1 1 1 1 1 1 1 1 1 1 1 1 1 1 1 1 1 1 1 1 1 1 1 1 1 1 1 1 0 0 0 0 0 0 0 0 0 0 0 0 0 0 0 0 0 0 0 0 0 0 0 0 0 0 0 0 0 0 0 0 0 0 0 0 0 0 0 0 0 0 0 0 0 0 0 0 0 "/>
</feComponentTransfer>
<feComposite operator="in" in2="shape" in="coloredNoise1" result="noise1Clipped" />
<feFlood flood-color="rgba(0, 0, 0, 0.1)" result="color1Flood" />
<feComposite operator="in" in2="noise1Clipped" in="color1Flood" result="color1" />
<feMerge result="effect1_noise_615_4706">
<feMergeNode in="shape" />
<feMergeNode in="color1" />
</feMerge>
</filter>
<linearGradient id="paint0_linear_615_4706" x1="53.0618" y1="21.8437" x2="53.0618" y2="61.0194" gradientUnits="userSpaceOnUse">
<stop stop-color="#F9D48E"/>
<stop offset="1" stop-color="#EAA560"/>
</linearGradient>
</defs>
</svg>
