<svg width="727" height="105" viewBox="0 0 727 105" fill="none" xmlns="http://www.w3.org/2000/svg">
<rect x="1.6986" y="44.39" width="723.603" height="16.986" rx="8.49299" fill="#361E1E"/>
<rect x="1.6986" y="44.39" width="723.603" height="16.986" rx="8.49299" stroke="url(#paint0_linear_2547_16799)" stroke-width="3.3972"/>
<rect x="118.829" y="0.837069" width="102.96" height="102.96" rx="51.4798" fill="black"/>
<rect x="118.829" y="0.837069" width="102.96" height="102.96" rx="51.4798" stroke="#FBB752" stroke-width="1.67414"/>
<path d="M182.307 18.9312C183.31 18.4126 184.302 17.8597 185.328 17.3796C186.491 16.8354 187.683 16.3989 189.006 16.3569C189.625 16.3372 189.815 16.5884 189.901 17.1042C190.174 18.7587 189.93 20.3446 189.28 21.8768C188.984 22.5762 188.67 23.268 188.299 24.1112C189.823 23.8206 191.197 23.6099 192.59 23.5888C193.838 23.5698 193.913 23.6785 193.732 24.9042C193.533 26.2469 193.354 27.592 192.903 29.002C193.809 28.8818 194.55 28.6656 195.318 28.6659C195.865 28.6663 196.109 28.907 196.056 29.453C195.672 33.4105 194.163 36.8761 191.519 39.8477C191.265 40.1324 190.947 40.3174 190.619 40.4906C190.293 40.6628 189.961 40.8232 189.615 40.9978C189.661 41.2275 189.724 41.4405 189.744 41.6574C189.822 42.5162 188.511 42.7573 188.841 43.7789C189.129 44.6712 188.527 45.2927 187.949 45.8619C187.662 46.1449 187.577 46.465 187.539 46.8526C187.116 51.1715 186.371 55.438 185.505 59.6892C184.66 63.8369 183.503 67.8956 182.005 71.8416C180.507 75.7856 179.005 79.7469 176.936 83.4367C175.097 86.7187 173.316 90.0446 171.081 93.0914C170.471 93.9235 169.915 93.9585 169.353 93.1215C165.752 87.7576 162.575 82.1837 160.125 76.1698C158.377 71.8766 156.837 67.5336 155.663 63.0651C154.648 59.2039 153.94 55.2693 153.426 51.3066C153.221 49.7234 152.847 48.1607 152.839 46.5526C152.837 46.1321 152.486 45.9187 152.242 45.6499C151.7 45.0544 151.265 44.4204 151.635 43.5779C151.804 43.192 151.488 43.0798 151.336 42.8671C150.946 42.3208 150.341 41.8399 150.879 40.9877C148.662 40.2984 147.672 38.4804 146.636 36.6921C145.386 34.5357 144.627 32.2299 144.38 29.7499C144.286 28.8017 144.429 28.6112 145.388 28.6881C146.036 28.7401 146.679 28.8641 147.454 28.9743C147.081 27.5861 146.863 26.2258 146.665 24.8612C146.496 23.7004 146.582 23.5746 147.774 23.5902C149.171 23.6082 150.548 23.8161 152.011 24.0925C151.909 23.4734 151.638 23.0158 151.412 22.544C150.607 20.8587 150.207 19.1072 150.48 17.2296C150.572 16.5942 150.793 16.3178 151.53 16.3656C153.725 16.5073 155.536 17.5947 157.399 18.5775C157.621 18.6949 157.833 18.8335 158.147 19.0206C158.285 18.1161 158.418 17.2892 158.534 16.4602C158.642 15.6935 158.815 14.9425 159.099 14.2244C159.557 13.0698 160.03 12.9336 161.148 13.4685C162.976 14.3432 164.495 15.6035 165.882 17.1392C166.259 16.5274 166.547 15.9201 166.763 15.2796C167.242 13.8579 168.142 12.7358 169.238 11.7454C169.87 11.1742 170.486 11.1406 171.134 11.7191C172.237 12.7029 173.125 13.8295 173.634 15.2387C173.863 15.8726 174.165 16.4803 174.477 17.1998C175.873 15.6017 177.411 14.3744 179.219 13.4882C180.375 12.9218 180.853 13.0649 181.322 14.266C181.847 15.6108 181.928 17.0474 182.169 18.4511C182.198 18.6083 182.139 18.7926 182.307 18.9312Z" fill="#008080"/>
<path d="M160.99 45.4604C161.25 45.5705 161.441 45.4898 161.63 45.4379C164.624 44.6123 167.057 45.6551 169.183 47.7111C169.383 47.904 169.621 48.0852 169.572 48.4275C169.284 50.4603 168.901 52.4754 168.729 54.5296C168.537 56.8004 168.131 59.0525 167.843 61.3157C167.675 62.6317 167.697 62.6345 166.399 62.9005C165.682 63.0478 165.233 63.75 165.409 64.5467C165.558 65.217 165.916 65.6466 166.695 65.3265C167.019 65.1931 167.248 65.3667 167.456 65.5714C168.995 67.0908 171.441 67.0565 172.93 65.5901C173.192 65.3314 173.459 65.2171 173.849 65.3674C174.499 65.6186 174.819 65.1949 174.979 64.6607C175.271 63.6893 174.659 62.8943 173.616 62.8891C173.146 62.8867 172.751 62.8908 172.719 62.2732C172.704 61.9908 172.607 61.7137 172.584 61.431C172.349 58.5152 171.476 55.6652 171.684 52.704C170.983 51.399 171.267 49.9025 170.87 48.5394C170.796 48.2854 170.855 48.0925 171.028 47.9179C172.513 46.4196 174.195 45.3232 176.379 45.1618C177.413 45.0852 178.393 45.423 179.407 45.5241C180.156 43.8267 180.007 42.124 179.84 40.4172C179.799 39.9939 179.507 39.3883 180.11 39.2428C180.705 39.0991 180.768 39.7656 180.902 40.1667C181.373 41.5825 181.583 43.0548 181.686 44.5358C181.818 46.4418 181.973 46.5928 183.908 46.3406C184.421 46.2738 184.896 46.087 185.377 45.9003C185.789 45.7406 185.936 45.5165 185.932 45.0779C185.919 43.5946 185.926 42.1105 185.966 40.6278C185.981 40.0874 185.779 39.7209 185.384 39.379C179.895 34.6306 173.585 32.8178 166.409 33.9828C162.096 34.6829 158.29 36.4081 155.047 39.3561C154.638 39.7282 154.424 40.1151 154.443 40.6822C154.481 41.8219 154.449 42.9641 154.47 44.1048C154.502 45.794 154.843 46.1591 156.557 46.3417C156.98 46.3867 157.412 46.3607 157.84 46.3624C158.47 46.3649 158.726 46.1033 158.713 45.4219C158.68 43.6715 158.977 41.9529 159.473 40.2776C159.605 39.8317 159.671 39.0564 160.349 39.2612C160.92 39.4337 160.573 40.094 160.542 40.554C160.43 42.2255 160.234 43.9067 160.99 45.4604Z" fill="#74B58D"/>
<path d="M170.278 80.5107C173.312 80.2803 175.982 79.2636 178.043 76.8248C179.413 75.2046 179.54 73.4995 178.771 71.6472C178.147 70.1441 176.611 69.6223 175.153 70.3602C174.949 70.4631 174.756 70.5854 174.557 70.6973C171.947 72.1668 169.279 72.3847 166.546 71.0541C166.086 70.8296 165.649 70.5556 165.189 70.3294C163.85 69.6715 162.412 70.0748 161.766 71.4099C160.951 73.0938 160.814 74.7812 162.04 76.4035C164.102 79.1326 166.915 80.3149 170.278 80.5107Z" fill="#A31334"/>
<path d="M157.156 63.5742C157.28 64.8002 159.622 71.8415 160.409 73.3914C160.58 72.7883 160.721 72.2468 160.886 71.7123C161.121 70.954 161.546 70.3291 162.215 69.8815C163.433 69.0674 164.642 69.2368 165.844 69.9113C167.278 70.7157 168.745 71.29 170.457 71.2363C172.014 71.1875 173.324 70.5826 174.628 69.8676C176.754 68.7016 178.871 69.5576 179.568 71.8741C179.713 72.3549 179.832 72.8437 180.006 73.4936C181.231 70.1295 182.466 66.9629 183.314 63.621C182.122 63.7433 181.35 64.0606 181.151 65.3347C180.982 66.4225 180.336 67.3918 179.772 68.3524C179.661 68.5415 179.566 68.7774 179.15 68.6749C179.283 68.0077 179.453 67.3384 179.54 66.6584C179.633 65.9306 179.663 65.1923 179.548 64.4534C178.94 64.4992 178.376 64.5594 177.81 64.5799C177.221 64.6014 176.63 64.5847 176.021 64.5847C175.76 65.827 175.021 66.4142 173.763 66.2801C173.461 66.2479 173.304 66.4356 173.115 66.6158C171.738 67.9294 168.662 67.9277 167.283 66.6175C167.119 66.462 166.99 66.2489 166.722 66.2818C165.391 66.446 164.632 65.8048 164.335 64.5165C163.159 64.6117 162.023 64.6419 160.838 64.4039C160.687 65.8907 160.855 67.2972 161.309 68.6475C160.879 68.7802 160.768 68.5966 160.67 68.4269C159.985 67.2393 159.33 66.0334 159.038 64.68C158.942 64.2317 158.759 63.9695 158.297 63.8853C157.935 63.8188 157.585 63.6937 157.156 63.5742Z" fill="#479362"/>
<path d="M185.538 34.0859C185.651 33.7478 185.549 33.4755 185.479 33.2018C184.722 30.2364 183.221 27.9542 180.244 26.6829C176.421 25.0505 172.506 24.0833 168.357 24.5115C165.462 24.8101 162.638 25.4472 159.975 26.7636C158.706 27.3906 157.605 28.1087 156.764 29.2235C155.686 30.6525 154.963 32.2273 154.801 34.1267C165.076 26.8201 175.273 26.7909 185.538 34.0859Z" fill="#A31334"/>
<path d="M170.135 92.1531C171.593 90.5665 177.858 79.6387 177.811 78.2041C172.724 82.1831 167.635 82.1769 162.395 78.0469C164.503 83.1205 167.243 87.6618 170.135 92.1531Z" fill="#479362"/>
<path d="M154.573 36.9704C156.15 35.6602 157.957 34.9996 159.596 34.0459C161.707 32.8172 163.959 32.0959 166.34 31.7097C168.234 31.402 170.059 30.9527 172.075 31.2583C176.659 31.9532 180.749 33.7518 184.662 36.1061C185.05 36.3396 185.341 36.776 185.87 36.8131C185.86 35.3685 185.776 35.1357 184.508 34.243C180.318 31.2922 175.788 29.4257 170.535 29.3575C164.966 29.2851 160.166 31.189 155.736 34.3476C154.892 34.949 154.364 35.6765 154.573 36.9704Z" fill="#C66B3F"/>
<path d="M173.758 23.3808C174.153 19.1358 172.608 15.7263 170.202 12.5039C167.796 15.753 166.226 19.1697 166.657 23.3822C169.061 22.9731 171.358 22.9796 173.758 23.3808Z" fill="#FBB752"/>
<path d="M184.433 28.2238C185.068 27.6359 185.731 27.1853 186.013 26.5156C186.908 24.3973 188.049 22.3666 188.473 20.0694C188.62 19.2741 188.791 18.4731 188.565 17.5586C185.28 18.6342 182.348 20.1034 180.239 22.8744C179.891 23.3317 179.66 23.843 179.653 24.4472C179.647 24.8708 179.781 25.1293 180.182 25.3084C181.747 26.0088 183.249 26.8129 184.433 28.2238Z" fill="#FBB752"/>
<path d="M151.845 17.5977C151.364 20.2665 153.88 26.6455 156.014 28.1649C157.087 26.8782 158.514 26.0503 160.037 25.4042C160.724 25.1129 160.822 24.6667 160.715 24.0563C160.635 23.598 160.399 23.2069 160.137 22.83C159.393 21.7606 158.414 20.9319 157.361 20.1972C155.676 19.0207 153.85 18.1325 151.845 17.5977Z" fill="#FBB752"/>
<path d="M180.151 14.9062C178.936 15.3476 177.907 15.922 176.954 16.6623C174.714 18.402 174.052 20.67 174.633 23.4109C176.126 23.5245 177.448 24.3251 178.966 24.6798C178.975 23.2013 179.783 22.2185 180.678 21.2786C180.867 21.0798 181.11 20.9291 181.112 20.5855C181.125 18.6649 180.884 16.7918 180.151 14.9062Z" fill="#FBB752"/>
<path d="M165.787 23.3951C166.848 18.7084 163.47 15.9579 160.205 15C159.519 16.8045 159.269 18.6783 159.29 20.5992C159.292 20.7901 159.366 20.9259 159.491 21.0475C160.518 22.0528 161.411 23.1339 161.468 24.7074C162.979 24.2529 164.309 23.5559 165.787 23.3951Z" fill="#FBB752"/>
<path d="M187.304 34.2753C187.789 33.6406 188.096 33.0708 188.554 32.6738C189.598 31.7679 190.359 30.6458 191.135 29.5342C192.148 28.0834 192.277 26.3925 192.511 24.6133C190.6 24.7376 188.921 25.0868 187.349 25.8819C187.226 25.9442 187.073 26.0343 187.026 26.149C186.588 27.2409 185.64 27.9323 184.883 28.8344C185.964 30.4927 187.036 32.1382 187.304 34.2753Z" fill="#FBB752"/>
<path d="M155.52 28.83C154.93 28.186 154.41 27.6227 153.895 27.0549C153.59 26.7193 153.582 26.1705 153.145 25.937C151.541 25.0797 149.814 24.7332 147.875 24.6172C148.15 26.4317 148.325 28.1004 149.288 29.5973C150.352 31.2501 151.881 32.5066 153.127 34.3194C153.325 32.1217 154.454 30.5091 155.52 28.83Z" fill="#FBB752"/>
<path d="M172.285 54.2159C172.456 55.4599 172.63 56.725 172.803 57.9902C172.834 58.2122 172.952 58.3709 173.171 58.4073C174.651 58.6532 176.099 59.0862 177.646 58.7682C180.076 58.2683 182.26 57.1764 184.452 56.0949C184.687 55.9788 184.929 55.7159 185.006 55.4703C185.356 54.3472 185.638 53.2047 185.728 51.9805C181.679 55.56 177.282 56.5255 172.285 54.2159Z" fill="#A31334"/>
<path d="M154.645 51.8008C154.762 53.1868 155.038 54.3141 155.373 55.4223C155.462 55.7198 155.694 56.0489 156.055 56.1355C156.71 56.2928 157.224 56.7165 157.808 57.0054C160.668 58.4184 163.596 59.4269 166.844 58.4981C167.137 58.4139 167.521 58.443 167.582 58.0415C167.774 56.7598 167.939 55.4739 168.155 53.8911C165.888 55.7856 163.446 55.5539 161.037 55.2525C158.564 54.9432 156.478 53.7667 154.645 51.8008Z" fill="#A31334"/>
<path d="M194.901 29.7344C194.63 29.7957 194.491 29.8206 194.357 29.858C192.319 30.4241 190.698 31.7059 189.148 33.0458C188.291 33.7871 187.574 34.7834 187.529 35.9661C187.477 37.3248 187.653 38.6918 187.735 40.1367C189.209 39.8065 190.305 39.0025 191.197 37.8849C192.405 36.3718 193.067 34.5614 193.906 32.8494C194.367 31.9054 194.676 30.9011 194.901 29.7344Z" fill="#FBB752"/>
<path d="M152.72 40.1471C152.637 38.9765 152.799 37.9321 152.893 36.8848C152.979 35.9266 152.719 35.1184 152.242 34.2971C151.244 32.5778 149.528 31.7343 147.992 30.6732C147.276 30.1788 146.431 29.9606 145.504 29.7344C145.564 30.0444 145.588 30.2107 145.629 30.3728C146.209 32.6658 147.323 34.7343 148.448 36.7792C149.346 38.4112 150.649 39.6732 152.72 40.1471Z" fill="#FBB752"/>
<path d="M154.58 46.4444C154.219 48.8579 155.508 49.9952 157.747 49.3588C158.485 49.1489 159.214 48.8932 159.929 48.6126C162.565 47.5782 164.994 47.987 167.247 49.6335C167.7 49.965 168.111 50.3547 168.639 50.7992C168.755 49.9965 168.862 49.3058 168.951 48.6126C168.98 48.3867 168.787 48.269 168.644 48.1297C166.419 45.9604 163.884 45.3074 160.881 46.3363C158.852 47.0315 156.751 47.5093 154.58 46.4444Z" fill="#FBB752"/>
<path d="M185.87 46.4739C185.279 46.6059 184.832 46.8629 184.325 46.9499C182.601 47.2457 180.972 46.8328 179.38 46.2903C176.402 45.2757 173.898 46.0277 171.71 48.1638C171.564 48.3058 171.417 48.4364 171.45 48.6681C171.547 49.3385 171.643 50.0088 171.737 50.6639C172.002 50.6947 172.1 50.5319 172.219 50.4196C174.743 48.0442 177.588 47.3632 180.844 48.7523C181.419 48.9972 182.02 49.2016 182.628 49.3412C183.461 49.5321 184.291 49.6243 185.105 49.1445C186.185 48.5088 185.946 47.5416 185.87 46.4739Z" fill="#FBB752"/>
<path d="M185.905 38.9469C186.154 38.0725 185.814 37.6582 185.273 37.2775C183.772 36.2213 182.058 35.5496 180.498 34.6187C177.385 32.7619 173.878 32.4013 170.451 31.7112C170.182 31.6568 169.88 31.706 169.603 31.758C168.09 32.0427 166.576 32.3265 165.07 32.6438C163.472 32.9802 161.947 33.5095 160.511 34.3163C158.724 35.3206 156.79 36.056 155.125 37.2858C154.381 37.8352 154.311 37.9641 154.558 38.8894C158.972 34.7441 164.389 32.9084 170.204 32.9098C176.019 32.9105 181.436 34.7466 185.905 38.9469Z" fill="#A31334"/>
<path d="M182.832 53.352C182.186 52.3619 181.301 51.8059 180.354 51.6053C178.031 51.1141 175.706 51.191 173.497 52.2199C173.117 52.3969 172.612 52.559 172.576 53.0257C172.538 53.5245 173.059 53.671 173.426 53.874C173.824 54.094 174.207 54.4075 174.635 54.4948C177.461 55.0733 180.178 54.7727 182.832 53.352Z" fill="white"/>
<path d="M157.605 53.2843C158.542 54.0131 159.609 54.3232 160.697 54.4988C162.901 54.8542 165.119 55.1636 167.145 53.7932C167.428 53.6016 167.808 53.4672 167.83 53.0924C167.857 52.6475 167.422 52.5135 167.115 52.332C166.847 52.174 166.546 52.0721 166.257 51.9499C164.514 51.2106 162.674 51.2795 160.861 51.4261C159.558 51.531 158.44 52.166 157.605 53.2843Z" fill="white"/>
<path d="M156.004 58.7891C156.321 60.5697 156.356 60.6916 156.998 60.9982C158.159 61.5518 159.363 61.9841 160.652 62.1292C162.481 62.3354 164.273 62.6222 166.108 61.8663C166.841 61.5642 167.31 61.4465 167.192 60.5707C165.307 61.4454 163.455 61.1381 161.576 60.6833C159.696 60.2277 157.915 59.4902 156.004 58.7891Z" fill="#A31334"/>
<path d="M184.333 58.7891C182.881 59.3707 181.491 59.9513 180.042 60.3542C177.796 60.9784 175.544 61.6605 173.176 60.5641C173.207 61.0127 173.114 61.6359 173.571 61.674C174.423 61.7447 175.091 62.309 175.932 62.3454C178.145 62.4414 180.291 62.1635 182.404 61.4607C183.681 61.0353 184.358 60.2884 184.333 58.7891Z" fill="#A31334"/>
<path d="M172.938 58.9802C173.207 59.9062 174.039 60.3798 175.074 60.4307C178.257 60.588 181.093 59.3655 183.933 58.1873C184.705 57.8668 184.839 57.4026 184.718 56.3672C183.094 57.7511 181.158 58.4232 179.169 59.071C177.097 59.7458 175.094 59.5934 172.938 58.9802Z" fill="white"/>
<path d="M167.449 59.0006C162.935 60.3873 159.194 58.738 155.604 56.4336C155.493 57.5214 156.057 58.1141 157.031 58.448C158.242 58.8634 159.432 59.3414 160.648 59.7422C162.198 60.2536 163.786 60.5508 165.434 60.4313C166.392 60.3616 167.229 59.8548 167.449 59.0006Z" fill="white"/>
<path d="M183.66 61.6484C181.14 62.8107 178.531 63.1107 175.86 63.0494C175.84 63.6743 176.143 63.8305 176.653 63.8655C178.732 64.0076 180.727 63.5586 182.723 63.0733C183.427 62.9021 183.71 62.4871 183.66 61.6484Z" fill="white"/>
<path d="M156.73 61.6445C156.749 62.3155 156.787 62.8182 157.47 63.0025C159.539 63.5602 161.618 64.0071 163.785 63.8647C164.313 63.8301 164.567 63.6316 164.538 63.0503C161.858 63.1071 159.251 62.8092 156.73 61.6445Z" fill="white"/>
<path d="M183.387 45.0436C182.912 45.0017 182.37 44.9626 182.36 44.2527C182.351 43.6784 182.675 43.3434 183.245 43.3361C183.798 43.3292 184.286 43.5315 184.329 44.1654C184.368 44.7464 184.023 45.0422 183.387 45.0436Z" fill="white"/>
<path d="M157.085 45.0389C156.395 45.0549 156.041 44.7691 156.068 44.185C156.097 43.548 156.58 43.3377 157.133 43.3359C157.7 43.3342 158.035 43.656 158.038 44.2342C158.041 44.9461 157.508 44.9998 157.085 45.0389Z" fill="white"/>
<path d="M165.469 72.5469C165.965 72.9075 165.829 73.3883 165.654 73.7708C165.354 74.429 165.667 74.6933 166.195 74.9486C167.172 75.4201 168.227 75.5223 169.275 75.604C170.966 75.736 172.636 75.6037 174.229 74.9379C174.783 74.7065 175.053 74.403 174.755 73.7583C174.584 73.3897 174.48 72.9383 174.877 72.5787C175.385 72.6543 175.273 73.0786 175.343 73.3772C175.632 74.5994 176.217 75.0009 177.435 74.765C177.666 74.7203 177.911 74.6036 178.004 74.9108C178.086 75.1824 177.859 75.3352 177.645 75.4159C177.026 75.6498 176.414 75.5981 175.828 75.2902C175.606 75.1731 175.428 75.013 175.132 75.1845C172.77 76.5563 170.225 76.4438 167.651 76.0779C166.877 75.9681 166.142 75.7416 165.491 75.3134C165.163 75.0983 164.92 75.0816 164.569 75.2857C163.975 75.6314 163.323 75.6726 162.684 75.3688C162.5 75.2815 162.339 75.1332 162.413 74.8973C162.475 74.6975 162.644 74.6975 162.831 74.7134C164.542 74.8599 164.7 74.7408 165.125 73.0249C165.165 72.8597 165.196 72.6879 165.469 72.5469Z" fill="#008080"/>
<path d="M164.307 26.7656C164.683 26.8107 165.055 26.9184 165.081 27.438C165.107 27.939 164.523 28.559 164.002 28.5632C163.488 28.5674 163.213 28.2836 163.207 27.7751C163.201 27.2374 163.708 26.767 164.307 26.7656Z" fill="white"/>
<path d="M176.1 26.7617C176.724 26.7953 177.122 27.1154 177.184 27.7376C177.234 28.2416 176.947 28.5427 176.435 28.5641C175.923 28.5856 175.32 27.9801 175.316 27.4736C175.313 27.0572 175.62 26.7783 176.1 26.7617Z" fill="white"/>
<path d="M182.39 29.4219C182.981 29.5203 183.378 29.8067 183.359 30.423C183.343 30.9046 183.067 31.2489 182.546 31.2028C181.904 31.1464 181.597 30.6832 181.582 30.0998C181.571 29.6138 181.98 29.4686 182.39 29.4219Z" fill="white"/>
<path d="M158.842 30.1811C158.691 30.7229 158.444 31.2082 157.785 31.2037C157.267 31.2002 157.015 30.8292 157.041 30.3511C157.074 29.7473 157.47 29.4373 158.06 29.4414C158.511 29.4446 158.802 29.6864 158.842 30.1811Z" fill="white"/>
<path d="M173.978 26.9857C173.841 27.5365 173.604 27.9505 173.016 27.9179C172.443 27.8864 172.139 27.4718 172.153 26.9552C172.167 26.4238 172.613 26.2011 173.1 26.1806C173.658 26.1578 173.867 26.5472 173.978 26.9857Z" fill="white"/>
<path d="M167.382 27.9336C166.807 27.8945 166.489 27.5505 166.462 27.0194C166.438 26.5448 166.733 26.1988 167.226 26.1808C167.747 26.162 168.226 26.3876 168.25 26.9605C168.271 27.4781 167.943 27.8484 167.382 27.9336Z" fill="white"/>
<path d="M180.516 28.6501C180.486 29.2577 180.14 29.5549 179.642 29.5508C179.064 29.5463 178.808 29.0904 178.772 28.5763C178.736 28.0546 179.121 27.7844 179.578 27.7775C180.142 27.7692 180.406 28.1821 180.516 28.6501Z" fill="white"/>
<path d="M161.663 28.5529C161.544 29.0635 161.356 29.5416 160.775 29.5509C160.28 29.5586 159.883 29.2752 159.907 28.7143C159.93 28.1673 160.262 27.7897 160.815 27.7776C161.284 27.7672 161.592 28.0669 161.663 28.5529Z" fill="white"/>
<path d="M168.013 86.4219C168.63 86.902 168.83 87.2786 168.479 87.8606C167.848 87.5581 167.913 87.0998 168.013 86.4219Z" fill="white"/>
<path d="M174.971 56.6545C174.875 56.9531 174.729 57.2268 174.344 57.2057C174.073 57.1908 173.942 57.002 173.958 56.7442C173.982 56.3753 174.211 56.1775 174.571 56.1879C174.829 56.1952 174.971 56.3687 174.971 56.6545Z" fill="#A31334"/>
<path d="M177.382 57.4739C177.095 57.4486 176.921 57.2792 176.904 56.9889C176.886 56.6906 177.048 56.5001 177.353 56.4817C177.663 56.4634 177.844 56.6456 177.854 56.938C177.864 57.2279 177.676 57.4018 177.382 57.4739Z" fill="#A31334"/>
<path d="M180.492 55.9805C180.805 55.9933 180.986 56.1343 181.001 56.436C181.015 56.7478 180.827 56.8964 180.54 56.9116C180.243 56.9272 180.053 56.7717 180.051 56.4696C180.049 56.1821 180.213 56.0082 180.492 55.9805Z" fill="#A31334"/>
<path d="M183.452 54.8398C183.743 54.8717 183.929 55.012 183.919 55.3252C183.91 55.6248 183.736 55.8005 183.446 55.8199C183.126 55.8413 182.991 55.637 182.988 55.3428C182.986 55.0387 183.163 54.8845 183.452 54.8398Z" fill="#A31334"/>
<path d="M165.925 56.1797C166.225 56.2434 166.437 56.4101 166.447 56.7412C166.455 57.0433 166.293 57.238 165.98 57.2023C165.619 57.1607 165.437 56.9013 165.446 56.5569C165.452 56.2905 165.657 56.1804 165.925 56.1797Z" fill="#A31334"/>
<path d="M163.044 57.4776C162.755 57.427 162.563 57.2621 162.551 56.9732C162.539 56.6784 162.708 56.4875 163.017 56.4844C163.323 56.4813 163.498 56.658 163.501 56.958C163.504 57.2517 163.334 57.4263 163.044 57.4776Z" fill="#A31334"/>
<path d="M157.419 55.3565C157.4 55.6375 157.275 55.8422 156.954 55.818C156.664 55.7961 156.491 55.6195 156.485 55.3201C156.478 55.0077 156.663 54.8393 156.955 54.848C157.247 54.8563 157.41 55.043 157.419 55.3565Z" fill="#A31334"/>
<path d="M160.36 56.4557C160.331 56.7699 160.161 56.9257 159.863 56.9098C159.576 56.8942 159.388 56.7456 159.403 56.4335C159.418 56.1324 159.596 55.979 159.893 55.9845C160.2 55.9901 160.327 56.1882 160.36 56.4557Z" fill="#A31334"/>
<rect x="313.784" y="2.831" width="98.9716" height="98.9716" rx="49.4858" fill="white"/>
<rect x="313.784" y="2.831" width="98.9716" height="98.9716" rx="49.4858" stroke="black" stroke-width="5.66199"/>
<path d="M363.664 13.1185C366.747 12.7871 369.984 13.0558 373.179 13.5697C377.28 14.2297 381.324 15.2141 384.63 17.9463C387.564 20.3705 389.146 23.5986 389.38 27.3625C389.702 32.531 389.128 37.6949 389.048 42.8634C387.873 45.6383 388.594 48.5538 388.43 51.4019C388.263 54.2977 388.579 57.1852 388.709 60.0773C388.951 65.4232 388.214 70.6331 386.52 75.751C385.67 78.3153 384.37 80.593 383.057 82.8815C381.734 85.1864 379.517 86.622 377.355 88.0433C373.404 90.642 369.03 91.731 364.309 91.6272C361.862 91.5737 359.419 91.636 357 91.1568C353.614 90.4863 350.682 88.8867 347.884 86.9288C344.077 84.2648 342.081 80.4314 340.56 76.2114C339.585 73.503 338.903 70.7374 338.5 67.9009C337.989 64.3003 338.082 60.6888 338.364 57.0693C338.68 53.0086 338.325 48.9346 338.5 44.869C337.207 42.4461 337.962 39.8005 337.695 37.2663C337.316 33.6623 337.113 30.0114 337.616 26.43C338.262 21.8395 340.659 18.3126 344.941 16.2027C348.556 14.4214 352.413 13.6731 356.377 13.2416C358.753 12.9829 361.12 12.9859 363.664 13.1185Z" fill="#008080"/>
<path d="M361.559 45.7891C360.387 47.3176 358.758 48.0429 357.172 48.7565C353.155 50.5645 348.912 50.5821 345.531 46.8869C345.37 46.7111 345.239 46.4788 344.94 46.586C343.446 47.1192 341.976 47.0325 340.537 46.3357C340.416 47.1899 340.547 48.1714 340.848 49.0377C342.138 52.7568 346.169 54.2464 349.46 53.8145C350.075 53.7337 350.687 53.6316 351.304 53.5617C351.556 53.5328 351.793 53.6366 351.915 53.8697C352.024 54.0794 351.921 54.2589 351.753 54.4151C350.253 55.81 349.945 57.6763 349.693 59.5764C349.404 61.767 349.996 63.6358 351.486 65.2882C352.094 65.9633 352.673 66.0294 353.385 65.6762C354.342 65.202 355.272 64.6872 356.168 64.0928C358.089 62.8176 360.138 62.1793 362.413 63.17C363.072 63.4571 363.779 63.5366 364.429 63.2495C366.974 62.1257 369.189 62.8544 371.307 64.3532C372.124 64.9307 373.018 65.3869 373.946 65.7653C374.54 66.0076 375.003 65.926 375.491 65.3945C378.039 62.6192 378.106 57.4938 375.587 54.6666C375.378 54.4318 374.937 54.2548 375.205 53.8283C375.421 53.4834 375.799 53.5366 376.146 53.588C376.657 53.6642 377.166 53.7621 377.679 53.8237C381.159 54.2376 385.227 52.5936 386.335 48.6866C386.545 47.9474 386.776 47.1912 386.548 46.3085C385.239 46.989 383.919 47.1204 382.591 46.7077C382.04 46.5366 381.755 46.6651 381.369 47.0735C379.636 48.9071 377.525 49.9526 374.95 49.9087C371.256 49.8455 368.214 48.2509 365.388 45.8564C364.181 46.7684 362.854 46.681 361.559 45.7891Z" fill="#A31334"/>
<path d="M344.427 53.8281C344.591 54.2563 344.64 54.4124 344.708 54.5606C345.694 56.7043 345.652 58.7547 344.191 60.6971C343.881 61.1085 343.61 61.5555 343.372 62.0126C342.578 63.5356 342.786 64.818 343.968 66.0531C344.42 66.5252 344.885 67.0007 345.252 67.5372C346.313 69.0875 346.652 70.7076 345.671 72.4625C344.558 74.4523 345.196 76.5684 347.222 77.6365C347.982 78.037 348.79 78.3505 349.59 78.669C351.321 79.3583 352.295 80.5972 352.493 82.4668C352.551 83.0222 352.464 83.6186 352.783 84.2539C354.131 83.5081 355.577 83.2059 356.986 82.666C356.783 81.9984 356.666 81.4188 356.437 80.8868C355.076 77.7239 353.757 74.541 352.284 71.4304C351.569 69.9183 351.075 68.2701 349.934 66.971C349.691 66.6947 349.447 66.3737 349.554 65.9464C349.692 65.3968 350.252 65.7656 350.585 65.5475C349.316 63.9085 348.609 62.1482 348.815 60.1187C349.009 58.211 349.226 56.3008 350.513 54.5555C348.363 54.6568 346.463 54.8242 344.427 53.8281Z" fill="#FBB752"/>
<path d="M376.574 54.56C377.857 56.3162 378.07 58.231 378.268 60.1441C378.481 62.1978 377.707 63.9615 376.482 65.6102C377.643 65.6478 377.831 65.9613 377.25 66.8222C376.673 67.6777 376.114 68.5273 375.694 69.4841C374.145 73.0153 372.527 76.5155 370.97 80.0425C370.6 80.8787 370.236 81.7392 370.184 82.7521C371.627 83.1401 372.996 83.6473 374.432 84.2387C374.482 83.6758 374.531 83.2685 374.551 82.8601C374.659 80.6858 375.743 79.2598 377.8 78.5479C378.385 78.3457 378.951 78.0842 379.511 77.818C381.909 76.6775 382.607 74.5496 381.295 72.2682C380.969 71.7007 380.868 71.1365 380.854 70.5016C380.811 68.5951 381.89 67.2843 383.123 66.0358C384.291 64.8547 384.502 63.569 383.744 62.0899C383.446 61.5098 383.079 60.9611 382.702 60.427C381.5 58.7186 381.475 56.9067 382.164 55.0129C382.276 54.7036 382.554 54.4478 382.479 53.9414C380.647 54.8094 378.726 54.6717 376.574 54.56Z" fill="#FBB752"/>
<path d="M367.46 24.9389C367.46 23.0341 367.46 21.5512 367.46 20.0688C367.459 18.7086 367.173 17.3981 366.728 16.122C366.313 14.9346 365.734 14.563 364.51 14.5994C363.822 14.6199 363.125 14.6634 362.445 14.5831C361.398 14.4592 360.817 15.0405 360.469 15.8596C360.162 16.5816 359.915 17.3655 359.836 18.1419C359.424 22.1975 359.415 26.2798 359.776 30.3229C360.128 34.2605 360.91 38.1591 361.49 42.077C361.539 42.4072 361.618 42.6312 361.944 42.8061C362.989 43.3657 363.981 43.4289 365.067 42.8475C365.909 42.3968 365.604 41.6313 365.695 41.0248C366.517 35.5479 367.795 30.117 367.46 24.9389Z" fill="#FBB752"/>
<path d="M386.961 49.8203C386.335 50.7675 385.81 51.7845 384.933 52.4353C383.903 53.2004 383.373 54.2476 382.934 55.345C382.319 56.8869 382.334 58.4371 383.323 59.8756C383.654 60.3578 383.99 60.8403 384.28 61.348C385.397 63.3017 385.161 65.0926 383.623 66.6994C383.195 67.1464 382.752 67.598 382.419 68.114C381.615 69.36 381.297 70.6311 382.116 72.0646C383.483 74.4578 382.658 77.1163 380.207 78.3757C379.321 78.831 378.377 79.1734 377.464 79.5777C376.257 80.1126 375.568 81.0761 375.413 82.353C375.248 83.7174 374.955 85.1287 376.511 86.0633C377.037 86.3793 377.373 86.4752 377.879 86.1491C379.106 85.3585 380.24 84.4645 381.083 83.2608C383.341 80.0339 384.908 76.455 385.824 72.6635C386.729 68.9151 386.953 65.0441 387.068 61.1831C387.18 57.4033 387.143 53.6256 386.961 49.8203Z" fill="#C66B3F"/>
<path d="M340.102 49.8281C339.983 55.6855 339.909 61.5111 340.422 67.3555C340.844 72.1716 342.293 76.5729 344.454 80.806C345.565 82.9836 347.024 84.8888 349.197 86.1356C349.508 86.3139 349.844 86.6554 350.222 86.3068C351.017 85.5743 352.164 85.0327 351.752 83.6005C351.678 83.3427 351.72 83.0522 351.705 82.7768C351.622 81.2182 350.885 80.1108 349.436 79.4964C348.739 79.2005 348.031 78.928 347.343 78.6103C344.363 77.2334 343.508 74.6535 345.105 71.8029C345.41 71.2588 345.452 70.7398 345.409 70.1283C345.299 68.5705 344.321 67.5522 343.309 66.5691C342.483 65.7672 342.151 64.8678 342.142 63.7164C342.13 62.2122 342.933 61.1185 343.689 59.9692C344.997 57.982 344.768 54.7677 342.996 53.2044C341.863 52.2058 340.956 51.0959 340.102 49.8281Z" fill="#C66B3F"/>
<path d="M350.898 66.7432C353.885 71.6739 358.65 72.9299 363.663 72.9073C368.598 72.8851 373.281 71.5915 376.211 66.7046C373.756 67.0554 372.046 65.7483 370.235 64.6082C368.617 63.5895 366.871 63.0676 364.945 63.9155C364.04 64.3144 363.037 64.3131 362.129 63.9088C360.244 63.0693 358.51 63.5732 356.931 64.5664C355.09 65.724 353.349 67.0127 350.898 66.7432Z" fill="#6694D2"/>
<path d="M355.895 72.3891C357.488 75.5628 358.189 78.9325 358.881 82.3603C362.12 81.393 365.177 81.5152 368.268 82.3356C368.811 78.7864 369.723 75.5176 371.369 72.1836C366.044 74.2118 361.004 74.2005 355.895 72.3891Z" fill="#A31334"/>
<path d="M376.574 15.6211C377.693 17.2341 377.798 18.794 377.855 20.3941C378.089 26.9533 376.676 33.3326 375.795 39.7701C375.749 40.1041 375.57 40.4486 376.035 40.6444C377.203 41.1366 378.368 41.6389 379.624 42.1754C379.722 41.7586 379.824 41.4342 379.874 41.1023C380.82 34.7205 381.376 28.3115 381.049 21.8556C380.966 20.2179 380.933 18.542 380.051 17.0445C379.866 16.7298 379.717 16.4766 379.347 16.3807C378.521 16.1669 377.7 15.9312 376.574 15.6211Z" fill="#FBB752"/>
<path d="M347.462 42.0461C347.571 42.057 347.648 42.0892 347.701 42.0666C348.368 41.7862 349.033 41.5029 349.694 41.2099C351.318 40.49 351.264 40.4933 351.087 38.7903C350.624 34.338 349.53 29.9618 349.361 25.4826C349.238 22.2285 348.636 18.8936 350.355 15.668C349.611 15.8684 348.998 16.0832 348.365 16.1916C347.576 16.3272 347.136 16.744 346.813 17.4785C346.11 19.0765 346.117 20.7699 346.017 22.4457C345.689 27.9361 346.312 33.3833 346.845 38.8313C346.951 39.9191 347.097 41.0153 347.462 42.0461Z" fill="#FBB752"/>
<path d="M342.915 19.4141C340.625 21.3954 339.343 23.9623 339.218 26.8807C339.037 31.1125 338.809 35.3523 338.943 39.595C338.98 40.7798 339.338 41.8998 339.535 43.0521C339.591 43.3781 339.773 43.5451 340.079 43.5715C341.476 43.6928 342.866 43.6711 344.423 43.4191C342.955 35.4029 342.258 27.4667 342.915 19.4141Z" fill="#FBB752"/>
<path d="M382.668 43.4573C384.238 43.6365 385.538 43.6838 386.845 43.5996C387.21 43.5762 387.489 43.4636 387.569 43.02C387.776 41.8694 388.058 40.7398 388.105 39.5553C388.256 35.7605 387.934 31.974 387.961 28.1838C387.98 25.5708 387.189 23.2388 385.798 21.0754C385.373 20.4145 384.88 19.8085 384.054 19.2773C384.837 27.4563 384.138 35.4127 382.668 43.4573Z" fill="#FBB752"/>
<path d="M374.735 87.7415C373.103 86.6244 371.698 85.5701 369.998 85.2123C365.7 84.3078 361.364 84.2973 357.07 85.2223C355.362 85.5902 353.922 86.6148 352.383 87.7519C354.943 88.8995 357.312 89.7818 359.937 89.7542C362.384 89.7282 364.832 89.7416 367.28 89.7508C369.864 89.7609 372.2 88.8786 374.735 87.7415Z" fill="#A31334"/>
<path d="M357.121 14.761C356.271 14.5773 355.557 14.8434 354.856 14.7861C353.711 14.6923 353.376 15.3612 353.169 16.2815C352.802 17.9109 352.755 19.557 352.853 21.2123C353.127 25.8153 353.63 30.3933 354.336 34.9507C354.531 36.2063 354.577 37.4845 354.719 38.7493C354.754 39.0645 354.66 39.5504 355.098 39.6123C355.936 39.7312 356.673 40.1836 357.574 40.3937C357.532 40.0262 357.522 39.7885 357.476 39.5579C356.189 33.1267 355.386 26.652 355.661 20.0739C355.738 18.229 355.971 16.4402 357.121 14.761Z" fill="#FBB752"/>
<path d="M369.477 40.4218C370.223 40.1598 370.813 39.8551 371.435 39.761C372.118 39.6576 372.319 39.3441 372.395 38.7013C372.735 35.8 372.967 32.8912 373.437 29.997C373.943 26.8823 374.032 23.6976 374.256 20.5402C374.36 19.059 374.252 17.5753 373.869 16.1326C373.743 15.6576 373.685 14.9896 373.101 14.9076C372.107 14.7674 371.094 14.5878 369.952 14.7247C370.7 15.8455 371.161 16.9554 371.245 18.1696C371.595 23.1966 371.535 28.2124 370.705 33.1975C370.31 35.5631 369.901 37.9265 369.477 40.4218Z" fill="#FBB752"/>
<path d="M340.295 44.5389C340.116 44.8893 340.199 45.1504 340.532 45.3262C341.169 45.6635 341.786 46.0139 342.544 46.08C343.989 46.206 345.112 45.6024 346.243 44.7846C350.389 41.7858 354.712 40.7181 359.383 43.7211C360.479 44.4259 361.717 44.9077 362.871 45.5271C363.348 45.7832 363.752 45.777 364.226 45.5217C365.803 44.6708 367.384 43.8249 368.988 43.0264C371.227 41.9118 373.562 41.5502 375.995 42.3186C377.885 42.915 379.614 43.8191 381.194 45.0249C382.925 46.3462 384.698 46.4562 386.387 45.4287C386.738 45.2153 387.044 45.019 386.742 44.454C386.45 44.454 386.11 44.4397 385.771 44.4565C383.914 44.5477 382.162 44.2087 380.445 43.4457C378.494 42.5789 376.545 41.705 374.546 40.9404C372.737 40.249 371.16 40.4963 369.512 41.405C367.888 42.3006 366.292 43.2662 364.531 43.9103C363.836 44.1648 363.24 44.166 362.548 43.9044C360.538 43.1448 358.733 41.9871 356.823 41.0354C355.569 40.4101 354.344 40.3364 353.03 40.7939C351.66 41.271 350.307 41.7833 349 42.4086C346.336 43.6826 343.638 44.7993 340.583 44.4661C340.488 44.4561 340.386 44.5147 340.295 44.5389Z" fill="#A31334"/>
<path d="M366.352 42.0105C367.873 41.579 368.863 40.9621 368.871 39.3863C368.874 38.7062 369.045 38.021 369.186 37.3484C370.41 31.5182 370.762 25.6215 370.578 19.6808C370.54 18.4629 370.377 17.2692 369.838 16.1702C369.354 15.1858 368.403 14.1729 367.049 14.7509C367.575 15.9492 368.042 17.1805 368.125 18.4934C368.481 24.1403 368.494 29.7709 367.421 35.3667C367.009 37.5192 366.866 39.7203 366.352 42.0105Z" fill="#A31334"/>
<path d="M360.046 14.7306C358.684 14.2371 357.789 15.0758 357.228 16.1967C356.729 17.194 356.564 18.2877 356.508 19.3993C356.172 26.1846 357.013 32.8606 358.202 39.5237C358.474 41.0522 359.344 41.5394 360.53 41.9943C360.69 41.577 360.602 41.2037 360.536 40.8392C359.421 34.6335 358.493 28.4187 358.745 22.0725C358.845 19.545 358.927 17.0563 360.046 14.7306Z" fill="#A31334"/>
<path d="M346.395 45.7799C349.914 50.4511 358.512 48.2476 360.166 45.196C355.067 41.5941 351.08 42.1344 346.395 45.7799Z" fill="white"/>
<path d="M380.653 45.7983C376.076 42.034 371.72 41.659 366.918 45.2421C369.023 48.5431 377.478 50.2411 380.653 45.7983Z" fill="white"/>
<path d="M374.262 15.1302C375.132 17.2769 375.174 19.4574 374.972 21.6702C374.631 25.4052 374.597 29.159 373.783 32.861C373.301 35.0575 373.308 37.3611 373.094 39.6241C373.706 39.8371 374.228 40.0899 374.824 40.1054C375.137 39.5036 375.224 38.8963 375.294 38.2793C375.469 36.7395 375.571 35.1847 375.863 33.6667C376.759 29.0084 377.122 24.3145 377.023 19.578C377.005 18.7112 376.902 17.8657 376.672 17.0262C376.347 15.8404 375.727 15.0532 374.262 15.1302Z" fill="#A31334"/>
<path d="M352.262 40.2474C352.869 39.7602 354.073 40.219 353.945 39.1504C353.667 36.8246 353.585 34.4817 353.217 32.1626C352.32 26.5082 351.454 20.8437 352.621 15.124C351.357 15.0336 350.738 15.8464 350.429 17.0175C350.307 17.4829 350.147 17.9559 350.133 18.4296C350.053 21.0476 350.032 23.663 350.218 26.2826C350.428 29.2462 350.986 32.1571 351.432 35.0835C351.684 36.7397 351.601 38.4565 352.262 40.2474Z" fill="#A31334"/>
<path d="M380.884 16.9688C381.124 17.6426 381.343 18.1457 381.478 18.6705C381.614 19.2016 381.705 19.7516 381.746 20.2982C382.28 27.3028 381.775 34.253 380.602 41.1638C380.347 42.6647 380.367 42.7383 381.948 42.9794C382.02 42.5433 382.091 42.1059 382.164 41.669C382.658 38.7158 383.02 35.7446 383.315 32.7663C383.747 28.4019 383.645 24.0407 383.259 19.6762C383.129 18.2047 382.241 17.5166 380.884 16.9688Z" fill="#A31334"/>
<path d="M346.278 16.9766C344.411 17.7174 344.111 18.0719 343.829 19.7816C343.75 20.2558 343.708 20.7371 343.672 21.2167C343.219 27.2897 343.663 33.3208 344.544 39.3292C344.726 40.5681 344.958 41.7998 345.174 43.0764C346.087 42.8068 346.804 42.7445 346.573 41.4625C345.504 35.5264 344.917 29.5385 345.187 23.4957C345.283 21.3448 345.133 19.1458 346.278 16.9766Z" fill="#A31334"/>
<path d="M350.941 86.9265C351.36 87.489 351.741 87.1809 352.148 86.898C353.65 85.8546 355.168 84.7928 356.973 84.383C360.742 83.5275 364.564 83.7389 368.374 84.0386C370.828 84.2315 372.875 85.4499 374.841 86.8206C375.251 87.1069 375.65 87.5538 376.149 86.9445C371.324 81.2892 356.135 81.0779 350.941 86.9265Z" fill="#FBB752"/>
<path d="M352.711 70.3359C354.183 74.4765 356.559 78.1801 357.754 82.4697C358.091 82.129 357.963 81.8452 357.915 81.6104C357.307 78.6757 356.569 75.7878 355.23 73.0736C354.646 71.8916 353.896 70.9487 352.711 70.3359Z" fill="#C66B3F"/>
<path d="M374.392 70.3359C372.655 71.4559 372.648 71.4526 371.537 73.8073C370.257 76.5189 369.571 79.3943 369.211 82.3667C370.531 78.1948 372.891 74.4886 374.392 70.3359Z" fill="#C66B3F"/>
<path d="M360.975 47.7617C361.289 47.8827 361.309 48.1388 361.267 48.374C361.003 49.8343 360.723 51.2941 359.913 52.5778C359.549 53.1554 359.07 53.3814 358.333 53.5053C355.624 53.9606 354.31 54.9421 354.489 57.6153C354.498 57.7429 354.571 57.8664 354.664 58.1355C355.31 56.9008 356.28 56.3593 357.531 56.4049C358.838 56.4526 359.656 57.3206 360.339 58.2979C361.176 59.497 362.118 60.2751 363.744 60.1817C364.914 60.1148 365.695 59.6573 366.367 58.8102C366.73 58.3515 367.059 57.858 367.47 57.4462C369.087 55.8256 371.103 56.0588 372.331 57.9815C372.918 56.9753 372.498 55.0568 371.468 54.483C370.544 53.9686 369.594 53.4103 368.47 53.4739C368.031 53.4986 367.741 53.3107 367.498 53.003C366.386 51.5913 366.069 49.8996 365.822 48.1853C365.809 48.0953 365.868 47.9865 365.916 47.8994C365.945 47.8463 366.019 47.8174 366.091 47.7638C366.628 47.8571 366.593 48.3318 366.686 48.7076C366.942 49.7443 367.14 50.7982 367.644 51.757C367.997 52.4271 368.424 52.8021 369.298 52.8867C373.18 53.2625 374.382 56.664 372.776 59.3723C371.975 60.7246 369.768 61.2264 368.492 60.4019C367.881 60.0068 367.854 59.3798 367.581 58.6566C366.495 59.9352 365.485 61.051 363.603 61.0368C361.725 61.023 360.592 60.1173 359.523 58.5574C359.298 59.6607 358.922 60.4404 357.971 60.7304C357.047 61.0121 356.207 60.6865 355.371 60.3391C354.438 59.9511 354.049 59.1166 353.823 58.2548C353.103 55.4971 354.532 53.255 357.773 52.8909C358.637 52.7938 359.081 52.4472 359.436 51.7725C359.941 50.8137 360.142 49.7611 360.398 48.7243C360.491 48.3447 360.459 47.8747 360.975 47.7617Z" fill="#008080"/>
<path d="M364.908 30.248C364.887 31.085 364.465 31.5492 363.621 31.5036C362.861 31.463 362.159 31.2625 362.115 30.3011C362.076 29.4582 362.825 28.5675 363.555 28.5625C364.245 28.5579 364.899 29.372 364.908 30.248Z" fill="#A31334"/>
<path d="M362.461 36.2886C362.455 35.295 362.914 34.6906 363.663 34.7074C364.495 34.7262 365.118 35.4394 365.092 36.3803C365.07 37.1838 364.682 37.6539 363.831 37.6681C362.907 37.684 362.467 37.2466 362.461 36.2886Z" fill="#A31334"/>
<path d="M363.535 22.3438C364.31 22.3471 364.835 22.9117 364.849 23.7567C364.863 24.6691 364.445 25.0843 363.527 25.0697C362.613 25.055 362.099 24.5465 362.114 23.6714C362.126 22.9109 362.737 22.3404 363.535 22.3438Z" fill="#A31334"/>
<path d="M364.639 18.2675C364.619 18.9158 364.314 19.4117 363.474 19.3858C362.7 19.3619 362.133 19.0685 362.106 18.1955C362.082 17.3827 362.667 16.708 363.352 16.7189C364.098 16.7306 364.641 17.3379 364.639 18.2675Z" fill="#A31334"/>
<path d="M363.526 69.6455C361.292 69.6271 359.042 69.8264 356.836 69.2823C356.206 69.127 355.602 68.9868 355.561 68.179C355.516 67.3097 356.2 67.2147 356.794 67.0665C358.133 66.7326 359.482 66.4613 360.874 66.5141C363.555 66.6162 366.251 66.2726 368.918 66.7702C369.526 66.8836 370.127 67.0385 370.729 67.1871C371.208 67.3055 371.538 67.5684 371.534 68.1129C371.53 68.6699 371.251 69.0357 370.718 69.163C369.713 69.4032 368.704 69.6405 367.662 69.6443C366.284 69.6493 364.905 69.6455 363.526 69.6455Z" fill="#008080"/>
<path d="M370.591 68.3084C368.353 66.8595 358.607 66.8687 356.48 68.3197C361.176 69.0555 365.875 69.0597 370.591 68.3084Z" fill="#008080"/>
<path d="M360.902 75.6382C361.23 75.1314 361.616 75.3411 361.963 75.4377C363.487 75.8613 365.003 76.2585 366.509 75.362C366.743 75.2222 367.051 75.146 367.228 75.4729C367.348 75.6956 367.199 75.8617 367.021 75.9902C365.9 76.803 362.011 76.9235 360.902 75.6382Z" fill="#008080"/>
<rect x="504.751" y="0.837069" width="102.96" height="102.96" rx="51.4798" fill="black"/>
<rect x="504.751" y="0.837069" width="102.96" height="102.96" rx="51.4798" stroke="#FBB752" stroke-width="1.67414"/>
<path d="M556.559 9.70002C563.391 9.20626 569.163 11.7593 574.068 16.1612C578.16 19.8341 580.836 24.4588 581.682 30.0422C582.121 32.9358 582.231 35.8749 582.9 38.7333C583.35 40.6532 583.624 42.58 583.589 44.5653C583.571 45.6554 583.473 46.7118 582.983 47.6602C582.251 49.0788 582.155 50.5703 582.319 52.0857C582.844 56.9199 582.289 61.6516 581.284 66.386C580.61 69.5608 579.837 72.6623 578.153 75.4667C576.309 78.5393 574.402 81.5516 571.636 83.9351C569.049 86.1646 566.649 88.6268 563.748 90.464C561.517 91.8772 559.203 93.1599 556.928 94.5046C556.462 94.7802 556.021 94.7426 555.564 94.4721C552.182 92.47 548.66 90.677 545.631 88.1366C540.69 83.9919 536.068 79.5676 533.374 73.5238C532.571 71.7198 531.997 69.8564 531.587 67.9279C530.945 64.9011 530.361 61.8665 530.081 58.7814C529.845 56.1653 530.159 53.5638 530.323 50.9595C530.384 50.0049 530.279 49.1137 529.807 48.255C528.892 46.5916 528.907 44.8257 529.222 42.9967C529.687 40.3051 530.65 37.707 530.852 34.9782C531.037 32.4577 531.511 30.0014 532.006 27.5346C532.422 25.466 533.35 23.6287 534.4 21.8596C537.39 16.8261 541.733 13.3204 547.114 11.1398C550.13 9.91812 553.32 9.4224 556.559 9.70002Z" fill="#008080"/>
<path d="M580.106 67.0578C576.116 68.2321 569.332 65.7104 569.574 63.2287C570.114 63.2452 570.422 63.6618 570.779 63.9574C571.93 64.912 573.268 65.4399 574.713 65.703C577.936 66.2896 581.74 64.0592 580.942 59.5202C580.256 60.2372 579.509 60.7501 578.608 61.0591C576.057 61.9342 573.672 61.2184 571.396 60.2019C568.393 58.8608 565.402 57.4978 562.349 56.2757C561.673 56.0051 560.995 55.7236 560.209 55.6805C560.162 56.2326 560.066 56.7307 560.277 57.2268C560.734 57.2006 561.15 57.1638 561.567 57.1552C562.897 57.1285 563.566 57.5698 563.925 58.8318C564.357 60.3468 564.265 61.8265 563.445 63.2225C563.101 63.8078 562.614 64.0796 561.943 64.1097C561.059 64.1493 560.228 63.9249 559.44 63.6254C557.866 65.481 555.202 65.4583 553.796 63.6262C550.203 64.795 549.611 63.8106 549.085 61.565C548.801 60.3507 548.893 59.1122 549.586 58.015C550.408 56.7131 551.765 57.2797 552.924 57.1904C552.99 56.6465 553.036 56.1727 552.877 55.6523C552.16 55.7487 551.495 55.9887 550.842 56.2514C547.79 57.4778 544.795 58.8295 541.796 60.1792C539.458 61.2317 537.014 61.9471 534.399 61.0242C533.466 60.6949 532.772 60.0535 531.887 59.2998C532.07 60.6115 531.733 61.8939 532.314 62.7945C533.193 64.1552 534.369 65.3714 536.15 65.6697C538.315 66.0327 540.225 65.4309 542 64.2256C542.509 63.8795 542.89 63.3055 543.633 63.2217C543.802 64.0267 543.15 64.253 542.752 64.5945C539.94 67.0104 536.853 68.4068 533.092 67.0433C532.937 67.3562 533.061 67.6048 533.121 67.8437C533.938 71.0612 535.306 74.0512 537.06 76.8477C540.031 81.5852 543.918 85.4785 548.496 88.6577C550.532 90.0716 552.722 91.2635 554.831 92.5745C555.981 93.2895 557.084 93.3416 558.252 92.5815C559.44 91.8082 560.692 91.1331 561.898 90.3868C568.803 86.1145 574.549 80.7825 577.768 73.1126C578.588 71.1579 579.561 69.267 580.106 67.0578Z" fill="#6694D2"/>
<path d="M543.724 34.1586C540.486 34.1053 538.185 35.1069 536.202 36.9297C534.127 38.8366 532.749 41.2373 531.328 43.6239C530.681 44.7124 530.549 45.7387 530.967 46.9118C531.777 49.188 532.756 51.4031 534.746 52.8628C537.625 54.9761 540.807 55.388 544.171 54.0226C545.31 53.5598 546.382 52.9677 547.464 52.3961C553.541 49.186 559.608 49.1884 565.683 52.4023C566.821 53.0049 567.965 53.5935 569.157 54.099C573.213 55.8191 578.641 54.274 580.848 49.9006C581.478 48.6504 581.841 47.3237 582.325 46.0308C582.545 45.4438 582.455 44.9262 582.185 44.3655C581.242 42.4073 580.035 40.6119 578.749 38.8797C575.299 34.233 569.776 32.7991 564.85 35.2949C563.147 36.1575 561.677 37.4007 560.47 38.8965C559.527 40.0661 558.418 41.0254 557.2 41.8877C556.718 42.2287 556.364 42.1876 555.903 41.8634C554.681 41.0047 553.622 39.9968 552.633 38.8711C550.144 36.0357 547.224 33.9745 543.724 34.1586Z" fill="#FBB752"/>
<path d="M582.511 42.9324C582.443 42.4904 582.388 42.0459 582.305 41.6066C581.677 38.2881 579.645 35.7688 577.456 33.3967C574.468 30.1573 570.706 29.4348 566.557 30.5438C564.032 31.2188 562.148 32.9178 560.483 34.8322C559.521 35.9383 558.482 36.9247 557.283 37.7595C556.803 38.0939 556.39 38.1452 555.888 37.7842C554.916 37.0848 553.923 36.4 553.195 35.4446C552.203 34.1438 550.979 33.1132 549.698 32.1269C545.778 29.1099 539.865 29.4164 536.253 32.8164C533.864 35.0651 532.214 37.821 530.777 40.7221C530.363 41.5577 530.245 42.4673 530.489 43.4286C531.345 41.7546 532.463 40.2682 533.533 38.7572C537.402 33.291 543.32 32.0489 548.78 34.7014C550.577 35.5742 552.095 36.9341 553.356 38.518C554.128 39.4879 555.034 40.2956 556.037 41.0134C556.403 41.2753 556.693 41.3129 557.074 41.0353C557.938 40.4065 558.802 39.7702 559.446 38.9142C560.39 37.66 561.591 36.6972 562.792 35.7159C565.56 33.4542 568.774 33.087 572.12 33.6191C575.561 34.1661 577.937 36.3867 579.862 39.1264C580.745 40.3834 581.668 41.6199 582.511 42.9324Z" fill="#74B58D"/>
<path d="M535.707 32.0884C536.593 31.4266 537.508 30.8906 538.448 30.3976C538.837 30.1936 539.073 29.9027 539.294 29.5205C542.268 24.3867 546.313 20.475 552.042 18.5481C553.691 17.9936 555.403 17.4877 557.149 17.7074C564.846 18.6765 570.118 23.1145 573.897 29.6196C574.029 29.8455 574.128 30.0875 574.369 30.2124C575.438 30.7688 576.458 31.4035 577.477 32.225C576.977 28.6207 575.702 25.5218 573.22 22.8917C572.984 23.2844 572.724 23.685 572.328 23.1133C572.09 22.7711 571.657 22.387 572.526 22.1438C570.842 20.4131 569.057 18.9538 566.885 18.0312C561.368 15.6881 555.723 15.0432 549.89 16.7418C542.072 19.0195 537.189 23.99 535.707 32.0884Z" fill="#6694D2"/>
<path d="M559.39 54.6783C559.338 53.8117 559.257 52.7189 559.215 51.6249C559.197 51.1475 558.996 50.949 558.526 50.8922C557.272 50.7415 556.023 50.7666 554.768 50.8648C554.182 50.9107 553.938 51.1475 553.908 51.7584C553.811 53.7847 553.635 55.8087 553.888 57.8355C553.918 58.072 553.924 58.2932 553.699 58.4349C553.506 58.5559 553.353 58.4479 553.174 58.3484C551.154 57.2235 549.743 57.9772 549.75 60.2373C549.759 63.2277 550.83 64.0942 553.633 62.7371C554.166 62.4786 554.352 62.5718 554.565 63.0718C555.129 64.393 557.501 64.8562 558.223 63.651C558.915 62.4978 559.534 62.7931 560.43 63.1314C562.063 63.7481 562.835 63.2993 563.277 61.6364C563.43 61.0608 563.438 60.4836 563.386 59.9092C563.205 57.895 562.09 57.485 560.082 58.2489C559.856 58.3351 559.691 58.6151 559.411 58.4142C559.198 58.2611 559.212 58.0289 559.262 57.799C559.473 56.8417 559.334 55.871 559.39 54.6783Z" fill="#FBB752"/>
<path d="M569.347 29.298C569.02 28.6491 568.632 28.2208 568.238 27.8014C566.438 25.8886 564.258 24.4829 561.858 23.5165C556.242 21.2548 556.908 21.24 551.326 23.4993C548.684 24.5682 546.284 26.1063 544.426 28.3476C544.197 28.6233 543.857 28.8696 543.927 29.3234C544.635 29.4186 545.303 29.4961 545.966 29.603C546.335 29.6625 546.571 29.5012 546.802 29.2463C548.132 27.7787 549.83 26.8483 551.608 26.0711C553.237 25.3592 554.99 24.6466 556.723 24.8302C560.347 25.2136 563.653 26.5547 566.296 29.2087C566.529 29.4428 566.735 29.6692 567.116 29.6089C567.808 29.4988 568.503 29.4135 569.347 29.298Z" fill="#6694D2"/>
<path d="M573.94 17.2052C564.114 7.42708 547.4 8.56966 539.223 17.2354C544.519 13.8687 550.385 12.2484 556.559 12.2433C562.74 12.2386 568.606 13.871 573.94 17.2052Z" fill="#6694D2"/>
<path d="M550.738 31.925C551.714 32.7715 552.689 33.5186 553.419 34.514C554.094 35.433 554.975 36.137 555.867 36.8371C556.403 37.2585 556.773 37.1786 557.309 36.8187C559.292 35.4855 560.381 33.2606 562.454 31.952C560.812 30.4789 559.144 29.3536 557.17 28.7279C556.859 28.6296 556.548 28.565 556.221 28.6593C554.134 29.2596 552.388 30.4202 550.738 31.925Z" fill="#6694D2"/>
<path d="M574.023 58.5872C575.409 58.6835 576.632 58.9647 577.806 58.0625C577.078 57.2496 576.474 56.4438 575.91 55.4609C575.264 56.5311 574.692 57.4795 574.023 58.5872Z" fill="#472C23"/>
<path d="M535.336 58.0871C536.535 58.9576 537.762 58.6968 539.245 58.5613C538.312 57.5511 537.944 56.4563 537.191 55.4688C536.679 56.4704 536.052 57.1963 535.336 58.0871Z" fill="#472C23"/>
<path d="M573.094 58.1856C574.024 57.4562 574.401 56.4408 575.025 55.375C573.768 55.4506 572.701 55.5148 571.52 55.5857C571.913 56.6116 572.391 57.4166 573.094 58.1856Z" fill="white"/>
<path d="M540.057 58.233C540.697 57.3763 541.28 56.6303 541.571 55.5802C540.432 55.514 539.366 55.4525 538.168 55.3828C538.697 56.4537 539.13 57.4045 540.057 58.233Z" fill="white"/>
<path d="M550.102 54.0848C550.641 53.9023 551.176 53.7042 551.721 53.5409C553.261 53.0792 553.336 52.9586 553.047 51.2248C551.094 51.103 550.847 52.8494 550.102 54.0848Z" fill="#472C23"/>
<path d="M560.016 51.2294C560.016 51.6699 560.005 52.0513 560.019 52.4315C560.031 52.7788 560.003 53.1402 560.47 53.2725C561.347 53.5204 562.214 53.8012 563.085 54.0682C562.274 52.8896 562.077 51.0994 560.016 51.2294Z" fill="#472C23"/>
<path d="M579.198 57.3187C580.201 56.9554 580.472 56.1436 580.747 55.3272C581.136 54.1745 580.919 53.8295 579.609 53.5859C579.331 54.7873 579.027 55.9839 579.198 57.3187Z" fill="#472C23"/>
<path d="M533.977 57.3668C534.054 55.963 533.867 54.7374 533.465 53.4648C532.895 53.753 532.068 53.9351 532.178 54.5092C532.382 55.5656 532.616 56.743 533.977 57.3668Z" fill="#472C23"/>
<path d="M547.051 53.5096C547.249 54.0151 547.611 54.2884 547.927 54.5962C548.337 54.9948 548.685 54.8781 548.939 54.4294C549.375 53.6592 549.784 52.8737 550.276 51.9609C548.995 52.2742 548.097 53.0005 547.051 53.5096Z" fill="white"/>
<path d="M562.844 51.9414C563.28 52.7359 563.624 53.3483 563.955 53.9674C564.551 55.0837 564.791 55.1158 565.668 54.1616C565.833 53.9826 566.067 53.8264 565.997 53.4595C565.033 52.9877 564.145 52.2895 562.844 51.9414Z" fill="white"/>
<path d="M534.418 53.6484C534.587 54.9363 534.735 56.0577 534.896 57.2904C535.681 56.5296 536.242 55.7864 536.551 54.8169C535.853 54.4343 535.21 54.0823 534.418 53.6484Z" fill="white"/>
<path d="M578.253 57.2738C578.413 56.0063 578.553 54.8966 578.703 53.707C577.918 54.0637 577.212 54.4044 576.582 54.8974C576.968 55.8097 577.453 56.5788 578.253 57.2738Z" fill="white"/>
<path d="M542.454 55.832C541.991 56.6821 541.595 57.4081 541.121 58.2785C542.189 58.0357 542.972 57.6775 543.711 57.163C543.288 56.715 542.918 56.3234 542.454 55.832Z" fill="#472C23"/>
<path d="M569.461 57.2034C570.19 57.6596 570.961 58.0887 572.02 58.2266C571.542 57.3828 571.13 56.6556 570.723 55.9375C570.291 56.3714 569.909 56.7539 569.461 57.2034Z" fill="#472C23"/>
<path d="M570.113 55.2705C569.178 54.9154 568.361 54.6053 567.293 54.1992C567.858 55.1253 568.282 55.8195 568.737 56.5658C569.265 56.2408 569.653 55.836 570.113 55.2705Z" fill="white"/>
<path d="M543.023 55.2749C543.475 55.7913 543.834 56.2553 544.421 56.5447C544.866 55.8109 545.286 55.1186 545.845 54.1953C544.77 54.6068 543.952 54.9197 543.023 55.2749Z" fill="white"/>
<path d="M533.258 52.6855C532.744 52.0214 532.402 51.3225 531.773 50.7383C531.773 51.725 531.773 52.6013 531.773 53.6077C532.317 53.2701 532.761 52.9941 533.258 52.6855Z" fill="white"/>
<path d="M581.321 53.5859C581.321 52.58 581.321 51.7522 581.321 50.6641C580.756 51.4593 580.332 52.0549 579.883 52.6865C580.359 52.9849 580.758 53.2335 581.321 53.5859Z" fill="white"/>
<path d="M545.406 56.5025C546.254 56.0158 546.842 55.679 547.534 55.282C547.121 54.9758 546.971 54.5968 546.486 54.4805C546.32 55.154 545.803 55.6172 545.406 56.5025Z" fill="#472C23"/>
<path d="M565.699 55.3501C566.317 55.6775 566.866 56.0976 567.675 56.3157C567.254 55.6242 566.911 55.0612 566.557 54.4805C566.177 54.6653 565.927 54.9319 565.699 55.3501Z" fill="#472C23"/>
<path d="M572.144 67.761C570.08 65.9661 565.862 65.7089 563.699 67.4157C562.692 68.2109 561.656 69.0869 560.221 69.1781C559.61 67.4028 558.483 66.0773 556.632 66.0436C554.678 66.008 553.534 67.3985 552.907 69.1648C552.07 69.1468 551.417 68.8128 550.821 68.3601C549.069 67.0273 547.221 66.183 544.898 66.2124C541.939 66.25 539.753 68.7862 538.761 70.8556C538.707 70.9679 538.68 71.105 538.68 71.2303C538.677 73.7136 538.945 76.1276 540.433 78.242C540.99 79.033 541.521 79.8428 542.047 80.6541C543.651 83.1237 545.93 84.6696 548.726 85.4605C553.239 86.737 557.77 86.7958 562.408 85.9997C568.286 84.991 571.575 81.1314 573.741 76.1088C575.017 73.1494 574.936 70.1891 572.144 67.761ZM555.197 69.89C555.396 69.1115 555.901 68.6601 556.614 68.6362C557.343 68.6115 557.658 69.2321 557.996 69.8532C557.017 70.2138 556.129 70.188 555.197 69.89Z" fill="#008080"/>
<path d="M556.867 85.8166C557.714 85.8252 558.871 85.7516 560.021 85.5785C562.904 85.145 565.736 84.607 568.149 82.7596C569.871 81.4409 570.815 79.5504 572.029 77.8549C573.391 75.9543 573.706 73.774 573.71 71.512C573.711 71.0699 573.515 70.6967 573.275 70.3522C572.683 69.5025 572.009 68.7186 571.245 68.0204C569.705 66.6127 565.977 66.731 564.553 67.7667C563.075 68.8419 561.526 69.6556 559.801 70.266C556.401 71.4693 553.298 70.6638 550.396 68.946C548.629 67.9002 547.002 66.8418 544.802 67.0137C542.76 67.173 540.047 69.1152 539.492 71.0914C539.458 71.2144 539.434 71.3452 539.434 71.4724C539.429 73.6992 539.728 75.8478 541.03 77.7445C541.577 78.5425 542.118 79.3456 542.639 80.1612C544.115 82.4734 546.23 83.9339 548.822 84.6904C551.34 85.4242 553.919 85.8185 556.867 85.8166Z" fill="#472C23"/>
<path d="M556.57 67.534C557.387 67.9883 558.205 68.4444 558.61 69.3583C558.712 69.5874 558.83 69.7546 559.116 69.643C559.383 69.5385 559.394 69.3345 559.352 69.0901C559.186 68.1202 557.531 66.6926 556.566 66.6953C555.596 66.6981 553.945 68.1273 553.783 69.0952C553.742 69.3415 553.757 69.5436 554.025 69.6454C554.247 69.7299 554.398 69.6489 554.485 69.4402C554.888 68.484 555.717 67.9949 556.57 67.534Z" fill="#FBB752"/>
<path d="M546.159 61.082C546.73 61.1365 547.123 61.3671 547.049 61.9901C546.966 62.6831 546.512 62.9799 545.841 62.9596C545.33 62.9443 544.926 62.7188 544.946 62.1671C544.973 61.4199 545.491 61.1329 546.159 61.082Z" fill="#008080"/>
<path d="M567.5 62.222C567.434 62.6868 567.255 63.0521 566.724 63.0141C566.209 62.9773 565.895 62.6797 565.911 62.1425C565.925 61.6589 566.19 61.3645 566.693 61.3672C567.251 61.3699 567.471 61.7169 567.5 62.222Z" fill="#008080"/>
<path d="M543.997 37.0912C548.645 37.1154 551.231 39.9629 552.754 44.0117C552.925 44.4651 552.914 44.9632 552.594 45.3982C551.53 46.8427 550.327 48.1352 548.634 48.8428C547.475 49.3268 546.3 49.7778 545.114 50.1917C542.989 50.933 540.775 50.9192 538.767 50.0676C535.99 48.8902 534.785 47.3047 535.25 44.0085C535.747 40.4758 540.052 36.7932 543.997 37.0912Z" fill="#008080"/>
<path d="M551.632 43.4305C550.307 39.5391 546.388 37.1721 542.544 37.9474C538.986 38.6652 535.9 41.8435 536.09 44.7669C538.231 42.6266 540.782 41.5236 543.688 41.5455C546.439 41.5659 549.339 41.2405 551.632 43.4305Z" fill="#472C23"/>
<path d="M549.96 43.1641C550.231 44.6583 550.148 46.0068 549.605 47.335C550.428 46.6192 551.366 46.0468 551.835 44.9519C551.135 44.4746 550.877 43.5889 549.96 43.1641Z" fill="white"/>
<path d="M537.183 44.9688C535.691 45.8674 535.644 46.8056 537.04 47.8495C536.963 46.8764 537.111 45.9351 537.183 44.9688Z" fill="white"/>
<path d="M569.141 37.0912C573.206 36.8257 578.45 40.6274 577.98 46.1379C577.891 47.1799 577.293 47.9454 576.62 48.629C575.525 49.7419 574.161 50.4079 572.593 50.516C567.836 50.8445 563.795 49.3973 560.708 45.6296C560.294 45.1249 560.166 44.5748 560.379 44.0074C561.904 39.961 564.49 37.1127 569.141 37.0912Z" fill="#008080"/>
<path d="M561.496 43.4131C561.513 43.4366 561.526 43.4761 561.546 43.48C561.57 43.4847 561.612 43.4663 561.625 43.4448C562.06 42.7408 562.74 42.3805 563.497 42.1628C566.046 41.4302 568.634 41.339 571.248 41.7286C573.29 42.0332 575.032 42.9503 576.565 44.3066C576.71 44.4351 576.82 44.7041 577.105 44.5698C577.2 41.6796 573.646 38.3004 570.241 37.8494C566.495 37.3532 562.885 39.604 561.496 43.4131Z" fill="#472C23"/>
<path d="M563.567 47.3155C562.914 46.0119 562.962 44.6493 563.145 43.1484C562.251 43.6402 561.949 44.5029 561.277 44.9947C561.856 46.0358 562.672 46.687 563.567 47.3155Z" fill="white"/>
<path d="M576.087 47.9975C577.487 46.4688 577.437 45.8356 575.961 44.9844C576.029 45.9472 576.185 46.8878 576.087 47.9975Z" fill="white"/>
<path d="M557.891 54.115C557.896 54.9345 557.224 55.7685 556.562 55.7646C555.896 55.7607 555.233 54.9263 555.242 54.1052C555.251 53.3123 555.95 52.4379 556.572 52.4414C557.192 52.4453 557.887 53.3256 557.891 54.115Z" fill="#008080"/>
<path d="M557.778 58.9891C557.76 59.7264 557.191 60.3572 556.556 60.3455C555.876 60.3326 555.335 59.6555 555.369 58.8603C555.404 58.0306 556.009 57.2259 556.588 57.2384C557.198 57.2521 557.799 58.1367 557.778 58.9891Z" fill="#008080"/>
<path d="M558.176 32.7199C558.178 33.5712 557.319 34.4683 556.533 34.4338C555.757 34.3997 554.974 33.5496 554.969 32.7348C554.962 31.5554 555.64 30.7414 556.613 30.7621C557.532 30.7817 558.173 31.5848 558.176 32.7199Z" fill="#008080"/>
<path d="M556.532 80.3978C554.949 80.464 553.366 80.3462 551.837 79.9483C548.222 79.0078 545.623 76.9219 544.56 73.2064C544.481 72.9303 544.391 72.6327 544.419 72.3563C544.473 71.8308 544.82 71.6605 545.218 72.0145C547.06 73.6508 549.335 74.1853 551.657 74.627C555.254 75.3106 558.844 75.2112 562.408 74.4519C564.393 74.0291 566.357 73.486 567.896 72.0207C568.078 71.8465 568.299 71.7799 568.508 71.9279C568.83 72.1554 568.757 72.5016 568.682 72.8125C568.266 74.5393 567.49 76.035 566.186 77.3033C563.988 79.4409 561.291 80.186 558.361 80.3916C557.754 80.4343 557.142 80.3978 556.532 80.3978Z" fill="#008080"/>
<defs>
<linearGradient id="paint0_linear_2547_16799" x1="0" y1="52.883" x2="727" y2="52.883" gradientUnits="userSpaceOnUse">
<stop stop-color="#C39044"/>
<stop offset="1" stop-color="#B77C24"/>
</linearGradient>
</defs>
</svg>
