<svg width="22" height="22" viewBox="0 0 22 22" fill="none" xmlns="http://www.w3.org/2000/svg">
<g clip-path="url(#clip0_0_307)">
<path d="M15.5557 0.0769313C16.7261 0.132151 17.5254 0.318931 18.2241 0.593491C18.9473 0.875311 19.5602 1.25349 20.17 1.86553C20.7799 2.47757 21.1554 3.09093 21.4352 3.81517C21.7061 4.51543 21.8895 5.31535 21.9412 6.48641C21.9929 7.65747 22.0044 8.03389 21.9987 11.021C21.9929 14.0082 21.9797 14.3826 21.923 15.5561C21.8671 16.7263 21.681 17.5253 21.4064 18.2243C21.1242 18.9474 20.7464 19.5601 20.1342 20.1702C19.5219 20.7802 18.909 21.1549 18.183 21.4352C17.4834 21.7056 16.6832 21.8899 15.5124 21.9412C14.3416 21.9924 13.9647 22.0043 10.9784 21.9986C7.99215 21.9929 7.61617 21.9797 6.44291 21.924C5.26965 21.8684 4.47479 21.6809 3.77563 21.4077C3.05249 21.1248 2.43935 20.7477 1.82973 20.1352C1.22011 19.5227 0.844794 18.9089 0.565174 18.1842C0.294134 17.4846 0.109994 16.6845 0.0591746 15.5145C0.00791384 14.3404 -0.0041854 13.9655 0.00153432 10.9788C0.00725403 7.99209 0.0206729 7.61765 0.0763337 6.44461C0.131993 5.27157 0.318334 4.47495 0.592674 3.77557C0.875374 3.05243 1.25267 2.44017 1.86471 1.82967C2.47675 1.21917 3.09099 0.844071 3.81545 0.565111C4.51549 0.294291 5.31519 0.109711 6.48603 0.0591114C7.65687 0.00851137 8.03373 -0.00446863 11.0211 0.00125137C14.0085 0.00697137 14.3825 0.0197314 15.5557 0.0769313ZM15.4273 19.9623C16.4998 19.9156 17.0821 19.7374 17.4702 19.5883C17.9841 19.3903 18.3502 19.1509 18.7369 18.7679C19.1237 18.3849 19.3613 18.0175 19.5619 17.5047C19.7126 17.1166 19.8941 16.5349 19.9443 15.4624C19.9989 14.3032 20.0103 13.9552 20.0167 11.0184C20.0231 8.08163 20.0118 7.73403 19.961 6.57441C19.9153 5.50279 19.736 4.91979 19.587 4.53193C19.389 4.01735 19.1505 3.65193 18.7666 3.26539C18.3827 2.87885 18.0164 2.64081 17.5032 2.44017C17.1155 2.28881 16.5339 2.10885 15.4618 2.05781C14.3017 2.00281 13.9541 1.99181 11.0178 1.98543C8.08147 1.97905 7.73299 1.99005 6.57249 2.04109C5.50087 2.08773 4.91765 2.26527 4.53023 2.41509C4.01609 2.61309 3.65023 2.85091 3.26369 3.23547C2.87715 3.62003 2.63889 3.98501 2.43825 4.49937C2.28667 4.88591 2.10671 5.46737 2.05611 6.54009C2.00089 7.70015 1.98835 8.04797 1.98307 10.9841C1.97779 13.9202 1.98813 14.2689 2.03895 15.4281C2.08581 16.5006 2.26357 17.0831 2.41295 17.4717C2.61095 17.9854 2.84965 18.3517 3.23377 18.738C3.61789 19.1243 3.98375 19.3623 4.49723 19.563C4.88443 19.7141 5.46677 19.8945 6.53795 19.9456C7.69801 20.0001 8.04561 20.0116 10.983 20.0179C13.9205 20.0243 14.267 20.0124 15.427 19.9623M6.45985 5.12087C6.45941 5.38196 6.38156 5.63706 6.23614 5.8539C6.09071 6.07074 5.88425 6.23958 5.64286 6.33907C5.40147 6.43856 5.13599 6.46423 4.88001 6.41284C4.62403 6.36144 4.38904 6.23529 4.20476 6.05033C4.02048 5.86538 3.89519 5.62993 3.84474 5.37376C3.79428 5.11759 3.82093 4.85221 3.9213 4.61119C4.02168 4.37017 4.19128 4.16432 4.40865 4.01969C4.62602 3.87507 4.8814 3.79815 5.14249 3.79867C5.4925 3.79937 5.8279 3.93905 6.07494 4.187C6.32198 4.43495 6.46044 4.77086 6.45985 5.12087ZM16.648 11.0109C16.6419 14.1305 14.1084 16.6537 10.9894 16.6478C7.87049 16.6418 5.34555 14.1085 5.35149 10.9889C5.35743 7.86933 7.89161 5.34549 11.011 5.35165C14.1304 5.35781 16.654 7.89177 16.648 11.0109ZM14.6667 11.007C14.6682 10.2818 14.4545 9.57241 14.0528 8.96862C13.6511 8.36483 13.0794 7.89373 12.4099 7.61487C11.7404 7.33602 11.0033 7.26195 10.2918 7.40202C9.58022 7.5421 8.92618 7.89002 8.41236 8.40181C7.89854 8.9136 7.54803 9.56625 7.40514 10.2772C7.26225 10.9882 7.3334 11.7256 7.6096 12.3962C7.8858 13.0668 8.35464 13.6404 8.95683 14.0445C9.55902 14.4486 10.2675 14.665 10.9927 14.6664C11.4743 14.6675 11.9513 14.5736 12.3965 14.3902C12.8418 14.2069 13.2466 13.9376 13.5878 13.5977C13.9289 13.2579 14.1998 12.8542 14.385 12.4097C14.5701 11.9652 14.6658 11.4885 14.6667 11.007Z" fill="white"/>
</g>
<defs>
<clipPath id="clip0_0_307">
<rect width="21.3047" height="21.3047" fill="white" transform="matrix(-1.03264 0 0 1.03264 22 0)"/>
</clipPath>
</defs>
</svg>
