<svg width="47" height="51" viewBox="0 0 47 51" fill="none" xmlns="http://www.w3.org/2000/svg">
<path d="M46.3872 29.8277C46.3872 29.8277 45.4099 27.9765 42.8711 27.7197C42.8711 27.7197 41.2292 24.3617 38.3557 24.526C35.4846 24.6916 34.4026 26.2336 34.1081 26.488C33.8099 26.7411 31.7567 27.4105 31.7567 27.4105C31.7567 27.4105 31.2576 17.372 32.6488 14.2648C34.0423 11.1613 33.9036 8.06379 33.0967 4.82635C32.2898 1.58891 29.7716 -0.359618 29.4966 0.0554068C29.2142 0.469215 29.4041 1.64614 29.4041 1.64614C29.4041 1.64614 27.4604 0.397412 27.3691 1.49887C27.273 2.60276 27.4141 3.35127 27.4141 3.35127C27.4141 3.35127 25.8624 2.16337 25.6932 3.54597C25.524 4.93101 25.6263 5.84505 25.6263 5.84505C25.6263 5.84505 24.4834 4.94075 24.3763 5.88034C24.2655 6.82358 24.4104 7.62198 24.4104 7.62198C24.4104 7.62198 22.687 7.32623 23.5511 9.63138C23.5511 9.63138 21.6148 9.41599 21.3787 13.5382C21.1413 17.6581 22.8611 20.1811 21.8095 22.4266C20.7579 24.6782 20.3636 31.5389 20.3636 31.5389C20.3636 31.5389 11.7758 35.812 5.04172 40.5112C1.78481 42.7835 1.35276 43.2338 0.0589975 44.1941C-0.805131 44.8391 8.08569 41.8561 9.55957 41.3583C11.0286 40.8642 16.3715 37.4673 17.2284 36.8758C18.0925 36.2879 22.7929 35.4238 22.7929 35.4238C22.7929 35.4238 17.0215 42.1969 15.6681 43.2253C14.3123 44.2513 10.7487 46.0258 10.0793 47.3001C9.40622 48.5817 10.0902 49.8109 11.8683 50.0994C13.6526 50.3866 14.8052 47.1419 16.0332 46.4019C17.2551 45.6619 22.4959 45.1726 25.0311 43.9531C27.5651 42.7336 35.1779 38.6978 36.507 35.5443C37.8385 32.3872 39.1651 29.6731 40.387 29.3676C41.6077 29.0682 44.4557 28.6873 46.3872 29.8277Z" fill="#520A20"/>
</svg>
