<svg width="30" height="22" viewBox="0 0 30 22" fill="none" xmlns="http://www.w3.org/2000/svg">
<path d="M27.3042 19.4902C27.3042 19.4902 27.1764 18.6213 25.6295 18.0018C25.6295 18.0018 25.2461 16.0836 24.1203 15.7988C22.9981 15.5128 21.4317 15.0017 21.4317 15.0017C21.4317 15.0017 23.1125 12.1342 24.5426 11.4599C25.98 10.7869 28.2924 8.60467 28.8401 7.1527C29.3866 5.70072 29.4511 2.95133 28.7294 3.1558C28.0076 3.35662 27.8263 4.49824 27.8263 4.49824C27.8263 4.49824 27.55 3.23247 26.9585 3.61585C26.367 3.99923 26.0993 5.01913 26.0993 5.01913C26.0993 5.01913 26.0725 3.8471 25.4895 4.17815C24.9053 4.51163 24.5329 5.51449 24.5329 5.51449C24.5329 5.51449 24.2432 4.67105 23.6079 4.99357C22.9714 5.31975 23.3194 5.47918 22.5283 6.0999C21.7409 6.71452 20.0297 8.14338 18.9233 9.08053C17.8182 10.0189 14.997 11.7484 14.997 11.7484C14.997 11.7484 11.6805 8.56574 11.2606 7.86226C10.8395 7.16123 4.93297 3.24951 3.67329 1.82674C2.41361 0.406403 1.43145 -0.439468 1.00547 0.237229C0.583141 0.910275 1.41563 1.68311 1.41563 1.68311C1.41563 1.68311 0.187573 1.3813 0.273986 2.19066C0.356747 3.00124 1.06512 3.21787 1.06512 3.21787C1.06512 3.21787 -0.01565 2.99392 0.000172042 3.57934C0.0123429 4.16597 1.03466 4.75382 1.03466 4.75382C1.03466 4.75382 -0.0704407 4.3668 0.17541 5.14938C0.42126 5.93075 1.41686 6.35428 1.41686 6.35428C1.41686 6.35428 0.488226 6.20457 0.635493 6.5989C0.78276 6.99445 1.95115 7.66022 2.10815 7.68335C2.26394 7.71134 2.58887 8.66554 3.65747 9.94469C4.72729 11.2324 8.12297 13.2564 8.60859 13.8673C9.09786 14.4722 9.60902 16.2553 9.60902 16.2553C9.60902 16.2553 7.03368 17.4382 5.50746 17.353C3.98124 17.2703 2.4696 16.7664 1.98398 17.4857C1.49593 18.2026 0.601387 19.8128 1.58114 21.3487C1.58114 21.3487 5.42347 19.8895 7.44748 20.1572C9.47514 20.4274 14.3532 21.468 17.6564 20.7171C20.9632 19.9661 22.8691 18.9961 24.1008 18.9279C25.335 18.8586 26.1346 18.8257 27.3042 19.4902Z" fill="#520A20"/>
</svg>
