<svg width="50" height="36" viewBox="0 0 50 36" fill="none" xmlns="http://www.w3.org/2000/svg">
<path d="M34.9643 24.0751C34.9643 24.0751 34.5773 22.8434 33.6024 23.071C33.6024 23.071 33.5829 21.6701 33.0073 21.1894C32.4364 20.705 38.175 15.1478 38.6156 14.605C39.0562 14.0622 42.9459 10.26 44.7387 9.13543C46.5315 8.0145 49.5097 1.60533 49.5998 0C49.5998 0 43.4863 4.41313 41.9066 6.89233C40.3244 9.37152 36.7461 11.4345 35.2844 12.6528C33.8227 13.8747 29.4144 20.9715 28.5272 21.35C27.6387 21.7334 25.2496 22.7302 24.366 22.673C23.4775 22.6146 18.6116 19.7873 15.8902 19.3638C13.1737 18.9439 6.71463 17.8935 4.81477 17.8972C2.91612 17.8996 0 17.9653 0 17.9653C0 17.9653 4.0821 21.5862 7.59703 21.9111C11.1168 22.2349 16.4233 24.5193 18.3329 25.2192C20.2377 25.9178 23.1026 28.504 23.1026 28.504C23.1026 28.504 22.5915 31.1755 21.899 31.952C21.2077 32.7285 19.393 34.2061 19.1398 34.4373C18.8879 34.6746 20.178 35.3428 21.5947 35.2759C23.0187 35.209 24.3404 35.1627 25.7072 34.8463C27.0728 34.5286 31.2802 33.6389 32.5801 30.6096C33.8763 27.5815 33.7217 24.5802 33.7217 24.5802C33.7217 24.5802 34.654 24.0581 34.9643 24.0751Z" fill="#520A20"/>
</svg>
