<svg width="87" height="67" viewBox="0 0 87 67" fill="none" xmlns="http://www.w3.org/2000/svg">
<path d="M0.287958 62.0104C0.287958 62.0104 0.285523 58.2131 4.14367 55.6596C4.14367 55.6596 3.93067 48.8927 8.67486 46.7299C13.4166 44.5635 16.4508 46.1262 17.1409 46.2771C17.8358 46.4317 21.6916 45.7757 21.6916 45.7757C21.6916 45.7757 13.996 29.2684 9.14345 25.4626C4.28973 21.6641 1.89327 16.5864 0.453465 10.7177C-0.986343 4.84768 1.39183 -0.402812 2.19388 0.0243834C2.98742 0.452796 3.68359 2.50236 3.68359 2.50236C3.68359 2.50236 5.7429 -1.14767 6.82123 0.541642C7.90322 2.22852 8.31339 3.54784 8.31339 3.54784C8.31339 3.54784 9.79701 0.333522 11.2405 2.40743C12.6791 4.48134 13.2852 6.0392 13.2852 6.0392C13.2852 6.0392 14.3453 3.62451 15.3177 5.03754C16.2926 6.44936 16.7307 7.85752 16.7307 7.85752C16.7307 7.85752 19.2489 5.92723 19.8112 10.3513C19.8112 10.3513 22.7309 8.36991 26.5915 14.7718C30.4594 21.1724 29.8289 26.6675 33.4181 29.3816C36.9988 32.0957 43.4311 42.7634 43.4311 42.7634C43.4311 42.7634 60.8025 42.3521 75.573 44.1911C82.7087 45.0832 83.7749 45.4386 86.6655 45.8828C88.5958 46.1798 71.8256 48.9194 69.0458 49.3685C66.2709 49.8152 54.8437 48.8878 52.9645 48.6711C51.0902 48.4533 42.8213 51.0396 42.8213 51.0396C42.8213 51.0396 57.7926 57.0155 60.8353 57.5193C63.8768 58.0196 71.0881 57.8479 73.2399 59.3279C75.399 60.8079 75.3381 63.3613 72.7323 65.3269C70.1254 67.2901 65.5272 63.0668 62.9397 62.9171C60.3509 62.765 51.5441 66.4065 46.4494 66.5951C41.3571 66.7862 25.7432 66.7509 20.9455 62.8209C16.1465 58.8898 11.7285 55.6572 9.51951 56.2049C7.30564 56.7477 2.41907 58.5441 0.287958 62.0104Z" fill="#520A20"/>
</svg>
