<svg width="62" height="48" viewBox="0 0 62 48" fill="none" xmlns="http://www.w3.org/2000/svg">
<path d="M0 34.0667C0 34.0667 0.58296 32.3312 3.97862 31.6398C3.97862 31.6398 5.4829 27.8462 7.88785 27.6807C10.294 27.5115 13.6897 27.0393 13.6897 27.0393C13.6897 27.0393 11.3164 20.5461 8.62662 18.6353C5.93565 16.7196 2.01059 11.3961 1.41787 8.21711C0.828806 5.03444 1.71364 -0.626205 3.11937 0.0565777C4.52631 0.745446 4.47395 3.14675 4.47395 3.14675C4.47395 3.14675 5.5109 0.655384 6.58193 1.65948C7.65296 2.666 7.82583 4.85188 7.82583 4.85188C7.82583 4.85188 8.30897 2.46396 9.38365 3.35608C10.4535 4.25429 10.8454 6.44505 10.8454 6.44505C10.8454 6.44505 11.7521 4.82633 12.9363 5.72332C14.1218 6.62274 13.3514 6.82598 14.7377 8.38141C16.1203 9.94415 19.1058 13.498 21.0227 15.8324C22.9408 18.1655 28.0854 22.7552 28.0854 22.7552C28.0854 22.7552 36.0633 17.4584 37.1794 16.1744C38.3015 14.8867 51.8586 9.05568 54.9658 6.61178C58.0743 4.16423 60.3964 2.79502 61.0232 4.33341C61.6427 5.87789 59.6479 7.14853 59.6479 7.14853C59.6479 7.14853 62.2719 6.98542 61.8034 8.61509C61.3324 10.2411 59.7964 10.4286 59.7964 10.4286C59.7964 10.4286 62.0906 10.3653 61.8472 11.5617C61.6074 12.7617 59.2937 13.582 59.2937 13.582C59.2937 13.582 61.706 13.1974 60.91 14.709C60.1104 16.2219 57.9172 16.7221 57.9172 16.7221C57.9172 16.7221 59.8816 16.7598 59.43 17.518C58.9797 18.2678 56.335 19.1988 56.0101 19.1928C55.6802 19.1879 54.6603 21.0196 51.9912 23.2566C49.3258 25.496 41.6217 28.3902 40.3925 29.4588C39.1693 30.525 37.4581 33.9852 37.4581 33.9852C37.4581 33.9852 42.3082 37.3601 45.4604 37.7581C48.6188 38.1512 51.9085 37.6741 52.6363 39.3282C53.3666 40.9785 54.5995 44.6091 52.0266 47.3962C52.0266 47.3962 44.6973 42.9806 40.4387 42.7835C36.1862 42.5839 25.8046 42.91 19.3114 40.1558C12.8171 37.3979 9.26931 34.702 6.76942 34.1008C4.27197 33.5008 2.64107 33.1393 0 34.0667Z" fill="#520A20"/>
</svg>
