<svg width="716" height="98" viewBox="0 0 716 98" fill="none" xmlns="http://www.w3.org/2000/svg">
<path d="M55.1917 21.4096C54.0988 16.273 46.3392 15.7268 42.4048 15.2896C31.8036 14.5246 21.3116 15.5082 10.929 18.0219C8.41537 18.6776 6.01102 19.1147 3.38805 19.7704C2.40444 18.7868 1.85798 17.8032 0.874362 16.7103C2.7323 14.9616 4.69952 14.6337 6.55746 14.1965C18.5794 11.5735 30.6013 8.84132 42.514 6.65551C52.5687 4.79758 62.8421 3.59541 72.8968 2.28392C86.9953 0.207406 101.312 -0.229815 115.629 0.098056C118.252 0.207347 120.985 0.644538 123.717 1.19099C126.558 1.62815 128.088 3.59546 128.526 6.43702C128.526 6.87418 127.87 7.31131 127.433 8.07634C123.17 5.1255 118.252 5.45329 113.334 5.56258C101.094 6.10903 83.9351 6.43694 76.3941 8.18559C70.6017 14.3059 65.3558 19.3331 59.7819 25.3441C59.1262 25.8905 58.689 26.8744 58.3611 27.7487C56.066 36.8198 50.6015 44.2514 44.9184 51.246C40.7653 56.3826 36.2845 61.3009 31.6943 66.0004C24.1532 73.4321 16.2843 80.6452 8.634 88.077C7.21323 89.2792 5.79245 90.3719 4.15309 91.5741C2.73232 90.3719 1.53007 89.2793 0 87.8585C1.31149 85.6727 2.2951 83.5961 3.71587 81.7382C7.54104 76.6015 11.3662 71.5739 15.6285 66.6559C27.9784 52.5574 40.5468 38.3497 53.0059 24.2513C53.7709 23.2677 54.536 22.1746 55.1917 21.4096ZM45.902 11.9015C51.1479 13.3223 55.1917 15.5079 58.1425 18.6773C60.9841 15.9451 64.0442 12.8852 67.3229 9.49717C62.842 8.95072 50.6015 10.5901 45.902 11.9015ZM22.7325 67.8581C30.6014 62.5028 45.902 44.7978 48.7436 37.8032C39.6725 47.4207 30.9292 57.4755 22.7325 67.8581ZM90.9989 53.3225C97.6656 52.776 104.004 51.4647 110.343 50.809C111.655 50.6997 111.546 51.9018 112.311 53.4319C107.611 54.6341 96.682 57.0385 92.6382 57.4757C89.2502 57.8036 86.518 55.6177 86.518 52.5576C86.6273 50.6996 86.7366 48.4046 86.9551 45.6724C78.9769 48.0768 72.4196 54.1969 67.2829 60.0986C65.8621 61.9565 64.4413 63.7053 62.6927 65.6725C61.4905 64.9075 60.5068 64.2516 59.6325 63.7051C61.1626 58.787 68.1572 50.8088 77.8841 43.0492C79.742 42.9399 81.6 43.0494 83.13 42.6122C87.1738 41.1914 90.7803 43.3772 91.3268 47.093C91.5454 49.1696 90.9989 51.2459 90.9989 53.3225ZM108.051 52.9946C117.231 41.9562 118.652 40.8633 120.182 39.6612L123.57 42.6122C119.526 46.8745 115.045 50.3718 111.876 55.0713C109.581 58.35 109.253 62.2843 114.608 60.645C125.319 56.4919 130.455 54.634 139.854 50.9181C141.166 50.6995 142.259 51.1366 142.586 52.9946C136.575 55.6175 132.095 57.2571 126.958 59.5522C122.149 61.738 116.903 64.7979 112.422 65.1258C106.411 65.563 104.335 57.4755 108.051 52.9946ZM124.116 36.601C127.614 29.3878 129.799 28.6229 133.297 32.7759C131.33 34.6339 129.362 36.4918 127.067 38.5684C126.084 38.0219 124.991 37.2567 124.116 36.601ZM142.838 44.9072C148.958 34.7432 156.281 25.3441 165.242 17.4752C168.958 14.0872 173.221 11.1365 177.374 8.40424C179.45 7.09275 181.854 6.43697 184.15 5.78123C188.412 4.25116 192.019 8.8412 190.379 13.2128C189.505 15.5079 188.193 17.803 186.663 19.8795C183.166 23.9233 179.559 28.0765 175.625 31.9017C171.472 36.0547 167.21 39.8799 162.51 43.1586C166.007 41.7378 169.723 40.5357 173.439 39.5521C175.406 39.1149 177.702 38.8962 179.887 39.1148C184.259 39.2241 186.008 43.2677 183.712 47.2021C183.166 48.5136 182.292 49.4973 181.308 50.9181C184.368 51.3553 186.991 50.9183 189.614 50.809C193.439 50.4811 197.046 50.153 200.652 50.2623C202.838 50.2623 203.057 51.5739 202.51 53.9783C194.532 54.3061 192.565 54.3063 187.428 54.7434C185.024 54.962 182.51 55.399 180.215 55.7268C176.499 56.4919 172.674 57.3664 169.068 59.3337C163.822 61.9566 158.138 63.8145 152.674 65.891C150.925 66.656 149.067 66.6561 147.1 66.8747C146.444 65.6725 145.898 64.7981 145.242 63.8145C145.57 63.0495 145.789 62.5029 146.117 62.175C148.302 60.645 150.597 58.7872 153.002 57.8036C156.827 56.4921 160.761 55.3992 164.805 54.4155C168.302 53.7598 171.253 52.1204 173.876 50.1532C180.106 45.3444 181.855 41.3007 172.674 44.1423C162.729 47.0931 153.658 51.9017 145.789 59.1149C143.603 61.1914 141.199 63.0494 141.636 66.7653C138.029 65.8909 137.264 63.3773 137.045 60.7544C136.608 56.1642 140.324 48.9509 142.838 44.9072ZM150.597 45.4536C153.111 43.9235 155.734 42.8308 158.357 41.0821C167.1 35.1804 174.86 28.0766 181.636 19.5519C182.947 18.0219 184.15 16.2731 185.024 14.5244C185.789 13.3222 186.663 12.0109 185.898 10.153C181.745 9.93438 178.248 12.12 174.641 14.5244C163.712 22.7212 155.188 33.1039 147.974 44.6887C146.663 46.328 149.942 45.6722 150.597 45.4536ZM145.024 50.809C144.477 52.2298 143.931 53.5412 143.384 54.9619C144.259 54.3062 145.024 53.869 145.898 53.104C146.991 52.2296 148.084 51.2461 149.286 50.4811L148.849 50.6996C147.537 51.3553 146.226 51.4647 145.024 50.809ZM224.875 43.3771C226.842 42.0656 228.263 40.9726 229.902 39.6612C230.995 40.6448 232.088 41.5193 233.29 42.6122C229.247 46.8745 224.766 50.3718 221.596 55.0713C219.301 58.35 218.099 62.7215 223.782 60.3171C234.492 56.164 240.176 54.634 249.575 50.9181C250.886 50.6995 251.979 51.1366 252.307 52.9946C243.673 56.7104 238.208 58.5684 229.465 63.0493C222.471 66.2188 216.897 65.3444 214.055 58.1312C209.684 60.7542 206.514 62.831 203.235 64.7982C199.629 66.8747 198.864 66.5468 194.82 62.9402C195.694 56.9292 197.989 53.7598 201.815 50.4811C202.798 49.7161 203.782 48.8417 204.875 47.9673C210.667 43.5957 217.115 40.9727 224.875 43.3771ZM201.596 59.1149C209.137 54.9618 214.274 52.1204 221.596 46.7652C213.399 46.328 207.17 49.4973 201.596 59.1149ZM300.869 11.2457C303.82 14.743 303.82 16.3825 301.197 19.224C298.246 22.5028 295.077 25.5627 291.689 28.1857C281.306 35.836 270.268 42.2843 259.011 48.2952C254.64 50.5903 252.017 55.5082 252.235 61.1914C253.437 63.705 279.886 55.8362 296.498 50.3717C296.935 51.9018 298.028 52.9948 296.279 53.8692C286.771 58.3501 264.039 65.6724 254.64 65.5631C249.394 65.4538 246.771 60.7544 247.973 55.0713C248.41 52.8855 250.596 50.9183 249.175 48.951C250.924 47.0931 252.563 45.6722 253.765 44.0329C259.558 36.4918 265.459 29.388 272.782 23.377C278.902 18.3496 285.459 14.1966 293 11.5736C295.405 10.6993 299.012 9.38781 300.869 11.2457ZM297.591 15.3987C283.492 19.3331 268.957 31.9015 260.432 43.2677C273.875 35.5081 294.858 22.7212 297.591 15.3987ZM385.941 21.4096C384.848 16.273 377.092 15.7268 373.158 15.2896C362.557 14.5246 352.065 15.5082 341.682 18.0219C339.168 18.6776 336.764 19.1147 334.141 19.7704C333.157 18.7868 332.611 17.8032 331.627 16.7103C333.485 14.9616 335.453 14.6337 337.311 14.1965C349.332 11.5735 361.354 8.84132 373.267 6.65551C383.318 4.79758 393.591 3.59541 403.646 2.28392C417.745 0.207406 432.062 -0.229815 446.379 0.098056C449.002 0.207347 451.734 0.644538 454.466 1.19099C457.308 1.62815 458.838 3.59546 459.275 6.43702C459.275 6.87418 458.619 7.31131 458.182 8.07634C453.92 5.1255 449.002 5.45329 444.084 5.56258C431.843 6.10903 414.685 6.43694 407.143 8.18559C401.351 14.3059 396.105 19.3331 390.531 25.3441C389.876 25.8905 389.438 26.8744 389.111 27.7487C386.815 36.8198 381.351 44.2514 375.672 51.246C371.518 56.3826 367.038 61.3009 362.447 66.0004C354.906 73.4321 347.037 80.6452 339.387 88.077C337.966 89.2792 336.546 90.3719 334.906 91.5741C333.485 90.3719 332.283 89.2793 330.753 87.8585C332.065 85.6727 333.048 83.5961 334.469 81.7382C338.294 76.6015 342.119 71.5739 346.382 66.6559C358.731 52.5574 371.3 38.3497 383.755 24.2513C384.52 23.2677 385.285 22.1746 385.941 21.4096ZM376.655 11.9015C381.897 13.3223 385.941 15.5079 388.892 18.6773C391.734 15.9451 394.794 12.8852 398.072 9.49717C393.591 8.95072 381.351 10.5901 376.655 11.9015ZM353.486 67.8581C361.354 62.5028 376.655 44.7978 379.493 37.8032C370.426 47.4207 361.682 57.4755 353.486 67.8581ZM423.391 43.3771C425.359 42.0656 426.779 40.9726 428.419 39.6612C429.512 40.6448 430.605 41.5193 431.807 42.6122C427.763 46.8745 423.282 50.3718 420.113 55.0713C417.818 58.35 416.615 62.7215 422.298 60.3171C433.009 56.164 438.692 54.634 448.091 50.9181C449.403 50.6995 450.495 51.1366 450.823 52.9946C442.189 56.7104 436.725 58.5684 427.982 63.0493C420.987 66.2188 415.413 65.3444 412.572 58.1312C408.2 60.7542 405.031 62.831 401.752 64.7982C398.145 66.8747 397.38 66.5468 393.336 62.9402C394.211 56.9292 396.506 53.7598 400.331 50.4811C401.315 49.7161 402.298 48.8417 403.391 47.9673C409.184 43.5957 415.632 40.9727 423.391 43.3771ZM400.112 59.1149C407.653 54.9618 412.79 52.1204 420.113 46.7652C411.916 46.328 405.686 49.4973 400.112 59.1149ZM447.362 63.3772C443.537 67.8581 439.931 71.5742 436.761 75.3994C433.482 79.2245 430.532 83.0496 427.362 87.2027C425.832 86.1098 424.739 85.2354 423.537 84.361C423.974 82.9402 424.302 81.7381 425.067 80.7545C433.482 68.1861 442.444 55.8363 453.373 45.2351C455.013 43.5957 456.98 42.0655 458.838 40.5354C459.931 39.5518 461.352 39.0056 463.428 39.8799C463.647 40.645 463.975 42.0655 464.412 43.5956C459.166 43.9235 454.466 50.4809 451.953 54.1968C458.401 50.6995 467.035 43.3772 473.92 41.0821C476.98 39.9892 479.931 40.645 482.554 42.9401C484.958 45.2352 483.756 49.6066 481.789 52.4482C487.691 51.7924 492.937 51.574 498.948 50.809C500.696 50.5904 502.445 50.8089 502.773 54.0877C496.106 54.7434 485.395 55.727 478.182 57.1478C475.887 57.6943 473.592 58.6777 471.516 59.6613C465.942 62.2842 460.04 64.1423 453.811 65.2352C451.515 65.5631 449.439 65.4537 447.362 63.3772ZM453.155 59.9892C463.756 57.2569 475.013 55.2898 480.259 45.2351C473.592 44.47 464.521 50.0437 453.155 59.9892ZM523.611 47.8579C523.72 50.5902 512.572 54.1968 502.408 55.5083C501.753 62.2843 512.354 60.4265 516.507 60.208C529.731 58.1314 541.425 54.197 553.447 50.809C554.868 53.1041 553.119 53.7597 552.463 53.9783C537.053 59.1149 522.081 64.9073 508.747 64.9073C497.49 64.9073 494.102 53.5411 503.829 47.3115C508.201 44.3607 513.228 42.8308 519.02 42.9401C521.534 43.0494 523.064 44.3606 523.611 47.8579ZM507.764 50.809C511.152 50.044 513.665 49.3882 516.07 47.4209C512.682 47.4209 510.715 48.5139 507.764 50.809ZM576.447 43.2677C571.201 44.7978 566.938 47.093 562.785 50.0438C567.375 50.6996 571.966 50.0437 575.682 52.9946C581.583 51.6831 588.796 49.2788 594.152 49.7159C596.01 49.9345 595.791 50.809 596.119 53.2134C589.78 52.8855 585.408 54.8526 579.507 56.1641C576.884 56.9292 574.261 58.0222 571.856 59.0058C564.752 61.738 557.758 64.6888 550.435 67.4211C546.064 69.1697 541.583 70.6998 537.102 72.3392C534.916 73.1042 533.277 72.9949 532.075 70.4812C532.512 68.6233 534.151 68.4047 535.681 67.749C545.736 63.9238 555.681 59.8799 565.736 56.0547C566.61 55.7269 567.375 55.2899 569.343 54.4155C564.971 53.7598 561.692 54.0876 558.304 54.634C555.9 55.1805 553.823 54.7433 552.512 52.7761C551.419 51.3553 551.966 49.8254 553.605 49.2789C558.96 46.5467 564.315 43.705 569.671 41.3006C571.856 40.317 574.261 39.8797 576.447 43.2677ZM633.253 50.809L634.346 54.1968C624.292 58.6777 609.537 65.891 599.264 67.4211C592.925 68.514 588.663 63.596 590.63 57.4757C591.504 54.6341 593.253 52.2298 598.171 43.8144C594.455 44.5794 591.723 45.1258 588.663 45.8909C588.116 45.3444 587.57 44.6887 586.914 43.8144C584.51 41.1914 597.188 40.6447 601.996 39.0054C621.996 17.803 628.226 12.4481 636.423 10.153C639.483 12.5574 639.92 13.6501 637.953 16.0545C636.095 18.5682 634.018 20.8634 631.614 22.8306C625.166 28.5137 619.046 33.2131 613.362 38.2405C619.046 38.2405 628.226 37.2569 628.007 41.6285C621.996 41.9564 615.767 41.6285 609.319 42.5028C606.586 42.7214 604.291 43.5957 602.761 45.7815C599.264 51.246 595.329 56.8199 593.69 63.1587C595.767 63.7052 597.515 63.8145 604.51 61.4101C613.69 58.2407 624.619 54.5249 633.253 50.809ZM633.253 16.273C628.882 18.0216 614.674 32.2295 611.832 36.164C619.701 28.7322 633.363 18.6774 633.253 16.273ZM654.419 53.3225C661.086 52.776 667.425 51.4647 673.764 50.809C675.075 50.6997 674.966 51.9018 675.731 53.4319C671.031 54.6341 660.102 57.0385 656.059 57.4757C652.671 57.8036 649.938 55.6177 649.938 52.5576C650.048 50.6996 650.157 48.4046 650.376 45.6724C642.397 48.0768 635.84 54.1969 630.703 60.0986C629.283 61.9565 627.862 63.7053 626.113 65.6725C624.911 64.9075 623.927 64.2516 623.053 63.7051C624.583 58.787 631.578 50.8088 641.304 43.0492C643.162 42.9399 645.02 43.0494 646.55 42.6122C650.594 41.1914 654.201 43.3772 654.747 47.093C654.966 49.1696 654.419 51.2459 654.419 53.3225ZM690.048 61.0823C689.392 61.9566 687.425 64.2515 686.879 65.1258C696.715 60.9728 707.316 54.3062 714.748 51.0275C716.059 53.869 715.731 54.5248 715.403 54.634C708.19 58.3499 699.01 62.5028 692.671 66.328C675.731 76.3827 673.108 85.6724 664.583 93.6506C662.835 95.29 660.977 97.0387 657.917 97.3665L654.638 94.5252C654.638 93.7601 654.638 93.2135 654.856 92.7763C656.277 89.0604 659.009 86.2189 661.742 83.7052C665.567 80.0986 669.283 76.6013 673.436 73.6505C679.01 69.8253 682.507 64.1424 686.988 58.0221C682.944 59.115 679.228 60.9729 675.403 62.2844C670.048 59.7708 669.501 58.2406 671.578 53.6504C673.764 49.0602 677.589 44.1423 681.633 41.0821L684.037 43.3771C679.884 47.6394 676.715 52.1202 674.529 58.1312C680.212 56.929 684.474 54.0877 688.846 51.3554C692.78 48.7324 696.496 45.5629 700.649 42.1749C701.086 42.6121 701.851 43.268 703.163 44.1423C700.649 47.0931 698.463 49.7161 696.387 52.3391C694.31 54.8528 692.562 57.6942 690.048 61.0823Z" fill="black"/>
</svg>
