<svg width="200" height="308" viewBox="0 0 200 308" fill="none" xmlns="http://www.w3.org/2000/svg">
<path d="M0 0H90.5396V99.7122H39.8853V110.147H90.5396V144.931H0V74.2045H50.6543V34.7833H39.8853V63.7694H0V0ZM109.252 0H199.792V144.931H109.252V0ZM149.138 110.147H159.907V34.7833H149.138V110.147ZM0 162.644H90.5396V262.356H39.8853V272.792H90.5396V307.575H0V236.849H50.6543V197.428H39.8853V226.414H0V162.644ZM109.252 162.644H199.792V197.428H149.138V207.863H199.792V307.575H109.252V162.644ZM159.907 272.792V233.37H149.138V272.792H159.907Z" fill="#ED9A16"/>
</svg>
