<svg width="499" height="810" viewBox="0 0 499 810" fill="none" xmlns="http://www.w3.org/2000/svg">
<g filter="url(#filter0_n_488_9588)">
<path d="M213.724 84.5292L141.163 11.9679C132.207 3.01227 119.018 -0.228017 106.932 3.558L25.8555 28.9555C11.6621 33.4016 2.00148 46.5514 2.00148 61.4248V773.973C2.00148 792.765 17.2351 807.999 36.0266 807.999H462.936C484.71 807.999 500.881 787.829 496.147 766.576L437.773 504.515C435.878 496.007 430.79 488.551 423.559 483.685L365.32 444.493C358.816 440.116 354.022 433.626 351.751 426.121L305.076 271.911C304.51 270.04 304.106 268.125 303.868 266.185L289.225 146.449C287.954 136.064 281.978 126.841 273.018 121.44L220.217 89.6095C217.854 88.1855 215.674 86.4795 213.724 84.5292Z" fill="url(#paint0_linear_488_9588)"/>
<path d="M213.724 84.5292L141.163 11.9679C132.207 3.01227 119.018 -0.228017 106.932 3.558L25.8555 28.9555C11.6621 33.4016 2.00148 46.5514 2.00148 61.4248V773.973C2.00148 792.765 17.2351 807.999 36.0266 807.999H462.936C484.71 807.999 500.881 787.829 496.147 766.576L437.773 504.515C435.878 496.007 430.79 488.551 423.559 483.685L365.32 444.493C358.816 440.116 354.022 433.626 351.751 426.121L305.076 271.911C304.51 270.04 304.106 268.125 303.868 266.185L289.225 146.449C287.954 136.064 281.978 126.841 273.018 121.44L220.217 89.6095C217.854 88.1855 215.674 86.4795 213.724 84.5292Z" fill="url(#paint1_linear_488_9588)" fill-opacity="0.2"/>
<path d="M213.724 84.5292L141.163 11.9679C132.207 3.01227 119.018 -0.228017 106.932 3.558L25.8555 28.9555C11.6621 33.4016 2.00148 46.5514 2.00148 61.4248V773.973C2.00148 792.765 17.2351 807.999 36.0266 807.999H462.936C484.71 807.999 500.881 787.829 496.147 766.576L437.773 504.515C435.878 496.007 430.79 488.551 423.559 483.685L365.32 444.493C358.816 440.116 354.022 433.626 351.751 426.121L305.076 271.911C304.51 270.04 304.106 268.125 303.868 266.185L289.225 146.449C287.954 136.064 281.978 126.841 273.018 121.44L220.217 89.6095C217.854 88.1855 215.674 86.4795 213.724 84.5292Z" stroke="#87ACA1" stroke-width="4"/>
</g>
<defs>
<filter id="filter0_n_488_9588" x="0" y="0" width="498.976" height="810" filterUnits="userSpaceOnUse" color-interpolation-filters="sRGB">
<feFlood flood-opacity="0" result="BackgroundImageFix"/>
<feBlend mode="normal" in="SourceGraphic" in2="BackgroundImageFix" result="shape"/>
<feTurbulence type="fractalNoise" baseFrequency="2 2" stitchTiles="stitch" numOctaves="3" result="noise" seed="7129" />
<feColorMatrix in="noise" type="luminanceToAlpha" result="alphaNoise" />
<feComponentTransfer in="alphaNoise" result="coloredNoise1">
<feFuncA type="discrete" tableValues="1 1 1 1 1 1 1 1 1 1 1 1 1 1 1 1 1 1 1 1 1 1 1 1 1 1 1 1 1 1 1 1 1 1 1 1 1 1 1 1 1 1 1 1 1 1 1 1 1 1 1 0 0 0 0 0 0 0 0 0 0 0 0 0 0 0 0 0 0 0 0 0 0 0 0 0 0 0 0 0 0 0 0 0 0 0 0 0 0 0 0 0 0 0 0 0 0 0 0 0 "/>
</feComponentTransfer>
<feComposite operator="in" in2="shape" in="coloredNoise1" result="noise1Clipped" />
<feFlood flood-color="rgba(0, 0, 0, 0.25)" result="color1Flood" />
<feComposite operator="in" in2="noise1Clipped" in="color1Flood" result="color1" />
<feMerge result="effect1_noise_488_9588">
<feMergeNode in="shape" />
<feMergeNode in="color1" />
</feMerge>
</filter>
<linearGradient id="paint0_linear_488_9588" x1="274.203" y1="155.516" x2="175.129" y2="677.903" gradientUnits="userSpaceOnUse">
<stop stop-color="#37CFC1"/>
<stop offset="1" stop-color="#07534C"/>
</linearGradient>
<linearGradient id="paint1_linear_488_9588" x1="248.184" y1="143.507" x2="-36.5269" y2="331.146" gradientUnits="userSpaceOnUse">
<stop stop-color="#B46510"/>
<stop offset="1" stop-opacity="0"/>
</linearGradient>
</defs>
</svg>
