<svg width="454" height="798" viewBox="0 0 454 798" fill="none" xmlns="http://www.w3.org/2000/svg">
<g filter="url(#filter0_n_488_9575)">
<path d="M260.526 141.918L314.754 20.8065C322.874 2.67244 345.455 -3.65056 361.811 7.62969C369.462 12.9066 374.421 21.2681 375.381 30.5131L450.978 758.485C453.061 778.546 437.326 796 417.158 796H35.6215C5.34761 796 -9.4419 759.067 12.4646 738.172C15.3602 735.41 17.7383 732.152 19.4866 728.553L99.7207 563.365C101.132 560.459 102.123 557.366 102.661 554.18L152.376 260.278C152.693 258.404 152.853 256.507 152.853 254.606V223.081C152.853 209.887 160.486 197.883 172.435 192.288L243.912 158.815C251.297 155.357 257.193 149.36 260.526 141.918Z" fill="url(#paint0_linear_488_9575)"/>
<path d="M260.526 141.918L314.754 20.8065C322.874 2.67244 345.455 -3.65056 361.811 7.62969C369.462 12.9066 374.421 21.2681 375.381 30.5131L450.978 758.485C453.061 778.546 437.326 796 417.158 796H35.6215C5.34761 796 -9.4419 759.067 12.4646 738.172C15.3602 735.41 17.7383 732.152 19.4866 728.553L99.7207 563.365C101.132 560.459 102.123 557.366 102.661 554.18L152.376 260.278C152.693 258.404 152.853 256.507 152.853 254.606V223.081C152.853 209.887 160.486 197.883 172.435 192.288L243.912 158.815C251.297 155.357 257.193 149.36 260.526 141.918Z" fill="url(#paint1_linear_488_9575)" fill-opacity="0.2"/>
<path d="M260.526 141.918L314.754 20.8065C322.874 2.67244 345.455 -3.65056 361.811 7.62969C369.462 12.9066 374.421 21.2681 375.381 30.5131L450.978 758.485C453.061 778.546 437.326 796 417.158 796H35.6215C5.34761 796 -9.4419 759.067 12.4646 738.172C15.3602 735.41 17.7383 732.152 19.4866 728.553L99.7207 563.365C101.132 560.459 102.123 557.366 102.661 554.18L152.376 260.278C152.693 258.404 152.853 256.507 152.853 254.606V223.081C152.853 209.887 160.486 197.883 172.435 192.288L243.912 158.815C251.297 155.357 257.193 149.36 260.526 141.918Z" stroke="#87ACA1" stroke-width="4"/>
</g>
<defs>
<filter id="filter0_n_488_9575" x="0" y="0" width="453.165" height="798" filterUnits="userSpaceOnUse" color-interpolation-filters="sRGB">
<feFlood flood-opacity="0" result="BackgroundImageFix"/>
<feBlend mode="normal" in="SourceGraphic" in2="BackgroundImageFix" result="shape"/>
<feTurbulence type="fractalNoise" baseFrequency="2 2" stitchTiles="stitch" numOctaves="3" result="noise" seed="7129" />
<feColorMatrix in="noise" type="luminanceToAlpha" result="alphaNoise" />
<feComponentTransfer in="alphaNoise" result="coloredNoise1">
<feFuncA type="discrete" tableValues="1 1 1 1 1 1 1 1 1 1 1 1 1 1 1 1 1 1 1 1 1 1 1 1 1 1 1 1 1 1 1 1 1 1 1 1 1 1 1 1 1 1 1 1 1 1 1 1 1 1 1 0 0 0 0 0 0 0 0 0 0 0 0 0 0 0 0 0 0 0 0 0 0 0 0 0 0 0 0 0 0 0 0 0 0 0 0 0 0 0 0 0 0 0 0 0 0 0 0 0 "/>
</feComponentTransfer>
<feComposite operator="in" in2="shape" in="coloredNoise1" result="noise1Clipped" />
<feFlood flood-color="rgba(0, 0, 0, 0.25)" result="color1Flood" />
<feComposite operator="in" in2="noise1Clipped" in="color1Flood" result="color1" />
<feMerge result="effect1_noise_488_9575">
<feMergeNode in="shape" />
<feMergeNode in="color1" />
</feMerge>
</filter>
<linearGradient id="paint0_linear_488_9575" x1="182.855" y1="143.954" x2="281.862" y2="665.991" gradientUnits="userSpaceOnUse">
<stop stop-color="#869E91"/>
<stop offset="1" stop-color="#07534C"/>
</linearGradient>
<linearGradient id="paint1_linear_488_9575" x1="208.856" y1="131.953" x2="493.376" y2="319.466" gradientUnits="userSpaceOnUse">
<stop stop-color="#B46510"/>
<stop offset="1" stop-opacity="0"/>
</linearGradient>
</defs>
</svg>
