<svg width="512" height="817" viewBox="0 0 512 817" fill="none" xmlns="http://www.w3.org/2000/svg">
<g filter="url(#filter0_n_488_9591)">
<path d="M291.866 284.072L233.66 91.1217C230.349 80.1448 221.729 71.5755 210.733 68.3286L105.588 37.2819C102.761 36.4471 100.055 35.2484 97.537 33.7158L53.6926 7.02781C30.1742 -7.28771 0.281243 10.82 2.07687 38.294L50.7429 782.884C51.9117 800.767 66.7568 814.673 84.677 814.673H479.22C506.934 814.673 520.472 780.864 500.419 761.736C494.342 755.941 490.904 747.91 490.904 739.513V599.187C490.904 594.532 489.949 589.927 488.097 585.657L410.69 407.166C407.584 400.003 402.107 394.127 395.18 390.525L329.591 356.419C322.353 352.655 316.71 346.415 313.69 338.837L291.866 284.072Z" fill="url(#paint0_linear_488_9591)"/>
<path d="M291.866 284.072L233.66 91.1217C230.349 80.1448 221.729 71.5755 210.733 68.3286L105.588 37.2819C102.761 36.4471 100.055 35.2484 97.537 33.7158L53.6926 7.02781C30.1742 -7.28771 0.281243 10.82 2.07687 38.294L50.7429 782.884C51.9117 800.767 66.7568 814.673 84.677 814.673H479.22C506.934 814.673 520.472 780.864 500.419 761.736C494.342 755.941 490.904 747.91 490.904 739.513V599.187C490.904 594.532 489.949 589.927 488.097 585.657L410.69 407.166C407.584 400.003 402.107 394.127 395.18 390.525L329.591 356.419C322.353 352.655 316.71 346.415 313.69 338.837L291.866 284.072Z" fill="url(#paint1_linear_488_9591)" fill-opacity="0.2"/>
<path d="M291.866 284.072L233.66 91.1217C230.349 80.1448 221.729 71.5755 210.733 68.3286L105.588 37.2819C102.761 36.4471 100.055 35.2484 97.537 33.7158L53.6926 7.02781C30.1742 -7.28771 0.281243 10.82 2.07687 38.294L50.7429 782.884C51.9117 800.767 66.7568 814.673 84.677 814.673H479.22C506.934 814.673 520.472 780.864 500.419 761.736C494.342 755.941 490.904 747.91 490.904 739.513V599.187C490.904 594.532 489.949 589.927 488.097 585.657L410.69 407.166C407.584 400.003 402.107 394.127 395.18 390.525L329.591 356.419C322.353 352.655 316.71 346.415 313.69 338.837L291.866 284.072Z" stroke="#87ACA1" stroke-width="4"/>
</g>
<defs>
<filter id="filter0_n_488_9591" x="0" y="0" width="512" height="816.673" filterUnits="userSpaceOnUse" color-interpolation-filters="sRGB">
<feFlood flood-opacity="0" result="BackgroundImageFix"/>
<feBlend mode="normal" in="SourceGraphic" in2="BackgroundImageFix" result="shape"/>
<feTurbulence type="fractalNoise" baseFrequency="2 2" stitchTiles="stitch" numOctaves="3" result="noise" seed="7129" />
<feColorMatrix in="noise" type="luminanceToAlpha" result="alphaNoise" />
<feComponentTransfer in="alphaNoise" result="coloredNoise1">
<feFuncA type="discrete" tableValues="1 1 1 1 1 1 1 1 1 1 1 1 1 1 1 1 1 1 1 1 1 1 1 1 1 1 1 1 1 1 1 1 1 1 1 1 1 1 1 1 1 1 1 1 1 1 1 1 1 1 1 0 0 0 0 0 0 0 0 0 0 0 0 0 0 0 0 0 0 0 0 0 0 0 0 0 0 0 0 0 0 0 0 0 0 0 0 0 0 0 0 0 0 0 0 0 0 0 0 0 "/>
</feComponentTransfer>
<feComposite operator="in" in2="shape" in="coloredNoise1" result="noise1Clipped" />
<feFlood flood-color="rgba(0, 0, 0, 0.25)" result="color1Flood" />
<feComposite operator="in" in2="noise1Clipped" in="color1Flood" result="color1" />
<feMerge result="effect1_noise_488_9591">
<feMergeNode in="shape" />
<feMergeNode in="color1" />
</feMerge>
</filter>
<linearGradient id="paint0_linear_488_9591" x1="324.873" y1="162.549" x2="225.853" y2="684.649" gradientUnits="userSpaceOnUse">
<stop stop-color="#2A5751"/>
<stop offset="1" stop-color="#07534C"/>
</linearGradient>
<linearGradient id="paint1_linear_488_9591" x1="298.868" y1="150.546" x2="14.3135" y2="338.082" gradientUnits="userSpaceOnUse">
<stop stop-color="#B46510"/>
<stop offset="1" stop-opacity="0"/>
</linearGradient>
</defs>
</svg>
