<svg width="503" height="661" viewBox="0 0 503 661" fill="none" xmlns="http://www.w3.org/2000/svg">
<g filter="url(#filter0_n_488_9589)">
<path d="M249.622 29.924L228.731 10.8763C222.467 5.16571 214.297 2.00016 205.821 2.00016H44.9681C26.3908 2.00016 11.2523 16.9098 10.9694 35.4849L2.00446 624.031C1.71534 643.01 17.0215 658.551 36.0032 658.551H466.974C489.705 658.551 506.035 636.678 499.575 614.885L424.647 362.108C422.609 355.231 418.448 349.174 412.76 344.805L396.436 332.267C390.332 327.578 386 320.958 384.147 313.487L327.236 84.0519C324.865 74.4941 318.467 66.4335 309.697 61.9552L257.068 35.0805C254.367 33.7014 251.863 31.9672 249.622 29.924Z" fill="url(#paint0_linear_488_9589)"/>
<path d="M249.622 29.924L228.731 10.8763C222.467 5.16571 214.297 2.00016 205.821 2.00016H44.9681C26.3908 2.00016 11.2523 16.9098 10.9694 35.4849L2.00446 624.031C1.71534 643.01 17.0215 658.551 36.0032 658.551H466.974C489.705 658.551 506.035 636.678 499.575 614.885L424.647 362.108C422.609 355.231 418.448 349.174 412.76 344.805L396.436 332.267C390.332 327.578 386 320.958 384.147 313.487L327.236 84.0519C324.865 74.4941 318.467 66.4335 309.697 61.9552L257.068 35.0805C254.367 33.7014 251.863 31.9672 249.622 29.924Z" fill="url(#paint1_linear_488_9589)" fill-opacity="0.2"/>
<path d="M249.622 29.924L228.731 10.8763C222.467 5.16571 214.297 2.00016 205.821 2.00016H44.9681C26.3908 2.00016 11.2523 16.9098 10.9694 35.4849L2.00446 624.031C1.71534 643.01 17.0215 658.551 36.0032 658.551H466.974C489.705 658.551 506.035 636.678 499.575 614.885L424.647 362.108C422.609 355.231 418.448 349.174 412.76 344.805L396.436 332.267C390.332 327.578 386 320.958 384.147 313.487L327.236 84.0519C324.865 74.4941 318.467 66.4335 309.697 61.9552L257.068 35.0805C254.367 33.7014 251.863 31.9672 249.622 29.924Z" stroke="#87ACA1" stroke-width="4"/>
</g>
<defs>
<filter id="filter0_n_488_9589" x="0" y="0" width="503" height="660.551" filterUnits="userSpaceOnUse" color-interpolation-filters="sRGB">
<feFlood flood-opacity="0" result="BackgroundImageFix"/>
<feBlend mode="normal" in="SourceGraphic" in2="BackgroundImageFix" result="shape"/>
<feTurbulence type="fractalNoise" baseFrequency="2 2" stitchTiles="stitch" numOctaves="3" result="noise" seed="7129" />
<feColorMatrix in="noise" type="luminanceToAlpha" result="alphaNoise" />
<feComponentTransfer in="alphaNoise" result="coloredNoise1">
<feFuncA type="discrete" tableValues="1 1 1 1 1 1 1 1 1 1 1 1 1 1 1 1 1 1 1 1 1 1 1 1 1 1 1 1 1 1 1 1 1 1 1 1 1 1 1 1 1 1 1 1 1 1 1 1 1 1 1 0 0 0 0 0 0 0 0 0 0 0 0 0 0 0 0 0 0 0 0 0 0 0 0 0 0 0 0 0 0 0 0 0 0 0 0 0 0 0 0 0 0 0 0 0 0 0 0 0 "/>
</feComponentTransfer>
<feComposite operator="in" in2="shape" in="coloredNoise1" result="noise1Clipped" />
<feFlood flood-color="rgba(0, 0, 0, 0.25)" result="color1Flood" />
<feComposite operator="in" in2="noise1Clipped" in="color1Flood" result="color1" />
<feMerge result="effect1_noise_488_9589">
<feMergeNode in="shape" />
<feMergeNode in="color1" />
</feMerge>
</filter>
<linearGradient id="paint0_linear_488_9589" x1="283.501" y1="121.009" x2="184.493" y2="643.05" gradientUnits="userSpaceOnUse">
<stop stop-color="#218980"/>
<stop offset="1" stop-color="#07534C"/>
</linearGradient>
<linearGradient id="paint1_linear_488_9589" x1="257.499" y1="109.008" x2="-27.0236" y2="296.523" gradientUnits="userSpaceOnUse">
<stop stop-color="#B46510"/>
<stop offset="1" stop-opacity="0"/>
</linearGradient>
</defs>
</svg>
