<svg width="503" height="661" viewBox="0 0 503 661" fill="none" xmlns="http://www.w3.org/2000/svg">
<g filter="url(#filter0_n_488_9580)">
<path d="M253.378 29.924L274.269 10.8763C280.533 5.16571 288.703 2.00016 297.179 2.00016H458.032C476.609 2.00016 491.748 16.9098 492.031 35.4849L500.996 624.031C501.285 643.01 485.979 658.551 466.997 658.551H36.0256C13.2952 658.551 -3.03484 636.678 3.42502 614.885L78.3526 362.108C80.391 355.231 84.552 349.174 90.2403 344.805L106.564 332.267C112.668 327.578 117 320.958 118.853 313.487L175.764 84.0519C178.135 74.4941 184.533 66.4335 193.303 61.9552L245.932 35.0805C248.633 33.7014 251.137 31.9672 253.378 29.924Z" fill="url(#paint0_linear_488_9580)"/>
<path d="M253.378 29.924L274.269 10.8763C280.533 5.16571 288.703 2.00016 297.179 2.00016H458.032C476.609 2.00016 491.748 16.9098 492.031 35.4849L500.996 624.031C501.285 643.01 485.979 658.551 466.997 658.551H36.0256C13.2952 658.551 -3.03484 636.678 3.42502 614.885L78.3526 362.108C80.391 355.231 84.552 349.174 90.2403 344.805L106.564 332.267C112.668 327.578 117 320.958 118.853 313.487L175.764 84.0519C178.135 74.4941 184.533 66.4335 193.303 61.9552L245.932 35.0805C248.633 33.7014 251.137 31.9672 253.378 29.924Z" fill="url(#paint1_linear_488_9580)" fill-opacity="0.2"/>
<path d="M253.378 29.924L274.269 10.8763C280.533 5.16571 288.703 2.00016 297.179 2.00016H458.032C476.609 2.00016 491.748 16.9098 492.031 35.4849L500.996 624.031C501.285 643.01 485.979 658.551 466.997 658.551H36.0256C13.2952 658.551 -3.03484 636.678 3.42502 614.885L78.3526 362.108C80.391 355.231 84.552 349.174 90.2403 344.805L106.564 332.267C112.668 327.578 117 320.958 118.853 313.487L175.764 84.0519C178.135 74.4941 184.533 66.4335 193.303 61.9552L245.932 35.0805C248.633 33.7014 251.137 31.9672 253.378 29.924Z" stroke="#87ACA1" stroke-width="4"/>
</g>
<defs>
<filter id="filter0_n_488_9580" x="0" y="0" width="503" height="660.551" filterUnits="userSpaceOnUse" color-interpolation-filters="sRGB">
<feFlood flood-opacity="0" result="BackgroundImageFix"/>
<feBlend mode="normal" in="SourceGraphic" in2="BackgroundImageFix" result="shape"/>
<feTurbulence type="fractalNoise" baseFrequency="2 2" stitchTiles="stitch" numOctaves="3" result="noise" seed="7129" />
<feColorMatrix in="noise" type="luminanceToAlpha" result="alphaNoise" />
<feComponentTransfer in="alphaNoise" result="coloredNoise1">
<feFuncA type="discrete" tableValues="1 1 1 1 1 1 1 1 1 1 1 1 1 1 1 1 1 1 1 1 1 1 1 1 1 1 1 1 1 1 1 1 1 1 1 1 1 1 1 1 1 1 1 1 1 1 1 1 1 1 1 0 0 0 0 0 0 0 0 0 0 0 0 0 0 0 0 0 0 0 0 0 0 0 0 0 0 0 0 0 0 0 0 0 0 0 0 0 0 0 0 0 0 0 0 0 0 0 0 0 "/>
</feComponentTransfer>
<feComposite operator="in" in2="shape" in="coloredNoise1" result="noise1Clipped" />
<feFlood flood-color="rgba(0, 0, 0, 0.25)" result="color1Flood" />
<feComposite operator="in" in2="noise1Clipped" in="color1Flood" result="color1" />
<feMerge result="effect1_noise_488_9580">
<feMergeNode in="shape" />
<feMergeNode in="color1" />
</feMerge>
</filter>
<linearGradient id="paint0_linear_488_9580" x1="219.499" y1="121.009" x2="318.507" y2="643.05" gradientUnits="userSpaceOnUse">
<stop stop-color="#218980"/>
<stop offset="1" stop-color="#07534C"/>
</linearGradient>
<linearGradient id="paint1_linear_488_9580" x1="245.501" y1="109.008" x2="530.024" y2="296.523" gradientUnits="userSpaceOnUse">
<stop stop-color="#B46510"/>
<stop offset="1" stop-opacity="0"/>
</linearGradient>
</defs>
</svg>
