<svg width="512" height="817" viewBox="0 0 512 817" fill="none" xmlns="http://www.w3.org/2000/svg">
<g filter="url(#filter0_n_488_9582)">
<path d="M220.134 284.072L278.34 91.1217C281.651 80.1448 290.271 71.5755 301.267 68.3286L406.412 37.2819C409.239 36.4471 411.945 35.2484 414.463 33.7158L458.307 7.02781C481.826 -7.28771 511.719 10.82 509.923 38.294L461.257 782.884C460.088 800.767 445.243 814.673 427.323 814.673H32.7796C5.06643 814.673 -8.47208 780.864 11.5814 761.736C17.6576 755.941 21.0958 747.91 21.0958 739.513V599.187C21.0958 594.532 22.0514 589.927 23.9033 585.657L101.31 407.166C104.416 400.003 109.893 394.127 116.82 390.525L182.409 356.419C189.647 352.655 195.29 346.415 198.31 338.837L220.134 284.072Z" fill="url(#paint0_linear_488_9582)"/>
<path d="M220.134 284.072L278.34 91.1217C281.651 80.1448 290.271 71.5755 301.267 68.3286L406.412 37.2819C409.239 36.4471 411.945 35.2484 414.463 33.7158L458.307 7.02781C481.826 -7.28771 511.719 10.82 509.923 38.294L461.257 782.884C460.088 800.767 445.243 814.673 427.323 814.673H32.7796C5.06643 814.673 -8.47208 780.864 11.5814 761.736C17.6576 755.941 21.0958 747.91 21.0958 739.513V599.187C21.0958 594.532 22.0514 589.927 23.9033 585.657L101.31 407.166C104.416 400.003 109.893 394.127 116.82 390.525L182.409 356.419C189.647 352.655 195.29 346.415 198.31 338.837L220.134 284.072Z" fill="url(#paint1_linear_488_9582)" fill-opacity="0.2"/>
<path d="M220.134 284.072L278.34 91.1217C281.651 80.1448 290.271 71.5755 301.267 68.3286L406.412 37.2819C409.239 36.4471 411.945 35.2484 414.463 33.7158L458.307 7.02781C481.826 -7.28771 511.719 10.82 509.923 38.294L461.257 782.884C460.088 800.767 445.243 814.673 427.323 814.673H32.7796C5.06643 814.673 -8.47208 780.864 11.5814 761.736C17.6576 755.941 21.0958 747.91 21.0958 739.513V599.187C21.0958 594.532 22.0514 589.927 23.9033 585.657L101.31 407.166C104.416 400.003 109.893 394.127 116.82 390.525L182.409 356.419C189.647 352.655 195.29 346.415 198.31 338.837L220.134 284.072Z" stroke="#87ACA1" stroke-width="4"/>
</g>
<defs>
<filter id="filter0_n_488_9582" x="0" y="0" width="512" height="816.673" filterUnits="userSpaceOnUse" color-interpolation-filters="sRGB">
<feFlood flood-opacity="0" result="BackgroundImageFix"/>
<feBlend mode="normal" in="SourceGraphic" in2="BackgroundImageFix" result="shape"/>
<feTurbulence type="fractalNoise" baseFrequency="2 2" stitchTiles="stitch" numOctaves="3" result="noise" seed="7129" />
<feColorMatrix in="noise" type="luminanceToAlpha" result="alphaNoise" />
<feComponentTransfer in="alphaNoise" result="coloredNoise1">
<feFuncA type="discrete" tableValues="1 1 1 1 1 1 1 1 1 1 1 1 1 1 1 1 1 1 1 1 1 1 1 1 1 1 1 1 1 1 1 1 1 1 1 1 1 1 1 1 1 1 1 1 1 1 1 1 1 1 1 0 0 0 0 0 0 0 0 0 0 0 0 0 0 0 0 0 0 0 0 0 0 0 0 0 0 0 0 0 0 0 0 0 0 0 0 0 0 0 0 0 0 0 0 0 0 0 0 0 "/>
</feComponentTransfer>
<feComposite operator="in" in2="shape" in="coloredNoise1" result="noise1Clipped" />
<feFlood flood-color="rgba(0, 0, 0, 0.25)" result="color1Flood" />
<feComposite operator="in" in2="noise1Clipped" in="color1Flood" result="color1" />
<feMerge result="effect1_noise_488_9582">
<feMergeNode in="shape" />
<feMergeNode in="color1" />
</feMerge>
</filter>
<linearGradient id="paint0_linear_488_9582" x1="187.127" y1="162.549" x2="286.147" y2="684.649" gradientUnits="userSpaceOnUse">
<stop stop-color="#2A5751"/>
<stop offset="1" stop-color="#07534C"/>
</linearGradient>
<linearGradient id="paint1_linear_488_9582" x1="213.132" y1="150.546" x2="497.686" y2="338.082" gradientUnits="userSpaceOnUse">
<stop stop-color="#B46510"/>
<stop offset="1" stop-opacity="0"/>
</linearGradient>
</defs>
</svg>
