<svg width="499" height="810" viewBox="0 0 499 810" fill="none" xmlns="http://www.w3.org/2000/svg">
<g filter="url(#filter0_n_488_9579)">
<path d="M285.253 84.5292L357.814 11.9679C366.77 3.01227 379.958 -0.228017 392.044 3.558L473.121 28.9555C487.314 33.4016 496.975 46.5514 496.975 61.4248V773.973C496.975 792.765 481.741 807.999 462.95 807.999H36.0408C14.2663 807.999 -1.90462 787.829 2.8296 766.576L61.2032 504.515C63.0983 496.007 68.1864 488.551 75.4179 483.685L133.656 444.493C140.161 440.116 144.954 433.626 147.226 426.121L193.901 271.911C194.467 270.04 194.871 268.125 195.108 266.185L209.752 146.449C211.022 136.064 216.999 126.841 225.959 121.44L278.76 89.6095C281.122 88.1855 283.302 86.4795 285.253 84.5292Z" fill="url(#paint0_linear_488_9579)"/>
<path d="M285.253 84.5292L357.814 11.9679C366.77 3.01227 379.958 -0.228017 392.044 3.558L473.121 28.9555C487.314 33.4016 496.975 46.5514 496.975 61.4248V773.973C496.975 792.765 481.741 807.999 462.95 807.999H36.0408C14.2663 807.999 -1.90462 787.829 2.8296 766.576L61.2032 504.515C63.0983 496.007 68.1864 488.551 75.4179 483.685L133.656 444.493C140.161 440.116 144.954 433.626 147.226 426.121L193.901 271.911C194.467 270.04 194.871 268.125 195.108 266.185L209.752 146.449C211.022 136.064 216.999 126.841 225.959 121.44L278.76 89.6095C281.122 88.1855 283.302 86.4795 285.253 84.5292Z" fill="url(#paint1_linear_488_9579)" fill-opacity="0.2"/>
<path d="M285.253 84.5292L357.814 11.9679C366.77 3.01227 379.958 -0.228017 392.044 3.558L473.121 28.9555C487.314 33.4016 496.975 46.5514 496.975 61.4248V773.973C496.975 792.765 481.741 807.999 462.95 807.999H36.0408C14.2663 807.999 -1.90462 787.829 2.8296 766.576L61.2032 504.515C63.0983 496.007 68.1864 488.551 75.4179 483.685L133.656 444.493C140.161 440.116 144.954 433.626 147.226 426.121L193.901 271.911C194.467 270.04 194.871 268.125 195.108 266.185L209.752 146.449C211.022 136.064 216.999 126.841 225.959 121.44L278.76 89.6095C281.122 88.1855 283.302 86.4795 285.253 84.5292Z" stroke="#87ACA1" stroke-width="4"/>
</g>
<defs>
<filter id="filter0_n_488_9579" x="0" y="0" width="498.976" height="810" filterUnits="userSpaceOnUse" color-interpolation-filters="sRGB">
<feFlood flood-opacity="0" result="BackgroundImageFix"/>
<feBlend mode="normal" in="SourceGraphic" in2="BackgroundImageFix" result="shape"/>
<feTurbulence type="fractalNoise" baseFrequency="2 2" stitchTiles="stitch" numOctaves="3" result="noise" seed="7129" />
<feColorMatrix in="noise" type="luminanceToAlpha" result="alphaNoise" />
<feComponentTransfer in="alphaNoise" result="coloredNoise1">
<feFuncA type="discrete" tableValues="1 1 1 1 1 1 1 1 1 1 1 1 1 1 1 1 1 1 1 1 1 1 1 1 1 1 1 1 1 1 1 1 1 1 1 1 1 1 1 1 1 1 1 1 1 1 1 1 1 1 1 0 0 0 0 0 0 0 0 0 0 0 0 0 0 0 0 0 0 0 0 0 0 0 0 0 0 0 0 0 0 0 0 0 0 0 0 0 0 0 0 0 0 0 0 0 0 0 0 0 "/>
</feComponentTransfer>
<feComposite operator="in" in2="shape" in="coloredNoise1" result="noise1Clipped" />
<feFlood flood-color="rgba(0, 0, 0, 0.25)" result="color1Flood" />
<feComposite operator="in" in2="noise1Clipped" in="color1Flood" result="color1" />
<feMerge result="effect1_noise_488_9579">
<feMergeNode in="shape" />
<feMergeNode in="color1" />
</feMerge>
</filter>
<linearGradient id="paint0_linear_488_9579" x1="224.774" y1="155.516" x2="323.847" y2="677.903" gradientUnits="userSpaceOnUse">
<stop stop-color="#37CFC1"/>
<stop offset="1" stop-color="#07534C"/>
</linearGradient>
<linearGradient id="paint1_linear_488_9579" x1="250.793" y1="143.507" x2="535.503" y2="331.146" gradientUnits="userSpaceOnUse">
<stop stop-color="#B46510"/>
<stop offset="1" stop-opacity="0"/>
</linearGradient>
</defs>
</svg>
