<svg width="687" height="828" viewBox="0 0 687 828" fill="none" xmlns="http://www.w3.org/2000/svg">
<g filter="url(#filter0_n_488_9585)">
<path d="M362.509 298.802L327.492 171.738L273.957 35.2246C269.888 24.8486 260.994 17.1239 250.151 14.5478L201.225 2.92469C186.76 -0.511769 171.739 5.84392 164.134 18.619L6.7895 282.904C0.887961 292.817 0.412562 305.045 5.52678 315.386L238.086 785.62C243.821 797.218 255.639 804.557 268.578 804.557H651.838L665.229 821.843C667.909 825.303 672.422 826.786 676.632 825.591C688.601 822.192 686.146 804.557 673.704 804.557H651.838L559.547 685.425C550.373 673.583 534.532 669.136 520.536 674.473L500.068 682.277C485.168 687.958 468.322 682.526 459.546 669.212L406.255 588.357C403.473 584.135 401.667 579.347 400.968 574.339L362.509 298.802Z" fill="url(#paint0_linear_488_9585)"/>
<path d="M362.509 298.802L327.492 171.738L273.957 35.2246C269.888 24.8486 260.994 17.1239 250.151 14.5478L201.225 2.92469C186.76 -0.511769 171.739 5.84392 164.134 18.619L6.7895 282.904C0.887961 292.817 0.412562 305.045 5.52678 315.386L238.086 785.62C243.821 797.218 255.639 804.557 268.578 804.557H651.838L665.229 821.843C667.909 825.303 672.422 826.786 676.632 825.591C688.601 822.192 686.146 804.557 673.704 804.557H651.838L559.547 685.425C550.373 673.583 534.532 669.136 520.536 674.473L500.068 682.277C485.168 687.958 468.322 682.526 459.546 669.212L406.255 588.357C403.473 584.135 401.667 579.347 400.968 574.339L362.509 298.802Z" fill="url(#paint1_linear_488_9585)" fill-opacity="0.2"/>
<path d="M362.509 298.802L327.492 171.738L273.957 35.2246C269.888 24.8486 260.994 17.1239 250.151 14.5478L201.225 2.92469C186.76 -0.511769 171.739 5.84392 164.134 18.619L6.7895 282.904C0.887961 292.817 0.412562 305.045 5.52678 315.386L238.086 785.62C243.821 797.218 255.639 804.557 268.578 804.557H651.838L665.229 821.843C667.909 825.303 672.422 826.786 676.632 825.591C688.601 822.192 686.146 804.557 673.704 804.557H651.838L559.547 685.425C550.373 673.583 534.532 669.136 520.536 674.473L500.068 682.277C485.168 687.958 468.322 682.526 459.546 669.212L406.255 588.357C403.473 584.135 401.667 579.347 400.968 574.339L362.509 298.802Z" stroke="#87ACA1" stroke-width="4"/>
</g>
<defs>
<filter id="filter0_n_488_9585" x="0" y="0" width="686.435" height="828" filterUnits="userSpaceOnUse" color-interpolation-filters="sRGB">
<feFlood flood-opacity="0" result="BackgroundImageFix"/>
<feBlend mode="normal" in="SourceGraphic" in2="BackgroundImageFix" result="shape"/>
<feTurbulence type="fractalNoise" baseFrequency="2 2" stitchTiles="stitch" numOctaves="3" result="noise" seed="7129" />
<feColorMatrix in="noise" type="luminanceToAlpha" result="alphaNoise" />
<feComponentTransfer in="alphaNoise" result="coloredNoise1">
<feFuncA type="discrete" tableValues="1 1 1 1 1 1 1 1 1 1 1 1 1 1 1 1 1 1 1 1 1 1 1 1 1 1 1 1 1 1 1 1 1 1 1 1 1 1 1 1 1 1 1 1 1 1 1 1 1 1 1 0 0 0 0 0 0 0 0 0 0 0 0 0 0 0 0 0 0 0 0 0 0 0 0 0 0 0 0 0 0 0 0 0 0 0 0 0 0 0 0 0 0 0 0 0 0 0 0 0 "/>
</feComponentTransfer>
<feComposite operator="in" in2="shape" in="coloredNoise1" result="noise1Clipped" />
<feFlood flood-color="rgba(0, 0, 0, 0.25)" result="color1Flood" />
<feComposite operator="in" in2="noise1Clipped" in="color1Flood" result="color1" />
<feMerge result="effect1_noise_488_9585">
<feMergeNode in="shape" />
<feMergeNode in="color1" />
</feMerge>
</filter>
<linearGradient id="paint0_linear_488_9585" x1="519.589" y1="152.228" x2="420.539" y2="674.492" gradientUnits="userSpaceOnUse">
<stop stop-color="#2A5751"/>
<stop offset="1" stop-color="#07534C"/>
</linearGradient>
<linearGradient id="paint1_linear_488_9585" x1="493.576" y1="140.222" x2="208.932" y2="327.816" gradientUnits="userSpaceOnUse">
<stop stop-color="#B46510"/>
<stop offset="1" stop-opacity="0"/>
</linearGradient>
</defs>
</svg>
