<svg width="454" height="798" viewBox="0 0 454 798" fill="none" xmlns="http://www.w3.org/2000/svg">
<g filter="url(#filter0_n_488_9584)">
<path d="M192.639 141.918L138.41 20.8065C130.291 2.67244 107.71 -3.65056 91.3537 7.62969C83.7023 12.9066 78.7438 21.2681 77.7838 30.5131L2.18665 758.485C0.103431 778.546 15.8389 796 36.0072 796H417.543C447.817 796 462.607 759.067 440.7 738.172C437.805 735.41 435.426 732.152 433.678 728.553L353.444 563.365C352.032 560.459 351.042 557.366 350.503 554.18L300.788 260.278C300.471 258.404 300.312 256.507 300.312 254.606V223.081C300.312 209.887 292.679 197.883 280.73 192.288L209.252 158.815C201.868 155.357 195.972 149.36 192.639 141.918Z" fill="url(#paint0_linear_488_9584)"/>
<path d="M192.639 141.918L138.41 20.8065C130.291 2.67244 107.71 -3.65056 91.3537 7.62969C83.7023 12.9066 78.7438 21.2681 77.7838 30.5131L2.18665 758.485C0.103431 778.546 15.8389 796 36.0072 796H417.543C447.817 796 462.607 759.067 440.7 738.172C437.805 735.41 435.426 732.152 433.678 728.553L353.444 563.365C352.032 560.459 351.042 557.366 350.503 554.18L300.788 260.278C300.471 258.404 300.312 256.507 300.312 254.606V223.081C300.312 209.887 292.679 197.883 280.73 192.288L209.252 158.815C201.868 155.357 195.972 149.36 192.639 141.918Z" fill="url(#paint1_linear_488_9584)" fill-opacity="0.2"/>
<path d="M192.639 141.918L138.41 20.8065C130.291 2.67244 107.71 -3.65056 91.3537 7.62969C83.7023 12.9066 78.7438 21.2681 77.7838 30.5131L2.18665 758.485C0.103431 778.546 15.8389 796 36.0072 796H417.543C447.817 796 462.607 759.067 440.7 738.172C437.805 735.41 435.426 732.152 433.678 728.553L353.444 563.365C352.032 560.459 351.042 557.366 350.503 554.18L300.788 260.278C300.471 258.404 300.312 256.507 300.312 254.606V223.081C300.312 209.887 292.679 197.883 280.73 192.288L209.252 158.815C201.868 155.357 195.972 149.36 192.639 141.918Z" stroke="#87ACA1" stroke-width="4"/>
</g>
<defs>
<filter id="filter0_n_488_9584" x="0" y="0" width="453.165" height="798" filterUnits="userSpaceOnUse" color-interpolation-filters="sRGB">
<feFlood flood-opacity="0" result="BackgroundImageFix"/>
<feBlend mode="normal" in="SourceGraphic" in2="BackgroundImageFix" result="shape"/>
<feTurbulence type="fractalNoise" baseFrequency="2 2" stitchTiles="stitch" numOctaves="3" result="noise" seed="7129" />
<feColorMatrix in="noise" type="luminanceToAlpha" result="alphaNoise" />
<feComponentTransfer in="alphaNoise" result="coloredNoise1">
<feFuncA type="discrete" tableValues="1 1 1 1 1 1 1 1 1 1 1 1 1 1 1 1 1 1 1 1 1 1 1 1 1 1 1 1 1 1 1 1 1 1 1 1 1 1 1 1 1 1 1 1 1 1 1 1 1 1 1 0 0 0 0 0 0 0 0 0 0 0 0 0 0 0 0 0 0 0 0 0 0 0 0 0 0 0 0 0 0 0 0 0 0 0 0 0 0 0 0 0 0 0 0 0 0 0 0 0 "/>
</feComponentTransfer>
<feComposite operator="in" in2="shape" in="coloredNoise1" result="noise1Clipped" />
<feFlood flood-color="rgba(0, 0, 0, 0.25)" result="color1Flood" />
<feComposite operator="in" in2="noise1Clipped" in="color1Flood" result="color1" />
<feMerge result="effect1_noise_488_9584">
<feMergeNode in="shape" />
<feMergeNode in="color1" />
</feMerge>
</filter>
<linearGradient id="paint0_linear_488_9584" x1="270.31" y1="143.954" x2="171.303" y2="665.991" gradientUnits="userSpaceOnUse">
<stop stop-color="#869E91"/>
<stop offset="1" stop-color="#07534C"/>
</linearGradient>
<linearGradient id="paint1_linear_488_9584" x1="244.308" y1="131.953" x2="-40.2117" y2="319.466" gradientUnits="userSpaceOnUse">
<stop stop-color="#B46510"/>
<stop offset="1" stop-opacity="0"/>
</linearGradient>
</defs>
</svg>
