<svg width="687" height="828" viewBox="0 0 687 828" fill="none" xmlns="http://www.w3.org/2000/svg">
<g filter="url(#filter0_n_488_9576)">
<path d="M323.925 298.802L358.943 171.738L412.478 35.2246C416.547 24.8486 425.441 17.1239 436.284 14.5478L485.209 2.92469C499.675 -0.511769 514.696 5.84392 522.301 18.619L679.645 282.904C685.547 292.817 686.022 305.045 680.908 315.386L448.349 785.62C442.613 797.218 430.795 804.557 417.857 804.557H34.5971L21.2059 821.843C18.5259 825.303 14.0123 826.786 9.80271 825.591C-2.16589 822.192 0.289277 804.557 12.731 804.557H34.5971L126.888 685.425C136.062 673.583 151.902 669.136 165.899 674.473L186.366 682.277C201.266 687.958 218.113 682.526 226.889 669.212L280.179 588.357C282.962 584.135 284.768 579.347 285.467 574.339L323.925 298.802Z" fill="url(#paint0_linear_488_9576)"/>
<path d="M323.925 298.802L358.943 171.738L412.478 35.2246C416.547 24.8486 425.441 17.1239 436.284 14.5478L485.209 2.92469C499.675 -0.511769 514.696 5.84392 522.301 18.619L679.645 282.904C685.547 292.817 686.022 305.045 680.908 315.386L448.349 785.62C442.613 797.218 430.795 804.557 417.857 804.557H34.5971L21.2059 821.843C18.5259 825.303 14.0123 826.786 9.80271 825.591C-2.16589 822.192 0.289277 804.557 12.731 804.557H34.5971L126.888 685.425C136.062 673.583 151.902 669.136 165.899 674.473L186.366 682.277C201.266 687.958 218.113 682.526 226.889 669.212L280.179 588.357C282.962 584.135 284.768 579.347 285.467 574.339L323.925 298.802Z" fill="url(#paint1_linear_488_9576)" fill-opacity="0.2"/>
<path d="M323.925 298.802L358.943 171.738L412.478 35.2246C416.547 24.8486 425.441 17.1239 436.284 14.5478L485.209 2.92469C499.675 -0.511769 514.696 5.84392 522.301 18.619L679.645 282.904C685.547 292.817 686.022 305.045 680.908 315.386L448.349 785.62C442.613 797.218 430.795 804.557 417.857 804.557H34.5971L21.2059 821.843C18.5259 825.303 14.0123 826.786 9.80271 825.591C-2.16589 822.192 0.289277 804.557 12.731 804.557H34.5971L126.888 685.425C136.062 673.583 151.902 669.136 165.899 674.473L186.366 682.277C201.266 687.958 218.113 682.526 226.889 669.212L280.179 588.357C282.962 584.135 284.768 579.347 285.467 574.339L323.925 298.802Z" stroke="#87ACA1" stroke-width="4"/>
</g>
<defs>
<filter id="filter0_n_488_9576" x="0" y="0" width="686.435" height="828" filterUnits="userSpaceOnUse" color-interpolation-filters="sRGB">
<feFlood flood-opacity="0" result="BackgroundImageFix"/>
<feBlend mode="normal" in="SourceGraphic" in2="BackgroundImageFix" result="shape"/>
<feTurbulence type="fractalNoise" baseFrequency="2 2" stitchTiles="stitch" numOctaves="3" result="noise" seed="7129" />
<feColorMatrix in="noise" type="luminanceToAlpha" result="alphaNoise" />
<feComponentTransfer in="alphaNoise" result="coloredNoise1">
<feFuncA type="discrete" tableValues="1 1 1 1 1 1 1 1 1 1 1 1 1 1 1 1 1 1 1 1 1 1 1 1 1 1 1 1 1 1 1 1 1 1 1 1 1 1 1 1 1 1 1 1 1 1 1 1 1 1 1 0 0 0 0 0 0 0 0 0 0 0 0 0 0 0 0 0 0 0 0 0 0 0 0 0 0 0 0 0 0 0 0 0 0 0 0 0 0 0 0 0 0 0 0 0 0 0 0 0 "/>
</feComponentTransfer>
<feComposite operator="in" in2="shape" in="coloredNoise1" result="noise1Clipped" />
<feFlood flood-color="rgba(0, 0, 0, 0.25)" result="color1Flood" />
<feComposite operator="in" in2="noise1Clipped" in="color1Flood" result="color1" />
<feMerge result="effect1_noise_488_9576">
<feMergeNode in="shape" />
<feMergeNode in="color1" />
</feMerge>
</filter>
<linearGradient id="paint0_linear_488_9576" x1="166.846" y1="152.228" x2="265.896" y2="674.492" gradientUnits="userSpaceOnUse">
<stop stop-color="#2A5751"/>
<stop offset="1" stop-color="#07534C"/>
</linearGradient>
<linearGradient id="paint1_linear_488_9576" x1="192.859" y1="140.222" x2="477.503" y2="327.816" gradientUnits="userSpaceOnUse">
<stop stop-color="#B46510"/>
<stop offset="1" stop-opacity="0"/>
</linearGradient>
</defs>
</svg>
