<svg width="824" height="794" viewBox="0 0 824 794" fill="none" xmlns="http://www.w3.org/2000/svg">
<g filter="url(#filter0_n_488_9593)">
<path d="M282.369 71.3312L318.562 28.7034C324.24 22.0156 332.282 17.7791 341.009 16.8781L483.352 2.18194C492.148 1.27374 500.953 3.82544 507.901 9.29656L633.377 108.104C638.171 111.879 643.892 114.295 649.94 115.101L792.223 134.046C810.424 136.47 823.421 152.895 821.594 171.166L790.041 486.688C789.263 494.475 785.824 501.756 780.304 507.304L507.046 781.969C500.658 788.389 491.976 791.998 482.92 791.998H36.0475C14.2689 791.998 -1.90498 771.825 2.83013 750.568L64.1668 475.205L87.3996 350.841C88.8787 342.924 93.1181 335.787 99.364 330.701L186.112 260.064C191.747 255.475 195.766 249.203 197.579 242.165L222.321 146.133C223.632 141.042 226.106 136.325 229.546 132.35L282.369 71.3312Z" fill="url(#paint0_linear_488_9593)"/>
<path d="M282.369 71.3312L318.562 28.7034C324.24 22.0156 332.282 17.7791 341.009 16.8781L483.352 2.18194C492.148 1.27374 500.953 3.82544 507.901 9.29656L633.377 108.104C638.171 111.879 643.892 114.295 649.94 115.101L792.223 134.046C810.424 136.47 823.421 152.895 821.594 171.166L790.041 486.688C789.263 494.475 785.824 501.756 780.304 507.304L507.046 781.969C500.658 788.389 491.976 791.998 482.92 791.998H36.0475C14.2689 791.998 -1.90498 771.825 2.83013 750.568L64.1668 475.205L87.3996 350.841C88.8787 342.924 93.1181 335.787 99.364 330.701L186.112 260.064C191.747 255.475 195.766 249.203 197.579 242.165L222.321 146.133C223.632 141.042 226.106 136.325 229.546 132.35L282.369 71.3312Z" stroke="#FFB47B" stroke-width="4"/>
</g>
<defs>
<filter id="filter0_n_488_9593" x="0" y="0" width="823.766" height="794" filterUnits="userSpaceOnUse" color-interpolation-filters="sRGB">
<feFlood flood-opacity="0" result="BackgroundImageFix"/>
<feBlend mode="normal" in="SourceGraphic" in2="BackgroundImageFix" result="shape"/>
<feTurbulence type="fractalNoise" baseFrequency="2 2" stitchTiles="stitch" numOctaves="3" result="noise" seed="7129" />
<feColorMatrix in="noise" type="luminanceToAlpha" result="alphaNoise" />
<feComponentTransfer in="alphaNoise" result="coloredNoise1">
<feFuncA type="discrete" tableValues="1 1 1 1 1 1 1 1 1 1 1 1 1 1 1 1 1 1 1 1 1 1 1 1 1 1 1 1 1 1 1 1 1 1 1 1 1 1 1 1 1 1 1 1 1 1 1 1 1 1 1 0 0 0 0 0 0 0 0 0 0 0 0 0 0 0 0 0 0 0 0 0 0 0 0 0 0 0 0 0 0 0 0 0 0 0 0 0 0 0 0 0 0 0 0 0 0 0 0 0 "/>
</feComponentTransfer>
<feComposite operator="in" in2="shape" in="coloredNoise1" result="noise1Clipped" />
<feFlood flood-color="rgba(0, 0, 0, 0.1)" result="color1Flood" />
<feComposite operator="in" in2="noise1Clipped" in="color1Flood" result="color1" />
<feMerge result="effect1_noise_488_9593">
<feMergeNode in="shape" />
<feMergeNode in="color1" />
</feMerge>
</filter>
<linearGradient id="paint0_linear_488_9593" x1="245.334" y1="-18.7522" x2="214.306" y2="427.661" gradientUnits="userSpaceOnUse">
<stop stop-color="#F3D496"/>
<stop offset="1" stop-color="#EAA560"/>
</linearGradient>
</defs>
</svg>
