<svg width="905" height="856" viewBox="0 0 905 856" fill="none" xmlns="http://www.w3.org/2000/svg">
<g filter="url(#filter0_n_488_9595)">
<path d="M538.592 76.7517L575.931 30.4754C581.583 23.4708 589.781 18.9919 598.729 18.0198L744.347 2.19982C753.488 1.20669 762.642 3.95697 769.722 9.82383L890.208 109.659C899.849 117.648 904.322 130.287 901.851 142.562L764.142 826.697C760.946 842.577 746.995 853.999 730.797 853.999H284.588C262.968 853.999 246.834 834.092 251.312 812.941L306.585 551.832C310.953 531.196 295.68 511.601 274.602 510.798L34.7808 501.666C6.71178 500.597 -8.03756 467.892 9.7425 446.146L119.957 311.349L161.32 269.36C164.532 266.1 168.368 263.522 172.599 261.779L229.059 238.528L470.246 152.243C476.034 150.172 481.151 146.572 485.056 141.826L538.592 76.7517Z" fill="url(#paint0_linear_488_9595)"/>
<path d="M538.592 76.7517L575.931 30.4754C581.583 23.4708 589.781 18.9919 598.729 18.0198L744.347 2.19982C753.488 1.20669 762.642 3.95697 769.722 9.82383L890.208 109.659C899.849 117.648 904.322 130.287 901.851 142.562L764.142 826.697C760.946 842.577 746.995 853.999 730.797 853.999H284.588C262.968 853.999 246.834 834.092 251.312 812.941L306.585 551.832C310.953 531.196 295.68 511.601 274.602 510.798L34.7808 501.666C6.71178 500.597 -8.03756 467.892 9.7425 446.146L119.957 311.349L161.32 269.36C164.532 266.1 168.368 263.522 172.599 261.779L229.059 238.528L470.246 152.243C476.034 150.172 481.151 146.572 485.056 141.826L538.592 76.7517Z" stroke="#FFB47B" stroke-width="4"/>
</g>
<defs>
<filter id="filter0_n_488_9595" x="0" y="0" width="904.523" height="856" filterUnits="userSpaceOnUse" color-interpolation-filters="sRGB">
<feFlood flood-opacity="0" result="BackgroundImageFix"/>
<feBlend mode="normal" in="SourceGraphic" in2="BackgroundImageFix" result="shape"/>
<feTurbulence type="fractalNoise" baseFrequency="2 2" stitchTiles="stitch" numOctaves="3" result="noise" seed="7129" />
<feColorMatrix in="noise" type="luminanceToAlpha" result="alphaNoise" />
<feComponentTransfer in="alphaNoise" result="coloredNoise1">
<feFuncA type="discrete" tableValues="1 1 1 1 1 1 1 1 1 1 1 1 1 1 1 1 1 1 1 1 1 1 1 1 1 1 1 1 1 1 1 1 1 1 1 1 1 1 1 1 1 1 1 1 1 1 1 1 1 1 1 0 0 0 0 0 0 0 0 0 0 0 0 0 0 0 0 0 0 0 0 0 0 0 0 0 0 0 0 0 0 0 0 0 0 0 0 0 0 0 0 0 0 0 0 0 0 0 0 0 "/>
</feComponentTransfer>
<feComposite operator="in" in2="shape" in="coloredNoise1" result="noise1Clipped" />
<feFlood flood-color="rgba(0, 0, 0, 0.1)" result="color1Flood" />
<feComposite operator="in" in2="noise1Clipped" in="color1Flood" result="color1" />
<feMerge result="effect1_noise_488_9595">
<feMergeNode in="shape" />
<feMergeNode in="color1" />
</feMerge>
</filter>
<linearGradient id="paint0_linear_488_9595" x1="646.36" y1="100.977" x2="646.36" y2="247.698" gradientUnits="userSpaceOnUse">
<stop stop-color="#DD8C57"/>
<stop offset="1" stop-color="#D1873E"/>
</linearGradient>
</defs>
</svg>
