<svg width="639" height="794" viewBox="0 0 639 794" fill="none" xmlns="http://www.w3.org/2000/svg">
<g filter="url(#filter0_n_488_9592)">
<path d="M356.657 71.3247L320.467 28.7008C314.789 22.0136 306.748 17.7774 298.022 16.8765L155.693 2.18175C146.897 1.27362 138.093 3.82509 131.146 9.29571L14.9794 100.772C4.8018 108.786 0.0575431 121.884 2.74179 134.557L136.264 764.949C139.595 780.676 153.478 791.926 169.554 791.926H602.956C624.732 791.926 640.905 771.755 636.17 750.499L574.839 475.162L551.608 350.809C550.129 342.892 545.89 335.757 539.645 330.671L452.905 260.04C447.27 255.452 443.252 249.18 441.439 242.143L416.699 146.12C415.388 141.03 412.915 136.312 409.475 132.338L356.657 71.3247Z" fill="url(#paint0_linear_488_9592)"/>
<path d="M356.657 71.3247L320.467 28.7008C314.789 22.0136 306.748 17.7774 298.022 16.8765L155.693 2.18175C146.897 1.27362 138.093 3.82509 131.146 9.29571L14.9794 100.772C4.8018 108.786 0.0575431 121.884 2.74179 134.557L136.264 764.949C139.595 780.676 153.478 791.926 169.554 791.926H602.956C624.732 791.926 640.905 771.755 636.17 750.499L574.839 475.162L551.608 350.809C550.129 342.892 545.89 335.757 539.645 330.671L452.905 260.04C447.27 255.452 443.252 249.18 441.439 242.143L416.699 146.12C415.388 141.03 412.915 136.312 409.475 132.338L356.657 71.3247Z" stroke="#FFB47B" stroke-width="4"/>
</g>
<defs>
<filter id="filter0_n_488_9592" x="0" y="0" width="639" height="793.928" filterUnits="userSpaceOnUse" color-interpolation-filters="sRGB">
<feFlood flood-opacity="0" result="BackgroundImageFix"/>
<feBlend mode="normal" in="SourceGraphic" in2="BackgroundImageFix" result="shape"/>
<feTurbulence type="fractalNoise" baseFrequency="2 2" stitchTiles="stitch" numOctaves="3" result="noise" seed="7129" />
<feColorMatrix in="noise" type="luminanceToAlpha" result="alphaNoise" />
<feComponentTransfer in="alphaNoise" result="coloredNoise1">
<feFuncA type="discrete" tableValues="1 1 1 1 1 1 1 1 1 1 1 1 1 1 1 1 1 1 1 1 1 1 1 1 1 1 1 1 1 1 1 1 1 1 1 1 1 1 1 1 1 1 1 1 1 1 1 1 1 1 1 0 0 0 0 0 0 0 0 0 0 0 0 0 0 0 0 0 0 0 0 0 0 0 0 0 0 0 0 0 0 0 0 0 0 0 0 0 0 0 0 0 0 0 0 0 0 0 0 0 "/>
</feComponentTransfer>
<feComposite operator="in" in2="shape" in="coloredNoise1" result="noise1Clipped" />
<feFlood flood-color="rgba(0, 0, 0, 0.1)" result="color1Flood" />
<feComposite operator="in" in2="noise1Clipped" in="color1Flood" result="color1" />
<feMerge result="effect1_noise_488_9592">
<feMergeNode in="shape" />
<feMergeNode in="color1" />
</feMerge>
</filter>
<linearGradient id="paint0_linear_488_9592" x1="393.688" y1="-18.7505" x2="424.714" y2="427.622" gradientUnits="userSpaceOnUse">
<stop stop-color="#F3D496"/>
<stop offset="1" stop-color="#EAA560"/>
</linearGradient>
</defs>
</svg>
