<svg width="734" height="794" viewBox="0 0 734 794" fill="none" xmlns="http://www.w3.org/2000/svg">
<g filter="url(#filter0_n_488_9594)">
<path d="M297.53 70.8918L268.726 30.0992C263.199 22.272 254.629 17.1375 245.12 15.957L134.8 2.2614C124.712 1.00896 114.592 4.33236 107.21 11.322L12.6357 100.871C4.33631 108.729 0.536067 120.229 2.51888 131.485L113.913 763.871C116.779 780.138 130.911 791.998 147.428 791.998H496.915C518.193 791.998 534.253 772.691 530.377 751.769L486.239 513.507C482.473 493.174 497.562 474.209 518.221 473.31L699.293 465.431C726.287 464.256 741.212 433.604 725.489 411.63L637.419 288.544L604.615 250.491C601.497 246.874 597.652 243.953 593.33 241.92L548.839 220.983L354.877 141.689C348.971 139.275 343.864 135.249 340.136 130.072L297.53 70.8918Z" fill="url(#paint0_linear_488_9594)"/>
<path d="M297.53 70.8918L268.726 30.0992C263.199 22.272 254.629 17.1375 245.12 15.957L134.8 2.2614C124.712 1.00896 114.592 4.33236 107.21 11.322L12.6357 100.871C4.33631 108.729 0.536067 120.229 2.51888 131.485L113.913 763.871C116.779 780.138 130.911 791.998 147.428 791.998H496.915C518.193 791.998 534.253 772.691 530.377 751.769L486.239 513.507C482.473 493.174 497.562 474.209 518.221 473.31L699.293 465.431C726.287 464.256 741.212 433.604 725.489 411.63L637.419 288.544L604.615 250.491C601.497 246.874 597.652 243.953 593.33 241.92L548.839 220.983L354.877 141.689C348.971 139.275 343.864 135.249 340.136 130.072L297.53 70.8918Z" stroke="#FFB47B" stroke-width="4"/>
</g>
<defs>
<filter id="filter0_n_488_9594" x="0" y="0" width="733.901" height="794" filterUnits="userSpaceOnUse" color-interpolation-filters="sRGB">
<feFlood flood-opacity="0" result="BackgroundImageFix"/>
<feBlend mode="normal" in="SourceGraphic" in2="BackgroundImageFix" result="shape"/>
<feTurbulence type="fractalNoise" baseFrequency="2 2" stitchTiles="stitch" numOctaves="3" result="noise" seed="7129" />
<feColorMatrix in="noise" type="luminanceToAlpha" result="alphaNoise" />
<feComponentTransfer in="alphaNoise" result="coloredNoise1">
<feFuncA type="discrete" tableValues="1 1 1 1 1 1 1 1 1 1 1 1 1 1 1 1 1 1 1 1 1 1 1 1 1 1 1 1 1 1 1 1 1 1 1 1 1 1 1 1 1 1 1 1 1 1 1 1 1 1 1 0 0 0 0 0 0 0 0 0 0 0 0 0 0 0 0 0 0 0 0 0 0 0 0 0 0 0 0 0 0 0 0 0 0 0 0 0 0 0 0 0 0 0 0 0 0 0 0 0 "/>
</feComponentTransfer>
<feComposite operator="in" in2="shape" in="coloredNoise1" result="noise1Clipped" />
<feFlood flood-color="rgba(0, 0, 0, 0.1)" result="color1Flood" />
<feComposite operator="in" in2="noise1Clipped" in="color1Flood" result="color1" />
<feMerge result="effect1_noise_488_9594">
<feMergeNode in="shape" />
<feMergeNode in="color1" />
</feMerge>
</filter>
<linearGradient id="paint0_linear_488_9594" x1="210.033" y1="93.3675" x2="210.033" y2="229.49" gradientUnits="userSpaceOnUse">
<stop stop-color="#DD8C57"/>
<stop offset="1" stop-color="#D1873E"/>
</linearGradient>
</defs>
</svg>
