<svg width="507" height="776" viewBox="0 0 507 776" fill="none" xmlns="http://www.w3.org/2000/svg">
<g filter="url(#filter0_n_488_9596)">
<path d="M267.209 47.0607L245.554 16.3924C238.541 6.46152 226.761 1.02927 214.655 2.14407L112.03 11.5945C100.286 12.676 89.9413 19.7648 84.6936 30.3265L5.5519 189.609C2.39603 195.96 1.30497 203.14 2.43141 210.142L88.5346 745.393C91.1865 761.878 105.414 774 122.11 774H470.925C492.188 774 508.236 754.705 504.363 733.798L453.13 457.231L433.64 331.784C432.513 324.533 429.071 317.84 423.828 312.706L344.507 235.042L303.602 198.31C297.879 193.171 294.067 186.244 292.789 178.659L272.964 61.0248C272.116 55.9976 270.15 51.2252 267.209 47.0607Z" fill="url(#paint0_linear_488_9596)"/>
<path d="M267.209 47.0607L245.554 16.3924C238.541 6.46152 226.761 1.02927 214.655 2.14407L112.03 11.5945C100.286 12.676 89.9413 19.7648 84.6936 30.3265L5.5519 189.609C2.39603 195.96 1.30497 203.14 2.43141 210.142L88.5346 745.393C91.1865 761.878 105.414 774 122.11 774H470.925C492.188 774 508.236 754.705 504.363 733.798L453.13 457.231L433.64 331.784C432.513 324.533 429.071 317.84 423.828 312.706L344.507 235.042L303.602 198.31C297.879 193.171 294.067 186.244 292.789 178.659L272.964 61.0248C272.116 55.9976 270.15 51.2252 267.209 47.0607Z" stroke="#FFB47B" stroke-width="4"/>
</g>
<defs>
<filter id="filter0_n_488_9596" x="0" y="0" width="506.944" height="776" filterUnits="userSpaceOnUse" color-interpolation-filters="sRGB">
<feFlood flood-opacity="0" result="BackgroundImageFix"/>
<feBlend mode="normal" in="SourceGraphic" in2="BackgroundImageFix" result="shape"/>
<feTurbulence type="fractalNoise" baseFrequency="2 2" stitchTiles="stitch" numOctaves="3" result="noise" seed="7129" />
<feColorMatrix in="noise" type="luminanceToAlpha" result="alphaNoise" />
<feComponentTransfer in="alphaNoise" result="coloredNoise1">
<feFuncA type="discrete" tableValues="1 1 1 1 1 1 1 1 1 1 1 1 1 1 1 1 1 1 1 1 1 1 1 1 1 1 1 1 1 1 1 1 1 1 1 1 1 1 1 1 1 1 1 1 1 1 1 1 1 1 1 0 0 0 0 0 0 0 0 0 0 0 0 0 0 0 0 0 0 0 0 0 0 0 0 0 0 0 0 0 0 0 0 0 0 0 0 0 0 0 0 0 0 0 0 0 0 0 0 0 "/>
</feComponentTransfer>
<feComposite operator="in" in2="shape" in="coloredNoise1" result="noise1Clipped" />
<feFlood flood-color="rgba(0, 0, 0, 0.1)" result="color1Flood" />
<feComposite operator="in" in2="noise1Clipped" in="color1Flood" result="color1" />
<feMerge result="effect1_noise_488_9596">
<feMergeNode in="shape" />
<feMergeNode in="color1" />
</feMerge>
</filter>
<linearGradient id="paint0_linear_488_9596" x1="184.239" y1="75.8481" x2="184.239" y2="211.878" gradientUnits="userSpaceOnUse">
<stop stop-color="#F9D48E"/>
<stop offset="1" stop-color="#EAA560"/>
</linearGradient>
</defs>
</svg>
