<svg width="47" height="70" viewBox="0 0 47 70" fill="none" xmlns="http://www.w3.org/2000/svg">
<path d="M23.2666 0.128826C25.9895 -0.163897 28.8483 0.0733871 31.6699 0.527256C35.2908 1.11012 38.8623 1.97941 41.7821 4.39216C44.373 6.53288 45.7701 9.38361 45.9767 12.7074C46.2606 17.2716 45.7538 21.8317 45.6829 26.3959C44.6454 28.8464 45.2822 31.421 45.1373 33.9361C44.9899 36.4934 45.2689 39.0433 45.3842 41.5972C45.5975 46.3181 44.947 50.9189 43.4505 55.4384C42.7006 57.7029 41.5518 59.7143 40.3924 61.7352C39.2245 63.7706 37.2663 65.0383 35.3577 66.2935C31.868 68.5883 28.006 69.55 23.8365 69.4584C21.6759 69.4111 19.5185 69.4662 17.3826 69.043C14.3925 68.4509 11.8027 67.0382 9.33197 65.3093C5.97045 62.9568 4.20746 59.5716 2.86471 55.8449C2.00317 53.4532 1.40072 51.0109 1.0448 48.5061C0.593514 45.3265 0.675936 42.1372 0.925047 38.9409C1.20446 35.355 0.891042 31.7573 1.04517 28.167C-0.0965289 26.0274 0.569861 23.6912 0.334426 21.4533C-0.000431675 18.2706 -0.180059 15.0466 0.26494 11.884C0.834863 7.83018 2.95156 4.71556 6.73294 2.85241C9.92554 1.27939 13.3318 0.618547 16.8323 0.237489C18.9301 0.00907657 21.0206 0.0116628 23.2666 0.128826Z" fill="#008080"/>
<path d="M21.4073 28.9756C20.372 30.3254 18.9339 30.9659 17.5332 31.5961C13.9861 33.1927 10.2387 33.2082 7.25346 29.945C7.11154 29.7898 6.99548 29.5847 6.73122 29.6793C5.41212 30.1502 4.11408 30.0737 2.8434 29.4583C2.73621 30.2126 2.85227 31.0793 3.11764 31.8444C4.25749 35.1287 7.8171 36.4441 10.7233 36.0627C11.2662 35.9913 11.8069 35.9011 12.351 35.8394C12.5742 35.8139 12.7834 35.9056 12.8906 36.1115C12.9871 36.2966 12.8965 36.4552 12.7483 36.593C11.4233 37.8249 11.1509 39.473 10.9291 41.1509C10.6734 43.0854 11.196 44.7357 12.5118 46.1949C13.0492 46.791 13.5607 46.8494 14.1894 46.5375C15.0339 46.1187 15.8559 45.6641 16.6468 45.1393C18.3429 44.0131 20.1529 43.4495 22.1613 44.3243C22.7434 44.5779 23.3677 44.6481 23.942 44.3946C26.1892 43.4022 28.1451 44.0457 30.0156 45.3692C30.7367 45.8792 31.5266 46.2821 32.346 46.6162C32.8708 46.8302 33.2792 46.7582 33.7102 46.2888C35.9603 43.8379 36.0198 39.3118 33.7955 36.8152C33.6107 36.6078 33.2216 36.4515 33.4577 36.0749C33.6488 35.7703 33.9822 35.8173 34.2886 35.8627C34.7402 35.93 35.1897 36.0165 35.6428 36.0708C38.716 36.4363 42.3078 34.9845 43.2865 31.5343C43.4717 30.8816 43.6757 30.2137 43.4746 29.4343C42.3185 30.0352 41.1535 30.1513 39.9801 29.7869C39.4937 29.6357 39.242 29.7492 38.9012 30.1099C37.3707 31.7291 35.5064 32.6524 33.2326 32.6136C29.9709 32.5577 27.2847 31.1496 24.7888 29.0351C23.7232 29.8404 22.5512 29.7632 21.4073 28.9756Z" fill="#A31334"/>
<path d="M6.2819 36.0791C6.42605 36.4572 6.46966 36.5951 6.5299 36.7259C7.40031 38.619 7.36335 40.4297 6.07271 42.145C5.79957 42.5083 5.56044 42.903 5.35014 43.3066C4.64864 44.6516 4.83233 45.7841 5.87645 46.8747C6.27562 47.2917 6.6855 47.7115 7.01001 48.1854C7.94695 49.5543 8.24632 50.9851 7.37998 52.5348C6.39759 54.2919 6.96086 56.1606 8.74972 57.1038C9.42054 57.4575 10.1342 57.7343 10.8405 58.0156C12.3696 58.6243 13.23 59.7184 13.4041 61.3694C13.4558 61.8598 13.3786 62.3865 13.6602 62.9475C14.8507 62.2889 16.128 62.0221 17.3717 61.5453C17.1932 60.9558 17.0894 60.4439 16.8872 59.9741C15.6856 57.181 14.5203 54.3702 13.22 51.6234C12.588 50.288 12.1526 48.8325 11.1444 47.6853C10.93 47.4413 10.7145 47.1579 10.8091 46.7805C10.9311 46.2952 11.4253 46.6208 11.7198 46.4283C10.5988 44.9809 9.97494 43.4264 10.1568 41.6342C10.3275 39.9496 10.5194 38.2627 11.6555 36.7215C9.75762 36.8109 8.07927 36.9587 6.2819 36.0791Z" fill="#FBB752"/>
<path d="M34.6659 36.7225C35.7991 38.2734 35.9868 39.9643 36.1617 41.6537C36.3494 43.4674 35.6664 45.0249 34.5842 46.4807C35.6095 46.514 35.7758 46.7908 35.2628 47.5511C34.7531 48.3065 34.2593 49.0568 33.8886 49.9017C32.5211 53.0201 31.0922 56.111 29.7166 59.2256C29.3902 59.9641 29.0687 60.724 29.0225 61.6184C30.2968 61.961 31.5062 62.409 32.7739 62.9312C32.8179 62.4341 32.8619 62.0745 32.8796 61.7138C32.975 59.7937 33.9315 58.5345 35.7484 57.9058C36.2648 57.7273 36.7652 57.4963 37.2594 57.2612C39.3772 56.2541 39.9929 54.375 38.835 52.3603C38.5467 51.8591 38.4576 51.3609 38.445 50.8002C38.4073 49.1167 39.3598 47.9591 40.4494 46.8566C41.4802 45.8136 41.6672 44.6782 40.9971 43.372C40.7343 42.8598 40.4098 42.3752 40.0776 41.9036C39.0157 40.3949 38.9939 38.7949 39.6019 37.1224C39.7013 36.8493 39.9467 36.6235 39.8802 36.1763C38.2625 36.9428 36.5664 36.8212 34.6659 36.7225Z" fill="#FBB752"/>
<path d="M26.6206 10.5669C26.6206 8.8849 26.6213 7.5754 26.6206 6.26628C26.6198 5.06508 26.3674 3.90786 25.9741 2.78095C25.6082 1.7324 25.0967 1.40419 24.0156 1.43635C23.408 1.45446 22.7926 1.4929 22.1924 1.42193C21.2677 1.31253 20.755 1.82591 20.4475 2.54921C20.1762 3.18677 19.9585 3.87903 19.8887 4.56464C19.5246 8.14607 19.5165 11.7511 19.8358 15.3215C20.1467 18.7987 20.8367 22.2415 21.3486 25.7013C21.3918 25.9929 21.4617 26.1907 21.75 26.3452C22.6729 26.8393 23.5485 26.8951 24.5076 26.3818C25.2512 25.9837 24.9818 25.3077 25.0623 24.7722C25.7886 19.9356 26.9166 15.1396 26.6206 10.5669Z" fill="#FBB752"/>
<path d="M43.8449 32.5396C43.292 33.376 42.8282 34.2741 42.0542 34.8488C41.1443 35.5244 40.6764 36.4492 40.289 37.4183C39.7453 38.7799 39.7586 40.1489 40.632 41.4192C40.9247 41.845 41.2212 42.2711 41.4777 42.7194C42.4637 44.4447 42.2557 46.0263 40.897 47.4452C40.5189 47.8399 40.1282 48.2387 39.834 48.6944C39.1237 49.7947 38.8431 50.9172 39.5665 52.1831C40.7736 54.2964 40.0447 56.6441 37.8807 57.7563C37.0983 58.1584 36.2644 58.4607 35.4584 58.8177C34.3924 59.2901 33.7837 60.1409 33.6473 61.2686C33.5013 62.4735 33.243 63.7197 34.6168 64.5451C35.0814 64.8241 35.3778 64.9088 35.8246 64.6208C36.9083 63.9227 37.9099 63.1332 38.6539 62.0702C40.6479 59.2206 42.0324 56.0602 42.8407 52.712C43.6398 49.4018 43.8383 45.9834 43.9396 42.5738C44.0386 39.236 44.0054 35.9 43.8449 32.5396Z" fill="#C66B3F"/>
<path d="M2.4599 32.5444C2.35531 37.717 2.28989 42.8615 2.74228 48.0225C3.1152 52.2755 4.39513 56.1622 6.303 59.9004C7.28429 61.8234 8.57309 63.5058 10.4917 64.6069C10.7663 64.7643 11.0627 65.0659 11.3968 64.758C12.0987 64.1112 13.1118 63.633 12.7481 62.3682C12.6827 62.1405 12.72 61.884 12.7067 61.6408C12.6331 60.2644 11.9819 59.2865 10.7031 58.7439C10.087 58.4826 9.46198 58.242 8.85472 57.9615C6.2228 56.7455 5.46808 54.4673 6.8781 51.9499C7.14717 51.4694 7.1845 51.0111 7.14643 50.4711C7.0496 49.0955 6.18584 48.1963 5.29215 47.3281C4.56293 46.6199 4.26947 45.8256 4.26133 44.8089C4.25099 43.4805 4.95988 42.5148 5.62774 41.4998C6.78311 39.745 6.58094 36.9065 5.01569 35.526C4.01555 34.6441 3.21426 33.664 2.4599 32.5444Z" fill="#C66B3F"/>
<path d="M11.9883 47.4837C14.6257 51.838 18.8333 52.9471 23.2603 52.9272C27.6183 52.9076 31.7537 51.7652 34.3413 47.4497C32.1732 47.7594 30.6634 46.6052 29.0638 45.5984C27.6349 44.6988 26.093 44.2379 24.3928 44.9867C23.593 45.3389 22.7074 45.3378 21.9061 44.9808C20.2411 44.2394 18.7102 44.6844 17.3153 45.5614C15.6902 46.5837 14.1519 47.7217 11.9883 47.4837Z" fill="#6694D2"/>
<path d="M16.4062 52.4671C17.8133 55.2698 18.4324 58.2454 19.0437 61.2725C21.9041 60.4183 24.6036 60.5262 27.3331 61.2507C27.8125 58.1165 28.6178 55.2299 30.0715 52.2856C25.3687 54.0767 20.9187 54.0667 16.4062 52.4671Z" fill="#A31334"/>
<path d="M34.6648 2.33545C35.6531 3.75989 35.7455 5.13739 35.7961 6.55037C36.0027 12.3427 34.7546 17.9762 33.9766 23.661C33.9363 23.9559 33.7785 24.2601 34.1887 24.4331C35.2207 24.8677 36.2493 25.3113 37.3581 25.7851C37.4449 25.417 37.5351 25.1305 37.5787 24.8374C38.4148 19.2018 38.9052 13.5421 38.6166 7.84101C38.5434 6.39477 38.5145 4.91489 37.7354 3.59246C37.5717 3.31452 37.4401 3.09091 37.1134 3.00627C36.3842 2.81741 35.6594 2.60932 34.6648 2.33545Z" fill="#FBB752"/>
<path d="M8.9552 25.6715C9.05129 25.6811 9.1193 25.7096 9.16661 25.6896C9.75501 25.442 10.3423 25.1917 10.9263 24.933C12.3607 24.2973 12.3126 24.3003 12.1563 22.7964C11.7472 18.8646 10.7818 15 10.6321 11.0446C10.5234 8.17092 9.99229 5.22595 11.5102 2.37744C10.8531 2.55448 10.3113 2.74409 9.7528 2.83981C9.0561 2.95956 8.66728 3.32768 8.38195 3.97633C7.76139 5.38746 7.7673 6.88287 7.67897 8.36274C7.38957 13.2112 7.93991 18.0215 8.41041 22.8326C8.50429 23.7932 8.63328 24.7612 8.9552 25.6715Z" fill="#FBB752"/>
<path d="M4.93857 5.68555C2.91649 7.43523 1.78441 9.70199 1.67426 12.2792C1.51423 16.0162 1.31279 19.7603 1.43107 23.5069C1.46396 24.5533 1.77997 25.5423 1.95405 26.5598C2.00321 26.8477 2.16398 26.9952 2.43453 27.0185C3.66863 27.1257 4.8957 27.1065 6.27098 26.884C4.97442 19.805 4.35867 12.7967 4.93857 5.68555Z" fill="#FBB752"/>
<path d="M40.0439 26.9178C41.4303 27.076 42.5787 27.1178 43.7322 27.0435C44.0552 27.0228 44.301 26.9234 44.3716 26.5316C44.5545 25.5156 44.8037 24.518 44.8454 23.4721C44.9788 20.1209 44.6939 16.7771 44.7183 13.43C44.7353 11.1226 44.0367 9.06321 42.8082 7.15274C42.4327 6.56915 41.9969 6.03396 41.2681 5.56494C41.9592 12.7877 41.342 19.8138 40.0439 26.9178Z" fill="#FBB752"/>
<path d="M33.0406 66.0263C31.5995 65.0398 30.3588 64.1088 28.8571 63.7928C25.0617 62.9941 21.233 62.9848 17.4413 63.8017C15.9329 64.1265 14.6608 65.0313 13.3018 66.0355C15.5626 67.049 17.6549 67.8281 19.9723 67.8037C22.1337 67.7808 24.2955 67.7926 26.4573 67.8007C28.7392 67.8096 30.802 67.0305 33.0406 66.0263Z" fill="#A31334"/>
<path d="M17.4837 1.57704C16.7337 1.41479 16.1032 1.64985 15.4841 1.59922C14.4729 1.51643 14.1772 2.10705 13.9943 2.9198C13.6697 4.35865 13.6284 5.81229 13.7152 7.27405C13.9573 11.3389 14.4012 15.3816 15.0247 19.4062C15.1966 20.515 15.2372 21.6437 15.3625 22.7607C15.3939 23.039 15.3111 23.4681 15.6974 23.5228C16.4373 23.6277 17.0886 24.0273 17.8843 24.2128C17.8473 23.8883 17.8385 23.6784 17.7978 23.4747C16.6606 17.7955 15.9517 12.0777 16.1949 6.26874C16.2629 4.63955 16.4684 3.05988 17.4837 1.57704Z" fill="#FBB752"/>
<path d="M28.4023 24.2388C29.0617 24.0074 29.5828 23.7384 30.1317 23.6552C30.7353 23.5639 30.9127 23.2871 30.9792 22.7194C31.2797 20.1573 31.4848 17.5886 31.8999 15.0328C32.3467 12.2822 32.4254 9.46995 32.6228 6.68169C32.7152 5.37367 32.6199 4.06344 32.2813 2.78943C32.1697 2.36993 32.1187 1.78005 31.6031 1.70761C30.7249 1.58379 29.8305 1.42524 28.8222 1.54609C29.4823 2.53588 29.89 3.51606 29.9643 4.58827C30.2729 9.02754 30.2204 13.4568 29.4868 17.8591C29.1382 19.9481 28.7771 22.0352 28.4023 24.2388Z" fill="#FBB752"/>
<path d="M2.62817 27.8743C2.47036 28.1837 2.54353 28.4143 2.837 28.5695C3.3999 28.8674 3.94469 29.1768 4.61404 29.2352C5.8899 29.3464 6.88153 28.8135 7.88056 28.0913C11.5422 25.4431 15.3594 24.5002 19.4842 27.1521C20.4521 27.7745 21.545 28.1999 22.564 28.747C22.9854 28.9731 23.3428 28.9676 23.7608 28.7421C25.1534 27.9908 26.5498 27.2438 27.9661 26.5386C29.9431 25.5543 32.0051 25.235 34.1543 25.9136C35.8231 26.4403 37.3495 27.2386 38.7447 28.3034C40.2738 29.4703 41.839 29.5675 43.3311 28.6601C43.6408 28.4716 43.911 28.2983 43.6449 27.7993C43.3869 27.7993 43.0864 27.7867 42.7871 27.8015C41.1468 27.8821 39.5996 27.5827 38.0835 26.9089C36.3612 26.1435 34.6396 25.3718 32.874 24.6965C31.2773 24.0859 29.8843 24.3044 28.4292 25.1068C26.9948 25.8977 25.5855 26.7504 24.0306 27.3192C23.4167 27.5439 22.89 27.545 22.2794 27.314C20.5042 26.6432 18.9105 25.6209 17.2237 24.7804C16.116 24.2282 15.0342 24.1632 13.8736 24.5671C12.6643 24.9885 11.4697 25.4409 10.3155 25.9931C7.96298 27.1181 5.58054 28.1042 2.88209 27.81C2.79856 27.8011 2.70875 27.8529 2.62817 27.8743Z" fill="#A31334"/>
<path d="M25.6436 25.6395C26.9874 25.2585 27.8615 24.7137 27.8685 23.3221C27.8715 22.7215 28.0219 22.1165 28.1465 21.5225C29.2272 16.374 29.5384 11.1667 29.3758 5.92062C29.3425 4.84508 29.1984 3.79098 28.722 2.82041C28.2951 1.95111 27.4553 1.05668 26.2597 1.5671C26.7235 2.62526 27.1367 3.71263 27.2099 4.87206C27.5241 9.8587 27.5352 14.8309 26.5883 19.7725C26.2242 21.6733 26.0982 23.6171 25.6436 25.6395Z" fill="#A31334"/>
<path d="M20.0741 1.54812C18.8707 1.11236 18.0805 1.85304 17.5853 2.84282C17.1443 3.72358 16.9987 4.68935 16.9499 5.671C16.6524 11.663 17.3956 17.5584 18.4453 23.4425C18.6859 24.7923 19.4539 25.2225 20.5014 25.6242C20.6422 25.2557 20.5646 24.9261 20.5066 24.6041C19.5223 19.1241 18.7022 13.6359 18.9247 8.03164C19.013 5.79963 19.0855 3.60198 20.0741 1.54812Z" fill="#A31334"/>
<path d="M8.01855 28.9686C11.1262 33.0937 18.7188 31.1477 20.1795 28.453C15.6767 25.2722 12.1562 25.7493 8.01855 28.9686Z" fill="white"/>
<path d="M38.2692 28.9839C34.2272 25.6597 30.3804 25.3285 26.1396 28.4927C27.9987 31.4077 35.4647 32.9072 38.2692 28.9839Z" fill="white"/>
<path d="M32.6257 1.90497C33.3937 3.80065 33.431 5.72627 33.2525 7.68034C32.9517 10.9787 32.921 14.2936 32.2028 17.5627C31.7767 19.5024 31.7826 21.5366 31.5938 23.5351C32.1341 23.7232 32.595 23.9464 33.1217 23.9601C33.3985 23.4286 33.475 22.8923 33.5367 22.3475C33.6912 20.9878 33.7814 19.6147 34.039 18.2742C34.8303 14.1605 35.1511 10.0155 35.0639 5.83271C35.048 5.06727 34.9571 4.32068 34.7538 3.57926C34.467 2.53218 33.9193 1.83697 32.6257 1.90497Z" fill="#A31334"/>
<path d="M13.1969 24.0812C13.7325 23.651 14.7958 24.0561 14.6831 23.1125C14.4377 21.0586 14.3645 18.9896 14.0396 16.9416C13.248 11.9483 12.4829 6.94617 13.5133 1.89521C12.3975 1.81538 11.8509 2.53315 11.5781 3.56729C11.4698 3.97828 11.329 4.39593 11.3164 4.81432C11.2458 7.12617 11.2273 9.4358 11.3918 11.7491C11.5774 14.3663 12.07 16.9368 12.4633 19.5211C12.6858 20.9836 12.613 22.4997 13.1969 24.0812Z" fill="#A31334"/>
<path d="M38.4714 3.52881C38.6832 4.12386 38.8772 4.56812 38.9958 5.0316C39.116 5.50062 39.1965 5.98628 39.2331 6.46898C39.7047 12.6546 39.2583 18.7922 38.2223 24.895C37.9972 26.2204 38.0149 26.2854 39.4113 26.4983C39.4748 26.1132 39.5373 25.727 39.602 25.3411C40.0385 22.7332 40.3578 20.1094 40.618 17.4794C40.9994 13.6252 40.9096 9.77394 40.5689 5.91975C40.4543 4.62024 39.67 4.01261 38.4714 3.52881Z" fill="#A31334"/>
<path d="M7.91017 3.53418C6.26139 4.18837 5.99675 4.50142 5.74727 6.01124C5.67816 6.43 5.64046 6.85504 5.60867 7.2786C5.20913 12.6415 5.60128 17.9674 6.37929 23.2734C6.53969 24.3674 6.74482 25.4552 6.93554 26.5824C7.742 26.3444 8.37476 26.2893 8.17074 25.1573C7.22641 19.9152 6.7086 14.6274 6.94662 9.29107C7.03163 7.39169 6.89932 5.44982 7.91017 3.53418Z" fill="#A31334"/>
<path d="M12.0283 65.3079C12.3976 65.8046 12.7346 65.5326 13.0942 65.2827C14.42 64.3613 15.7605 63.4236 17.3546 63.0618C20.6829 62.3063 24.0584 62.493 27.4229 62.7576C29.5895 62.928 31.3976 64.0039 33.1332 65.2143C33.4954 65.4672 33.8484 65.8619 34.2886 65.3237C30.0278 60.3297 16.6151 60.1431 12.0283 65.3079Z" fill="#FBB752"/>
<path d="M13.5908 50.6558C14.8907 54.3122 16.9886 57.5828 18.0445 61.3708C18.3417 61.07 18.2289 60.8194 18.1861 60.612C17.6498 58.0204 16.9982 55.4702 15.8151 53.0733C15.2999 52.0296 14.6375 51.1969 13.5908 50.6558Z" fill="#C66B3F"/>
<path d="M32.736 50.6558C31.2026 51.6448 31.1959 51.6419 30.215 53.7212C29.0851 56.1159 28.4794 58.655 28.1611 61.2799C29.3269 57.5957 31.4107 54.3229 32.736 50.6558Z" fill="#C66B3F"/>
<path d="M20.8909 30.7173C21.1681 30.8241 21.1862 31.0503 21.1485 31.258C20.9153 32.5475 20.6688 33.8367 19.9532 34.9703C19.6313 35.4803 19.2085 35.6799 18.558 35.7893C16.1652 36.1914 15.005 37.0581 15.1636 39.4188C15.1713 39.5315 15.236 39.6405 15.3177 39.8782C15.8884 38.7879 16.7451 38.3096 17.8498 38.3499C19.0041 38.392 19.7263 39.1586 20.3291 40.0216C21.0683 41.0805 21.9003 41.7676 23.3362 41.6852C24.3696 41.626 25.0592 41.2221 25.6521 40.474C25.9729 40.0689 26.2638 39.6331 26.6267 39.2695C28.0548 37.8384 29.8348 38.0442 30.9192 39.7422C31.4378 38.8537 31.0671 37.1594 30.1568 36.6527C29.3407 36.1985 28.5021 35.7054 27.5097 35.7616C27.1216 35.7834 26.8655 35.6174 26.6515 35.3458C25.6694 34.0991 25.3889 32.6052 25.1716 31.0913C25.1601 31.0119 25.2119 30.9158 25.2544 30.8389C25.2803 30.7919 25.3449 30.7664 25.4085 30.7191C25.8827 30.8016 25.8524 31.2207 25.9345 31.5526C26.1606 32.4681 26.3355 33.3987 26.7805 34.2455C27.0917 34.8372 27.4694 35.1684 28.2408 35.243C31.6688 35.5749 32.7303 38.5787 31.3125 40.9704C30.6047 42.1645 28.6554 42.6077 27.5293 41.8796C26.9897 41.5307 26.9656 40.977 26.7243 40.3383C25.7655 41.4675 24.8737 42.4528 23.2116 42.4403C21.5536 42.4281 20.5523 41.6282 19.6091 40.2507C19.4103 41.225 19.0784 41.9136 18.2379 42.1697C17.4218 42.4185 16.6804 42.1309 15.9423 41.8241C15.1185 41.4815 14.7744 40.7445 14.5755 39.9835C13.9391 37.5482 15.2009 35.5683 18.0635 35.2467C18.8267 35.161 19.2181 34.855 19.5319 34.2592C19.9776 33.4124 20.1554 32.4829 20.3812 31.5674C20.4636 31.2321 20.4355 30.8171 20.8909 30.7173Z" fill="#008080"/>
<path d="M24.3645 15.254C24.346 15.9932 23.9734 16.4031 23.2279 16.3628C22.5567 16.327 21.9369 16.1499 21.8977 15.301C21.8637 14.5566 22.5246 13.7701 23.1699 13.7656C23.7794 13.7616 24.3563 14.4804 24.3645 15.254Z" fill="#A31334"/>
<path d="M22.2051 20.5871C22.1996 19.7096 22.6054 19.1759 23.2666 19.1907C24.0014 19.2074 24.5517 19.8372 24.5288 20.668C24.5092 21.3777 24.1662 21.7927 23.4148 21.8053C22.5991 21.8193 22.2107 21.4331 22.2051 20.5871Z" fill="#A31334"/>
<path d="M23.1529 8.2715C23.8377 8.27445 24.3012 8.77305 24.3131 9.51927C24.326 10.325 23.9568 10.6916 23.1462 10.6787C22.3386 10.6658 21.8851 10.2167 21.8977 9.44387C21.9088 8.77231 22.4484 8.26854 23.1529 8.2715Z" fill="#A31334"/>
<path d="M24.1277 4.67379C24.11 5.2463 23.8406 5.68427 23.0988 5.66136C22.4158 5.64029 21.9149 5.3812 21.8913 4.61022C21.8695 3.89245 22.3866 3.29666 22.9916 3.30627C23.6498 3.31662 24.1296 3.85291 24.1277 4.67379Z" fill="#A31334"/>
<path d="M23.1425 50.0479C21.1696 50.0316 19.183 50.2075 17.2341 49.727C16.6782 49.5899 16.1445 49.4661 16.1083 48.7528C16.0691 47.9851 16.673 47.9012 17.1978 47.7704C18.3794 47.4754 19.5714 47.2359 20.8007 47.2825C23.168 47.3727 25.5486 47.0693 27.9037 47.5087C28.4411 47.6089 28.9718 47.7456 29.5029 47.8768C29.9258 47.9814 30.2177 48.2135 30.214 48.6944C30.2103 49.1863 29.9638 49.5093 29.4933 49.6217C28.6059 49.8339 27.7152 50.0434 26.7949 50.0468C25.5774 50.0512 24.3599 50.0479 23.1425 50.0479Z" fill="#008080"/>
<path d="M29.3835 48.8665C27.4077 47.587 18.8008 47.5951 16.9229 48.8765C21.069 49.5263 25.2189 49.5299 29.3835 48.8665Z" fill="#008080"/>
<path d="M20.8242 55.3395C21.114 54.8919 21.454 55.0771 21.7612 55.1624C23.1069 55.5365 24.4452 55.8872 25.775 55.0955C25.9824 54.9721 26.254 54.9048 26.41 55.1935C26.5161 55.3901 26.3845 55.5368 26.2278 55.6503C25.2376 56.3681 21.8037 56.4745 20.8242 55.3395Z" fill="#008080"/>
</svg>
