<svg width="46" height="73" viewBox="0 0 46 73" fill="none" xmlns="http://www.w3.org/2000/svg">
<path d="M33.5143 6.73827C34.3999 6.28031 35.2758 5.79207 36.1819 5.36807C37.2088 4.88747 38.2621 4.50202 39.4301 4.465C39.9771 4.44756 40.1447 4.66935 40.22 5.12486C40.4614 6.58592 40.246 7.98641 39.6724 9.33948C39.4105 9.95713 39.1334 10.568 38.806 11.3126C40.1515 11.056 41.3647 10.87 42.5948 10.8513C43.697 10.8345 43.7631 10.9306 43.6031 12.0129C43.4278 13.1986 43.27 14.3865 42.8714 15.6316C43.6716 15.5254 44.326 15.3345 45.0039 15.3348C45.4873 15.3351 45.7026 15.5478 45.6558 16.0299C45.3166 19.5247 43.9843 22.5851 41.6489 25.2092C41.4253 25.4607 41.1442 25.6241 40.8545 25.777C40.5669 25.9291 40.2738 26.0707 39.9676 26.2249C40.0083 26.4277 40.064 26.6158 40.0814 26.8073C40.1505 27.5657 38.9933 27.7786 39.2845 28.6808C39.539 29.4688 39.0067 30.0176 38.4971 30.5203C38.2435 30.7702 38.1685 31.0529 38.1349 31.3952C37.7613 35.209 37.1033 38.9767 36.3385 42.7309C35.5924 46.3937 34.5703 49.9778 33.2472 53.4625C31.925 56.9454 30.5983 60.4435 28.7717 63.7018C27.1469 66.6001 25.5742 69.5372 23.6007 72.2278C23.0617 72.9626 22.5707 72.9935 22.0745 72.2544C18.8951 67.5175 16.0893 62.5953 13.9261 57.2846C12.3819 53.4934 11.0224 49.6581 9.98529 45.7121C9.08926 42.3023 8.46367 38.8277 8.0103 35.3284C7.82919 33.9303 7.49911 32.5503 7.49176 31.1303C7.48993 30.7589 7.18003 30.5704 6.96406 30.333C6.48621 29.8072 6.10168 29.2473 6.42809 28.5033C6.57769 28.1626 6.29839 28.0634 6.16439 27.8756C5.81993 27.3932 5.2858 26.9686 5.76089 26.216C3.80333 25.6072 2.92902 24.0018 2.01371 22.4226C0.910272 20.5183 0.240003 18.4821 0.0218843 16.2921C-0.061631 15.4548 0.0650176 15.2865 0.911796 15.3544C1.48447 15.4003 2.05195 15.5098 2.73629 15.6071C2.40712 14.3813 2.21439 13.18 2.0391 11.975C1.89012 10.9498 1.96629 10.8388 3.01926 10.8525C4.25272 10.8685 5.46813 11.052 6.76063 11.2961C6.67069 10.7495 6.43085 10.3453 6.2317 9.92868C5.52044 8.44039 5.16741 6.89368 5.40816 5.23561C5.48954 4.67456 5.68502 4.43043 6.3354 4.47265C8.27399 4.59777 9.87364 5.55804 11.5182 6.42593C11.715 6.52964 11.9016 6.652 12.1793 6.8172C12.3008 6.01845 12.4183 5.28822 12.521 4.55617C12.6162 3.87917 12.7688 3.21594 13.02 2.58178C13.4241 1.56216 13.8423 1.44193 14.8292 1.91427C16.4432 2.68671 17.785 3.79963 19.0095 5.15576C19.343 4.61551 19.5969 4.07924 19.7875 3.5136C20.2109 2.25812 21.0056 1.26725 21.9733 0.392635C22.5313 -0.111822 23.0755 -0.141496 23.6479 0.369386C24.6213 1.23819 25.406 2.23303 25.8557 3.4775C26.0579 4.03733 26.3243 4.57391 26.5996 5.2093C27.8325 3.7981 29.1905 2.71424 30.7876 1.9317C31.8085 1.43153 32.2304 1.55787 32.6443 2.61849C33.108 3.80606 33.1799 5.07469 33.3922 6.31427C33.4176 6.45316 33.3662 6.6159 33.5143 6.73827Z" fill="#008080"/>
<path d="M14.6881 30.1624C14.9179 30.2597 15.0861 30.1884 15.2532 30.1425C17.8975 29.4135 20.046 30.3343 21.9231 32.1499C22.0996 32.3203 22.3098 32.4803 22.2669 32.7826C22.0124 34.5777 21.6747 36.3572 21.522 38.1713C21.3532 40.1766 20.9943 42.1654 20.7401 44.1639C20.592 45.3261 20.6113 45.3285 19.465 45.5635C18.8315 45.6935 18.4347 46.3136 18.5907 47.0172C18.722 47.6092 19.0386 47.9885 19.7263 47.7058C20.0123 47.588 20.2145 47.7413 20.3978 47.9221C21.7573 49.2639 23.917 49.2336 25.2319 47.9386C25.4638 47.7101 25.6996 47.6092 26.0441 47.7419C26.618 47.9637 26.9003 47.5896 27.042 47.1179C27.2993 46.2601 26.759 45.558 25.8376 45.5534C25.4234 45.5513 25.0737 45.5549 25.0459 45.0095C25.033 44.7602 24.9468 44.5154 24.9266 44.2658C24.7195 41.6909 23.9486 39.1741 24.1318 36.5591C23.5126 35.4067 23.7638 34.0852 23.4132 32.8814C23.348 32.6572 23.3994 32.4868 23.5524 32.3326C24.8635 31.0095 26.3497 30.0413 28.2782 29.8987C29.191 29.8311 30.0562 30.1294 30.9522 30.2187C31.6136 28.7197 31.4818 27.2161 31.3346 25.7089C31.2982 25.335 31.0406 24.8003 31.5723 24.6718C32.0982 24.5449 32.1539 25.1334 32.2719 25.4877C32.688 26.738 32.8737 28.0381 32.9642 29.3459C33.0808 31.0291 33.2178 31.1624 34.9264 30.9397C35.3794 30.8807 35.7992 30.7158 36.2241 30.5509C36.5878 30.4099 36.7172 30.212 36.7139 29.8247C36.7025 28.5147 36.709 27.2042 36.7441 25.8949C36.757 25.4176 36.5793 25.094 36.2302 24.792C31.3833 20.5988 25.8104 18.998 19.4733 20.0268C15.6652 20.645 12.3041 22.1685 9.44014 24.7718C9.07855 25.1004 8.88948 25.4421 8.90631 25.9429C8.93996 26.9494 8.91182 27.958 8.93079 28.9653C8.95893 30.457 9.25965 30.7794 10.7733 30.9407C11.1475 30.9804 11.5283 30.9575 11.9064 30.959C12.4629 30.9612 12.6887 30.7302 12.677 30.1284C12.648 28.5826 12.9102 27.065 13.3485 25.5856C13.4651 25.1919 13.5238 24.5072 14.1222 24.688C14.6267 24.8404 14.3201 25.4234 14.2929 25.8297C14.1941 27.3057 14.0203 28.7904 14.6881 30.1624Z" fill="#74B58D"/>
<path d="M22.8929 61.1176C25.5718 60.9141 27.9295 60.0163 29.7503 57.8626C30.9599 56.4318 31.0716 54.9261 30.3924 53.2904C29.8415 51.963 28.4857 51.5023 27.1974 52.1539C27.0179 52.2447 26.8472 52.3527 26.6719 52.4515C24.3668 53.7492 22.0109 53.9417 19.5976 52.7666C19.1907 52.5684 18.8052 52.3264 18.399 52.1267C17.2166 51.5457 15.9467 51.9018 15.3759 53.0808C14.6564 54.5679 14.5352 56.058 15.6179 57.4906C17.4393 59.9006 19.9234 60.9447 22.8929 61.1176Z" fill="#A31334"/>
<path d="M11.3076 46.1602C11.4168 47.2428 13.4851 53.4609 14.1805 54.8295C14.3307 54.2969 14.4555 53.8188 14.6014 53.3468C14.8085 52.6771 15.1839 52.1252 15.7752 51.73C16.8508 51.0111 17.9182 51.1607 18.98 51.7563C20.2459 52.4666 21.5412 52.9738 23.0533 52.9264C24.4278 52.8833 25.5851 52.3492 26.7362 51.7177C28.6137 50.688 30.4837 51.444 31.0992 53.4896C31.2271 53.9142 31.3317 54.3459 31.4862 54.9198C32.5673 51.949 33.6579 49.1526 34.4071 46.2015C33.3547 46.3094 32.6722 46.5897 32.497 47.7148C32.3474 48.6754 31.7771 49.5314 31.2794 50.3797C31.1812 50.5467 31.0974 50.755 30.7303 50.6645C30.8472 50.0753 30.997 49.4842 31.0741 48.8837C31.1564 48.241 31.1827 47.5891 31.0818 46.9366C30.5446 46.977 30.0463 47.0302 29.5464 47.0482C29.0263 47.0672 28.5047 47.0525 27.9666 47.0525C27.7366 48.1495 27.0834 48.6681 25.973 48.5497C25.7062 48.5212 25.567 48.687 25.4006 48.8461C24.1849 50.0061 21.4683 50.0046 20.2502 48.8476C20.1055 48.7103 19.9917 48.5221 19.7552 48.5512C18.5796 48.6962 17.9096 48.13 17.6468 46.9922C16.6082 47.0764 15.6054 47.103 14.5586 46.8928C14.4255 48.2058 14.5742 49.4478 14.975 50.6403C14.595 50.7575 14.4971 50.5953 14.4105 50.4454C13.8054 49.3968 13.2273 48.3319 12.9697 47.1366C12.8843 46.7408 12.7231 46.5092 12.315 46.4349C11.9956 46.3761 11.6866 46.2657 11.3076 46.1602Z" fill="#479362"/>
<path d="M36.3683 20.1196C36.468 19.8211 36.3781 19.5806 36.3163 19.3389C35.6479 16.7203 34.322 14.7049 31.693 13.5822C28.3172 12.1407 24.8594 11.2866 21.1954 11.6647C18.6395 11.9284 16.1457 12.491 13.7935 13.6535C12.6729 14.2072 11.701 14.8413 10.9582 15.8258C10.0062 17.0877 9.36808 18.4784 9.22461 20.1557C18.2984 13.7033 27.3034 13.6776 36.3683 20.1196Z" fill="#A31334"/>
<path d="M22.7664 71.3974C24.0537 69.9963 29.5859 60.3461 29.5443 59.0793C25.0528 62.5931 20.5583 62.5876 15.9307 58.9404C17.7925 63.4209 20.2123 67.4312 22.7664 71.3974Z" fill="#479362"/>
<path d="M9.02471 22.666C10.4172 21.509 12.0129 20.9256 13.4602 20.0834C15.3248 18.9984 17.3132 18.3614 19.4155 18.0203C21.0888 17.7487 22.7001 17.3519 24.4799 17.6217C28.5285 18.2354 32.1404 19.8237 35.5954 21.9027C35.9381 22.1089 36.1956 22.4944 36.6628 22.5271C36.6533 21.2514 36.5799 21.0459 35.4599 20.2575C31.7592 17.6517 27.7594 16.0034 23.1201 15.9432C18.2028 15.8792 13.9641 17.5606 10.0517 20.3499C9.30677 20.881 8.84024 21.5234 9.02471 22.666Z" fill="#C66B3F"/>
<path d="M25.9647 10.6657C26.3132 6.91702 24.9491 3.90619 22.8245 1.06055C20.6996 3.92974 19.3129 6.947 19.6938 10.667C21.8165 10.3057 23.8454 10.3115 25.9647 10.6657Z" fill="#FBB752"/>
<path d="M35.3969 14.9412C35.9577 14.4221 36.5426 14.0241 36.7922 13.4327C37.5821 11.5621 38.5898 9.76877 38.9645 7.74023C39.0942 7.03785 39.2453 6.33057 39.045 5.52295C36.1449 6.47282 33.5553 7.77021 31.6929 10.2172C31.3857 10.6211 31.182 11.0726 31.1749 11.6061C31.1701 11.9802 31.2884 12.2085 31.6424 12.3666C33.0242 12.9852 34.3507 13.6952 35.3969 14.9412Z" fill="#FBB752"/>
<path d="M6.61329 5.55811C6.18868 7.91489 8.41085 13.548 10.2953 14.8898C11.2427 13.7536 12.5025 13.0225 13.8476 12.4519C14.4539 12.1947 14.5411 11.8006 14.4463 11.2616C14.3753 10.8569 14.167 10.5115 13.9357 10.1787C13.2792 9.23431 12.4147 8.50256 11.4847 7.85371C9.99642 6.81481 8.38394 6.03044 6.61329 5.55811Z" fill="#FBB752"/>
<path d="M31.6157 3.18213C30.5422 3.57187 29.6333 4.07908 28.7917 4.73282C26.8137 6.26914 26.2297 8.27197 26.7427 10.6924C28.0612 10.7927 29.228 11.4997 30.5685 11.813C30.5768 10.5073 31.2908 9.63942 32.0807 8.80947C32.2477 8.63387 32.4618 8.5008 32.4637 8.19733C32.4753 6.50133 32.2627 4.84723 31.6157 3.18213Z" fill="#FBB752"/>
<path d="M18.926 10.6792C19.863 6.54047 16.8794 4.11149 13.9962 3.26562C13.3901 4.85915 13.1702 6.51385 13.1886 8.21016C13.1904 8.37872 13.2555 8.49864 13.3657 8.60602C14.2727 9.49379 15.0617 10.4486 15.1115 11.838C16.4456 11.4367 17.6204 10.8212 18.926 10.6792Z" fill="#FBB752"/>
<path d="M37.9258 20.2867C38.3541 19.7263 38.6258 19.2231 39.0299 18.8725C39.9519 18.0725 40.624 17.0816 41.3096 16.0999C42.2041 14.8188 42.3179 13.3256 42.5241 11.7544C40.8366 11.8642 39.3542 12.1726 37.9662 12.8747C37.8573 12.9297 37.7221 13.0093 37.6811 13.1105C37.2935 14.0748 36.4571 14.6854 35.7881 15.482C36.7432 16.9464 37.6894 18.3995 37.9258 20.2867Z" fill="#FBB752"/>
<path d="M9.86193 15.48C9.34065 14.9113 8.88147 14.4139 8.42627 13.9125C8.15706 13.6161 8.15033 13.1315 7.76457 12.9253C6.34787 12.1682 4.82226 11.8622 3.11035 11.7598C3.35356 13.3622 3.50743 14.8358 4.35849 16.1576C5.29796 17.6172 6.64767 18.7267 7.74805 20.3276C7.92304 18.3868 8.92032 16.9628 9.86193 15.48Z" fill="#FBB752"/>
<path d="M24.667 37.896C24.8178 38.9945 24.9717 40.1117 25.1246 41.2289C25.1516 41.425 25.2562 41.5651 25.4495 41.5972C26.7564 41.8144 28.0351 42.1968 29.4011 41.916C31.5474 41.4746 33.4756 40.5103 35.4111 39.5553C35.6185 39.4528 35.833 39.2206 35.9006 39.0037C36.2092 38.0119 36.4589 37.003 36.5381 35.9219C32.9622 39.0829 29.0792 39.9355 24.667 37.896Z" fill="#A31334"/>
<path d="M9.08984 35.7632C9.19386 36.9872 9.43768 37.9826 9.73289 38.9612C9.81212 39.224 10.0168 39.5146 10.3352 39.5911C10.9137 39.73 11.3677 40.1041 11.8838 40.3593C14.4094 41.6071 16.9944 42.4976 19.8627 41.6775C20.1221 41.6031 20.4611 41.6288 20.5143 41.2743C20.6838 40.1424 20.8297 39.0068 21.0206 37.6091C19.0187 39.2821 16.862 39.0775 14.7346 38.8113C12.551 38.5382 10.7088 37.4993 9.08984 35.7632Z" fill="#A31334"/>
<path d="M44.6377 16.2778C44.3978 16.332 44.2758 16.354 44.1571 16.387C42.3571 16.8869 40.926 18.0188 39.5576 19.2021C38.8008 19.8568 38.1672 20.7366 38.1275 21.781C38.0816 22.9808 38.2373 24.1879 38.3095 25.4639C39.6112 25.1724 40.5791 24.4623 41.3668 23.4754C42.4332 22.1392 43.0182 20.5405 43.7585 19.0286C44.1663 18.195 44.4385 17.3082 44.6377 16.2778Z" fill="#FBB752"/>
<path d="M7.38787 25.4726C7.31506 24.4389 7.45762 23.5166 7.54083 22.5918C7.6167 21.7456 7.38695 21.0319 6.96601 20.3066C6.08436 18.7883 4.56885 18.0434 3.21241 17.1064C2.58039 16.6698 1.83426 16.4771 1.01562 16.2773C1.06885 16.5511 1.09027 16.698 1.12637 16.8411C1.63786 18.866 2.62199 20.6926 3.61561 22.4985C4.40824 23.9396 5.55941 25.0541 7.38787 25.4726Z" fill="#FBB752"/>
<path d="M9.03253 31.0327C8.71407 33.164 9.85269 34.1683 11.8295 33.6064C12.4817 33.421 13.1251 33.1952 13.7568 32.9474C16.0842 32.034 18.2293 32.3949 20.2187 33.849C20.6191 34.1417 20.9819 34.4859 21.4479 34.8784C21.5506 34.1696 21.6455 33.5596 21.7238 32.9474C21.7492 32.748 21.5788 32.644 21.4528 32.521C19.4875 30.6053 17.2492 30.0287 14.5972 30.9373C12.8051 31.5512 10.9503 31.9731 9.03253 31.0327Z" fill="#FBB752"/>
<path d="M36.6622 31.0614C36.14 31.1779 35.7454 31.4049 35.2978 31.4817C33.7756 31.743 32.3365 31.3783 30.9308 30.8992C28.3012 30.0032 26.0894 30.6674 24.1572 32.5536C24.0287 32.6791 23.8984 32.7944 23.9281 32.9991C24.0141 33.591 24.0982 34.1829 24.1811 34.7614C24.4157 34.7887 24.502 34.6449 24.6072 34.5458C26.8361 32.4481 29.348 31.8467 32.2239 33.0734C32.7312 33.2897 33.2622 33.4702 33.7991 33.5934C34.5348 33.762 35.2672 33.8434 35.9861 33.4197C36.9403 32.8583 36.7289 32.0042 36.6622 31.0614Z" fill="#FBB752"/>
<path d="M36.6938 24.4116C36.9134 23.6395 36.6136 23.2736 36.1355 22.9374C34.8096 22.0047 33.2966 21.4115 31.9187 20.5895C29.1698 18.9498 26.0733 18.6313 23.0468 18.0219C22.8091 17.9739 22.5424 18.0173 22.2976 18.0632C20.9614 18.3147 19.6248 18.5652 18.2944 18.8455C16.8835 19.1425 15.5366 19.6099 14.2685 20.3224C12.6906 21.2093 10.9827 21.8587 9.51215 22.9447C8.85504 23.4299 8.79355 23.5437 9.01167 24.3608C12.9097 20.7002 17.6933 19.0792 22.8284 19.0804C27.9632 19.081 32.7468 20.7024 36.6938 24.4116Z" fill="#A31334"/>
<path d="M33.981 37.1326C33.4104 36.2583 32.6297 35.7673 31.7931 35.5901C29.7416 35.1564 27.6883 35.2243 25.7377 36.1328C25.4024 36.2892 24.9561 36.4323 24.9246 36.8444C24.8909 37.2849 25.351 37.4143 25.675 37.5936C26.0265 37.7878 26.3652 38.0647 26.743 38.1418C29.2386 38.6527 31.6376 38.3871 33.981 37.1326Z" fill="white"/>
<path d="M11.7021 37.0716C12.529 37.7153 13.4716 37.9891 14.4325 38.1442C16.3787 38.4581 18.3369 38.7312 20.1262 37.521C20.3761 37.3519 20.7117 37.2332 20.7316 36.9022C20.7551 36.5094 20.3709 36.391 20.0996 36.2307C19.8631 36.0912 19.5969 36.0012 19.3421 35.8932C17.8034 35.2404 16.1783 35.3013 14.5769 35.4307C13.4263 35.5234 12.4391 36.0841 11.7021 37.0716Z" fill="white"/>
<path d="M10.293 41.9331C10.5729 43.5055 10.6041 43.6132 11.1713 43.8839C12.1961 44.3728 13.2591 44.7546 14.3975 44.8828C16.0124 45.0648 17.5955 45.3181 19.2153 44.6506C19.8627 44.3838 20.2775 44.2798 20.1732 43.5064C18.5081 44.2789 16.8732 44.0075 15.2139 43.6059C13.5531 43.2036 11.9804 42.5523 10.293 41.9331Z" fill="#A31334"/>
<path d="M35.3051 41.9321C34.023 42.4458 32.7948 42.9585 31.5154 43.3143C29.5322 43.8655 27.5431 44.4679 25.4521 43.4996C25.4794 43.8958 25.3977 44.4462 25.8015 44.4798C26.5531 44.5422 27.1439 45.0406 27.8863 45.0727C29.8405 45.1574 31.7351 44.9121 33.6015 44.2914C34.7291 43.9157 35.3271 43.2561 35.3051 41.9321Z" fill="#A31334"/>
<path d="M25.2412 42.1049C25.4795 42.9226 26.2137 43.3408 27.1278 43.3858C29.9392 43.5247 32.4434 42.4451 34.9507 41.4047C35.6326 41.1217 35.7513 40.7117 35.6445 39.7974C34.2104 41.0195 32.5006 41.613 30.7444 42.185C28.9141 42.781 27.1455 42.6464 25.2412 42.1049Z" fill="white"/>
<path d="M20.392 42.1228C16.4049 43.3474 13.1017 41.8909 9.93113 39.856C9.83324 40.8165 10.3316 41.34 11.1915 41.6349C12.2613 42.0017 13.3121 42.4238 14.3859 42.7778C15.7549 43.2293 17.1566 43.4918 18.6124 43.3862C19.458 43.3247 20.1974 42.8772 20.392 42.1228Z" fill="white"/>
<path d="M34.7105 44.4604C32.4856 45.4868 30.1814 45.7517 27.8231 45.6976C27.8054 46.2495 28.0724 46.3874 28.5227 46.4183C30.3591 46.5437 32.1206 46.1473 33.8833 45.7187C34.5052 45.5676 34.7546 45.2011 34.7105 44.4604Z" fill="white"/>
<path d="M10.9287 44.4556C10.9449 45.0481 10.9789 45.492 11.5818 45.6548C13.4091 46.1473 15.2449 46.5419 17.1584 46.4162C17.6249 46.3856 17.8489 46.2103 17.8232 45.697C15.4566 45.7472 13.1546 45.4841 10.9287 44.4556Z" fill="white"/>
<path d="M34.472 29.7971C34.0528 29.7601 33.5741 29.7255 33.5646 29.0987C33.557 28.5915 33.8436 28.2956 34.3468 28.2892C34.8348 28.2831 35.2655 28.4617 35.3037 29.0216C35.3386 29.5346 35.0336 29.7959 34.472 29.7971Z" fill="white"/>
<path d="M11.2429 29.792C10.6335 29.8061 10.3212 29.5537 10.345 29.0379C10.3707 28.4753 10.7975 28.2896 11.286 28.2881C11.7862 28.2866 12.0823 28.5708 12.0851 29.0813C12.0878 29.71 11.6164 29.7574 11.2429 29.792Z" fill="white"/>
<path d="M18.6421 54.084C19.0796 54.4024 18.9596 54.8271 18.8055 55.1648C18.5402 55.746 18.8165 55.9794 19.2833 56.2049C20.146 56.6213 21.0772 56.7115 22.0026 56.7837C23.4964 56.9003 24.9709 56.7834 26.3775 56.1954C26.8667 55.9911 27.1056 55.7231 26.8419 55.1538C26.6911 54.8283 26.5996 54.4297 26.9502 54.1121C27.3984 54.1788 27.2992 54.5536 27.3616 54.8173C27.6165 55.8965 28.1332 56.2511 29.2091 56.0428C29.4125 56.0033 29.6294 55.9002 29.7111 56.1716C29.7833 56.4114 29.5829 56.5463 29.3945 56.6176C28.8475 56.8241 28.3069 56.7785 27.7899 56.5065C27.5935 56.4031 27.4363 56.2618 27.1753 56.4132C25.0893 57.6247 22.842 57.5252 20.5688 57.2022C19.8853 57.1052 19.2365 56.9052 18.6608 56.527C18.3714 56.3371 18.1566 56.3224 17.847 56.5026C17.3227 56.8079 16.7466 56.8443 16.1822 56.576C16.0201 56.4989 15.8781 56.368 15.9427 56.1596C15.9974 55.9831 16.1467 55.9831 16.3122 55.9972C17.8232 56.1266 17.963 56.0214 18.3377 54.5062C18.3735 54.3602 18.4004 54.2085 18.6421 54.084Z" fill="#008080"/>
<path d="M17.6214 13.6567C17.9537 13.6965 18.2822 13.7916 18.3055 14.2505C18.3278 14.6929 17.8123 15.2405 17.3522 15.2441C16.8982 15.2478 16.6556 14.9973 16.6504 14.5482C16.6449 14.0734 17.0928 13.658 17.6214 13.6567Z" fill="white"/>
<path d="M28.0361 13.6538C28.587 13.6835 28.9382 13.9661 28.9927 14.5156C29.0367 14.9607 28.7834 15.2265 28.3313 15.2455C27.8794 15.2645 27.3468 14.7297 27.3438 14.2825C27.341 13.9148 27.6121 13.6685 28.0361 13.6538Z" fill="white"/>
<path d="M33.5899 16.0024C34.1118 16.0893 34.4624 16.3423 34.4449 16.8865C34.4312 17.3118 34.1871 17.6158 33.727 17.5752C33.1607 17.5253 32.889 17.1163 32.8762 16.6011C32.8658 16.1719 33.2271 16.0437 33.5899 16.0024Z" fill="white"/>
<path d="M12.7972 16.6756C12.6635 17.1541 12.4454 17.5827 11.8635 17.5787C11.4062 17.5756 11.1835 17.248 11.2067 16.8258C11.2361 16.2926 11.5855 16.0188 12.107 16.0225C12.505 16.0253 12.7617 16.2388 12.7972 16.6756Z" fill="white"/>
<path d="M26.1604 13.8495C26.039 14.3359 25.83 14.7015 25.3103 14.6727C24.8049 14.6449 24.536 14.2787 24.5483 13.8226C24.5608 13.3533 24.9545 13.1566 25.3849 13.1385C25.8778 13.1184 26.0616 13.4622 26.1604 13.8495Z" fill="white"/>
<path d="M20.3366 14.6885C19.8294 14.654 19.5485 14.3502 19.5247 13.8812C19.5032 13.4621 19.7639 13.1565 20.1989 13.1406C20.659 13.1241 21.0824 13.3232 21.1032 13.8292C21.1222 14.2863 20.8321 14.6133 20.3366 14.6885Z" fill="white"/>
<path d="M31.9333 15.3186C31.9067 15.8551 31.6011 16.1176 31.1608 16.114C30.6509 16.11 30.4242 15.7074 30.3927 15.2534C30.3609 14.7927 30.7011 14.5541 31.1043 14.548C31.6029 14.5406 31.836 14.9053 31.9333 15.3186Z" fill="white"/>
<path d="M15.286 15.2332C15.181 15.6841 15.0149 16.1063 14.5013 16.1146C14.0641 16.1213 13.7142 15.8711 13.7353 15.3758C13.7558 14.8927 14.0488 14.5593 14.5371 14.5486C14.9513 14.5394 15.223 14.804 15.286 15.2332Z" fill="white"/>
<path d="M20.8906 66.3374C21.4351 66.7614 21.6116 67.0939 21.3017 67.6079C20.7444 67.3408 20.8022 66.9361 20.8906 66.3374Z" fill="white"/>
<path d="M27.0354 40.0486C26.95 40.3123 26.8209 40.554 26.4814 40.5354C26.2424 40.5222 26.1262 40.3555 26.1409 40.1279C26.162 39.8021 26.3636 39.6274 26.6814 39.6366C26.9093 39.643 27.0348 39.7963 27.0354 40.0486Z" fill="#A31334"/>
<path d="M29.1651 40.7738C28.9112 40.7514 28.7577 40.6018 28.7424 40.3455C28.7268 40.0821 28.8696 39.9138 29.1394 39.8976C29.4126 39.8814 29.5729 40.0423 29.5815 40.3005C29.5901 40.5565 29.4246 40.7101 29.1651 40.7738Z" fill="#A31334"/>
<path d="M31.9154 39.4517C32.1917 39.463 32.3517 39.5875 32.3642 39.8539C32.3771 40.1293 32.2106 40.2605 31.957 40.274C31.6949 40.2877 31.5269 40.1504 31.5254 39.8836C31.5242 39.6297 31.6683 39.4761 31.9154 39.4517Z" fill="#A31334"/>
<path d="M34.5288 38.4438C34.7858 38.472 34.95 38.5959 34.9415 38.8724C34.9335 39.1371 34.7793 39.2922 34.5233 39.3093C34.2406 39.3283 34.1216 39.1478 34.1192 38.888C34.1167 38.6194 34.2737 38.4833 34.5288 38.4438Z" fill="#A31334"/>
<path d="M19.0493 39.6299C19.3145 39.6862 19.5021 39.8333 19.5103 40.1258C19.5177 40.3925 19.3745 40.5645 19.0985 40.5329C18.7795 40.4962 18.6189 40.2671 18.6262 39.963C18.6317 39.7278 18.8131 39.6305 19.0493 39.6299Z" fill="#A31334"/>
<path d="M16.5062 40.7746C16.2507 40.7299 16.0813 40.5843 16.0709 40.3291C16.0601 40.0688 16.2091 39.9003 16.482 39.8975C16.7518 39.8947 16.9069 40.0508 16.9097 40.3157C16.9124 40.5751 16.7622 40.7293 16.5062 40.7746Z" fill="#A31334"/>
<path d="M11.5342 38.9005C11.518 39.1486 11.4069 39.3294 11.124 39.308C10.8679 39.2887 10.715 39.1327 10.7092 38.8684C10.703 38.5925 10.8664 38.4438 11.1249 38.4515C11.3828 38.4588 11.5263 38.6237 11.5342 38.9005Z" fill="#A31334"/>
<path d="M14.1322 39.8727C14.1065 40.1502 13.956 40.2878 13.6932 40.2738C13.4396 40.26 13.2732 40.1288 13.2869 39.8531C13.3001 39.5873 13.457 39.4518 13.7192 39.4567C13.9908 39.4616 14.1025 39.6366 14.1322 39.8727Z" fill="#A31334"/>
</svg>
