<svg width="37" height="60" viewBox="0 0 37 60" fill="none" xmlns="http://www.w3.org/2000/svg">
<path d="M36.1305 51.3269C35.799 51.5643 35.5197 51.8504 35.1834 51.9585C33.6389 52.4531 32.0611 52.8 30.4268 52.7899C30.1504 52.7879 29.8691 52.7546 29.5993 52.6948C28.6599 52.4854 28.0293 51.9136 27.8305 50.9713C27.6742 50.2297 27.5883 49.4678 27.5352 48.7108C27.4821 47.9518 27.5082 47.1875 27.5005 46.4257C27.4985 46.2269 27.5 46.0276 27.5 45.8467C27.0643 45.7381 24.6556 45.9818 23.9729 46.1921C24.0342 46.3779 24.0824 46.569 24.1587 46.748C24.8211 48.304 25.4904 49.8572 26.1538 51.4128C26.5263 52.2857 26.8621 53.1701 27.0281 54.1114C27.3514 55.9464 26.6624 57.2101 24.936 57.9406C23.916 58.3724 22.8351 58.5572 21.7534 58.7386C20.3594 58.9726 18.9621 59.1985 17.544 59.1497C17.0113 59.1314 16.4647 59.0581 15.9561 58.9041C15.0234 58.6219 14.4411 57.9628 14.318 56.9852C14.2442 56.399 14.222 55.7963 14.2654 55.2077C14.4705 52.4473 14.6591 49.684 15.1199 46.9497C15.1412 46.8242 15.1412 46.6954 15.1561 46.5067C14.649 46.3909 14.1506 46.4517 13.6608 46.4319C13.1407 46.4107 12.6201 46.4126 12.1 46.3924C11.5986 46.3726 11.0978 46.3369 10.597 46.3079C10.1009 46.2795 9.60493 46.2505 9.00566 46.2162C9.07273 46.4782 9.11085 46.6664 9.16972 46.8483C9.53545 47.9798 9.92242 49.105 10.2679 50.2427C10.4672 50.8989 10.6442 51.5682 10.7557 52.2437C11.0442 53.9903 10.2848 55.0243 8.52751 55.2125C6.71474 55.4065 4.89282 55.4489 3.07426 55.2458C2.78042 55.213 2.48561 55.1517 2.20238 55.0668C0.993231 54.703 0.369838 53.82 0.570559 52.5771C0.72689 51.6101 0.974414 50.648 1.28322 49.7178C1.74015 48.3436 2.2873 46.9998 2.79586 45.6426C2.83446 45.5398 2.86727 45.4346 2.91745 45.2865C2.76739 45.2035 2.62988 45.12 2.48658 45.0491C0.693115 44.1622 -0.096741 42.5821 0.00940955 40.6212C0.0721349 39.4651 0.298428 38.3312 0.656445 37.233C1.63544 34.2295 2.62119 31.2273 3.64217 28.2377C4.79535 24.8612 5.97941 21.4943 7.16974 18.1303C8.72002 13.7501 10.2635 9.3661 12.1197 5.10319C12.5188 4.18692 13.0124 3.30683 13.5185 2.44315C14.1347 1.3913 15.1262 0.751018 16.2036 0.260313C17.2545 -0.218329 18.2784 0.0166552 19.2555 0.531485C20.3141 1.08878 21.1218 1.93991 21.8658 2.84846C23.4856 4.8272 24.7922 7.01149 26.0042 9.25561C27.7929 12.567 29.237 16.0309 30.52 19.5628C32.2657 24.3681 33.7547 29.2582 35.2784 34.1363C35.6273 35.2533 35.9891 36.3703 36.256 37.508C36.4369 38.2791 36.5368 39.0868 36.5401 39.8786C36.5469 41.3222 35.9404 42.4995 34.7616 43.3647C34.1609 43.8052 34.1354 43.6706 34.4664 44.4836C34.9503 45.671 35.4396 46.8565 35.91 48.0493C36.0938 48.5149 36.2632 48.9911 36.3833 49.476C36.5397 50.1004 36.5662 50.7301 36.1305 51.3269ZM16.5385 11.4003C16.4381 11.5996 16.3349 11.7974 16.2384 11.9982C15.1513 14.2621 14.2316 16.595 13.3598 18.9476C11.8674 22.9765 10.5458 27.058 9.64643 31.2649C9.28455 32.9566 8.99215 34.6613 9.11954 36.4051C9.20735 37.605 9.60445 38.1305 10.7615 38.4205C11.533 38.6139 12.3277 38.7481 13.12 38.8209C15.6242 39.0501 18.1327 39.013 20.6354 38.7925C22.3025 38.6453 23.9608 38.4045 25.5589 37.883C26.1022 37.7054 26.63 37.4608 27.1357 37.192C27.6496 36.9189 27.9415 36.4572 27.8691 35.8589C27.7866 35.1795 27.7104 34.489 27.5217 33.8348C26.3019 29.6018 24.8761 25.4354 23.3756 21.295C22.5587 19.0403 21.6574 16.8193 20.6055 14.6625C19.8875 13.1909 18.8598 11.9494 17.6989 10.8117C17.5498 10.6655 17.3539 10.5666 17.1455 10.4223C16.9303 10.7658 16.7542 11.0476 16.5385 11.4003Z" fill="#331D0A"/>
<path d="M18.1449 22.8857C18.7745 22.9142 19.3535 22.9084 19.9234 22.9779C21.7004 23.196 22.7856 24.2855 22.9733 26.0654C23.0331 26.6324 23.0196 27.2186 22.953 27.7856C22.7576 29.4405 22.29 31.0217 21.5335 32.5121C21.2025 33.1645 20.7726 33.7435 20.2302 34.2376C19.0389 35.3218 17.4114 35.4612 16.0633 34.5797C15.2851 34.0706 14.7003 33.3744 14.2472 32.5725C13.2286 30.7689 12.6052 28.8335 12.4016 26.7723C12.2424 25.1598 13.0511 23.8961 14.5695 23.3374C15.4168 23.0257 16.3065 22.947 17.1987 22.8997C17.4944 22.8833 17.7921 22.8896 18.1449 22.8857ZM18.5651 30.5985C19.1629 29.4101 19.5682 28.1605 19.7487 26.8418C19.8191 26.326 19.7612 26.2478 19.2314 26.257C18.3779 26.2719 17.5244 26.3125 16.6718 26.3593C16.4797 26.3699 16.2916 26.4514 16.115 26.4968C16.1738 27.8348 17.3579 30.7158 18.0976 31.2958C18.2418 31.0859 18.3842 30.8779 18.5651 30.5985Z" fill="#331D0A"/>
</svg>
