<svg width="49" height="46" viewBox="0 0 49 46" fill="none" xmlns="http://www.w3.org/2000/svg">
<path d="M23.5857 8.43064C23.9668 9.34818 24.8244 9.83117 25.8133 9.75725C26.5161 9.7048 27.033 9.32969 27.4391 8.78127C27.8692 8.20088 28.0779 7.52359 28.2792 6.79636C28.3836 6.29089 28.506 5.83187 28.5659 5.36536C28.6678 4.5747 28.7787 3.78052 28.7962 2.98536C28.8157 2.10578 28.4855 1.3346 27.7188 0.841617C26.8457 0.280706 25.8718 0.00100139 24.8318 2.43669e-06C24.1935 -0.000996513 23.7035 0.305173 23.4438 0.883565C23.283 1.24119 23.1721 1.63727 23.1221 2.02636C22.9104 3.67363 22.9568 5.3234 23.2001 6.96368C23.2735 7.46215 23.3934 7.96763 23.5857 8.43064Z" fill="#331D0A"/>
<path d="M16.0241 3.57319C16.3957 4.30892 16.557 5.11057 16.7838 5.89325C16.9851 6.58852 17.2183 7.2773 17.4856 7.95009C17.6304 8.31571 17.8417 8.66734 18.0819 8.97951C18.5394 9.57289 19.1803 9.78765 19.9155 9.70973C20.4559 9.65229 20.9284 9.43902 21.3265 8.99998C21.8615 8.33218 21.9728 7.58048 21.8954 6.80879C21.7316 5.1785 21.316 3.60016 20.8081 2.04629C20.7242 1.79056 20.5983 1.54233 20.4554 1.31307C19.9779 0.546877 19.2782 0.171767 18.3836 0.328602C17.8562 0.421005 17.3237 0.589329 16.8437 0.82608C15.9242 1.2801 15.5985 2.11372 15.8678 3.10968C15.9102 3.26751 15.9512 3.42934 16.0241 3.57319Z" fill="#331D0A"/>
<path d="M36.1751 18.4822C33.2062 15.8465 29.9936 13.5444 26.5223 11.6125C25.6017 11.1005 24.6398 10.6719 23.6108 10.4092C21.9361 9.98117 20.3503 10.1974 18.9223 11.1649C18.1306 11.7014 17.3739 12.3147 16.6961 12.9885C14.5269 15.1432 12.6014 17.5068 10.8937 20.0436C10.2339 21.0236 9.6605 22.052 9.20748 23.1488C8.35538 25.2127 8.51271 27.2041 9.65252 29.1001C11.1894 31.6569 13.2128 33.7677 15.6777 35.4484C16.0803 35.7226 16.5208 35.9504 16.9658 36.1517C18.3354 36.772 19.7669 36.9508 21.2144 36.5163C22.2013 36.2201 23.2008 35.8924 24.1063 35.4134C25.9514 34.437 27.7225 33.3266 29.3428 31.9955C30.0606 31.4056 30.7309 30.7688 31.2608 29.9991C31.8337 29.168 32.1683 28.26 32.0784 27.2365C32.009 26.4459 31.7403 25.7121 31.3157 25.0443C29.6075 22.3602 27.0822 21.3218 24.0094 21.5905C21.9451 21.7708 20.9436 23.1743 21.2104 25.2167C21.2663 25.6462 21.2833 26.0857 21.2658 26.5183C21.2543 26.8025 21.1659 27.0887 21.078 27.3624C21.0261 27.5232 20.9072 27.6626 20.7723 27.8888C20.4986 27.6651 20.2699 27.4973 20.0636 27.3055C19.2264 26.5268 18.3993 25.7376 17.5617 24.9589C17.0707 24.5024 17.0382 24.386 17.3015 23.7797C17.3374 23.6963 17.3734 23.6123 17.4163 23.5329C18.4248 21.6659 19.652 19.9632 21.2443 18.5482C22.8946 17.0812 24.1348 16.9513 26.0488 18.0327C28.0167 19.144 29.8293 20.4731 31.4901 22.007C32.1589 22.6249 32.7532 23.3077 33.2252 24.0938C33.7951 25.0433 33.945 26.0593 33.7322 27.1351C33.3546 29.0441 32.4505 30.6959 31.0985 32.0625C29.1076 34.0748 27.0547 36.0263 25.0069 37.9812C24.2122 38.7394 23.2932 39.3468 22.2263 39.6445C21.3557 39.8877 20.4611 40.0576 19.5681 40.2029C18.7619 40.3338 17.9478 40.3383 17.1267 40.2523C15.7816 40.112 14.6338 39.5701 13.7317 38.5886C12.8247 37.6011 11.9691 36.5627 11.132 35.5143C9.52315 33.5004 7.91384 31.4841 6.55727 29.2854C6.21563 28.7315 5.92393 28.1436 5.64323 27.5547C5.36702 26.9753 5.33605 26.3659 5.55233 25.7526C5.69717 25.342 5.84052 24.9305 5.98037 24.5179C6.31752 23.5209 6.66465 22.5275 6.98032 21.5235C7.08222 21.1989 7.13915 20.8482 7.14565 20.5081C7.16413 19.5146 6.32801 19.0317 5.47091 19.5436C5.16323 19.7274 4.86705 19.9602 4.63179 20.2289C3.79567 21.1839 2.96554 22.1464 2.17587 23.1398C1.47511 24.0219 0.881733 24.9794 0.405234 26.0063C-0.166166 27.238 -0.172654 28.4268 0.639492 29.5621C1.34675 30.5511 2.0545 31.54 2.76925 32.5235C4.5304 34.9459 6.29654 37.3649 8.08366 39.8158C9.21697 41.2618 10.3523 42.6518 11.6739 43.8815C13.1563 45.2606 14.899 45.9713 16.9179 45.8989C18.4213 45.845 19.9257 45.7336 21.4211 45.5718C23.2257 45.3765 25.0139 45.0683 26.767 44.5723C28.7964 43.9979 30.3762 42.8531 31.4995 41.055C33.7032 37.5267 35.782 33.9285 37.6176 30.1949C38.3064 28.7939 38.9008 27.3494 39.2249 25.8085C39.6385 23.8431 39.2729 22.045 38.0292 20.4687C37.4688 19.7599 36.8499 19.0811 36.1751 18.4822Z" fill="#331D0A"/>
<path d="M34.8595 10.9108C34.356 11.4862 33.8705 12.0696 33.5549 12.7733C33.2457 13.4621 33.1383 14.1604 33.5069 14.9091C34.346 16.1703 35.5243 16.6852 36.9613 16.6433C37.7684 16.6198 38.4687 16.2617 39.109 15.8021C40.1879 15.0284 41.1714 14.1449 42.0285 13.1284C42.2263 12.8937 42.4046 12.6395 42.5659 12.3782C43.1982 11.3543 43.1533 10.3454 42.4335 9.38688C41.7542 8.48183 40.9401 7.70366 40.0061 7.06733C38.7344 6.20124 37.7734 6.37705 36.9089 7.65671C36.4129 8.39093 36.0073 9.18509 35.5443 9.9423C35.3385 10.2789 35.1187 10.6146 34.8595 10.9108Z" fill="#331D0A"/>
<path d="M48.0274 15.2143C47.8196 14.8807 47.5189 14.605 47.2292 14.2783C46.3127 13.5846 45.3867 13.5866 44.4437 14.1085C44.144 14.2748 43.8508 14.4671 43.5925 14.6909C43.1405 15.0825 42.696 15.4876 42.2889 15.9251C41.9393 16.3007 41.5697 16.6349 41.1326 16.9051C40.5852 17.2432 40.1247 17.6773 39.818 18.2556C39.307 19.2191 39.4909 20.27 40.33 20.9613C41.2165 21.6915 42.2415 22.0517 43.3758 21.75C45.3652 21.2205 46.9415 20.0553 48.0763 18.3516C48.7526 17.3356 48.6672 16.2408 48.0274 15.2143Z" fill="#331D0A"/>
<path d="M31.4943 11.7604C32.1451 11.6286 32.6856 11.2964 33.0981 10.8C34.151 9.53329 34.9737 8.12027 35.4472 6.54193C35.9257 4.94611 35.2564 3.66396 33.715 3.03012C33.5312 2.9547 33.3409 2.89077 33.1491 2.83882C31.823 2.4802 30.7186 2.88976 30.0288 4.07701C29.7232 4.60296 29.4844 5.19035 29.3386 5.78072C29.1438 6.5684 29.0689 7.38553 28.9365 8.23864C28.8901 8.57428 28.8611 8.86298 28.8071 9.14718C28.4655 10.9378 30.0344 12.0556 31.4943 11.7604Z" fill="#331D0A"/>
<path d="M5.25256 15.9354C5.91387 16.3769 6.60364 16.7775 7.29691 17.1686C8.13952 17.6441 8.96916 17.5852 9.74784 17.0083C10.3097 16.5917 10.7698 16.0843 11.0769 15.3995C11.4306 14.4774 11.1399 13.7447 10.496 13.1448C9.27233 12.004 7.94773 10.9811 6.52972 10.098C5.34996 9.36332 4.28857 9.59858 3.39501 10.6744C3.29062 10.7998 3.19223 10.9312 3.10132 11.0665C2.5504 11.8867 2.51244 12.7303 3.03089 13.5734C3.60779 14.5109 4.33453 15.3226 5.25256 15.9354Z" fill="#331D0A"/>
<path d="M10.0313 9.77734C10.6597 10.574 11.3045 11.3577 11.9493 12.1419C12.0637 12.2807 12.2021 12.4036 12.3444 12.514C13.1356 13.1278 14.0471 13.1548 14.8623 12.5689C15.6669 11.9905 16.1804 11.2303 16.2343 10.1649C16.2049 9.49014 16.0156 8.90426 15.6934 8.36982C15.2728 7.67105 14.8358 6.98127 14.3818 6.30398C14.14 5.94386 13.8723 5.59423 13.5731 5.28106C12.9043 4.58129 12.1161 4.13377 11.1007 4.31707C9.44596 4.61626 8.48896 6.282 9.01641 7.92677C9.23518 8.60906 9.5913 9.21942 10.0313 9.77734Z" fill="#331D0A"/>
<path d="M46.2663 22.8158C45.2179 22.631 44.163 22.6809 43.1291 22.8977C41.9428 23.1465 41.3205 24.1114 41.4628 25.3272C41.5003 25.6468 41.5028 25.979 41.4628 26.2976C41.2615 27.9069 42.2035 28.822 43.3468 29.0133C45.7718 29.1896 47.8985 27.1972 47.9005 24.7992C47.9015 23.7198 47.3261 23.0031 46.2663 22.8158Z" fill="#331D0A"/>
</svg>
