<svg width="48" height="60" viewBox="0 0 48 60" fill="none" xmlns="http://www.w3.org/2000/svg">
<path d="M35.2156 6.30148C35.2125 5.66724 35.218 5.1001 35.2065 4.53352C35.1858 3.55547 35.5591 2.65939 35.9397 1.77541C36.2067 1.15492 36.7766 0.748957 37.4595 0.533875C39.3726 -0.0684648 41.3318 -0.176282 43.2923 0.287987C44.417 0.554226 45.1289 1.27263 45.4251 2.29689C45.5198 2.62363 45.5751 2.96468 45.5999 3.30243C45.6958 4.59018 45.8324 5.87847 45.836 7.16676C45.8391 8.18166 45.7414 9.20701 45.5617 10.2093C44.7526 14.7221 42.8674 18.8758 40.3413 22.8094C39.7538 23.7242 38.9089 24.3596 37.8971 24.8574C35.1597 26.2034 32.2469 27.0467 29.1636 27.418C28.8935 27.4505 28.6277 27.5082 28.2823 27.5671C28.3843 28.8691 28.4838 30.1426 28.59 31.4963C28.8869 31.4963 29.1521 31.4925 29.4167 31.4969C30.8406 31.5222 32.27 31.4914 33.6873 31.5909C35.5136 31.7197 37.2143 32.2708 38.7134 33.2329C39.3386 33.6339 39.9219 34.1197 40.4159 34.6499C41.2208 35.5119 41.9886 36.4108 42.6726 37.3536C43.1636 38.0307 43.5333 38.7882 43.8865 39.5374C45.3517 42.6476 46.5607 45.8425 47.6521 49.0747C48.0642 50.2948 48.1825 51.5199 47.6041 52.7361C47.5264 52.9 47.4961 53.0854 47.4669 53.2642C47.2812 54.4078 46.6245 55.2863 45.6121 55.9585C44.4838 56.7077 43.2189 57.1923 41.8502 57.4255C39.9795 57.7446 38.5247 56.8144 38.2006 55.1152C38.1332 54.7598 38.1223 54.394 38.1089 54.0326C38.0343 52.0853 37.993 50.1364 37.8898 48.1902C37.789 46.2886 37.6737 44.3858 37.4759 42.4914C37.3466 41.2537 37.0619 40.0292 36.8367 38.8009C36.8003 38.6012 36.7075 38.4103 36.6449 38.2145C36.3366 37.2474 35.6599 36.6627 34.5358 36.5323C33.0226 36.3569 31.5162 36.1121 29.9976 36.0097C25.216 35.6868 20.5006 36.1269 15.8671 37.2205C14.811 37.4697 13.7913 37.874 12.7916 38.2805C11.6809 38.7321 11.1541 39.5902 11.1274 40.6744C11.1122 41.2817 11.0819 41.9187 11.2554 42.4936C11.8187 44.3605 12.1695 46.2556 12.3832 48.1754C12.6569 50.6337 12.9628 53.0914 12.9197 55.5674C12.9088 56.1752 12.8529 56.7935 12.7127 57.387C12.4481 58.5075 11.6663 59.2243 10.4245 59.4867C8.77785 59.8349 7.08809 59.9911 5.4305 59.7573C3.63392 59.5037 2.21486 58.4795 1.98846 56.7242C1.86647 55.7824 1.99089 54.8649 2.18026 53.9534C3.07066 49.6765 3.94225 45.3952 5.20046 41.1904C5.41593 40.4693 5.7012 39.7652 5.96098 39.0556C6.44351 37.7398 7.31873 36.6324 8.29472 35.5966C9.18208 34.6549 10.382 34.14 11.6645 33.7676C13.5066 33.2324 15.4076 32.9524 17.311 32.679C18.0521 32.5728 18.7962 32.4848 19.5385 32.3825C19.757 32.3523 19.9725 32.3022 20.2626 32.2472C20.0253 30.3852 19.7916 28.5528 19.547 26.6353C19.2751 26.6353 19.0099 26.6364 18.7446 26.6353C17.0713 26.627 15.3912 26.7018 13.7257 26.5912C10.8652 26.4015 8.4501 25.2815 6.46232 23.4107C6.15035 23.1169 5.85415 22.8083 5.56342 22.497C4.62082 21.4903 3.84089 20.4243 3.37778 19.131C1.83673 14.8272 0.644668 10.4562 0.0474248 5.96153C-0.0411905 5.29593 0.00493746 4.60173 0.0990154 3.93338C0.215551 3.10606 0.724785 2.43826 1.5114 2.01194C3.24425 1.0724 5.11913 0.576231 7.15971 0.664244C8.74022 0.731904 9.76719 1.48167 10.3462 2.77656C10.7559 3.69244 10.9319 4.66444 10.9228 5.63863C10.907 7.38239 10.8506 9.1289 10.7195 10.8683C10.5489 13.1318 10.3802 15.3938 10.5198 17.6623C10.5842 18.7058 10.7626 19.7279 11.2615 20.6977C11.5328 21.2257 11.9122 21.5349 12.5361 21.6158C14.0213 21.8077 15.5005 22.0542 16.9918 22.1856C21.6926 22.5999 26.3364 22.1867 30.9238 21.2324C31.918 21.0255 32.8873 20.6999 33.842 20.3676C34.2997 20.2086 34.7179 19.9325 35.1166 19.6635C35.6253 19.3208 35.8941 18.8472 35.8693 18.2537C35.7806 16.1248 35.7187 13.9949 35.604 11.8678C35.5057 10.0316 35.3485 8.20091 35.2156 6.30148Z" fill="#F8E4D2"/>
<path d="M24.4497 54.9779C22.2604 54.9004 20.3461 54.2881 18.7722 52.9894C16.4622 51.0828 15.4971 48.7141 16.3177 45.9324C17.1444 43.1292 19.2523 41.414 22.3769 40.9079C26.6293 40.2192 30.2066 42.7194 30.9751 45.8774C31.1523 46.6057 31.4315 47.3208 31.5298 48.0568C31.9923 51.5064 29.3084 54.5263 25.4858 54.9075C25.1641 54.94 24.84 54.9559 24.4497 54.9779ZM22.4024 50.684C23.3129 51.1549 24.2834 51.4007 25.3401 51.3435C26.8672 51.261 27.9494 50.2885 28.0374 48.9083C28.1533 47.0942 26.5977 45.2965 24.5559 44.8372C23.7171 44.6485 22.9268 44.8592 22.1117 44.9417C21.1521 45.0391 20.6544 45.5622 20.3461 46.3059C20.0559 47.0061 20.0268 47.7169 20.2939 48.4336C20.655 49.4029 21.3633 50.1053 22.4024 50.684Z" fill="#F8E4D2"/>
<path d="M24.5261 3.46364C26.8125 3.97082 28.6328 5.00992 29.9298 6.74763C32.2508 9.85669 31.3932 14.0467 27.9943 16.2151C24.6226 18.3665 19.858 17.7273 17.4964 14.6958C16.1344 12.9476 15.5359 10.8947 15.7751 8.76478C16.1647 5.28496 19.6389 2.93006 23.5732 3.33657C23.8706 3.36738 24.1668 3.41303 24.5261 3.46364ZM20.0237 7.68002C19.2116 8.52659 19.0617 9.49804 19.3877 10.5476C19.9703 12.4261 22.0692 13.7062 24.205 13.4845C24.6512 13.4383 25.09 13.3343 25.5349 13.2754C25.964 13.2188 26.2578 13.0021 26.5042 12.6951C27.3782 11.6071 27.4049 10.0949 26.5018 8.93201C25.4299 7.55185 23.9131 6.9033 22.0698 6.8912C21.3202 6.8857 20.6477 7.12334 20.0237 7.68002Z" fill="#F8E4D2"/>
</svg>
