<svg width="58" height="58" viewBox="0 0 58 58" fill="none" xmlns="http://www.w3.org/2000/svg">
<path d="M46.9788 49.287C45.442 47.2105 43.9293 45.1653 42.3759 43.0654C39.0342 46.2798 35.1061 48.2613 30.3899 48.4725C30.3518 48.6558 30.3087 48.7764 30.3042 48.8988C30.241 50.7454 30.1783 52.592 30.1258 54.439C30.111 54.9559 30.1285 55.4737 30.133 55.9911C30.1366 56.4049 30.0747 56.8039 29.8465 57.1585C29.4556 57.766 28.8862 58.004 28.1824 57.917C27.5341 57.8372 26.9679 57.3338 26.8312 56.6896C26.7711 56.4062 26.7769 56.1027 26.7926 55.8109C26.8599 54.5753 26.95 53.3411 27.0163 52.1056C27.0728 51.0538 27.1105 50.0016 27.1513 48.949C27.1732 48.3783 27.1629 48.3631 26.6012 48.277C23.4679 47.7982 20.5606 46.7308 17.9201 44.9626C17.8147 44.8922 17.6968 44.8407 17.5543 44.764C17.1911 45.1697 16.8513 45.5813 16.4788 45.961C14.9254 47.5431 13.3643 49.1185 11.7988 50.6885C11.6316 50.8561 11.4276 50.9969 11.2191 51.1108C10.5027 51.5021 9.68682 51.3865 9.12105 50.8337C8.56873 50.2939 8.42169 49.4426 8.79559 48.7392C8.93142 48.4832 9.12196 48.2411 9.33446 48.0434C11.1873 46.3192 13.051 44.6067 14.9106 42.8896C14.9895 42.8165 15.0589 42.7332 15.1656 42.6197C11.8504 38.8889 10.8937 34.4102 11.008 29.5434C10.5453 29.4421 10.1029 29.5223 9.66441 29.6586C8.12535 30.1374 6.55716 30.4902 4.95893 30.6893C4.13582 30.7915 3.30331 30.8354 2.47348 30.8619C2.12963 30.8726 1.7674 30.8139 1.43878 30.7081C0.633615 30.4476 0.117155 29.8908 0.0158362 29.0354C-0.0827925 28.2029 0.284379 27.5538 0.974779 27.1117C1.26439 26.9261 1.60421 26.7827 1.94089 26.7141C2.71782 26.5545 3.50237 26.3967 4.2914 26.3397C5.46911 26.2546 6.65355 26.2676 7.8344 26.2173C8.34906 26.1954 8.86283 26.1344 9.37435 26.0676C9.94191 25.9936 10.5045 25.8789 11.073 25.8094C11.4393 25.7645 11.6132 25.5848 11.698 25.2279C12.0279 23.8386 12.5251 22.5062 13.1527 21.224C14.1 19.29 15.2495 17.4869 16.6639 15.8582C16.7607 15.7466 16.8553 15.6327 16.9459 15.5161C16.9791 15.4735 16.9974 15.4197 17.0441 15.3296C16.9535 15.2149 16.8616 15.0808 16.7522 14.9629C14.7536 12.8034 12.9236 10.5058 11.1766 8.1414C11.0013 7.90425 10.8251 7.66261 10.6893 7.40169C10.2306 6.51986 10.4373 5.54343 11.186 4.96108C11.8912 4.41279 12.9044 4.47331 13.6261 5.13323C13.8413 5.33004 14.026 5.57033 14.1838 5.81735C14.7913 6.76688 15.4136 7.70923 15.9717 8.68745C16.7285 10.0145 17.7632 11.1281 18.671 12.3394C18.8907 12.6326 19.1274 12.9123 19.3856 13.2356C19.5842 13.1154 19.7577 13.0195 19.9218 12.9096C22.7829 10.9958 25.9534 9.98307 29.3619 9.65939C29.3987 9.6558 29.4359 9.65535 29.4726 9.65222C29.9792 9.60828 30.0012 9.58945 30.0375 9.10348C30.1088 8.14544 30.1666 7.18605 30.2487 6.2289C30.3796 4.70106 30.5176 3.17366 30.6732 1.6485C30.7023 1.36113 30.7884 1.06345 30.9175 0.805672C31.1892 0.263663 31.6586 -0.00442782 32.2674 5.53008e-05C32.8762 0.00409011 33.3577 0.271732 33.602 0.82495C33.7464 1.15132 33.8289 1.53597 33.8217 1.89193C33.7988 2.99971 33.7289 4.10704 33.6599 5.21303C33.5783 6.52255 33.4779 7.83027 33.3891 9.13935C33.377 9.31777 33.3873 9.49755 33.3873 9.72977C37.4078 10.3655 40.7858 12.187 43.6805 15.045C43.9195 14.7984 44.123 14.5944 44.3203 14.3846C46.0422 12.555 47.7597 10.7205 49.4893 8.89815C49.7413 8.63275 50.0291 8.38708 50.3389 8.19341C51.1745 7.67068 52.1438 7.79934 52.7651 8.47943C53.3618 9.13217 53.4125 10.1095 52.8413 10.8783C52.5683 11.246 52.242 11.584 51.8968 11.8862C49.8672 13.6628 47.8252 15.4251 45.788 17.1928C45.7468 17.2287 45.7145 17.2744 45.641 17.3578C46.0153 17.9913 46.4224 18.6234 46.7721 19.286C47.1339 19.971 47.4755 20.6717 47.762 21.3913C48.0413 22.0933 48.2686 22.82 48.4645 23.5503C48.6599 24.2797 48.7886 25.0271 48.9585 25.8233C49.149 25.8372 49.3454 25.8681 49.5409 25.8627C51.3933 25.8116 53.2359 25.9318 55.069 26.1887C55.5249 26.2523 55.9786 26.3545 56.4202 26.4841C56.6986 26.5657 56.977 26.697 57.2137 26.8647C58.3636 27.6788 58.2296 29.3407 56.96 29.9576C56.6677 30.0997 56.3301 30.18 56.0051 30.2172C54.215 30.423 52.4262 30.3472 50.6401 30.1477C50.2362 30.1024 49.8341 30.0406 49.4301 29.9957C49.2889 29.98 49.1446 29.993 48.9383 29.993C48.4712 33.8037 47.0572 37.2149 44.795 40.2876C44.899 40.4172 44.9672 40.5257 45.0573 40.6108C47.2092 42.6466 49.1302 44.8963 51.0826 47.1163C51.4852 47.574 51.9039 48.0201 52.2747 48.5034C52.7566 49.1319 52.9678 49.8443 52.7687 50.64C52.4105 52.0711 50.8616 52.8058 49.5324 52.1338C49.1495 51.9401 48.7967 51.6322 48.5169 51.3026C47.9781 50.6687 47.5033 49.9828 46.9788 49.287ZM25.3038 42.6381C25.5243 42.6592 25.7445 42.6888 25.965 42.7C28.9118 42.8448 31.6568 42.1468 34.1665 40.6176C37.8189 38.3926 40.4132 35.245 42.0505 31.3048C42.5068 30.2069 42.783 29.0565 42.8686 27.868C43.182 23.5033 40.307 19.4259 36.7084 17.8021C34.1606 16.6522 31.5299 16.523 28.8517 17.1915C25.6445 17.9922 22.9779 19.7249 20.662 22.0471C19.3399 23.3724 18.2321 24.8267 17.6928 26.6531C17.5516 27.1315 17.3772 27.6004 17.2503 28.0819C16.4294 31.203 16.4756 34.2735 17.9353 37.2126C19.4358 40.2329 21.7639 42.1889 25.3038 42.6381Z" fill="#F8E4D2"/>
<path d="M24.5045 23.6707C26.3757 22.2836 28.4447 21.5677 30.7297 21.552C34.5691 21.5255 37.7637 23.7433 38.6926 27.2052C39.2535 29.2948 38.9137 31.2875 37.8776 33.1458C36.3067 35.9643 33.8522 37.6025 30.7266 38.2691C28.3407 38.7779 26.0758 38.4251 24.0306 37.0963C21.4461 35.4169 20.3517 32.9723 20.714 29.9265C21.026 27.3038 22.4216 25.2905 24.5045 23.6707Z" fill="#F8E4D2"/>
</svg>
